<svg width="85" height="128" viewBox="0 0 85 128" fill="none" xmlns="http://www.w3.org/2000/svg">
<path d="M83.5105 36.8623C87.5437 65.6897 65.8063 89.8533 49.3859 92.176C32.9656 94.4988 5.42883 77.1862 1.40349 48.4631C0.64582 43.045 0.957315 37.5299 2.32019 32.2328C3.68307 26.9356 6.07064 21.9602 9.34657 17.5905C12.6225 13.2208 16.7227 9.5424 21.4129 6.76539C26.1032 3.98838 31.2917 2.1671 36.6823 1.40556C42.0728 0.644007 47.5598 0.957097 52.83 2.32695C58.1001 3.6968 63.0502 6.09659 67.3977 9.3893C71.7451 12.682 75.4048 16.8031 78.1676 21.5174C80.9305 26.2317 82.7425 31.4468 83.5002 36.8649L83.5105 36.8623Z" fill="#0BC6D2" stroke="black" stroke-width="2" stroke-miterlimit="10"/>
<path d="M37.8889 77.2929C29.1904 73.8495 20.1156 65.8767 16.0909 54.6566" stroke="black" stroke-width="2" stroke-miterlimit="10" stroke-linecap="round"/>
<path d="M72.2626 126.758C63.8476 123.319 56.0349 116.161 52.1414 104.96" stroke="black" stroke-width="2" stroke-miterlimit="10" stroke-linecap="round"/>
<path d="M46.1862 92.7187L43.7576 105.798L60.5252 103.452L54.5688 91.5454L46.1862 92.7187Z" fill="#0BC6D2" stroke="black" stroke-width="2" stroke-linecap="round" stroke-linejoin="round"/>
</svg>
