<svg width="107" height="101" viewBox="0 0 107 101" fill="none" xmlns="http://www.w3.org/2000/svg">
<path d="M53 15L53.5 33L53 59L76 60L101 24.5V19.5L53 15Z" fill="#BC0505"/>
<path d="M52.8708 14.8181L53.369 31.9233" stroke="black" stroke-width="2" stroke-miterlimit="10" stroke-linecap="round"/>
<path d="M49.6463 96.8523L79.8138 99.5148C81.562 99.6691 83.3054 99.1403 84.6945 98.0345C86.0835 96.9288 87.0156 95.3277 87.3039 93.5523L101.681 19.126" fill="#CD0C0C"/>
<path d="M49.6463 96.8523L79.8138 99.5148C81.562 99.6691 83.3054 99.1403 84.6945 98.0345C86.0835 96.9288 87.0156 95.3277 87.3039 93.5523L101.681 19.126L53 15" stroke="black" stroke-width="2" stroke-miterlimit="10" stroke-linecap="round"/>
<path d="M80.7624 17.2798L85.4998 4.04502L96.2027 1.57642" stroke="black" stroke-width="2" stroke-linecap="round" stroke-linejoin="round"/>
<path d="M49.8824 14.5544L105.666 19.4777" stroke="black" stroke-width="2" stroke-miterlimit="10" stroke-linecap="round"/>
<path d="M64.9108 83.1412C64.1824 91.3943 59.0397 97.6813 51.2466 96.9935L22.1466 94.4252C14.3535 93.7374 10.3915 86.6468 11.1199 78.3937" fill="#F1E2C6"/>
<path d="M64.9108 83.1412C64.1824 91.3943 59.0397 97.6813 51.2466 96.9935L22.1466 94.4252C14.3535 93.7374 10.3915 86.6468 11.1199 78.3937" stroke="black" stroke-width="2" stroke-miterlimit="10" stroke-linecap="round"/>
<path d="M69.3463 66.4666C73.2228 66.8087 76.032 70.8773 75.6193 75.5533C75.2066 80.2292 71.7282 83.7429 67.8517 83.4007L8.1789 78.1342C4.30236 77.7921 1.49317 73.7235 1.90585 69.0475C2.31854 64.3716 5.79693 60.8579 9.67347 61.2" fill="#4B2B29"/>
<path d="M69.3463 66.4666C73.2228 66.8087 76.032 70.8773 75.6193 75.5533C75.2066 80.2292 71.7282 83.7429 67.8517 83.4007L8.1789 78.1342C4.30236 77.7921 1.49317 73.7235 1.90585 69.0475C2.31854 64.3716 5.79693 60.8579 9.67347 61.2" stroke="black" stroke-width="2" stroke-miterlimit="10" stroke-linecap="round"/>
<path d="M71.0989 66.6498L34.9683 63.461C34.5034 63.4202 34.0407 63.5734 33.6815 63.8871L27.2535 69.5082C27.1645 69.5861 27.0617 69.6451 26.9511 69.6818C26.8405 69.7184 26.7242 69.7321 26.6089 69.7219C26.4936 69.7117 26.3815 69.6779 26.279 69.6224C26.1766 69.567 26.0857 69.4909 26.0117 69.3986L20.6676 62.7386C20.3689 62.3668 19.9402 62.1349 19.4753 62.0936L7.91592 61.0734C6.51949 60.9502 5.23133 60.2532 4.33482 59.136C3.4383 58.0187 3.00688 56.5726 3.13545 55.1159C3.26403 53.6591 3.94206 52.3109 5.0204 51.3679C6.09874 50.425 7.48906 49.9645 8.88549 50.0877L72.0685 55.6641C73.4649 55.7873 74.753 56.4842 75.6496 57.6015C76.5461 58.7187 76.9775 60.1648 76.8489 61.6216C76.7203 63.0784 76.0423 64.4266 74.964 65.3695C73.8856 66.3125 72.4953 66.773 71.0989 66.6498Z" fill="#E7C200" stroke="black" stroke-width="2" stroke-miterlimit="10" stroke-linecap="round"/>
<path d="M10.5 49.5L10.861 47.2031C11.8971 35.463 22.3274 30.1924 34.4127 31.259L50.2336 32.6554C62.319 33.722 71.6607 40.7849 70.6245 52.525L70.6245 55" fill="#F1E2C6"/>
<path d="M10.5 49.5L10.861 47.2031C11.8971 35.463 22.3274 30.1924 34.4127 31.259L50.2336 32.6554C62.319 33.722 71.6607 40.7849 70.6245 52.525L70.6245 55" stroke="black" stroke-width="2" stroke-miterlimit="10" stroke-linecap="round"/>
</svg>
