<svg width="122" height="92" viewBox="0 0 122 92" fill="none" xmlns="http://www.w3.org/2000/svg">
<path d="M113.691 38.2014C106.805 18.1175 98.5359 5.73904 87.2769 3.75495C85.0972 3.37885 82.8738 3.31811 80.6757 3.57462C73.9738 4.32309 69.1275 8.87547 57.1917 10.2085C45.2559 11.5415 39.5147 8.17149 32.8228 8.91885C30.5304 9.16294 28.2829 9.72275 26.1449 10.5822C15.586 15.0029 10.3104 28.9066 7.97092 50.0082C5.5835 71.5615 8.2961 88.0778 17.9088 90.2332C24.6378 91.738 29.9178 86.4828 34.6485 79.0879C40.0166 70.6667 47.425 67.4326 63.3835 65.6504C79.3419 63.8681 86.9822 65.4216 94.0858 72.45C100.327 78.6245 106.844 82.5045 112.914 79.6631C122.75 75.0524 120.804 58.9443 113.691 38.2014Z" fill="#E6E6E6" stroke="black" stroke-width="2" stroke-miterlimit="10"/>
<path d="M71.726 42.81C74.4704 42.5035 76.4467 40.0303 76.1402 37.286C75.8337 34.5416 73.3605 32.5653 70.6161 32.8718C67.8718 33.1783 65.8955 35.6515 66.202 38.3959C66.5085 41.1402 68.9817 43.1165 71.726 42.81Z" fill="#3E4BBB"/>
<path d="M82.7741 51.6383C81.7908 51.7482 80.797 51.5638 79.9185 51.1085C79.0401 50.6532 78.3164 49.9475 77.8392 49.0808C77.362 48.214 77.1526 47.2252 77.2377 46.2394C77.3228 45.2536 77.6984 44.3153 78.317 43.5431C78.9356 42.7709 79.7695 42.1996 80.7129 41.9015C81.6564 41.6034 82.6671 41.592 83.6171 41.8686C84.5671 42.1453 85.4136 42.6975 86.0496 43.4555C86.6855 44.2135 87.0823 45.1431 87.1897 46.1267C87.3333 47.4428 86.9491 48.7622 86.1214 49.7954C85.2936 50.8286 84.0899 51.4914 82.7741 51.6383Z" fill="#2FB60D"/>
<path d="M80.7974 30.6633C83.5418 30.3568 85.518 27.8836 85.2116 25.1393C84.9051 22.3949 82.4319 20.4186 79.6875 20.7251C76.9431 21.0316 74.9668 23.5048 75.2733 26.2492C75.5798 28.9935 78.053 30.9698 80.7974 30.6633Z" fill="#FFF500"/>
<path d="M91.6024 40.5902C94.3468 40.2837 96.3231 37.8105 96.0166 35.0662C95.7101 32.3218 93.2369 30.3455 90.4925 30.652C87.7482 30.9585 85.7719 33.4317 86.0784 36.1761C86.3849 38.9204 88.8581 40.8967 91.6024 40.5902Z" fill="#D20000"/>
<path d="M35.9731 27.8227L38.5207 50.634" stroke="black" stroke-width="2" stroke-linecap="round" stroke-linejoin="round"/>
<path d="M48.0802 38.5887L25.2689 41.1362" stroke="black" stroke-width="2" stroke-linecap="round" stroke-linejoin="round"/>
</svg>
