<svg width="99" height="92" viewBox="0 0 99 92" fill="none" xmlns="http://www.w3.org/2000/svg">
<path d="M3.58607 37.092L50.6756 86.2333C51.0181 86.5925 51.4392 86.8684 51.9064 87.0398C52.3737 87.2111 52.8745 87.2734 53.3702 87.2217C53.8659 87.17 54.3431 87.0057 54.7649 86.7415C55.1867 86.4774 55.5418 86.1205 55.8027 85.6984L91.7341 27.8949C92.0871 27.3246 92.2573 26.6613 92.2218 25.9931C92.1864 25.3249 91.9471 24.6836 91.5357 24.1543L75.0999 3.05057C74.7613 2.61368 74.3157 2.27019 73.8055 2.05272C73.2953 1.83525 72.7375 1.75104 72.1849 1.80806L17.3292 7.5315C16.7767 7.58977 16.2483 7.78733 15.794 8.10543C15.3396 8.42353 14.9746 8.8516 14.7334 9.34898L3.00804 33.391C2.71474 33.9938 2.61296 34.6707 2.71621 35.3318C2.81946 35.9929 3.12285 36.6068 3.58607 37.092V37.092Z" fill="#CBFFFF" stroke="black" stroke-width="2" stroke-linecap="round" stroke-linejoin="round"/>
<path d="M5.57812 33.8933L89.1246 25.1764Z" fill="#CBFFFF"/>
<path d="M5.57812 33.8933L89.1246 25.1764" stroke="black" stroke-width="2" stroke-linecap="round" stroke-linejoin="round"/>
<path d="M73.9248 4.76851L66.5804 27.5285L44.7571 4.6698" fill="#CBFFFF"/>
<path d="M73.9248 4.76851L66.5804 27.5285L44.7571 4.6698" stroke="black" stroke-width="2" stroke-linecap="round" stroke-linejoin="round"/>
<path d="M16.2379 10.7873L28.1224 31.5411L44.757 4.66978" fill="#CBFFFF"/>
<path d="M16.2379 10.7873L28.1224 31.5411L44.757 4.66978" stroke="black" stroke-width="2" stroke-linecap="round" stroke-linejoin="round"/>
<path d="M53.0589 84.2379L28.454 31.5065Z" fill="#CBFFFF"/>
<path d="M53.0589 84.2379L28.454 31.5065" stroke="black" stroke-width="2" stroke-linecap="round" stroke-linejoin="round"/>
<path d="M53.0588 84.2379L66.2487 27.5631Z" fill="#CBFFFF"/>
<path d="M53.0588 84.2379L66.2487 27.5631" stroke="black" stroke-width="2" stroke-linecap="round" stroke-linejoin="round"/>
</svg>
