<svg width="88" height="95" viewBox="0 0 88 95" fill="none" xmlns="http://www.w3.org/2000/svg">
<path d="M86.8545 66.5847V28.4063C86.8529 27.1567 86.5242 25.9293 85.9009 24.8463C85.2776 23.7632 84.3815 22.8624 83.3018 22.2333L49.3177 2.45544C47.6804 1.5022 45.8196 1 43.925 1C42.0304 1 40.1696 1.5022 38.5323 2.45544L4.55268 22.2333C3.47299 22.8624 2.5769 23.7632 1.9536 24.8463C1.3303 25.9293 1.00152 27.1567 1 28.4063V66.5847C1.00074 67.835 1.32915 69.0634 1.95249 70.1472C2.57583 71.2311 3.47234 72.1327 4.55268 72.7622L38.5367 92.54C40.1745 93.4919 42.0351 93.9934 43.9295 93.9934C45.8238 93.9934 47.6844 93.4919 49.3222 92.54L83.3063 72.7622C84.3858 72.1322 85.2814 71.2303 85.9039 70.1465C86.5265 69.0626 86.8542 67.8346 86.8545 66.5847Z" fill="white" stroke="black" stroke-width="2" stroke-linecap="round" stroke-linejoin="round"/>
<path d="M2.11792 24.6904L43.9273 49.2841L85.7366 24.6904" fill="white"/>
<path d="M2.11792 24.6904L43.9273 49.2841L85.7366 24.6904" stroke="black" stroke-width="2" stroke-linecap="round" stroke-linejoin="round"/>
<path d="M43.9272 94V49.2841Z" fill="white"/>
<path d="M43.9272 94V49.2841" stroke="black" stroke-width="2" stroke-linecap="round" stroke-linejoin="round"/>
<path d="M43.9272 27.8228C46.8908 27.8228 49.2931 26.2212 49.2931 24.2455C49.2931 22.2698 46.8908 20.6682 43.9272 20.6682C40.9637 20.6682 38.5613 22.2698 38.5613 24.2455C38.5613 26.2212 40.9637 27.8228 43.9272 27.8228Z" fill="black"/>
<path d="M33.1954 61.8068C35.171 61.8068 36.7726 59.4044 36.7726 56.4409C36.7726 53.4774 35.171 51.075 33.1954 51.075C31.2197 51.075 29.6181 53.4774 29.6181 56.4409C29.6181 59.4044 31.2197 61.8068 33.1954 61.8068Z" fill="black"/>
<path d="M11.7318 68.9614C13.7075 68.9614 15.3091 66.559 15.3091 63.5954C15.3091 60.6319 13.7075 58.2295 11.7318 58.2295C9.75614 58.2295 8.15454 60.6319 8.15454 63.5954C8.15454 66.559 9.75614 68.9614 11.7318 68.9614Z" fill="black"/>
<path d="M54.6591 61.8068C56.6347 61.8068 58.2363 59.4044 58.2363 56.4409C58.2363 53.4774 56.6347 51.075 54.6591 51.075C52.6834 51.075 51.0818 53.4774 51.0818 56.4409C51.0818 59.4044 52.6834 61.8068 54.6591 61.8068Z" fill="black"/>
<path d="M76.1227 49.2864C78.0984 49.2864 79.6999 46.884 79.6999 43.9205C79.6999 40.957 78.0984 38.5546 76.1227 38.5546C74.147 38.5546 72.5454 40.957 72.5454 43.9205C72.5454 46.884 74.147 49.2864 76.1227 49.2864Z" fill="black"/>
<path d="M54.6591 81.4818C56.6347 81.4818 58.2363 79.0794 58.2363 76.1159C58.2363 73.1524 56.6347 70.75 54.6591 70.75C52.6834 70.75 51.0818 73.1524 51.0818 76.1159C51.0818 79.0794 52.6834 81.4818 54.6591 81.4818Z" fill="black"/>
<path d="M76.1227 68.9614C78.0984 68.9614 79.6999 66.559 79.6999 63.5954C79.6999 60.6319 78.0984 58.2295 76.1227 58.2295C74.147 58.2295 72.5454 60.6319 72.5454 63.5954C72.5454 66.559 74.147 68.9614 76.1227 68.9614Z" fill="black"/>
</svg>
