<svg width="117" height="100" viewBox="0 0 117 100" fill="none" xmlns="http://www.w3.org/2000/svg">
<path d="M47.1003 31.2652C38.4362 37.6696 33.3944 48.7617 30.1169 54.8678C28.1207 54.1551 26.0835 53.5607 24.016 53.0876C14.9677 51.0009 6.42439 53.8941 6.42439 53.8941C6.42439 53.8941 12.725 62.7214 20.7015 65.6517C17.2711 73.4278 19.2467 84.0916 19.2467 84.0916C19.2467 84.0916 27.2616 79.954 32.0441 71.9944C33.1304 70.1938 34.1094 68.3314 34.9758 66.4168C41.6375 68.3071 53.1658 72.3856 63.8037 70.6031L65.2577 82.4862C72.2214 78.0404 77.4047 69.4018 79.3981 65.7115C103.525 54.1836 105.988 34.6098 104.141 30.2599C102.375 26.0992 86.4999 14.0891 61.5258 23.4144C57.5576 22.3113 47.6619 20.0263 39.5602 21.9663L47.1003 31.2652Z" fill="#F78704" stroke="black" stroke-width="2" stroke-linejoin="round"/>
<path d="M88.9729 37.3061C90.6725 36.5845 91.4652 34.6217 90.7436 32.9222C90.0219 31.2226 88.0592 30.4299 86.3596 31.1515C84.6601 31.8732 83.8674 33.8359 84.589 35.5355C85.3106 37.235 87.2734 38.0277 88.9729 37.3061Z" fill="black"/>
<path d="M89.6325 58.8187C83.8253 54.4805 79.2761 48.685 76.446 42.0199C73.6159 35.3547 72.6054 28.0566 73.5171 20.8655" stroke="black" stroke-width="2" stroke-miterlimit="20" stroke-linecap="round"/>
</svg>
