<svg width="99" height="126" viewBox="0 0 99 126" fill="none" xmlns="http://www.w3.org/2000/svg">
<path d="M80.0886 58.0108L41.0376 119.364L24.223 49.5683" fill="#F1E2C6"/>
<path d="M80.0886 58.0108L41.0376 119.364L24.223 49.5683" stroke="black" stroke-width="2" stroke-linecap="round" stroke-linejoin="round"/>
<path d="M61.6612 56.2999C59.1212 60.0892 54.5096 62.5343 49.7061 61.8084C46.4253 61.3125 43.1336 59.5326 41.6536 58.0881C40.2915 56.7613 38.1396 56.9825 37.7606 59.4901L35.411 75.0376C35.1654 76.6316 34.2997 78.0638 33.0031 79.0213C31.7065 79.9787 30.0843 80.3837 28.4909 80.1476V80.1476C26.8989 79.9023 25.4688 79.0361 24.513 77.7382C23.5572 76.4404 23.1534 74.8163 23.3897 73.2209L25.5119 59.178L25.011 59.1023C16.1578 57.7644 10.5692 49.5713 11.9089 40.7068C12.5521 36.4503 14.8577 32.6234 18.3185 30.0679C21.7792 27.5124 26.1117 26.4376 30.3627 27.0801L32.3662 27.3828L32.6694 25.3767C33.5538 19.5241 36.724 14.2621 41.4826 10.7482C46.2411 7.23442 52.1982 5.75663 58.0433 6.63996C63.8884 7.52329 69.1428 10.6954 72.6505 15.4584C76.1582 20.2215 77.632 26.1853 76.7475 32.0379L76.4443 34.044L78.4479 34.3468C82.6989 34.9892 86.5202 37.2962 89.0713 40.7603C91.6224 44.2243 92.6942 48.5616 92.0509 52.8181C91.4077 57.0745 89.1021 60.9014 85.6413 63.4569C82.1806 66.0125 77.8482 67.0872 73.5972 66.4448C68.1425 65.6205 63.5712 61.5952 61.6583 56.302L61.6612 56.2999Z" fill="#FFC5EF" stroke="black" stroke-width="2" stroke-linecap="round" stroke-linejoin="round"/>
</svg>
