<svg width="82" height="109" viewBox="0 0 82 109" fill="none" xmlns="http://www.w3.org/2000/svg">
<path d="M60.9384 2.01222L1.00753 62.1149L32.0428 65.3165L20.0778 106.453C20.0548 106.534 20.0498 106.619 20.0632 106.702C20.0766 106.785 20.108 106.864 20.1553 106.933C20.2026 107.003 20.2645 107.061 20.3368 107.104C20.4091 107.147 20.4899 107.174 20.5736 107.182V107.182C20.6627 107.191 20.7526 107.179 20.8363 107.148C20.9199 107.116 20.995 107.065 21.0556 106.999L80.9926 46.8851L49.9573 43.6835L61.9591 2.54556C61.9781 2.46309 61.9792 2.37753 61.9625 2.29457C61.9457 2.21162 61.9115 2.13317 61.862 2.06443C61.8125 1.9957 61.749 1.93826 61.6756 1.89594C61.6021 1.85362 61.5205 1.82738 61.4362 1.81897V1.81897C61.3438 1.80981 61.2506 1.82254 61.1641 1.85612C61.0776 1.8897 61.0003 1.94318 60.9384 2.01222V2.01222Z" fill="#FFC700" stroke="black" stroke-width="2" stroke-linecap="round" stroke-linejoin="round"/>
</svg>
