<svg width="145" height="72" viewBox="0 0 145 72" fill="none" xmlns="http://www.w3.org/2000/svg">
<path d="M12.375 33C12.1641 32.6133 11.9766 32.0449 11.8125 31.2949C10.7227 32.666 9.19922 33.3516 7.24219 33.3516C5.44922 33.3516 3.92578 32.8125 2.67188 31.7344C1.41797 30.6445 0.791016 29.2793 0.791016 27.6387C0.791016 25.5762 1.55273 24.0176 3.07617 22.9629C4.59961 21.9082 6.81445 21.3809 9.7207 21.3809H11.5488V20.3789C11.5488 18.6328 10.793 17.7598 9.28125 17.7598C7.875 17.7598 7.17188 18.4512 7.17188 19.834H1.24805C1.24805 17.9941 2.02734 16.5 3.58594 15.3516C5.15625 14.2031 7.1543 13.6289 9.58008 13.6289C12.0059 13.6289 13.9219 14.2207 15.3281 15.4043C16.7344 16.5879 17.4551 18.2109 17.4902 20.2734V28.6934C17.5137 30.4395 17.7832 31.7754 18.2988 32.7012V33H12.375ZM8.66602 29.1328C9.4043 29.1328 10.0137 28.9746 10.4941 28.6582C10.9863 28.3418 11.3379 27.9844 11.5488 27.5859V24.5449H9.82617C7.76367 24.5449 6.73242 25.4707 6.73242 27.3223C6.73242 27.8613 6.91406 28.3008 7.27734 28.6406C7.64062 28.9688 8.10352 29.1328 8.66602 29.1328ZM20.0918 23.3496C20.0918 21.4277 20.4082 19.7285 21.041 18.252C21.6738 16.7754 22.582 15.6387 23.7656 14.8418C24.9492 14.0332 26.3262 13.6289 27.8965 13.6289C29.877 13.6289 31.4238 14.2969 32.5371 15.6328L32.748 13.9805H38.127V32.2793C38.127 33.9551 37.7344 35.4082 36.9492 36.6387C36.1758 37.8809 35.0508 38.8301 33.5742 39.4863C32.0977 40.1543 30.3867 40.4883 28.4414 40.4883C27.0469 40.4883 25.6934 40.2246 24.3809 39.6973C23.0801 39.1699 22.084 38.4844 21.3926 37.6406L23.8711 34.1602C24.9727 35.4609 26.4258 36.1113 28.2305 36.1113C30.8555 36.1113 32.168 34.7637 32.168 32.0684V31.4707C31.0312 32.7246 29.5957 33.3516 27.8613 33.3516C25.541 33.3516 23.666 32.4668 22.2363 30.6973C20.8066 28.916 20.0918 26.5371 20.0918 23.5605V23.3496ZM26.0332 23.7188C26.0332 25.2773 26.3262 26.5137 26.9121 27.4277C27.498 28.3301 28.3184 28.7812 29.373 28.7812C30.6504 28.7812 31.582 28.3535 32.168 27.498V19.5C31.5938 18.6328 30.6738 18.1992 29.4082 18.1992C28.3535 18.1992 27.5273 18.6738 26.9297 19.623C26.332 20.5605 26.0332 21.9258 26.0332 23.7188ZM46.9336 13.9805L47.127 16.2129C48.4395 14.4902 50.25 13.6289 52.5586 13.6289C54.5391 13.6289 56.0156 14.2207 56.9883 15.4043C57.9727 16.5879 58.4824 18.3691 58.5176 20.748V33H52.5762V20.9941C52.5762 20.0332 52.3828 19.3301 51.9961 18.8848C51.6094 18.4277 50.9062 18.1992 49.8867 18.1992C48.7266 18.1992 47.8652 18.6562 47.3027 19.5703V33H41.3789V13.9805H46.9336ZM71.0156 33.3516C68.0977 33.3516 65.7363 32.4844 63.9316 30.75C62.127 29.0039 61.2246 26.7363 61.2246 23.9473V23.4551C61.2246 21.5098 61.582 19.793 62.2969 18.3047C63.0234 16.8164 64.0781 15.668 65.4609 14.8594C66.8438 14.0391 68.4844 13.6289 70.3828 13.6289C73.0547 13.6289 75.1641 14.4609 76.7109 16.125C78.2578 17.7773 79.0312 20.0859 79.0312 23.0508V25.3535H67.2539C67.4648 26.4199 67.9277 27.2578 68.6426 27.8672C69.3574 28.4766 70.2832 28.7812 71.4199 28.7812C73.2949 28.7812 74.7598 28.125 75.8145 26.8125L78.5215 30.0117C77.7832 31.0312 76.7344 31.8457 75.375 32.4551C74.0273 33.0527 72.5742 33.3516 71.0156 33.3516ZM70.3477 18.1992C68.6133 18.1992 67.582 19.3477 67.2539 21.6445H73.2305V21.1875C73.2539 20.2383 73.0137 19.5059 72.5098 18.9902C72.0059 18.4629 71.2852 18.1992 70.3477 18.1992ZM91.3887 27.6562C91.3887 27.1523 91.125 26.748 90.5977 26.4434C90.0703 26.1387 89.0684 25.8223 87.5918 25.4941C86.1152 25.166 84.8965 24.7383 83.9355 24.2109C82.9746 23.6719 82.2422 23.0215 81.7383 22.2598C81.2344 21.498 80.9824 20.625 80.9824 19.6406C80.9824 17.8945 81.7031 16.459 83.1445 15.334C84.5859 14.1973 86.4727 13.6289 88.8047 13.6289C91.3125 13.6289 93.3281 14.1973 94.8516 15.334C96.375 16.4707 97.1367 17.9648 97.1367 19.8164H91.1953C91.1953 18.293 90.3926 17.5312 88.7871 17.5312C88.166 17.5312 87.6445 17.707 87.2227 18.0586C86.8008 18.3984 86.5898 18.8262 86.5898 19.3418C86.5898 19.8691 86.8477 20.2969 87.3633 20.625C87.8789 20.9531 88.6992 21.2227 89.8242 21.4336C90.9609 21.6445 91.957 21.8965 92.8125 22.1895C95.6719 23.1738 97.1016 24.9375 97.1016 27.4805C97.1016 29.2148 96.3281 30.627 94.7812 31.7168C93.2461 32.8066 91.2539 33.3516 88.8047 33.3516C87.1758 33.3516 85.7227 33.0586 84.4453 32.4727C83.168 31.8867 82.1719 31.0898 81.457 30.082C80.7422 29.0742 80.3848 28.0137 80.3848 26.9004H85.9219C85.9453 27.7793 86.2383 28.4238 86.8008 28.834C87.3633 29.2324 88.084 29.4316 88.9629 29.4316C89.7715 29.4316 90.375 29.2676 90.7734 28.9395C91.1836 28.6113 91.3887 28.1836 91.3887 27.6562Z" fill="black"/>
<path d="M9.79883 55.916L8.12891 57.5859V63H2.20508V35.9824H8.12891V50.3262L8.72656 49.5352L13.1914 43.9805H20.293L13.6309 51.8027L20.7324 63H13.9473L9.79883 55.916ZM32.5625 63C32.3516 62.6133 32.1641 62.0449 32 61.2949C30.9102 62.666 29.3867 63.3516 27.4297 63.3516C25.6367 63.3516 24.1133 62.8125 22.8594 61.7344C21.6055 60.6445 20.9785 59.2793 20.9785 57.6387C20.9785 55.5762 21.7402 54.0176 23.2637 52.9629C24.7871 51.9082 27.002 51.3809 29.9082 51.3809H31.7363V50.3789C31.7363 48.6328 30.9805 47.7598 29.4688 47.7598C28.0625 47.7598 27.3594 48.4512 27.3594 49.834H21.4355C21.4355 47.9941 22.2148 46.5 23.7734 45.3516C25.3438 44.2031 27.3418 43.6289 29.7676 43.6289C32.1934 43.6289 34.1094 44.2207 35.5156 45.4043C36.9219 46.5879 37.6426 48.2109 37.6777 50.2734V58.6934C37.7012 60.4395 37.9707 61.7754 38.4863 62.7012V63H32.5625ZM28.8535 59.1328C29.5918 59.1328 30.2012 58.9746 30.6816 58.6582C31.1738 58.3418 31.5254 57.9844 31.7363 57.5859V54.5449H30.0137C27.9512 54.5449 26.9199 55.4707 26.9199 57.3223C26.9199 57.8613 27.1016 58.3008 27.4648 58.6406C27.8281 58.9688 28.291 59.1328 28.8535 59.1328ZM47.2227 63H41.2812V36H47.2227V63ZM60.8457 57.6562C60.8457 57.1523 60.582 56.748 60.0547 56.4434C59.5273 56.1387 58.5254 55.8223 57.0488 55.4941C55.5723 55.166 54.3535 54.7383 53.3926 54.2109C52.4316 53.6719 51.6992 53.0215 51.1953 52.2598C50.6914 51.498 50.4395 50.625 50.4395 49.6406C50.4395 47.8945 51.1602 46.459 52.6016 45.334C54.043 44.1973 55.9297 43.6289 58.2617 43.6289C60.7695 43.6289 62.7852 44.1973 64.3086 45.334C65.832 46.4707 66.5938 47.9648 66.5938 49.8164H60.6523C60.6523 48.293 59.8496 47.5312 58.2441 47.5312C57.623 47.5312 57.1016 47.707 56.6797 48.0586C56.2578 48.3984 56.0469 48.8262 56.0469 49.3418C56.0469 49.8691 56.3047 50.2969 56.8203 50.625C57.3359 50.9531 58.1562 51.2227 59.2812 51.4336C60.418 51.6445 61.4141 51.8965 62.2695 52.1895C65.1289 53.1738 66.5586 54.9375 66.5586 57.4805C66.5586 59.2148 65.7852 60.627 64.2383 61.7168C62.7031 62.8066 60.7109 63.3516 58.2617 63.3516C56.6328 63.3516 55.1797 63.0586 53.9023 62.4727C52.625 61.8867 51.6289 61.0898 50.9141 60.082C50.1992 59.0742 49.8418 58.0137 49.8418 56.9004H55.3789C55.4023 57.7793 55.6953 58.4238 56.2578 58.834C56.8203 59.2324 57.541 59.4316 58.4199 59.4316C59.2285 59.4316 59.832 59.2676 60.2305 58.9395C60.6406 58.6113 60.8457 58.1836 60.8457 57.6562ZM76.2441 39.252V43.9805H79.373V48.0938H76.2441V56.7949C76.2441 57.5098 76.373 58.0078 76.6309 58.2891C76.8887 58.5703 77.3984 58.7109 78.1602 58.7109C78.7461 58.7109 79.2383 58.6758 79.6367 58.6055V62.8418C78.5703 63.1816 77.457 63.3516 76.2969 63.3516C74.2578 63.3516 72.752 62.8711 71.7793 61.9102C70.8066 60.9492 70.3203 59.4902 70.3203 57.5332V48.0938H67.8945V43.9805H70.3203V39.252H76.2441ZM93.2246 49.3418L91.2734 49.2012C89.4102 49.2012 88.2148 49.7871 87.6875 50.959V63H81.7637V43.9805H87.3184L87.5117 46.4238C88.5078 44.5605 89.8965 43.6289 91.6777 43.6289C92.3105 43.6289 92.8613 43.6992 93.3301 43.8398L93.2246 49.3418ZM93.9805 53.3145C93.9805 51.416 94.3496 49.7285 95.0879 48.252C95.8262 46.7637 96.8867 45.6211 98.2695 44.8242C99.6523 44.0273 101.275 43.6289 103.139 43.6289C105.986 43.6289 108.23 44.5137 109.871 46.2832C111.512 48.041 112.332 50.4375 112.332 53.4727V53.6836C112.332 56.6484 111.506 59.0039 109.854 60.75C108.213 62.4844 105.986 63.3516 103.174 63.3516C100.467 63.3516 98.293 62.543 96.6523 60.9258C95.0117 59.2969 94.127 57.0938 93.998 54.3164L93.9805 53.3145ZM99.9043 53.6836C99.9043 55.4414 100.18 56.7305 100.73 57.5508C101.281 58.3711 102.096 58.7812 103.174 58.7812C105.283 58.7812 106.361 57.1582 106.408 53.9121V53.3145C106.408 49.9043 105.318 48.1992 103.139 48.1992C101.158 48.1992 100.086 49.6699 99.9219 52.6113L99.9043 53.6836ZM95.9492 39.0059C95.9492 38.3613 96.2012 37.8105 96.7051 37.3535C97.2207 36.8965 97.8535 36.668 98.6035 36.668C99.3535 36.668 99.9805 36.8965 100.484 37.3535C101 37.8105 101.258 38.3613 101.258 39.0059C101.258 39.6504 101 40.2012 100.484 40.6582C99.9805 41.1152 99.3535 41.3438 98.6035 41.3438C97.8535 41.3438 97.2207 41.1152 96.7051 40.6582C96.2012 40.2012 95.9492 39.6504 95.9492 39.0059ZM105.072 39.0059C105.072 38.3613 105.324 37.8105 105.828 37.3535C106.344 36.8965 106.977 36.668 107.727 36.668C108.477 36.668 109.104 36.8965 109.607 37.3535C110.123 37.8105 110.381 38.3613 110.381 39.0059C110.381 39.6504 110.123 40.2012 109.607 40.6582C109.104 41.1152 108.477 41.3438 107.727 41.3438C106.977 41.3438 106.344 41.1152 105.828 40.6582C105.324 40.2012 105.072 39.6504 105.072 39.0059ZM120.541 43.9805L120.734 46.2129C122.082 44.4902 123.893 43.6289 126.166 43.6289C128.568 43.6289 130.191 44.584 131.035 46.4941C132.324 44.584 134.188 43.6289 136.625 43.6289C140.48 43.6289 142.461 45.9609 142.566 50.625V63H136.625V50.9941C136.625 50.0215 136.461 49.3125 136.133 48.8672C135.805 48.4219 135.207 48.1992 134.34 48.1992C133.168 48.1992 132.295 48.7207 131.721 49.7637L131.738 50.0098V63H125.797V51.0293C125.797 50.0332 125.639 49.3125 125.322 48.8672C125.006 48.4219 124.402 48.1992 123.512 48.1992C122.375 48.1992 121.508 48.7207 120.91 49.7637V63H114.986V43.9805H120.541Z" fill="black"/>
</svg>