<svg width="100" height="105" viewBox="0 0 100 105" fill="none" xmlns="http://www.w3.org/2000/svg">
<path d="M86.9404 31.1993C78.0804 25.2059 68.2695 21.3515 57.0513 18.9855C45.8331 16.6194 34.4857 16.1903 24.7637 17.9983C22.9301 18.3318 21.1786 19.2063 21.8003 21.6289C22.3041 23.5968 33.6822 74.9452 38.2345 93.3644C38.3874 93.9865 38.7129 94.5528 39.1733 94.9982C39.6338 95.4435 40.2105 95.7499 40.8374 95.8821C41.4642 96.0143 42.1156 95.967 42.7167 95.7455C43.3178 95.524 43.8442 95.1374 44.2353 94.6301L88.0928 35.7416C89.0634 34.4405 88.9595 32.5635 86.9404 31.1993V31.1993Z" fill="#BA1C1C" stroke="black" stroke-width="2" stroke-miterlimit="10"/>
<path d="M95.3276 24.1514C85.3557 17.5525 72.5745 11.784 59.1666 8.95615C45.7586 6.12828 31.9943 6.01434 19.9461 8.12174C18.8816 8.31623 16.8497 8.85449 17.025 10.5173L17.9846 15.9836C18.459 17.8733 19.4348 18.0791 20.77 18.3606C21.144 18.4395 21.7104 18.3408 22.3871 18.226C33.8898 16.3387 45.6423 16.5962 57.0513 18.9855C68.9109 21.4868 80.5322 26.5567 89.0767 32.2871C89.7651 32.7378 90.1486 32.9889 90.5017 33.0634C91.8766 33.3534 92.5741 33.9784 93.9929 32.032L97.0954 27.4312C97.7798 26.2661 96.5296 24.9505 95.3276 24.1514Z" fill="#F1E2C6" stroke="black" stroke-width="2" stroke-miterlimit="10"/>
<path d="M38.0381 42.9099C41.7308 43.6888 45.3556 41.3266 46.1345 37.6339C46.9133 33.9412 44.5511 30.3163 40.8585 29.5375C37.1658 28.7587 33.5409 31.1208 32.7621 34.8135C31.9832 38.5062 34.3454 42.1311 38.0381 42.9099Z" fill="#C55239"/>
<path d="M64.0779 51.8938C67.7706 52.6726 71.3954 50.3105 72.1743 46.6178C72.9531 42.9251 70.5909 39.3002 66.8982 38.5214C63.2056 37.7425 59.5807 40.1047 58.8018 43.7974C58.023 47.4901 60.3852 51.115 64.0779 51.8938Z" fill="#C55239"/>
<path d="M45.7698 72.4751C49.4625 73.254 53.0873 70.8918 53.8662 67.1991C54.645 63.5064 52.2828 59.8815 48.5901 59.1027C44.8974 58.3239 41.2726 60.6861 40.4937 64.3787C39.7149 68.0714 42.0771 71.6963 45.7698 72.4751Z" fill="#C55239"/>
</svg>
