<svg width="102" height="102" viewBox="0 0 102 102" fill="none" xmlns="http://www.w3.org/2000/svg">
<path d="M100.473 2.35492C100.432 2.15748 100.336 1.97582 100.195 1.83134C100.055 1.68685 99.8761 1.58554 99.6799 1.53932C86.6075 -1.66051 56.4095 9.741 40.0316 26.1203C37.1127 29.0176 34.4512 32.1635 32.0771 35.5225C27.0289 35.0654 21.9806 35.4503 17.6825 37.3269C5.54509 42.668 2.01374 56.6173 1.02814 62.6056C0.97474 62.9337 0.997548 63.2697 1.0948 63.5876C1.19205 63.9055 1.36113 64.1967 1.58893 64.4386C1.81674 64.6806 2.09715 64.8668 2.40844 64.9828C2.71973 65.0988 3.05353 65.1416 3.38398 65.1077L22.8725 62.9665C22.886 64.4376 22.9742 65.9071 23.1369 67.3692C23.2386 68.3798 23.6892 69.3234 24.411 70.0374L31.9569 77.5894C32.6709 78.3124 33.6146 78.7633 34.6252 78.8646C36.0774 79.0267 37.5368 79.115 38.998 79.1292L36.8609 98.6169C36.8275 98.9472 36.8705 99.2808 36.9865 99.5918C37.1024 99.9028 37.2883 100.183 37.5297 100.411C37.7711 100.638 38.0616 100.807 38.3787 100.905C38.6958 101.002 39.0311 101.025 39.3585 100.972C45.3443 100.01 59.311 96.4757 64.6165 84.3307C66.4915 80.0242 66.8761 74.9983 66.4434 69.97C69.8095 67.5961 72.9619 64.9323 75.8644 62.0089C92.3023 45.6489 103.622 16.0901 100.473 2.35492ZM61.2534 40.8154C59.8176 39.3788 58.8397 37.5483 58.4435 35.5555C58.0472 33.5626 58.2504 31.4969 59.0272 29.6196C59.8041 27.7423 61.1197 26.1377 62.8078 25.0088C64.4959 23.8798 66.4805 23.2773 68.5108 23.2773C70.5411 23.2773 72.5257 23.8798 74.2138 25.0088C75.9019 26.1377 77.2175 27.7423 77.9944 29.6196C78.7712 31.4969 78.9744 33.5626 78.5781 35.5555C78.1818 37.5483 77.204 39.3788 75.7682 40.8154C74.8159 41.7706 73.6847 42.5284 72.4393 43.0454C71.194 43.5624 69.859 43.8285 68.5108 43.8285C67.1626 43.8285 65.8276 43.5624 64.5823 43.0454C63.3369 42.5284 62.2057 41.7706 61.2534 40.8154Z" fill="#93059F" stroke="black" stroke-width="2" stroke-linecap="round" stroke-linejoin="round"/>
<path d="M15.514 74.2759C13.097 74.5726 10.8483 75.6683 9.12524 77.389C4.85315 81.6756 4.44824 97.5517 4.44824 97.5517C4.44824 97.5517 20.334 97.1468 24.6085 92.8699C26.3362 91.1495 27.4338 88.8971 27.7241 86.4763" fill="#FF9900" stroke="black" stroke-width="2" stroke-linecap="round" stroke-linejoin="round"/>
</svg>
