<svg width="1085" height="1085" viewBox="0 0 1085 1085" fill="none" xmlns="http://www.w3.org/2000/svg">
<rect width="1085" height="1085" fill="#EC7474"/>
<g clip-path="url(#clip0_407_108)">
<path d="M518.93 526.35C525.723 526.35 531.23 515.999 531.23 503.23C531.23 490.461 525.723 480.11 518.93 480.11C512.137 480.11 506.63 490.461 506.63 503.23C506.63 515.999 512.137 526.35 518.93 526.35Z" fill="white"/>
<path d="M562.92 526.35C569.713 526.35 575.22 515.999 575.22 503.23C575.22 490.461 569.713 480.11 562.92 480.11C556.127 480.11 550.62 490.461 550.62 503.23C550.62 515.999 556.127 526.35 562.92 526.35Z" fill="white"/>
<path d="M594.96 541.23C596.565 549.123 596.401 557.274 594.48 565.097C592.559 572.919 588.929 580.219 583.851 586.472C578.773 592.724 572.373 597.774 565.11 601.258C557.848 604.742 549.904 606.574 541.849 606.622C533.795 606.671 525.829 604.934 518.526 601.537C511.222 598.14 504.762 593.167 499.609 586.975C494.457 580.784 490.74 573.528 488.726 565.729C486.711 557.93 486.45 549.782 487.96 541.87" stroke="white" stroke-width="5" stroke-miterlimit="10"/>
<path d="M478.1 538.17L499.73 542" stroke="white" stroke-width="5" stroke-miterlimit="10"/>
<path d="M605.32 537.17L583.69 541" stroke="white" stroke-width="5" stroke-miterlimit="10"/>
<path d="M541.67 636.34C594.385 636.34 637.12 593.606 637.12 540.89C637.12 488.174 594.385 445.44 541.67 445.44C488.954 445.44 446.22 488.174 446.22 540.89C446.22 593.606 488.954 636.34 541.67 636.34Z" stroke="white" stroke-width="5" stroke-miterlimit="10"/>
<path d="M423.85 503.551L426.645 499.461C428.957 500.887 430.484 502.586 431.225 504.557C431.96 506.515 431.954 508.729 431.207 511.201C430.283 514.259 428.479 516.467 425.794 517.827C423.099 519.183 419.934 519.331 416.301 518.271C412.457 517.15 409.773 515.29 408.249 512.692C406.715 510.091 406.435 507.178 407.41 503.952C408.261 501.135 409.787 499.09 411.988 497.818C413.292 497.059 414.947 496.687 416.954 496.702L416.666 501.627C415.387 501.55 414.269 501.845 413.313 502.512C412.361 503.168 411.698 504.115 411.324 505.35C410.809 507.057 411.004 508.624 411.91 510.051C412.819 511.467 414.65 512.576 417.401 513.379C420.321 514.23 422.559 514.313 424.114 513.627C425.67 512.942 426.701 511.761 427.207 510.085C427.58 508.85 427.508 507.672 426.989 506.552C426.47 505.432 425.424 504.432 423.85 503.551Z" fill="white"/>
<path d="M435.61 496.478L414.731 484.597L419.78 475.724C421.049 473.493 422.16 471.982 423.113 471.191C424.061 470.386 425.188 469.953 426.493 469.891C427.797 469.829 429.067 470.149 430.301 470.851C431.868 471.743 432.902 472.94 433.403 474.445C433.895 475.944 433.753 477.686 432.976 479.669C434.026 479.06 435.037 478.643 436.008 478.416C436.985 478.18 438.571 478.02 440.768 477.938L446.292 477.706L443.423 482.748L437.145 483.211C434.906 483.369 433.463 483.529 432.819 483.69C432.165 483.846 431.635 484.103 431.229 484.463C430.813 484.818 430.33 485.479 429.779 486.448L429.293 487.302L438.009 492.262L435.61 496.478ZM425.96 485.406L427.735 482.287C428.886 480.264 429.519 478.953 429.634 478.352C429.75 477.752 429.679 477.19 429.424 476.668C429.168 476.145 428.727 475.706 428.1 475.349C427.398 474.949 426.725 474.818 426.081 474.954C425.434 475.076 424.858 475.446 424.356 476.065C424.114 476.38 423.506 477.392 422.534 479.101L420.662 482.391L425.96 485.406Z" fill="white"/>
<path d="M448.691 474.643L430.836 458.571L442.752 445.332L445.773 448.051L437.101 457.685L441.06 461.248L449.128 452.283L452.137 454.991L444.068 463.955L448.928 468.33L457.906 458.354L460.915 461.062L448.691 474.643Z" fill="white"/>
<path d="M482.321 444.628L478.045 447.721L473.148 444.529L465.367 450.157L466.959 455.74L462.79 458.756L456.292 433.807L460.447 430.801L482.321 444.628ZM469.514 442.162L461.608 436.879L464.203 446.003L469.514 442.162Z" fill="white"/>
<path d="M488.679 441.591L480.296 423.428L473.809 426.422L472.102 422.724L489.475 414.706L491.181 418.404L484.71 421.391L493.092 439.553L488.679 441.591Z" fill="white"/>
<path d="M505.475 434.654L498.817 411.573L503.477 410.228L510.135 433.31L505.475 434.654Z" fill="white"/>
<path d="M523.744 430.414L512.395 407.729L517.587 407.1L525.715 423.922L529.394 405.669L534.473 405.053L528.855 429.794L523.744 430.414Z" fill="white"/>
<path d="M543.083 428.334L545.003 404.316L562.812 405.739L562.487 409.802L549.528 408.766L549.102 414.091L561.16 415.055L560.837 419.101L548.779 418.138L548.256 424.675L561.674 425.747L561.351 429.794L543.083 428.334Z" fill="white"/>
<path d="M594.781 430.87L598.603 433.997C596.962 436.168 595.123 437.537 593.086 438.103C591.063 438.663 588.852 438.466 586.454 437.513C583.488 436.332 581.451 434.351 580.346 431.57C579.244 428.778 579.393 425.624 580.791 422.109C582.271 418.39 584.379 415.887 587.115 414.599C589.856 413.3 592.791 413.273 595.92 414.518C598.653 415.606 600.552 417.297 601.616 419.591C602.252 420.95 602.468 422.625 602.265 424.615L597.375 423.906C597.572 422.642 597.382 421.508 596.805 420.501C596.239 419.5 595.357 418.76 594.158 418.283C592.502 417.624 590.919 417.683 589.41 418.459C587.911 419.24 586.632 420.961 585.573 423.623C584.449 426.447 584.157 428.661 584.696 430.264C585.235 431.867 586.317 432.992 587.943 433.639C589.141 434.116 590.324 434.145 591.491 433.727C592.658 433.308 593.754 432.356 594.781 430.87Z" fill="white"/>
<path d="M600.711 443.326L614.448 423.618L618.427 426.392L613.02 434.149L620.817 439.584L626.224 431.827L630.203 434.601L616.466 454.308L612.487 451.534L618.493 442.918L610.696 437.482L604.69 446.099L600.711 443.326Z" fill="white"/>
<path d="M637.234 475.459L633.699 471.554L636.332 466.346L629.898 459.24L624.532 461.429L621.084 457.621L645.13 448.45L648.567 452.245L637.234 475.459ZM638.284 462.482L642.663 454.06L633.892 457.632L638.284 462.482Z" fill="white"/>
<path d="M645.61 473.712L648.351 477.581C647.116 478.614 646.391 479.69 646.175 480.807C645.964 481.935 646.224 483.139 646.956 484.419C647.732 485.775 648.599 486.632 649.558 486.99C650.533 487.351 651.404 487.312 652.172 486.873C652.665 486.591 652.999 486.205 653.172 485.716C653.36 485.231 653.376 484.555 653.22 483.688C653.109 483.097 652.77 481.8 652.203 479.796C651.472 477.219 651.254 475.242 651.549 473.865C651.964 471.929 652.997 470.489 654.647 469.545C655.709 468.938 656.871 468.67 658.133 468.741C659.409 468.817 660.612 469.281 661.741 470.133C662.875 470.994 663.901 472.226 664.817 473.829C666.314 476.446 666.865 478.742 666.471 480.717C666.083 482.701 664.95 484.273 663.072 485.435L660.48 481.33C661.448 480.537 661.994 479.709 662.117 478.846C662.255 477.987 661.985 476.965 661.308 475.779C660.608 474.556 659.809 473.742 658.911 473.337C658.333 473.075 657.774 473.099 657.234 473.408C656.741 473.69 656.438 474.14 656.326 474.758C656.183 475.544 656.456 477.099 657.144 479.425C657.831 481.75 658.194 483.55 658.231 484.825C658.282 486.104 658.015 487.276 657.429 488.341C656.857 489.41 655.912 490.322 654.594 491.076C653.399 491.759 652.09 492.067 650.667 491.999C649.245 491.932 647.93 491.438 646.724 490.517C645.527 489.59 644.411 488.221 643.375 486.41C641.868 483.773 641.317 481.402 641.723 479.294C642.138 477.182 643.434 475.321 645.61 473.712Z" fill="white"/>
<path d="M650.65 499.417L673.468 492.21L678.813 509.129L674.953 510.348L671.063 498.036L666.005 499.634L669.623 511.09L665.779 512.304L662.16 500.848L655.95 502.81L659.976 515.558L656.132 516.772L650.65 499.417Z" fill="white"/>
<path d="M661.979 579.289L659.265 583.409C656.938 582.003 655.389 580.316 654.616 578.349C653.851 576.396 653.819 574.179 654.52 571.698C655.388 568.629 657.147 566.401 659.797 565.016C662.458 563.634 665.608 563.456 669.245 564.484C673.093 565.572 675.798 567.409 677.36 569.996C678.932 572.586 679.261 575.5 678.346 578.738C677.547 581.566 676.062 583.627 673.891 584.92C672.606 585.692 670.964 586.08 668.965 586.083L669.167 581.15C670.443 581.216 671.551 580.91 672.491 580.234C673.429 579.568 674.073 578.614 674.423 577.374C674.908 575.66 674.686 574.093 673.759 572.674C672.829 571.264 670.987 570.17 668.233 569.392C665.31 568.566 663.08 568.504 661.543 569.204C660.005 569.905 658.999 571.096 658.523 572.778C658.173 574.019 658.265 575.197 658.801 576.314C659.337 577.43 660.397 578.422 661.979 579.289Z" fill="white"/>
<path d="M650.347 586.507L671.487 598.038L666.587 607.022C665.355 609.281 664.269 610.815 663.328 611.624C662.392 612.449 661.271 612.903 659.965 612.989C658.658 613.075 657.38 612.777 656.13 612.095C654.544 611.23 653.486 610.048 652.956 608.549C652.436 607.056 652.548 605.308 653.291 603.305C652.249 603.935 651.243 604.372 650.274 604.616C649.3 604.871 647.713 605.059 645.513 605.181L639.981 605.513L642.765 600.408L649.048 599.832C651.29 599.632 652.733 599.446 653.376 599.273C654.029 599.105 654.555 598.837 654.955 598.469C655.365 598.107 655.838 597.435 656.373 596.455L656.844 595.589L648.019 590.776L650.347 586.507ZM660.219 597.43L658.496 600.588C657.379 602.635 656.769 603.961 656.664 604.565C656.559 605.169 656.639 605.731 656.905 606.25C657.171 606.769 657.621 607.201 658.255 607.548C658.967 607.936 659.643 608.055 660.286 607.907C660.932 607.773 661.502 607.391 661.995 606.762C662.232 606.442 662.822 605.417 663.766 603.687L665.583 600.356L660.219 597.43Z" fill="white"/>
<path d="M637.437 608.451L655.454 624.306L643.698 637.666L640.65 634.984L649.205 625.262L645.21 621.747L637.25 630.793L634.215 628.121L642.175 619.076L637.271 614.761L628.413 624.826L625.378 622.155L637.437 608.451Z" fill="white"/>
<path d="M604.217 638.92L608.453 635.773L613.391 638.903L621.099 633.176L619.436 627.613L623.566 624.545L630.382 649.408L626.265 652.467L604.217 638.92ZM617.054 641.223L625.027 646.405L622.316 637.314L617.054 641.223Z" fill="white"/>
<path d="M597.917 641.98L606.569 659.966L612.993 656.876L614.754 660.538L597.551 668.814L595.789 665.151L602.198 662.068L593.546 644.082L597.917 641.98Z" fill="white"/>
<path d="M581.224 649.272L588.19 672.33L583.535 673.737L576.569 650.679L581.224 649.272Z" fill="white"/>
<path d="M562.962 653.782L574.586 676.449L569.378 677.133L561.048 660.321L557.535 678.688L552.441 679.357L557.835 654.455L562.962 653.782Z" fill="white"/>
<path d="M543.685 655.943L542.005 679.964L524.194 678.719L524.478 674.655L537.439 675.562L537.811 670.236L525.752 669.393L526.035 665.346L538.094 666.189L538.552 659.651L525.132 658.713L525.415 654.665L543.685 655.943Z" fill="white"/>
<path d="M492.044 653.893L488.207 650.813C489.822 648.634 491.641 647.253 493.666 646.67C495.677 646.093 497.881 646.269 500.279 647.197C503.245 648.346 505.292 650.3 506.42 653.062C507.543 655.833 507.425 658.976 506.064 662.491C504.624 666.21 502.547 668.724 499.833 670.033C497.114 671.352 494.19 671.406 491.061 670.194C488.328 669.136 486.421 667.469 485.339 665.193C484.693 663.845 484.462 662.178 484.646 660.194L489.524 660.855C489.34 662.116 489.54 663.245 490.124 664.242C490.697 665.235 491.583 665.963 492.782 666.427C494.438 667.068 496.014 666.995 497.511 666.207C498.997 665.416 500.255 663.689 501.286 661.027C502.379 658.203 502.65 655.995 502.098 654.403C501.546 652.81 500.457 651.7 498.832 651.071C497.633 650.606 496.454 650.588 495.296 651.016C494.137 651.444 493.053 652.403 492.044 653.893Z" fill="white"/>
<path d="M485.809 641.782L472.341 661.745L468.31 659.025L473.611 651.168L465.713 645.839L460.412 653.696L456.381 650.977L469.85 631.014L473.881 633.734L467.992 642.462L475.89 647.791L481.779 639.062L485.809 641.782Z" fill="white"/>
<path d="M448.87 610.029L452.459 613.897L449.884 619.146L456.415 626.186L461.764 623.929L465.263 627.701L441.288 637.179L437.8 633.418L448.87 610.029ZM447.976 623.04L443.691 631.529L452.434 627.845L447.976 623.04Z" fill="white"/>
<path d="M440.598 611.914L437.797 608.09C439.014 607.038 439.722 605.952 439.92 604.831C440.113 603.7 439.834 602.501 439.082 601.233C438.285 599.89 437.405 599.047 436.44 598.705C435.46 598.359 434.59 598.412 433.829 598.863C433.341 599.153 433.014 599.543 432.848 600.035C432.668 600.523 432.662 601.199 432.832 602.063C432.953 602.652 433.312 603.944 433.911 605.938C434.682 608.502 434.932 610.475 434.659 611.856C434.274 613.798 433.265 615.253 431.63 616.223C430.578 616.847 429.421 617.133 428.159 617.082C426.882 617.026 425.672 616.582 424.53 615.748C423.383 614.905 422.338 613.69 421.397 612.102C419.859 609.51 419.271 607.223 419.634 605.244C419.99 603.254 421.098 601.664 422.957 600.473L425.613 604.535C424.658 605.343 424.125 606.18 424.016 607.044C423.891 607.905 424.177 608.923 424.874 610.097C425.592 611.309 426.404 612.11 427.309 612.501C427.89 612.753 428.448 612.72 428.984 612.402C429.472 612.113 429.767 611.658 429.87 611.039C429.999 610.251 429.702 608.7 428.978 606.387C428.254 604.074 427.863 602.281 427.806 601.007C427.734 599.729 427.982 598.553 428.552 597.479C429.106 596.401 430.036 595.475 431.342 594.701C432.525 593.999 433.829 593.67 435.252 593.715C436.675 593.76 437.997 594.233 439.217 595.134C440.428 596.041 441.566 597.392 442.63 599.186C444.178 601.798 444.766 604.16 444.394 606.272C444.012 608.391 442.747 610.271 440.598 611.914Z" fill="white"/>
<path d="M434.984 586.324L412.163 594.011L406.463 577.09L410.323 575.789L414.471 588.103L419.531 586.399L415.671 574.941L419.516 573.646L423.376 585.103L429.587 583.011L425.293 570.262L429.138 568.966L434.984 586.324Z" fill="white"/>
<path d="M417.7 545.83C420.169 545.83 422.17 543.829 422.17 541.36C422.17 538.891 420.169 536.89 417.7 536.89C415.232 536.89 413.23 538.891 413.23 541.36C413.23 543.829 415.232 545.83 417.7 545.83Z" fill="white"/>
<path d="M665.64 545.83C668.109 545.83 670.11 543.829 670.11 541.36C670.11 538.891 668.109 536.89 665.64 536.89C663.171 536.89 661.17 538.891 661.17 541.36C661.17 543.829 663.171 545.83 665.64 545.83Z" fill="white"/>
</g>
<defs>
<clipPath id="clip0_407_108">
<rect width="281.57" height="280.27" fill="white" transform="translate(402 402)"/>
</clipPath>
</defs>
</svg>
