<svg width="1085" height="1085" viewBox="0 0 1085 1085" fill="none" xmlns="http://www.w3.org/2000/svg">
<rect width="1085" height="1085" fill="#3A1C71"/>
<path d="M281.765 378.304C281.765 382.208 280.869 385.792 279.077 389.056C277.285 392.256 274.533 394.848 270.821 396.832C267.109 398.816 262.501 399.808 256.997 399.808H246.821V424H230.405V356.608H256.997C262.373 356.608 266.917 357.536 270.629 359.392C274.341 361.248 277.125 363.808 278.981 367.072C280.837 370.336 281.765 374.08 281.765 378.304ZM255.749 386.752C258.885 386.752 261.221 386.016 262.757 384.544C264.293 383.072 265.061 380.992 265.061 378.304C265.061 375.616 264.293 373.536 262.757 372.064C261.221 370.592 258.885 369.856 255.749 369.856H246.821V386.752H255.749ZM314.695 424.768C309.447 424.768 304.711 423.648 300.487 421.408C296.327 419.168 293.031 415.968 290.599 411.808C288.231 407.648 287.047 402.784 287.047 397.216C287.047 391.712 288.263 386.88 290.695 382.72C293.127 378.496 296.455 375.264 300.679 373.024C304.903 370.784 309.639 369.664 314.887 369.664C320.135 369.664 324.871 370.784 329.095 373.024C333.319 375.264 336.647 378.496 339.079 382.72C341.511 386.88 342.727 391.712 342.727 397.216C342.727 402.72 341.479 407.584 338.983 411.808C336.551 415.968 333.191 419.168 328.903 421.408C324.679 423.648 319.943 424.768 314.695 424.768ZM314.695 410.56C317.831 410.56 320.487 409.408 322.663 407.104C324.903 404.8 326.023 401.504 326.023 397.216C326.023 392.928 324.935 389.632 322.759 387.328C320.647 385.024 318.023 383.872 314.887 383.872C311.687 383.872 309.031 385.024 306.919 387.328C304.807 389.568 303.751 392.864 303.751 397.216C303.751 401.504 304.775 404.8 306.823 407.104C308.935 409.408 311.559 410.56 314.695 410.56ZM367.852 378.016C369.452 375.52 371.66 373.504 374.476 371.968C377.292 370.432 380.588 369.664 384.364 369.664C388.78 369.664 392.78 370.784 396.364 373.024C399.948 375.264 402.764 378.464 404.812 382.624C406.924 386.784 407.98 391.616 407.98 397.12C407.98 402.624 406.924 407.488 404.812 411.712C402.764 415.872 399.948 419.104 396.364 421.408C392.78 423.648 388.78 424.768 384.364 424.768C380.652 424.768 377.356 424 374.476 422.464C371.66 420.928 369.452 418.944 367.852 416.512V449.536H351.436V370.432H367.852V378.016ZM391.276 397.12C391.276 393.024 390.124 389.824 387.82 387.52C385.58 385.152 382.796 383.968 379.468 383.968C376.204 383.968 373.42 385.152 371.116 387.52C368.876 389.888 367.756 393.12 367.756 397.216C367.756 401.312 368.876 404.544 371.116 406.912C373.42 409.28 376.204 410.464 379.468 410.464C382.732 410.464 385.516 409.28 387.82 406.912C390.124 404.48 391.276 401.216 391.276 397.12ZM433.009 378.016C434.609 375.52 436.817 373.504 439.633 371.968C442.449 370.432 445.745 369.664 449.521 369.664C453.937 369.664 457.937 370.784 461.521 373.024C465.105 375.264 467.921 378.464 469.969 382.624C472.081 386.784 473.137 391.616 473.137 397.12C473.137 402.624 472.081 407.488 469.969 411.712C467.921 415.872 465.105 419.104 461.521 421.408C457.937 423.648 453.937 424.768 449.521 424.768C445.809 424.768 442.513 424 439.633 422.464C436.817 420.928 434.609 418.944 433.009 416.512V449.536H416.593V370.432H433.009V378.016ZM456.433 397.12C456.433 393.024 455.281 389.824 452.977 387.52C450.737 385.152 447.953 383.968 444.625 383.968C441.361 383.968 438.577 385.152 436.273 387.52C434.033 389.888 432.913 393.12 432.913 397.216C432.913 401.312 434.033 404.544 436.273 406.912C438.577 409.28 441.361 410.464 444.625 410.464C447.889 410.464 450.673 409.28 452.977 406.912C455.281 404.48 456.433 401.216 456.433 397.12ZM490.005 364.864C487.125 364.864 484.757 364.032 482.901 362.368C481.109 360.64 480.213 358.528 480.213 356.032C480.213 353.472 481.109 351.36 482.901 349.696C484.757 347.968 487.125 347.104 490.005 347.104C492.821 347.104 495.125 347.968 496.917 349.696C498.773 351.36 499.701 353.472 499.701 356.032C499.701 358.528 498.773 360.64 496.917 362.368C495.125 364.032 492.821 364.864 490.005 364.864ZM498.165 370.432V424H481.749V370.432H498.165ZM542.701 369.856C548.973 369.856 553.965 371.904 557.677 376C561.453 380.032 563.341 385.6 563.341 392.704V424H547.021V394.912C547.021 391.328 546.093 388.544 544.237 386.56C542.381 384.576 539.885 383.584 536.749 383.584C533.613 383.584 531.117 384.576 529.261 386.56C527.405 388.544 526.477 391.328 526.477 394.912V424H510.061V370.432H526.477V377.536C528.141 375.168 530.381 373.312 533.197 371.968C536.013 370.56 539.181 369.856 542.701 369.856ZM596.541 424.768C591.869 424.768 587.709 423.968 584.061 422.368C580.413 420.768 577.533 418.592 575.421 415.84C573.309 413.024 572.125 409.888 571.869 406.432H588.093C588.285 408.288 589.149 409.792 590.685 410.944C592.221 412.096 594.109 412.672 596.349 412.672C598.397 412.672 599.965 412.288 601.053 411.52C602.205 410.688 602.781 409.632 602.781 408.352C602.781 406.816 601.981 405.696 600.381 404.992C598.781 404.224 596.189 403.392 592.605 402.496C588.765 401.6 585.565 400.672 583.005 399.712C580.445 398.688 578.237 397.12 576.381 395.008C574.525 392.832 573.597 389.92 573.597 386.272C573.597 383.2 574.429 380.416 576.093 377.92C577.821 375.36 580.317 373.344 583.581 371.872C586.909 370.4 590.845 369.664 595.389 369.664C602.109 369.664 607.389 371.328 611.229 374.656C615.133 377.984 617.373 382.4 617.949 387.904H602.781C602.525 386.048 601.693 384.576 600.285 383.488C598.941 382.4 597.149 381.856 594.909 381.856C592.989 381.856 591.517 382.24 590.493 383.008C589.469 383.712 588.957 384.704 588.957 385.984C588.957 387.52 589.757 388.672 591.357 389.44C593.021 390.208 595.581 390.976 599.037 391.744C603.005 392.768 606.237 393.792 608.733 394.816C611.229 395.776 613.405 397.376 615.261 399.616C617.181 401.792 618.173 404.736 618.237 408.448C618.237 411.584 617.341 414.4 615.549 416.896C613.821 419.328 611.293 421.248 607.965 422.656C604.701 424.064 600.893 424.768 596.541 424.768ZM689.424 389.44C693.328 390.272 696.464 392.224 698.832 395.296C701.2 398.304 702.384 401.76 702.384 405.664C702.384 411.296 700.4 415.776 696.432 419.104C692.528 422.368 687.056 424 680.016 424H648.624V356.608H678.96C685.808 356.608 691.152 358.176 694.992 361.312C698.896 364.448 700.848 368.704 700.848 374.08C700.848 378.048 699.792 381.344 697.68 383.968C695.632 386.592 692.88 388.416 689.424 389.44ZM665.04 383.872H675.792C678.48 383.872 680.528 383.296 681.936 382.144C683.408 380.928 684.144 379.168 684.144 376.864C684.144 374.56 683.408 372.8 681.936 371.584C680.528 370.368 678.48 369.76 675.792 369.76H665.04V383.872ZM677.136 410.752C679.888 410.752 682 410.144 683.472 408.928C685.008 407.648 685.776 405.824 685.776 403.456C685.776 401.088 684.976 399.232 683.376 397.888C681.84 396.544 679.696 395.872 676.944 395.872H665.04V410.752H677.136ZM736.289 424.768C731.041 424.768 726.305 423.648 722.081 421.408C717.921 419.168 714.625 415.968 712.193 411.808C709.825 407.648 708.641 402.784 708.641 397.216C708.641 391.712 709.857 386.88 712.289 382.72C714.721 378.496 718.049 375.264 722.273 373.024C726.497 370.784 731.233 369.664 736.481 369.664C741.729 369.664 746.465 370.784 750.689 373.024C754.913 375.264 758.241 378.496 760.673 382.72C763.105 386.88 764.321 391.712 764.321 397.216C764.321 402.72 763.073 407.584 760.577 411.808C758.145 415.968 754.785 419.168 750.497 421.408C746.273 423.648 741.537 424.768 736.289 424.768ZM736.289 410.56C739.425 410.56 742.081 409.408 744.257 407.104C746.497 404.8 747.617 401.504 747.617 397.216C747.617 392.928 746.529 389.632 744.353 387.328C742.241 385.024 739.617 383.872 736.481 383.872C733.281 383.872 730.625 385.024 728.513 387.328C726.401 389.568 725.345 392.864 725.345 397.216C725.345 401.504 726.369 404.8 728.417 407.104C730.529 409.408 733.153 410.56 736.289 410.56ZM789.446 352.96V424H773.03V352.96H789.446ZM798.079 397.12C798.079 391.616 799.103 386.784 801.151 382.624C803.263 378.464 806.111 375.264 809.695 373.024C813.279 370.784 817.279 369.664 821.695 369.664C825.215 369.664 828.415 370.4 831.295 371.872C834.239 373.344 836.543 375.328 838.207 377.824V352.96H854.623V424H838.207V416.32C836.671 418.88 834.463 420.928 831.583 422.464C828.767 424 825.471 424.768 821.695 424.768C817.279 424.768 813.279 423.648 809.695 421.408C806.111 419.104 803.263 415.872 801.151 411.712C799.103 407.488 798.079 402.624 798.079 397.12ZM838.207 397.216C838.207 393.12 837.055 389.888 834.751 387.52C832.511 385.152 829.759 383.968 826.495 383.968C823.231 383.968 820.447 385.152 818.143 387.52C815.903 389.824 814.783 393.024 814.783 397.12C814.783 401.216 815.903 404.48 818.143 406.912C820.447 409.28 823.231 410.464 826.495 410.464C829.759 410.464 832.511 409.28 834.751 406.912C837.055 404.544 838.207 401.312 838.207 397.216Z" fill="#FFFEFB"/>
<path d="M495.75 315H493.758V306.938H484.734V315H482.742V297.867H484.734V305.156H493.758V297.867H495.75V315ZM510.012 315H500.461V297.867H510.012V299.637H502.453V305.156H509.555V306.914H502.453V313.219H510.012V315ZM524.59 315L522.457 309.551H515.59L513.48 315H511.465L518.238 297.797H519.914L526.652 315H524.59ZM521.836 307.758L519.844 302.449C519.586 301.777 519.32 300.953 519.047 299.977C518.875 300.727 518.629 301.551 518.309 302.449L516.293 307.758H521.836ZM542.684 306.27C542.684 309.098 541.914 311.262 540.375 312.762C538.844 314.254 536.637 315 533.754 315H529.008V297.867H534.258C536.922 297.867 538.992 298.605 540.469 300.082C541.945 301.559 542.684 303.621 542.684 306.27ZM540.574 306.34C540.574 304.105 540.012 302.422 538.887 301.289C537.77 300.156 536.105 299.59 533.895 299.59H531V313.277H533.426C535.801 313.277 537.586 312.695 538.781 311.531C539.977 310.359 540.574 308.629 540.574 306.34ZM546.516 315V297.867H548.508V315H546.516ZM566.602 315H564.328L554.965 300.621H554.871C554.996 302.309 555.059 303.855 555.059 305.262V315H553.219V297.867H555.469L564.809 312.188H564.902C564.887 311.977 564.852 311.301 564.797 310.16C564.742 309.012 564.723 308.191 564.738 307.699V297.867H566.602V315ZM578.848 306.023H584.672V314.355C583.766 314.645 582.844 314.863 581.906 315.012C580.969 315.16 579.883 315.234 578.648 315.234C576.055 315.234 574.035 314.465 572.59 312.926C571.145 311.379 570.422 309.215 570.422 306.434C570.422 304.652 570.777 303.094 571.488 301.758C572.207 300.414 573.238 299.391 574.582 298.688C575.926 297.977 577.5 297.621 579.305 297.621C581.133 297.621 582.836 297.957 584.414 298.629L583.641 300.387C582.094 299.73 580.605 299.402 579.176 299.402C577.09 299.402 575.461 300.023 574.289 301.266C573.117 302.508 572.531 304.23 572.531 306.434C572.531 308.746 573.094 310.5 574.219 311.695C575.352 312.891 577.012 313.488 579.199 313.488C580.387 313.488 581.547 313.352 582.68 313.078V307.805H578.848V306.023ZM598.465 310.441C598.465 311.949 597.918 313.125 596.824 313.969C595.73 314.812 594.246 315.234 592.371 315.234C590.34 315.234 588.777 314.973 587.684 314.449V312.527C588.387 312.824 589.152 313.059 589.98 313.23C590.809 313.402 591.629 313.488 592.441 313.488C593.77 313.488 594.77 313.238 595.441 312.738C596.113 312.23 596.449 311.527 596.449 310.629C596.449 310.035 596.328 309.551 596.086 309.176C595.852 308.793 595.453 308.441 594.891 308.121C594.336 307.801 593.488 307.438 592.348 307.031C590.754 306.461 589.613 305.785 588.926 305.004C588.246 304.223 587.906 303.203 587.906 301.945C587.906 300.625 588.402 299.574 589.395 298.793C590.387 298.012 591.699 297.621 593.332 297.621C595.035 297.621 596.602 297.934 598.031 298.559L597.41 300.293C595.996 299.699 594.621 299.402 593.285 299.402C592.23 299.402 591.406 299.629 590.812 300.082C590.219 300.535 589.922 301.164 589.922 301.969C589.922 302.562 590.031 303.051 590.25 303.434C590.469 303.809 590.836 304.156 591.352 304.477C591.875 304.789 592.672 305.137 593.742 305.52C595.539 306.16 596.773 306.848 597.445 307.582C598.125 308.316 598.465 309.27 598.465 310.441Z" fill="#FFFEFB"/>
<path d="M365.781 573.5H380.562C383.708 573.5 386.438 574.01 388.75 575.031C391.062 576.052 392.844 577.562 394.094 579.562C395.365 581.542 396 583.979 396 586.875C396 589.021 395.542 590.969 394.625 592.719C393.729 594.469 392.49 595.938 390.906 597.125C389.323 598.292 387.49 599.094 385.406 599.531L384.062 600.031H368.281L368.219 596.75H381.438C383.812 596.75 385.792 596.292 387.375 595.375C388.958 594.458 390.146 593.25 390.938 591.75C391.75 590.229 392.156 588.604 392.156 586.875C392.156 584.812 391.708 583.031 390.812 581.531C389.938 580.01 388.635 578.844 386.906 578.031C385.177 577.219 383.062 576.812 380.562 576.812H369.625V619H365.781V573.5ZM393.875 619L382.094 598.656L386.219 598.625L397.969 618.594V619H393.875ZM403.625 602.625V601.594C403.625 599.135 403.979 596.865 404.688 594.781C405.396 592.698 406.406 590.896 407.719 589.375C409.052 587.854 410.646 586.677 412.5 585.844C414.354 584.99 416.417 584.562 418.688 584.562C420.979 584.562 423.052 584.99 424.906 585.844C426.76 586.677 428.354 587.854 429.688 589.375C431.021 590.896 432.042 592.698 432.75 594.781C433.458 596.865 433.812 599.135 433.812 601.594V602.625C433.812 605.083 433.458 607.354 432.75 609.438C432.042 611.5 431.021 613.292 429.688 614.812C428.375 616.333 426.792 617.521 424.938 618.375C423.083 619.208 421.021 619.625 418.75 619.625C416.458 619.625 414.385 619.208 412.531 618.375C410.677 617.521 409.083 616.333 407.75 614.812C406.417 613.292 405.396 611.5 404.688 609.438C403.979 607.354 403.625 605.083 403.625 602.625ZM407.344 601.594V602.625C407.344 604.479 407.594 606.24 408.094 607.906C408.594 609.552 409.323 611.021 410.281 612.312C411.24 613.583 412.427 614.583 413.844 615.312C415.26 616.042 416.896 616.406 418.75 616.406C420.583 616.406 422.198 616.042 423.594 615.312C425.01 614.583 426.198 613.583 427.156 612.312C428.115 611.021 428.833 609.552 429.312 607.906C429.812 606.24 430.062 604.479 430.062 602.625V601.594C430.062 599.76 429.812 598.021 429.312 596.375C428.833 594.729 428.104 593.26 427.125 591.969C426.167 590.677 424.979 589.656 423.562 588.906C422.146 588.156 420.521 587.781 418.688 587.781C416.854 587.781 415.229 588.156 413.812 588.906C412.417 589.656 411.229 590.677 410.25 591.969C409.292 593.26 408.562 594.729 408.062 596.375C407.583 598.021 407.344 599.76 407.344 601.594ZM441.5 571H445.25V612.438L445 619H441.5V571ZM468.781 601.781V602.438C468.781 604.958 468.49 607.271 467.906 609.375C467.323 611.479 466.479 613.302 465.375 614.844C464.271 616.365 462.917 617.542 461.312 618.375C459.729 619.208 457.906 619.625 455.844 619.625C453.823 619.625 452.031 619.312 450.469 618.688C448.906 618.042 447.573 617.135 446.469 615.969C445.365 614.781 444.479 613.396 443.812 611.812C443.146 610.208 442.677 608.448 442.406 606.531V598.188C442.719 596.146 443.219 594.292 443.906 592.625C444.594 590.958 445.479 589.521 446.562 588.312C447.667 587.104 448.979 586.177 450.5 585.531C452.042 584.885 453.802 584.562 455.781 584.562C457.844 584.562 459.677 584.969 461.281 585.781C462.906 586.573 464.271 587.729 465.375 589.25C466.479 590.75 467.323 592.562 467.906 594.688C468.49 596.792 468.781 599.156 468.781 601.781ZM465 602.438V601.781C465 599.802 464.812 597.969 464.438 596.281C464.062 594.594 463.469 593.125 462.656 591.875C461.865 590.604 460.844 589.615 459.594 588.906C458.344 588.198 456.844 587.844 455.094 587.844C453.302 587.844 451.771 588.146 450.5 588.75C449.25 589.333 448.208 590.115 447.375 591.094C446.562 592.052 445.917 593.104 445.438 594.25C444.958 595.396 444.604 596.521 444.375 597.625V607.344C444.729 608.906 445.344 610.375 446.219 611.75C447.094 613.125 448.271 614.24 449.75 615.094C451.229 615.927 453.031 616.344 455.156 616.344C456.865 616.344 458.333 615.99 459.562 615.281C460.812 614.573 461.833 613.594 462.625 612.344C463.438 611.094 464.031 609.625 464.406 607.938C464.802 606.25 465 604.417 465 602.438ZM475 602.625V601.594C475 599.135 475.354 596.865 476.062 594.781C476.771 592.698 477.781 590.896 479.094 589.375C480.427 587.854 482.021 586.677 483.875 585.844C485.729 584.99 487.792 584.562 490.062 584.562C492.354 584.562 494.427 584.99 496.281 585.844C498.135 586.677 499.729 587.854 501.062 589.375C502.396 590.896 503.417 592.698 504.125 594.781C504.833 596.865 505.188 599.135 505.188 601.594V602.625C505.188 605.083 504.833 607.354 504.125 609.438C503.417 611.5 502.396 613.292 501.062 614.812C499.75 616.333 498.167 617.521 496.312 618.375C494.458 619.208 492.396 619.625 490.125 619.625C487.833 619.625 485.76 619.208 483.906 618.375C482.052 617.521 480.458 616.333 479.125 614.812C477.792 613.292 476.771 611.5 476.062 609.438C475.354 607.354 475 605.083 475 602.625ZM478.719 601.594V602.625C478.719 604.479 478.969 606.24 479.469 607.906C479.969 609.552 480.698 611.021 481.656 612.312C482.615 613.583 483.802 614.583 485.219 615.312C486.635 616.042 488.271 616.406 490.125 616.406C491.958 616.406 493.573 616.042 494.969 615.312C496.385 614.583 497.573 613.583 498.531 612.312C499.49 611.021 500.208 609.552 500.688 607.906C501.188 606.24 501.438 604.479 501.438 602.625V601.594C501.438 599.76 501.188 598.021 500.688 596.375C500.208 594.729 499.479 593.26 498.5 591.969C497.542 590.677 496.354 589.656 494.938 588.906C493.521 588.156 491.896 587.781 490.062 587.781C488.229 587.781 486.604 588.156 485.188 588.906C483.792 589.656 482.604 590.677 481.625 591.969C480.667 593.26 479.938 594.729 479.438 596.375C478.958 598.021 478.719 599.76 478.719 601.594ZM525.719 585.188V588.25H508.781V585.188H525.719ZM515 576.5H518.719V610.781C518.719 612.344 518.927 613.521 519.344 614.312C519.76 615.104 520.302 615.635 520.969 615.906C521.635 616.177 522.354 616.312 523.125 616.312C523.688 616.312 524.229 616.281 524.75 616.219C525.271 616.135 525.74 616.052 526.156 615.969L526.312 619.125C525.854 619.271 525.26 619.385 524.531 619.469C523.802 619.573 523.073 619.625 522.344 619.625C520.906 619.625 519.635 619.365 518.531 618.844C517.427 618.302 516.562 617.385 515.938 616.094C515.312 614.781 515 613 515 610.75V576.5ZM530.875 602.625V601.594C530.875 599.135 531.229 596.865 531.938 594.781C532.646 592.698 533.656 590.896 534.969 589.375C536.302 587.854 537.896 586.677 539.75 585.844C541.604 584.99 543.667 584.562 545.938 584.562C548.229 584.562 550.302 584.99 552.156 585.844C554.01 586.677 555.604 587.854 556.938 589.375C558.271 590.896 559.292 592.698 560 594.781C560.708 596.865 561.062 599.135 561.062 601.594V602.625C561.062 605.083 560.708 607.354 560 609.438C559.292 611.5 558.271 613.292 556.938 614.812C555.625 616.333 554.042 617.521 552.188 618.375C550.333 619.208 548.271 619.625 546 619.625C543.708 619.625 541.635 619.208 539.781 618.375C537.927 617.521 536.333 616.333 535 614.812C533.667 613.292 532.646 611.5 531.938 609.438C531.229 607.354 530.875 605.083 530.875 602.625ZM534.594 601.594V602.625C534.594 604.479 534.844 606.24 535.344 607.906C535.844 609.552 536.573 611.021 537.531 612.312C538.49 613.583 539.677 614.583 541.094 615.312C542.51 616.042 544.146 616.406 546 616.406C547.833 616.406 549.448 616.042 550.844 615.312C552.26 614.583 553.448 613.583 554.406 612.312C555.365 611.021 556.083 609.552 556.562 607.906C557.062 606.24 557.312 604.479 557.312 602.625V601.594C557.312 599.76 557.062 598.021 556.562 596.375C556.083 594.729 555.354 593.26 554.375 591.969C553.417 590.677 552.229 589.656 550.812 588.906C549.396 588.156 547.771 587.781 545.938 587.781C544.104 587.781 542.479 588.156 541.062 588.906C539.667 589.656 538.479 590.677 537.5 591.969C536.542 593.26 535.812 594.729 535.312 596.375C534.833 598.021 534.594 599.76 534.594 601.594ZM611.625 615.719V619H588.031V615.719H611.625ZM589.156 573.5V619H585.312V573.5H589.156ZM622.344 585.188V619H618.625V585.188H622.344ZM617.969 575.406C617.969 574.698 618.188 574.104 618.625 573.625C619.083 573.125 619.708 572.875 620.5 572.875C621.292 572.875 621.917 573.125 622.375 573.625C622.854 574.104 623.094 574.698 623.094 575.406C623.094 576.094 622.854 576.688 622.375 577.188C621.917 577.667 621.292 577.906 620.5 577.906C619.708 577.906 619.083 577.667 618.625 577.188C618.188 576.688 617.969 576.094 617.969 575.406ZM654.812 585.188H658.281V618.406C658.281 621.344 657.719 623.865 656.594 625.969C655.49 628.073 653.917 629.688 651.875 630.812C649.854 631.938 647.469 632.5 644.719 632.5C643.323 632.5 641.885 632.281 640.406 631.844C638.948 631.427 637.562 630.781 636.25 629.906C634.958 629.052 633.854 627.99 632.938 626.719L635.031 624.438C636.406 626.104 637.875 627.323 639.438 628.094C641 628.885 642.688 629.281 644.5 629.281C646.646 629.281 648.458 628.854 649.938 628C651.438 627.146 652.573 625.917 653.344 624.312C654.135 622.708 654.531 620.781 654.531 618.531V592.625L654.812 585.188ZM631.062 602.438V601.781C631.062 599.156 631.354 596.792 631.938 594.688C632.542 592.562 633.406 590.75 634.531 589.25C635.656 587.729 637.021 586.573 638.625 585.781C640.25 584.969 642.083 584.562 644.125 584.562C646.083 584.562 647.823 584.885 649.344 585.531C650.865 586.177 652.177 587.104 653.281 588.312C654.385 589.521 655.271 590.958 655.938 592.625C656.625 594.292 657.125 596.146 657.438 598.188V606.531C657.188 608.448 656.729 610.208 656.062 611.812C655.396 613.396 654.51 614.781 653.406 615.969C652.302 617.135 650.969 618.042 649.406 618.688C647.865 619.312 646.083 619.625 644.062 619.625C642.042 619.625 640.229 619.208 638.625 618.375C637.021 617.542 635.656 616.365 634.531 614.844C633.406 613.302 632.542 611.479 631.938 609.375C631.354 607.271 631.062 604.958 631.062 602.438ZM634.812 601.781V602.438C634.812 604.417 635.01 606.25 635.406 607.938C635.802 609.625 636.406 611.094 637.219 612.344C638.031 613.594 639.062 614.573 640.312 615.281C641.562 615.99 643.031 616.344 644.719 616.344C646.865 616.344 648.667 615.938 650.125 615.125C651.583 614.292 652.74 613.198 653.594 611.844C654.448 610.469 655.073 608.969 655.469 607.344V597.625C655.24 596.521 654.885 595.396 654.406 594.25C653.948 593.104 653.302 592.052 652.469 591.094C651.656 590.115 650.615 589.333 649.344 588.75C648.094 588.146 646.573 587.844 644.781 587.844C643.073 587.844 641.583 588.198 640.312 588.906C639.062 589.615 638.031 590.604 637.219 591.875C636.406 593.125 635.802 594.594 635.406 596.281C635.01 597.969 634.812 599.802 634.812 601.781ZM671.781 571V619H668.062V571H671.781ZM670.938 600L669.281 599.062C669.406 597.062 669.812 595.188 670.5 593.438C671.188 591.688 672.115 590.146 673.281 588.812C674.469 587.479 675.854 586.438 677.438 585.688C679.042 584.938 680.812 584.562 682.75 584.562C684.438 584.562 685.948 584.792 687.281 585.25C688.615 585.708 689.75 586.438 690.688 587.438C691.625 588.438 692.333 589.719 692.812 591.281C693.312 592.844 693.562 594.75 693.562 597V619H689.812V596.969C689.812 594.635 689.49 592.812 688.844 591.5C688.198 590.167 687.281 589.219 686.094 588.656C684.906 588.094 683.5 587.812 681.875 587.812C680.083 587.812 678.51 588.208 677.156 589C675.823 589.771 674.698 590.781 673.781 592.031C672.885 593.26 672.198 594.583 671.719 596C671.24 597.396 670.979 598.729 670.938 600ZM715.969 585.188V588.25H699.031V585.188H715.969ZM705.25 576.5H708.969V610.781C708.969 612.344 709.177 613.521 709.594 614.312C710.01 615.104 710.552 615.635 711.219 615.906C711.885 616.177 712.604 616.312 713.375 616.312C713.938 616.312 714.479 616.281 715 616.219C715.521 616.135 715.99 616.052 716.406 615.969L716.562 619.125C716.104 619.271 715.51 619.385 714.781 619.469C714.052 619.573 713.323 619.625 712.594 619.625C711.156 619.625 709.885 619.365 708.781 618.844C707.677 618.302 706.812 617.385 706.188 616.094C705.562 614.781 705.25 613 705.25 610.75V576.5Z" fill="#FFFEFB"/>
<path d="M469.301 528.441C469.301 529.949 468.754 531.125 467.66 531.969C466.566 532.812 465.082 533.234 463.207 533.234C461.176 533.234 459.613 532.973 458.52 532.449V530.527C459.223 530.824 459.988 531.059 460.816 531.23C461.645 531.402 462.465 531.488 463.277 531.488C464.605 531.488 465.605 531.238 466.277 530.738C466.949 530.23 467.285 529.527 467.285 528.629C467.285 528.035 467.164 527.551 466.922 527.176C466.688 526.793 466.289 526.441 465.727 526.121C465.172 525.801 464.324 525.438 463.184 525.031C461.59 524.461 460.449 523.785 459.762 523.004C459.082 522.223 458.742 521.203 458.742 519.945C458.742 518.625 459.238 517.574 460.23 516.793C461.223 516.012 462.535 515.621 464.168 515.621C465.871 515.621 467.438 515.934 468.867 516.559L468.246 518.293C466.832 517.699 465.457 517.402 464.121 517.402C463.066 517.402 462.242 517.629 461.648 518.082C461.055 518.535 460.758 519.164 460.758 519.969C460.758 520.562 460.867 521.051 461.086 521.434C461.305 521.809 461.672 522.156 462.188 522.477C462.711 522.789 463.508 523.137 464.578 523.52C466.375 524.16 467.609 524.848 468.281 525.582C468.961 526.316 469.301 527.27 469.301 528.441ZM485.742 515.867V526.953C485.742 528.906 485.152 530.441 483.973 531.559C482.793 532.676 481.172 533.234 479.109 533.234C477.047 533.234 475.449 532.672 474.316 531.547C473.191 530.422 472.629 528.875 472.629 526.906V515.867H474.621V527.047C474.621 528.477 475.012 529.574 475.793 530.34C476.574 531.105 477.723 531.488 479.238 531.488C480.684 531.488 481.797 531.105 482.578 530.34C483.359 529.566 483.75 528.461 483.75 527.023V515.867H485.742ZM490.289 515.867H495.129C497.402 515.867 499.047 516.207 500.062 516.887C501.078 517.566 501.586 518.641 501.586 520.109C501.586 521.125 501.301 521.965 500.73 522.629C500.168 523.285 499.344 523.711 498.258 523.906V524.023C500.859 524.469 502.16 525.836 502.16 528.125C502.16 529.656 501.641 530.852 500.602 531.711C499.57 532.57 498.125 533 496.266 533H490.289V515.867ZM492.281 523.203H495.562C496.969 523.203 497.98 522.984 498.598 522.547C499.215 522.102 499.523 521.355 499.523 520.309C499.523 519.348 499.18 518.656 498.492 518.234C497.805 517.805 496.711 517.59 495.211 517.59H492.281V523.203ZM492.281 524.891V531.301H495.855C497.238 531.301 498.277 531.035 498.973 530.504C499.676 529.965 500.027 529.125 500.027 527.984C500.027 526.922 499.668 526.141 498.949 525.641C498.238 525.141 497.152 524.891 495.691 524.891H492.281ZM518.859 533H516.867V524.938H507.844V533H505.852V515.867H507.844V523.156H516.867V515.867H518.859V533ZM533.121 533H523.57V515.867H533.121V517.637H525.562V523.156H532.664V524.914H525.562V531.219H533.121V533ZM547.699 533L545.566 527.551H538.699L536.59 533H534.574L541.348 515.797H543.023L549.762 533H547.699ZM544.945 525.758L542.953 520.449C542.695 519.777 542.43 518.953 542.156 517.977C541.984 518.727 541.738 519.551 541.418 520.449L539.402 525.758H544.945ZM565.793 524.27C565.793 527.098 565.023 529.262 563.484 530.762C561.953 532.254 559.746 533 556.863 533H552.117V515.867H557.367C560.031 515.867 562.102 516.605 563.578 518.082C565.055 519.559 565.793 521.621 565.793 524.27ZM563.684 524.34C563.684 522.105 563.121 520.422 561.996 519.289C560.879 518.156 559.215 517.59 557.004 517.59H554.109V531.277H556.535C558.91 531.277 560.695 530.695 561.891 529.531C563.086 528.359 563.684 526.629 563.684 524.34ZM569.625 533V515.867H571.617V533H569.625ZM589.711 533H587.438L578.074 518.621H577.98C578.105 520.309 578.168 521.855 578.168 523.262V533H576.328V515.867H578.578L587.918 530.188H588.012C587.996 529.977 587.961 529.301 587.906 528.16C587.852 527.012 587.832 526.191 587.848 525.699V515.867H589.711V533ZM601.957 524.023H607.781V532.355C606.875 532.645 605.953 532.863 605.016 533.012C604.078 533.16 602.992 533.234 601.758 533.234C599.164 533.234 597.145 532.465 595.699 530.926C594.254 529.379 593.531 527.215 593.531 524.434C593.531 522.652 593.887 521.094 594.598 519.758C595.316 518.414 596.348 517.391 597.691 516.688C599.035 515.977 600.609 515.621 602.414 515.621C604.242 515.621 605.945 515.957 607.523 516.629L606.75 518.387C605.203 517.73 603.715 517.402 602.285 517.402C600.199 517.402 598.57 518.023 597.398 519.266C596.227 520.508 595.641 522.23 595.641 524.434C595.641 526.746 596.203 528.5 597.328 529.695C598.461 530.891 600.121 531.488 602.309 531.488C603.496 531.488 604.656 531.352 605.789 531.078V525.805H601.957V524.023ZM621.574 528.441C621.574 529.949 621.027 531.125 619.934 531.969C618.84 532.812 617.355 533.234 615.48 533.234C613.449 533.234 611.887 532.973 610.793 532.449V530.527C611.496 530.824 612.262 531.059 613.09 531.23C613.918 531.402 614.738 531.488 615.551 531.488C616.879 531.488 617.879 531.238 618.551 530.738C619.223 530.23 619.559 529.527 619.559 528.629C619.559 528.035 619.438 527.551 619.195 527.176C618.961 526.793 618.562 526.441 618 526.121C617.445 525.801 616.598 525.438 615.457 525.031C613.863 524.461 612.723 523.785 612.035 523.004C611.355 522.223 611.016 521.203 611.016 519.945C611.016 518.625 611.512 517.574 612.504 516.793C613.496 516.012 614.809 515.621 616.441 515.621C618.145 515.621 619.711 515.934 621.141 516.559L620.52 518.293C619.105 517.699 617.73 517.402 616.395 517.402C615.34 517.402 614.516 517.629 613.922 518.082C613.328 518.535 613.031 519.164 613.031 519.969C613.031 520.562 613.141 521.051 613.359 521.434C613.578 521.809 613.945 522.156 614.461 522.477C614.984 522.789 615.781 523.137 616.852 523.52C618.648 524.16 619.883 524.848 620.555 525.582C621.234 526.316 621.574 527.27 621.574 528.441Z" fill="#FFFEFB"/>
<path d="M419.354 769.406H427.826C429.748 769.406 431.371 769.699 432.695 770.285C434.031 770.871 435.045 771.738 435.736 772.887C436.439 774.023 436.791 775.424 436.791 777.088C436.791 778.26 436.551 779.332 436.07 780.305C435.602 781.266 434.922 782.086 434.031 782.766C433.152 783.434 432.098 783.932 430.867 784.26L429.918 784.629H421.955L421.92 781.869H427.932C429.15 781.869 430.164 781.658 430.973 781.236C431.781 780.803 432.391 780.223 432.801 779.496C433.211 778.77 433.416 777.967 433.416 777.088C433.416 776.104 433.223 775.242 432.836 774.504C432.449 773.766 431.84 773.197 431.008 772.799C430.188 772.389 429.127 772.184 427.826 772.184H422.746V795H419.354V769.406ZM434.312 795L428.09 783.398L431.623 783.381L437.934 794.789V795H434.312ZM440.184 785.701V785.297C440.184 783.926 440.383 782.654 440.781 781.482C441.18 780.299 441.754 779.273 442.504 778.406C443.254 777.527 444.162 776.848 445.229 776.367C446.295 775.875 447.49 775.629 448.814 775.629C450.15 775.629 451.352 775.875 452.418 776.367C453.496 776.848 454.41 777.527 455.16 778.406C455.922 779.273 456.502 780.299 456.9 781.482C457.299 782.654 457.498 783.926 457.498 785.297V785.701C457.498 787.072 457.299 788.344 456.9 789.516C456.502 790.688 455.922 791.713 455.16 792.592C454.41 793.459 453.502 794.139 452.436 794.631C451.381 795.111 450.186 795.352 448.85 795.352C447.514 795.352 446.312 795.111 445.246 794.631C444.18 794.139 443.266 793.459 442.504 792.592C441.754 791.713 441.18 790.688 440.781 789.516C440.383 788.344 440.184 787.072 440.184 785.701ZM443.436 785.297V785.701C443.436 786.65 443.547 787.547 443.77 788.391C443.992 789.223 444.326 789.961 444.771 790.605C445.229 791.25 445.797 791.76 446.477 792.135C447.156 792.498 447.947 792.68 448.85 792.68C449.74 792.68 450.52 792.498 451.188 792.135C451.867 791.76 452.43 791.25 452.875 790.605C453.32 789.961 453.654 789.223 453.877 788.391C454.111 787.547 454.229 786.65 454.229 785.701V785.297C454.229 784.359 454.111 783.475 453.877 782.643C453.654 781.799 453.314 781.055 452.857 780.41C452.412 779.754 451.85 779.238 451.17 778.863C450.502 778.488 449.717 778.301 448.814 778.301C447.924 778.301 447.139 778.488 446.459 778.863C445.791 779.238 445.229 779.754 444.771 780.41C444.326 781.055 443.992 781.799 443.77 782.643C443.547 783.475 443.436 784.359 443.436 785.297ZM461.559 768H464.828V791.309L464.547 795H461.559V768ZM477.678 785.332V785.701C477.678 787.084 477.514 788.367 477.186 789.551C476.857 790.723 476.377 791.742 475.744 792.609C475.111 793.477 474.338 794.15 473.424 794.631C472.51 795.111 471.461 795.352 470.277 795.352C469.07 795.352 468.01 795.146 467.096 794.736C466.193 794.314 465.432 793.711 464.811 792.926C464.189 792.141 463.691 791.191 463.316 790.078C462.953 788.965 462.701 787.711 462.561 786.316V784.699C462.701 783.293 462.953 782.033 463.316 780.92C463.691 779.807 464.189 778.857 464.811 778.072C465.432 777.275 466.193 776.672 467.096 776.262C467.998 775.84 469.047 775.629 470.242 775.629C471.438 775.629 472.498 775.863 473.424 776.332C474.35 776.789 475.123 777.445 475.744 778.301C476.377 779.156 476.857 780.182 477.186 781.377C477.514 782.561 477.678 783.879 477.678 785.332ZM474.408 785.701V785.332C474.408 784.383 474.32 783.492 474.145 782.66C473.969 781.816 473.688 781.078 473.301 780.445C472.914 779.801 472.404 779.297 471.771 778.934C471.139 778.559 470.359 778.371 469.434 778.371C468.613 778.371 467.898 778.512 467.289 778.793C466.691 779.074 466.182 779.455 465.76 779.936C465.338 780.404 464.992 780.943 464.723 781.553C464.465 782.15 464.271 782.771 464.143 783.416V787.652C464.33 788.473 464.635 789.264 465.057 790.025C465.49 790.775 466.064 791.391 466.779 791.871C467.506 792.352 468.402 792.592 469.469 792.592C470.348 792.592 471.098 792.416 471.719 792.064C472.352 791.701 472.861 791.203 473.248 790.57C473.646 789.938 473.939 789.205 474.127 788.373C474.314 787.541 474.408 786.65 474.408 785.701ZM480.93 785.701V785.297C480.93 783.926 481.129 782.654 481.527 781.482C481.926 780.299 482.5 779.273 483.25 778.406C484 777.527 484.908 776.848 485.975 776.367C487.041 775.875 488.236 775.629 489.561 775.629C490.896 775.629 492.098 775.875 493.164 776.367C494.242 776.848 495.156 777.527 495.906 778.406C496.668 779.273 497.248 780.299 497.646 781.482C498.045 782.654 498.244 783.926 498.244 785.297V785.701C498.244 787.072 498.045 788.344 497.646 789.516C497.248 790.688 496.668 791.713 495.906 792.592C495.156 793.459 494.248 794.139 493.182 794.631C492.127 795.111 490.932 795.352 489.596 795.352C488.26 795.352 487.059 795.111 485.992 794.631C484.926 794.139 484.012 793.459 483.25 792.592C482.5 791.713 481.926 790.688 481.527 789.516C481.129 788.344 480.93 787.072 480.93 785.701ZM484.182 785.297V785.701C484.182 786.65 484.293 787.547 484.516 788.391C484.738 789.223 485.072 789.961 485.518 790.605C485.975 791.25 486.543 791.76 487.223 792.135C487.902 792.498 488.693 792.68 489.596 792.68C490.486 792.68 491.266 792.498 491.934 792.135C492.613 791.76 493.176 791.25 493.621 790.605C494.066 789.961 494.4 789.223 494.623 788.391C494.857 787.547 494.975 786.65 494.975 785.701V785.297C494.975 784.359 494.857 783.475 494.623 782.643C494.4 781.799 494.061 781.055 493.604 780.41C493.158 779.754 492.596 779.238 491.916 778.863C491.248 778.488 490.463 778.301 489.561 778.301C488.67 778.301 487.885 778.488 487.205 778.863C486.537 779.238 485.975 779.754 485.518 780.41C485.072 781.055 484.738 781.799 484.516 782.643C484.293 783.475 484.182 784.359 484.182 785.297ZM510.285 775.98V778.477H500.002V775.98H510.285ZM503.482 771.357H506.734V790.289C506.734 790.934 506.834 791.42 507.033 791.748C507.232 792.076 507.49 792.293 507.807 792.398C508.123 792.504 508.463 792.557 508.826 792.557C509.096 792.557 509.377 792.533 509.67 792.486C509.975 792.428 510.203 792.381 510.355 792.346L510.373 795C510.115 795.082 509.775 795.158 509.354 795.229C508.943 795.311 508.445 795.352 507.859 795.352C507.062 795.352 506.33 795.193 505.662 794.877C504.994 794.561 504.461 794.033 504.062 793.295C503.676 792.545 503.482 791.537 503.482 790.271V771.357ZM512.887 785.701V785.297C512.887 783.926 513.086 782.654 513.484 781.482C513.883 780.299 514.457 779.273 515.207 778.406C515.957 777.527 516.865 776.848 517.932 776.367C518.998 775.875 520.193 775.629 521.518 775.629C522.854 775.629 524.055 775.875 525.121 776.367C526.199 776.848 527.113 777.527 527.863 778.406C528.625 779.273 529.205 780.299 529.604 781.482C530.002 782.654 530.201 783.926 530.201 785.297V785.701C530.201 787.072 530.002 788.344 529.604 789.516C529.205 790.688 528.625 791.713 527.863 792.592C527.113 793.459 526.205 794.139 525.139 794.631C524.084 795.111 522.889 795.352 521.553 795.352C520.217 795.352 519.016 795.111 517.949 794.631C516.883 794.139 515.969 793.459 515.207 792.592C514.457 791.713 513.883 790.688 513.484 789.516C513.086 788.344 512.887 787.072 512.887 785.701ZM516.139 785.297V785.701C516.139 786.65 516.25 787.547 516.473 788.391C516.695 789.223 517.029 789.961 517.475 790.605C517.932 791.25 518.5 791.76 519.18 792.135C519.859 792.498 520.65 792.68 521.553 792.68C522.443 792.68 523.223 792.498 523.891 792.135C524.57 791.76 525.133 791.25 525.578 790.605C526.023 789.961 526.357 789.223 526.58 788.391C526.814 787.547 526.932 786.65 526.932 785.701V785.297C526.932 784.359 526.814 783.475 526.58 782.643C526.357 781.799 526.018 781.055 525.561 780.41C525.115 779.754 524.553 779.238 523.873 778.863C523.205 778.488 522.42 778.301 521.518 778.301C520.627 778.301 519.842 778.488 519.162 778.863C518.494 779.238 517.932 779.754 517.475 780.41C517.029 781.055 516.695 781.799 516.473 782.643C516.25 783.475 516.139 784.359 516.139 785.297ZM543.701 769.406H552.174C554.096 769.406 555.719 769.699 557.043 770.285C558.379 770.871 559.393 771.738 560.084 772.887C560.787 774.023 561.139 775.424 561.139 777.088C561.139 778.26 560.898 779.332 560.418 780.305C559.949 781.266 559.27 782.086 558.379 782.766C557.5 783.434 556.445 783.932 555.215 784.26L554.266 784.629H546.303L546.268 781.869H552.279C553.498 781.869 554.512 781.658 555.32 781.236C556.129 780.803 556.738 780.223 557.148 779.496C557.559 778.77 557.764 777.967 557.764 777.088C557.764 776.104 557.57 775.242 557.184 774.504C556.797 773.766 556.188 773.197 555.355 772.799C554.535 772.389 553.475 772.184 552.174 772.184H547.094V795H543.701V769.406ZM558.66 795L552.438 783.398L555.971 783.381L562.281 794.789V795H558.66ZM573.285 795.352C571.961 795.352 570.76 795.129 569.682 794.684C568.615 794.227 567.695 793.588 566.922 792.768C566.16 791.947 565.574 790.975 565.164 789.85C564.754 788.725 564.549 787.494 564.549 786.158V785.42C564.549 783.873 564.777 782.496 565.234 781.289C565.691 780.07 566.312 779.039 567.098 778.195C567.883 777.352 568.773 776.713 569.77 776.279C570.766 775.846 571.797 775.629 572.863 775.629C574.223 775.629 575.395 775.863 576.379 776.332C577.375 776.801 578.189 777.457 578.822 778.301C579.455 779.133 579.924 780.117 580.229 781.254C580.533 782.379 580.686 783.609 580.686 784.945V786.404H566.482V783.75H577.434V783.504C577.387 782.66 577.211 781.84 576.906 781.043C576.613 780.246 576.145 779.59 575.5 779.074C574.855 778.559 573.977 778.301 572.863 778.301C572.125 778.301 571.445 778.459 570.824 778.775C570.203 779.08 569.67 779.537 569.225 780.146C568.779 780.756 568.434 781.5 568.188 782.379C567.941 783.258 567.818 784.271 567.818 785.42V786.158C567.818 787.061 567.941 787.91 568.188 788.707C568.445 789.492 568.814 790.184 569.295 790.781C569.787 791.379 570.379 791.848 571.07 792.188C571.773 792.527 572.57 792.697 573.461 792.697C574.609 792.697 575.582 792.463 576.379 791.994C577.176 791.525 577.873 790.898 578.471 790.113L580.439 791.678C580.029 792.299 579.508 792.891 578.875 793.453C578.242 794.016 577.463 794.473 576.537 794.824C575.623 795.176 574.539 795.352 573.285 795.352ZM596.805 775.98H599.758V794.596C599.758 796.271 599.418 797.701 598.738 798.885C598.059 800.068 597.109 800.965 595.891 801.574C594.684 802.195 593.289 802.506 591.707 802.506C591.051 802.506 590.277 802.4 589.387 802.189C588.508 801.99 587.641 801.645 586.785 801.152C585.941 800.672 585.232 800.021 584.658 799.201L586.363 797.268C587.16 798.229 587.992 798.896 588.859 799.271C589.738 799.646 590.605 799.834 591.461 799.834C592.492 799.834 593.383 799.641 594.133 799.254C594.883 798.867 595.463 798.293 595.873 797.531C596.295 796.781 596.506 795.855 596.506 794.754V780.164L596.805 775.98ZM583.709 785.701V785.332C583.709 783.879 583.879 782.561 584.219 781.377C584.57 780.182 585.068 779.156 585.713 778.301C586.369 777.445 587.16 776.789 588.086 776.332C589.012 775.863 590.055 775.629 591.215 775.629C592.41 775.629 593.453 775.84 594.344 776.262C595.246 776.672 596.008 777.275 596.629 778.072C597.262 778.857 597.76 779.807 598.123 780.92C598.486 782.033 598.738 783.293 598.879 784.699V786.316C598.75 787.711 598.498 788.965 598.123 790.078C597.76 791.191 597.262 792.141 596.629 792.926C596.008 793.711 595.246 794.314 594.344 794.736C593.441 795.146 592.387 795.352 591.18 795.352C590.043 795.352 589.012 795.111 588.086 794.631C587.172 794.15 586.387 793.477 585.73 792.609C585.074 791.742 584.57 790.723 584.219 789.551C583.879 788.367 583.709 787.084 583.709 785.701ZM586.961 785.332V785.701C586.961 786.65 587.055 787.541 587.242 788.373C587.441 789.205 587.74 789.938 588.139 790.57C588.549 791.203 589.07 791.701 589.703 792.064C590.336 792.416 591.092 792.592 591.971 792.592C593.049 792.592 593.939 792.363 594.643 791.906C595.346 791.449 595.902 790.846 596.312 790.096C596.734 789.346 597.062 788.531 597.297 787.652V783.416C597.168 782.771 596.969 782.15 596.699 781.553C596.441 780.943 596.102 780.404 595.68 779.936C595.27 779.455 594.76 779.074 594.15 778.793C593.541 778.512 592.826 778.371 592.006 778.371C591.115 778.371 590.348 778.559 589.703 778.934C589.07 779.297 588.549 779.801 588.139 780.445C587.74 781.078 587.441 781.816 587.242 782.66C587.055 783.492 586.961 784.383 586.961 785.332ZM616.334 790.605V775.98H619.604V795H616.492L616.334 790.605ZM616.949 786.598L618.303 786.562C618.303 787.828 618.168 789 617.898 790.078C617.641 791.145 617.219 792.07 616.633 792.855C616.047 793.641 615.279 794.256 614.33 794.701C613.381 795.135 612.227 795.352 610.867 795.352C609.941 795.352 609.092 795.217 608.318 794.947C607.557 794.678 606.9 794.262 606.35 793.699C605.799 793.137 605.371 792.404 605.066 791.502C604.773 790.6 604.627 789.516 604.627 788.25V775.98H607.879V788.285C607.879 789.141 607.973 789.85 608.16 790.412C608.359 790.963 608.623 791.402 608.951 791.73C609.291 792.047 609.666 792.27 610.076 792.398C610.498 792.527 610.932 792.592 611.377 792.592C612.76 792.592 613.855 792.328 614.664 791.801C615.473 791.262 616.053 790.541 616.404 789.639C616.768 788.725 616.949 787.711 616.949 786.598ZM628.094 768V795H624.824V768H628.094ZM644.529 791.748V781.957C644.529 781.207 644.377 780.557 644.072 780.006C643.779 779.443 643.334 779.01 642.736 778.705C642.139 778.4 641.4 778.248 640.521 778.248C639.701 778.248 638.98 778.389 638.359 778.67C637.75 778.951 637.27 779.32 636.918 779.777C636.578 780.234 636.408 780.727 636.408 781.254H633.156C633.156 780.574 633.332 779.9 633.684 779.232C634.035 778.564 634.539 777.961 635.195 777.422C635.863 776.871 636.66 776.438 637.586 776.121C638.523 775.793 639.566 775.629 640.715 775.629C642.098 775.629 643.316 775.863 644.371 776.332C645.438 776.801 646.27 777.51 646.867 778.459C647.477 779.396 647.781 780.574 647.781 781.992V790.852C647.781 791.484 647.834 792.158 647.939 792.873C648.057 793.588 648.227 794.203 648.449 794.719V795H645.057C644.893 794.625 644.764 794.127 644.67 793.506C644.576 792.873 644.529 792.287 644.529 791.748ZM645.092 783.469L645.127 785.754H641.84C640.914 785.754 640.088 785.83 639.361 785.982C638.635 786.123 638.025 786.34 637.533 786.633C637.041 786.926 636.666 787.295 636.408 787.74C636.15 788.174 636.021 788.684 636.021 789.27C636.021 789.867 636.156 790.412 636.426 790.904C636.695 791.396 637.1 791.789 637.639 792.082C638.189 792.363 638.863 792.504 639.66 792.504C640.656 792.504 641.535 792.293 642.297 791.871C643.059 791.449 643.662 790.934 644.107 790.324C644.564 789.715 644.811 789.123 644.846 788.549L646.234 790.113C646.152 790.605 645.93 791.15 645.566 791.748C645.203 792.346 644.717 792.92 644.107 793.471C643.51 794.01 642.795 794.461 641.963 794.824C641.143 795.176 640.217 795.352 639.186 795.352C637.896 795.352 636.766 795.1 635.793 794.596C634.832 794.092 634.082 793.418 633.543 792.574C633.016 791.719 632.752 790.764 632.752 789.709C632.752 788.689 632.951 787.793 633.35 787.02C633.748 786.234 634.322 785.584 635.072 785.068C635.822 784.541 636.725 784.143 637.779 783.873C638.834 783.604 640.012 783.469 641.312 783.469H645.092ZM656.148 778.969V795H652.896V775.98H656.061L656.148 778.969ZM662.09 775.875L662.072 778.898C661.803 778.84 661.545 778.805 661.299 778.793C661.064 778.77 660.795 778.758 660.49 778.758C659.74 778.758 659.078 778.875 658.504 779.109C657.93 779.344 657.443 779.672 657.045 780.094C656.646 780.516 656.33 781.02 656.096 781.605C655.873 782.18 655.727 782.812 655.656 783.504L654.742 784.031C654.742 782.883 654.854 781.805 655.076 780.797C655.311 779.789 655.668 778.898 656.148 778.125C656.629 777.34 657.238 776.73 657.977 776.297C658.727 775.852 659.617 775.629 660.648 775.629C660.883 775.629 661.152 775.658 661.457 775.717C661.762 775.764 661.973 775.816 662.09 775.875Z" fill="#FFFEFB"/>
<path d="M509.742 706.867H514.582C516.855 706.867 518.5 707.207 519.516 707.887C520.531 708.566 521.039 709.641 521.039 711.109C521.039 712.125 520.754 712.965 520.184 713.629C519.621 714.285 518.797 714.711 517.711 714.906V715.023C520.312 715.469 521.613 716.836 521.613 719.125C521.613 720.656 521.094 721.852 520.055 722.711C519.023 723.57 517.578 724 515.719 724H509.742V706.867ZM511.734 714.203H515.016C516.422 714.203 517.434 713.984 518.051 713.547C518.668 713.102 518.977 712.355 518.977 711.309C518.977 710.348 518.633 709.656 517.945 709.234C517.258 708.805 516.164 708.59 514.664 708.59H511.734V714.203ZM511.734 715.891V722.301H515.309C516.691 722.301 517.73 722.035 518.426 721.504C519.129 720.965 519.48 720.125 519.48 718.984C519.48 717.922 519.121 717.141 518.402 716.641C517.691 716.141 516.605 715.891 515.145 715.891H511.734ZM540.176 715.41C540.176 718.152 539.48 720.309 538.09 721.879C536.707 723.449 534.781 724.234 532.312 724.234C529.789 724.234 527.84 723.465 526.465 721.926C525.098 720.379 524.414 718.199 524.414 715.387C524.414 712.598 525.102 710.438 526.477 708.906C527.852 707.367 529.805 706.598 532.336 706.598C534.797 706.598 536.719 707.379 538.102 708.941C539.484 710.504 540.176 712.66 540.176 715.41ZM526.523 715.41C526.523 717.73 527.016 719.492 528 720.695C528.992 721.891 530.43 722.488 532.312 722.488C534.211 722.488 535.645 721.891 536.613 720.695C537.582 719.5 538.066 717.738 538.066 715.41C538.066 713.105 537.582 711.359 536.613 710.172C535.652 708.977 534.227 708.379 532.336 708.379C530.438 708.379 528.992 708.98 528 710.184C527.016 711.379 526.523 713.121 526.523 715.41ZM557.684 715.27C557.684 718.098 556.914 720.262 555.375 721.762C553.844 723.254 551.637 724 548.754 724H544.008V706.867H549.258C551.922 706.867 553.992 707.605 555.469 709.082C556.945 710.559 557.684 712.621 557.684 715.27ZM555.574 715.34C555.574 713.105 555.012 711.422 553.887 710.289C552.77 709.156 551.105 708.59 548.895 708.59H546V722.277H548.426C550.801 722.277 552.586 721.695 553.781 720.531C554.977 719.359 555.574 717.629 555.574 715.34ZM565.875 715.434L570.445 706.867H572.602L566.883 717.355V724H564.867V717.449L559.16 706.867H561.34L565.875 715.434Z" fill="#FFFEFB"/>
</svg>
