<?xml version="1.0" encoding="utf-8"?>
<!-- Generator: Adobe Illustrator 25.4.1, SVG Export Plug-In . SVG Version: 6.00 Build 0)  -->
<svg version="1.1" id="Lager_1" xmlns="http://www.w3.org/2000/svg" xmlns:xlink="http://www.w3.org/1999/xlink" x="0px" y="0px"
	 viewBox="0 0 1085 1085" style="enable-background:new 0 0 1085 1085;" xml:space="preserve">
<style type="text/css">
	.st0{fill:#D76D77;}
	.st1{fill:#3A1C71;}
	.st2{fill:#FFAF7B;}
	.st3{fill:#FFFEFB;}
	.st4{fill:#222222;}
	.st5{fill:none;stroke:#E2E2E2;}
	.st6{fill:#FFFFFF;}
</style>
<rect x="-0.4" y="0.3" class="st0" width="1085" height="1085"/>
<rect x="-0.4" y="0.3" class="st1" width="1085" height="217"/>
<rect x="-0.4" y="217.3" class="st0" width="1085" height="217"/>
<rect x="-0.4" y="434.3" class="st2" width="1085" height="217"/>
<rect x="-0.4" y="651.3" class="st3" width="1085" height="217"/>
<rect x="-0.4" y="867.3" class="st4" width="1085" height="218"/>
<line class="st5" x1="1084.1" y1="651.3" x2="1084.1" y2="867.3"/>
<line class="st5" x1="0.1" y1="651.3" x2="0.1" y2="867.3"/>
<path class="st6" d="M55.1,172.7h-3.6l-1.1,5.6h-2l1.1-5.6h-3.3v-1.9h3.6l0.9-4.8h-3.5v-1.9h3.9l1.1-5.7h2l-1.1,5.7h3.6l1.1-5.7h2
	l-1.1,5.7h2.8v1.9h-3.2l-0.9,4.8h3.1v1.9h-3.4l-1.1,5.6h-2L55.1,172.7z M51.9,170.9h3.6l0.9-4.8h-3.6L51.9,170.9z M67.2,167.1h1.9
	c1.2,0,2.1-0.3,2.8-0.9c0.7-0.6,1-1.4,1-2.5c0-2.3-1.2-3.5-3.5-3.5c-1.1,0-2,0.3-2.6,0.9c-0.6,0.6-1,1.4-1,2.5h-2.5
	c0-1.6,0.6-2.9,1.7-3.9c1.2-1,2.6-1.6,4.4-1.6c1.9,0,3.3,0.5,4.4,1.5c1.1,1,1.6,2.4,1.6,4.1c0,0.9-0.3,1.7-0.8,2.5
	c-0.6,0.8-1.3,1.4-2.3,1.8c1.1,0.3,1.9,0.9,2.5,1.7c0.6,0.8,0.9,1.8,0.9,2.9c0,1.8-0.6,3.2-1.8,4.3c-1.2,1-2.7,1.6-4.6,1.6
	s-3.4-0.5-4.6-1.5c-1.2-1-1.7-2.3-1.7-4h2.5c0,1,0.3,1.9,1,2.5c0.7,0.6,1.6,0.9,2.7,0.9c1.2,0,2.2-0.3,2.8-1c0.6-0.6,1-1.6,1-2.7
	c0-1.2-0.4-2-1.1-2.7s-1.7-0.9-3.1-1h-1.9V167.1z M90.9,173.1h-8.3l-1.9,5.2H78l7.6-19.9h2.3l7.6,19.9h-2.7L90.9,173.1z M83.4,171
	h6.8l-3.4-9.3L83.4,171z M105.9,178.3h-2.5v-16.9l-5.1,1.9V161l7.2-2.7h0.4V178.3z M128.6,172c-0.2,2.1-1,3.7-2.3,4.9
	c-1.3,1.1-3,1.7-5.2,1.7c-2.4,0-4.2-0.8-5.7-2.5c-1.4-1.7-2.1-3.9-2.1-6.8v-1.9c0-1.8,0.3-3.5,1-4.9c0.7-1.4,1.6-2.5,2.8-3.2
	c1.2-0.8,2.6-1.1,4.2-1.1c2.1,0,3.8,0.6,5.1,1.8c1.3,1.2,2,2.8,2.2,4.9h-2.6c-0.2-1.6-0.7-2.7-1.5-3.4c-0.8-0.7-1.8-1.1-3.2-1.1
	c-1.7,0-3,0.6-4,1.9c-0.9,1.2-1.4,3-1.4,5.3v1.9c0,2.2,0.5,3.9,1.4,5.2s2.2,1.9,3.8,1.9c1.5,0,2.6-0.3,3.3-1
	c0.8-0.7,1.3-1.8,1.6-3.5H128.6z M144.4,159.8l-8.2,18.5h-2.7l8.2-17.8h-10.8v-2.1h13.5V159.8z M155.5,178.3H153v-16.9l-5.1,1.9V161
	l7.2-2.7h0.4V178.3z"/>
<path class="st6" d="M55.1,389.7h-3.6l-1.1,5.6h-2l1.1-5.6h-3.3v-1.9h3.6l0.9-4.8h-3.5v-1.9h3.9l1.1-5.7h2l-1.1,5.7h3.6l1.1-5.7h2
	l-1.1,5.7h2.8v1.9h-3.2l-0.9,4.8h3.1v1.9h-3.4l-1.1,5.6h-2L55.1,389.7z M51.9,387.9h3.6l0.9-4.8h-3.6L51.9,387.9z M64.2,395.3v-19.9
	h5.6c1.7,0,3.3,0.4,4.6,1.1c1.3,0.8,2.4,1.9,3.1,3.3c0.7,1.4,1.1,3,1.1,4.9v1.3c0,1.9-0.4,3.5-1.1,4.9c-0.7,1.4-1.8,2.5-3.1,3.3
	c-1.3,0.8-2.9,1.1-4.7,1.2H64.2z M66.8,377.6v15.6h2.8c2,0,3.6-0.6,4.7-1.9c1.1-1.3,1.7-3,1.7-5.4v-1.2c0-2.3-0.5-4-1.6-5.3
	c-1.1-1.3-2.6-1.9-4.5-1.9H66.8z M94.8,376.8l-8.2,18.5h-2.7l8.2-17.8H81.3v-2.1h13.5V376.8z M107.6,375.4v2.1h-0.5
	c-2,0-3.5,0.6-4.7,1.8c-1.2,1.1-1.8,2.7-2,4.8c1-1.2,2.5-1.8,4.3-1.8c1.7,0,3.1,0.6,4.1,1.8c1,1.2,1.6,2.8,1.6,4.7
	c0,2.1-0.6,3.7-1.7,4.9c-1.1,1.2-2.6,1.8-4.5,1.8c-1.9,0-3.5-0.7-4.6-2.2c-1.2-1.5-1.8-3.4-1.8-5.7v-1c0-3.7,0.8-6.5,2.3-8.4
	c1.6-1.9,3.9-2.9,7-3H107.6z M104.3,384.4c-0.9,0-1.7,0.3-2.4,0.8c-0.7,0.5-1.2,1.2-1.5,2v0.9c0,1.6,0.4,3,1.1,4
	c0.7,1,1.7,1.5,2.8,1.5c1.1,0,2-0.4,2.7-1.3c0.7-0.8,1-1.9,1-3.3c0-1.4-0.3-2.5-1-3.3C106.2,384.8,105.3,384.4,104.3,384.4z
	 M114,395.3v-19.9h5.6c1.7,0,3.3,0.4,4.6,1.1c1.3,0.8,2.4,1.9,3.1,3.3c0.7,1.4,1.1,3,1.1,4.9v1.3c0,1.9-0.4,3.5-1.1,4.9
	c-0.7,1.4-1.8,2.5-3.1,3.3c-1.3,0.8-2.9,1.1-4.7,1.2H114z M116.7,377.6v15.6h2.8c2,0,3.6-0.6,4.7-1.9c1.1-1.3,1.7-3,1.7-5.4v-1.2
	c0-2.3-0.5-4-1.6-5.3c-1.1-1.3-2.6-1.9-4.5-1.9H116.7z M144.6,376.8l-8.2,18.5h-2.7l8.2-17.8h-10.8v-2.1h13.5V376.8z M160.3,376.8
	l-8.2,18.5h-2.7l8.2-17.8h-10.8v-2.1h13.5V376.8z"/>
<path class="st6" d="M55.1,606.7h-3.6l-1.1,5.6h-2l1.1-5.6h-3.3v-1.9h3.6l0.9-4.8h-3.5v-1.9h3.9l1.1-5.7h2l-1.1,5.7h3.6l1.1-5.7h2
	l-1.1,5.7h2.8v1.9h-3.2l-0.9,4.8h3.1v1.9h-3.4l-1.1,5.6h-2L55.1,606.7z M51.9,604.9h3.6l0.9-4.8h-3.6L51.9,604.9z M75.2,603.5h-8.4
	v8.8h-2.6v-19.9h12.3v2.2h-9.7v6.8h8.4V603.5z M90.7,603.5h-8.4v8.8h-2.6v-19.9H92v2.2h-9.7v6.8h8.4V603.5z M103.8,607.1h-8.3
	l-1.9,5.2h-2.7l7.6-19.9h2.3l7.6,19.9h-2.7L103.8,607.1z M96.3,605h6.8l-3.4-9.3L96.3,605z M122.1,603.5h-8.4v8.8h-2.6v-19.9h12.3
	v2.2h-9.7v6.8h8.4V603.5z M138.8,593.8l-8.2,18.5h-2.7l8.2-17.8h-10.8v-2.1h13.5V593.8z M142.3,612.3v-19.9h6.5
	c2.2,0,3.8,0.4,4.9,1.3c1.1,0.9,1.6,2.2,1.6,4c0,0.9-0.3,1.8-0.8,2.5c-0.5,0.7-1.2,1.3-2.2,1.7c1.1,0.3,1.9,0.9,2.5,1.7
	c0.6,0.8,0.9,1.8,0.9,3c0,1.8-0.6,3.2-1.7,4.2c-1.2,1-2.8,1.5-4.9,1.5H142.3z M144.9,603v7.2h4.3c1.2,0,2.2-0.3,2.9-0.9
	c0.7-0.6,1.1-1.5,1.1-2.6c0-2.4-1.3-3.6-3.9-3.6H144.9z M144.9,600.9h4c1.1,0,2.1-0.3,2.7-0.9c0.7-0.6,1-1.4,1-2.3
	c0-1.1-0.3-1.9-1-2.4c-0.6-0.5-1.6-0.8-2.9-0.8h-3.9V600.9z"/>
<path class="st6" d="M55.1,1040.7h-3.6l-1.1,5.6h-2l1.1-5.6h-3.3v-1.9h3.6l0.9-4.8h-3.5v-1.9h3.9l1.1-5.7h2l-1.1,5.7h3.6l1.1-5.7h2
	l-1.1,5.7h2.8v1.9h-3.2l-0.9,4.8h3.1v1.9h-3.4l-1.1,5.6h-2L55.1,1040.7z M51.9,1038.8h3.6l0.9-4.8h-3.6L51.9,1038.8z M76.6,1046.3
	h-13v-1.8l6.9-7.7c1-1.2,1.7-2.1,2.1-2.8c0.4-0.7,0.6-1.5,0.6-2.3c0-1-0.3-1.9-0.9-2.5c-0.6-0.7-1.5-1-2.5-1c-1.3,0-2.2,0.4-2.9,1.1
	c-0.7,0.7-1,1.7-1,3h-2.5c0-1.8,0.6-3.3,1.8-4.4c1.2-1.1,2.8-1.7,4.7-1.7c1.9,0,3.3,0.5,4.4,1.5s1.6,2.3,1.6,3.9c0,2-1.2,4.3-3.7,7
	l-5.3,5.8h10V1046.3z M92.3,1046.3h-13v-1.8l6.9-7.7c1-1.2,1.7-2.1,2.1-2.8c0.4-0.7,0.6-1.5,0.6-2.3c0-1-0.3-1.9-0.9-2.5
	c-0.6-0.7-1.5-1-2.5-1c-1.3,0-2.2,0.4-2.9,1.1c-0.7,0.7-1,1.7-1,3h-2.5c0-1.8,0.6-3.3,1.8-4.4c1.2-1.1,2.8-1.7,4.7-1.7
	c1.9,0,3.3,0.5,4.4,1.5c1.1,1,1.6,2.3,1.6,3.9c0,2-1.2,4.3-3.7,7l-5.3,5.8h10V1046.3z M108,1046.3H95v-1.8l6.9-7.7
	c1-1.2,1.7-2.1,2.1-2.8c0.4-0.7,0.6-1.5,0.6-2.3c0-1-0.3-1.9-0.9-2.5c-0.6-0.7-1.5-1-2.5-1c-1.3,0-2.2,0.4-2.9,1.1
	c-0.7,0.7-1,1.7-1,3h-2.5c0-1.8,0.6-3.3,1.8-4.4c1.2-1.1,2.8-1.7,4.7-1.7c1.9,0,3.3,0.5,4.4,1.5c1.1,1,1.6,2.3,1.6,3.9
	c0,2-1.2,4.3-3.7,7l-5.3,5.8h10V1046.3z M123.8,1046.3h-13v-1.8l6.9-7.7c1-1.2,1.7-2.1,2.1-2.8c0.4-0.7,0.6-1.5,0.6-2.3
	c0-1-0.3-1.9-0.9-2.5c-0.6-0.7-1.5-1-2.5-1c-1.3,0-2.2,0.4-2.9,1.1c-0.7,0.7-1,1.7-1,3h-2.5c0-1.8,0.6-3.3,1.8-4.4
	c1.2-1.1,2.8-1.7,4.7-1.7c1.9,0,3.3,0.5,4.4,1.5c1.1,1,1.6,2.3,1.6,3.9c0,2-1.2,4.3-3.7,7l-5.3,5.8h10V1046.3z M139.5,1046.3h-13
	v-1.8l6.9-7.7c1-1.2,1.7-2.1,2.1-2.8c0.4-0.7,0.6-1.5,0.6-2.3c0-1-0.3-1.9-0.9-2.5c-0.6-0.7-1.5-1-2.5-1c-1.3,0-2.2,0.4-2.9,1.1
	c-0.7,0.7-1,1.7-1,3h-2.5c0-1.8,0.6-3.3,1.8-4.4c1.2-1.1,2.8-1.7,4.7-1.7c1.9,0,3.3,0.5,4.4,1.5c1.1,1,1.6,2.3,1.6,3.9
	c0,2-1.2,4.3-3.7,7l-5.3,5.8h10V1046.3z M155.2,1046.3h-13v-1.8l6.9-7.7c1-1.2,1.7-2.1,2.1-2.8c0.4-0.7,0.6-1.5,0.6-2.3
	c0-1-0.3-1.9-0.9-2.5c-0.6-0.7-1.5-1-2.5-1c-1.3,0-2.2,0.4-2.9,1.1c-0.7,0.7-1,1.7-1,3h-2.5c0-1.8,0.6-3.3,1.8-4.4
	c1.2-1.1,2.8-1.7,4.7-1.7c1.9,0,3.3,0.5,4.4,1.5c1.1,1,1.6,2.3,1.6,3.9c0,2-1.2,4.3-3.7,7l-5.3,5.8h10V1046.3z"/>
<path d="M55.1,823.7h-3.6l-1.1,5.6h-2l1.1-5.6h-3.3v-1.9h3.6l0.9-4.8h-3.5v-1.9h3.9l1.1-5.7h2l-1.1,5.7h3.6l1.1-5.7h2l-1.1,5.7h2.8
	v1.9h-3.2l-0.9,4.8h3.1v1.9h-3.4l-1.1,5.6h-2L55.1,823.7z M51.9,821.9h3.6l0.9-4.8h-3.6L51.9,821.9z M75.2,820.5h-8.4v8.8h-2.6
	v-19.9h12.3v2.2h-9.7v6.8h8.4V820.5z M90.7,820.5h-8.4v8.8h-2.6v-19.9H92v2.2h-9.7v6.8h8.4V820.5z M106.1,820.5h-8.4v8.8h-2.6v-19.9
	h12.3v2.2h-9.7v6.8h8.4V820.5z M121.9,820.1h-8.6v7.1h10v2.1h-12.6v-19.9h12.5v2.2h-9.9v6.4h8.6V820.1z M137.5,820.5h-8.4v8.8h-2.6
	v-19.9h12.3v2.2h-9.7v6.8h8.4V820.5z M142,829.3v-19.9h6.5c2.2,0,3.8,0.4,4.9,1.3c1.1,0.9,1.6,2.2,1.6,4c0,0.9-0.3,1.8-0.8,2.5
	c-0.5,0.7-1.2,1.3-2.2,1.7c1.1,0.3,1.9,0.9,2.5,1.7c0.6,0.8,0.9,1.8,0.9,3c0,1.8-0.6,3.2-1.7,4.2c-1.2,1-2.8,1.5-4.9,1.5H142z
	 M144.7,820v7.2h4.3c1.2,0,2.2-0.3,2.9-0.9c0.7-0.6,1.1-1.5,1.1-2.6c0-2.4-1.3-3.6-3.9-3.6H144.7z M144.7,817.9h4
	c1.1,0,2.1-0.3,2.7-0.9c0.7-0.6,1-1.4,1-2.3c0-1.1-0.3-1.9-1-2.4c-0.6-0.5-1.6-0.8-2.9-0.8h-3.9V817.9z"/>
</svg>
