<svg width="1085" height="1085" viewBox="0 0 1085 1085" fill="none" xmlns="http://www.w3.org/2000/svg">
<path d="M1085 0H0V1085H1085V0Z" fill="#3A1C71"/>
<path d="M130 763.5V750.703H134.184C135.573 750.703 136.616 750.99 137.313 751.564C138.016 752.139 138.368 752.988 138.368 754.113C138.368 754.711 138.198 755.241 137.858 755.704C137.518 756.161 137.055 756.516 136.469 756.768C137.161 756.961 137.705 757.33 138.104 757.875C138.508 758.414 138.71 759.059 138.71 759.809C138.71 760.957 138.338 761.859 137.594 762.516C136.85 763.172 135.798 763.5 134.439 763.5H130ZM131.688 757.515V762.12H134.474C135.259 762.12 135.877 761.918 136.328 761.514C136.786 761.104 137.014 760.541 137.014 759.826C137.014 758.285 136.176 757.515 134.5 757.515H131.688ZM131.688 756.161H134.237C134.975 756.161 135.564 755.977 136.003 755.607C136.449 755.238 136.671 754.737 136.671 754.104C136.671 753.401 136.466 752.892 136.056 752.575C135.646 752.253 135.022 752.092 134.184 752.092H131.688V756.161ZM140.53 758.657C140.53 757.726 140.711 756.888 141.075 756.144C141.444 755.399 141.953 754.825 142.604 754.421C143.26 754.017 144.007 753.814 144.845 753.814C146.14 753.814 147.186 754.263 147.983 755.159C148.786 756.056 149.187 757.248 149.187 758.736V758.851C149.187 759.776 149.008 760.608 148.651 761.347C148.299 762.079 147.792 762.65 147.13 763.061C146.474 763.471 145.718 763.676 144.863 763.676C143.574 763.676 142.528 763.228 141.725 762.331C140.928 761.435 140.53 760.248 140.53 758.771V758.657ZM142.164 758.851C142.164 759.905 142.408 760.752 142.894 761.391C143.386 762.029 144.042 762.349 144.863 762.349C145.689 762.349 146.345 762.026 146.831 761.382C147.318 760.731 147.561 759.823 147.561 758.657C147.561 757.614 147.312 756.771 146.814 756.126C146.322 755.476 145.665 755.15 144.845 755.15C144.042 755.15 143.395 755.47 142.903 756.108C142.411 756.747 142.164 757.661 142.164 758.851ZM150.83 758.666C150.83 757.207 151.176 756.035 151.868 755.15C152.559 754.26 153.464 753.814 154.583 753.814C155.697 753.814 156.578 754.195 157.229 754.957V750H158.855V763.5H157.361L157.282 762.48C156.631 763.277 155.726 763.676 154.566 763.676C153.464 763.676 152.565 763.225 151.868 762.322C151.176 761.42 150.83 760.242 150.83 758.789V758.666ZM152.456 758.851C152.456 759.929 152.679 760.772 153.124 761.382C153.57 761.991 154.185 762.296 154.97 762.296C156.001 762.296 156.754 761.833 157.229 760.907V756.539C156.743 755.643 155.995 755.194 154.988 755.194C154.191 755.194 153.57 755.502 153.124 756.117C152.679 756.732 152.456 757.644 152.456 758.851ZM164.497 761.118L166.712 753.99H168.453L164.629 764.968C164.037 766.55 163.097 767.341 161.808 767.341L161.5 767.314L160.894 767.2V765.882L161.333 765.917C161.884 765.917 162.312 765.806 162.617 765.583C162.927 765.36 163.182 764.953 163.381 764.361L163.742 763.395L160.349 753.99H162.124L164.497 761.118ZM176.582 751.688V753.99H178.358V755.247H176.582V761.145C176.582 761.525 176.661 761.812 176.82 762.006C176.978 762.193 177.247 762.287 177.628 762.287C177.816 762.287 178.074 762.252 178.402 762.182V763.5C177.974 763.617 177.558 763.676 177.154 763.676C176.427 763.676 175.879 763.456 175.51 763.017C175.141 762.577 174.956 761.953 174.956 761.145V755.247H173.225V753.99H174.956V751.688H176.582ZM184.211 763.676C182.922 763.676 181.873 763.254 181.065 762.41C180.256 761.561 179.852 760.427 179.852 759.009V758.71C179.852 757.767 180.031 756.926 180.388 756.188C180.751 755.443 181.255 754.863 181.9 754.447C182.55 754.025 183.253 753.814 184.009 753.814C185.245 753.814 186.206 754.222 186.892 755.036C187.577 755.851 187.92 757.017 187.92 758.534V759.211H181.478C181.501 760.148 181.774 760.907 182.295 761.487C182.823 762.062 183.491 762.349 184.299 762.349C184.873 762.349 185.36 762.231 185.758 761.997C186.157 761.763 186.505 761.452 186.804 761.065L187.797 761.839C187 763.063 185.805 763.676 184.211 763.676ZM184.009 755.15C183.353 755.15 182.802 755.391 182.357 755.871C181.911 756.346 181.636 757.014 181.531 757.875H186.294V757.752C186.247 756.926 186.025 756.287 185.626 755.836C185.228 755.379 184.689 755.15 184.009 755.15ZM193 757.462L195.11 753.99H197.008L193.897 758.692L197.105 763.5H195.224L193.027 759.94L190.829 763.5H188.94L192.148 758.692L189.036 753.99H190.917L193 757.462ZM200.946 751.688V753.99H202.721V755.247H200.946V761.145C200.946 761.525 201.025 761.812 201.183 762.006C201.341 762.193 201.611 762.287 201.992 762.287C202.179 762.287 202.437 762.252 202.765 762.182V763.5C202.337 763.617 201.921 763.676 201.517 763.676C200.79 763.676 200.243 763.456 199.873 763.017C199.504 762.577 199.32 761.953 199.32 761.145V755.247H197.588V753.99H199.32V751.688H200.946ZM212.477 758.728H208.188V757.4H212.477V758.728ZM223.481 758.323H220.475V763.5H218.779V750.703H223.015C224.456 750.703 225.564 751.031 226.337 751.688C227.117 752.344 227.506 753.299 227.506 754.553C227.506 755.35 227.289 756.044 226.856 756.636C226.428 757.228 225.83 757.67 225.063 757.963L228.069 763.395V763.5H226.258L223.481 758.323ZM220.475 756.943H223.068C223.906 756.943 224.571 756.727 225.063 756.293C225.561 755.859 225.81 755.279 225.81 754.553C225.81 753.762 225.573 753.155 225.098 752.733C224.629 752.312 223.95 752.098 223.059 752.092H220.475V756.943ZM229.194 758.657C229.194 757.726 229.375 756.888 229.739 756.144C230.108 755.399 230.618 754.825 231.268 754.421C231.924 754.017 232.671 753.814 233.509 753.814C234.804 753.814 235.85 754.263 236.647 755.159C237.45 756.056 237.851 757.248 237.851 758.736V758.851C237.851 759.776 237.672 760.608 237.315 761.347C236.963 762.079 236.456 762.65 235.794 763.061C235.138 763.471 234.382 763.676 233.527 763.676C232.238 763.676 231.192 763.228 230.389 762.331C229.592 761.435 229.194 760.248 229.194 758.771V758.657ZM230.828 758.851C230.828 759.905 231.072 760.752 231.558 761.391C232.05 762.029 232.706 762.349 233.527 762.349C234.353 762.349 235.009 762.026 235.495 761.382C235.982 760.731 236.225 759.823 236.225 758.657C236.225 757.614 235.976 756.771 235.478 756.126C234.986 755.476 234.329 755.15 233.509 755.15C232.706 755.15 232.059 755.47 231.567 756.108C231.075 756.747 230.828 757.661 230.828 758.851ZM247.941 758.851C247.941 760.304 247.607 761.473 246.939 762.357C246.271 763.236 245.374 763.676 244.249 763.676C243.048 763.676 242.119 763.251 241.463 762.401L241.384 763.5H239.89V750H241.516V755.036C242.172 754.222 243.077 753.814 244.232 753.814C245.386 753.814 246.291 754.251 246.948 755.124C247.61 755.997 247.941 757.192 247.941 758.71V758.851ZM246.315 758.666C246.315 757.559 246.101 756.703 245.673 756.1C245.245 755.496 244.63 755.194 243.827 755.194C242.755 755.194 241.985 755.692 241.516 756.688V760.802C242.014 761.798 242.79 762.296 243.845 762.296C244.624 762.296 245.231 761.994 245.664 761.391C246.098 760.787 246.315 759.879 246.315 758.666ZM249.567 758.657C249.567 757.726 249.748 756.888 250.112 756.144C250.481 755.399 250.991 754.825 251.641 754.421C252.297 754.017 253.044 753.814 253.882 753.814C255.177 753.814 256.223 754.263 257.02 755.159C257.823 756.056 258.224 757.248 258.224 758.736V758.851C258.224 759.776 258.045 760.608 257.688 761.347C257.336 762.079 256.829 762.65 256.167 763.061C255.511 763.471 254.755 763.676 253.9 763.676C252.611 763.676 251.565 763.228 250.762 762.331C249.965 761.435 249.567 760.248 249.567 758.771V758.657ZM251.202 758.851C251.202 759.905 251.445 760.752 251.931 761.391C252.423 762.029 253.079 762.349 253.9 762.349C254.726 762.349 255.382 762.026 255.869 761.382C256.355 760.731 256.598 759.823 256.598 758.657C256.598 757.614 256.349 756.771 255.851 756.126C255.359 755.476 254.703 755.15 253.882 755.15C253.079 755.15 252.432 755.47 251.94 756.108C251.448 756.747 251.202 757.661 251.202 758.851ZM262.469 751.688V753.99H264.244V755.247H262.469V761.145C262.469 761.525 262.548 761.812 262.706 762.006C262.865 762.193 263.134 762.287 263.515 762.287C263.703 762.287 263.96 762.252 264.288 762.182V763.5C263.861 763.617 263.445 763.676 263.04 763.676C262.314 763.676 261.766 763.456 261.397 763.017C261.028 762.577 260.843 761.953 260.843 761.145V755.247H259.112V753.99H260.843V751.688H262.469ZM265.545 758.657C265.545 757.726 265.727 756.888 266.09 756.144C266.459 755.399 266.969 754.825 267.619 754.421C268.276 754.017 269.023 753.814 269.861 753.814C271.156 753.814 272.202 754.263 272.998 755.159C273.801 756.056 274.203 757.248 274.203 758.736V758.851C274.203 759.776 274.024 760.608 273.666 761.347C273.315 762.079 272.808 762.65 272.146 763.061C271.49 763.471 270.734 763.676 269.878 763.676C268.589 763.676 267.543 763.228 266.741 762.331C265.944 761.435 265.545 760.248 265.545 758.771V758.657ZM267.18 758.851C267.18 759.905 267.423 760.752 267.91 761.391C268.402 762.029 269.058 762.349 269.878 762.349C270.704 762.349 271.361 762.026 271.847 761.382C272.333 760.731 272.577 759.823 272.577 758.657C272.577 757.614 272.327 756.771 271.829 756.126C271.337 755.476 270.681 755.15 269.861 755.15C269.058 755.15 268.411 755.47 267.918 756.108C267.426 756.747 267.18 757.661 267.18 758.851ZM285.883 763.5H284.248V752.663L280.97 753.867V752.391L285.628 750.642H285.883V763.5ZM298.408 754.043C298.408 754.682 298.238 755.25 297.898 755.748C297.564 756.246 297.11 756.636 296.536 756.917C297.203 757.204 297.731 757.623 298.118 758.174C298.51 758.725 298.706 759.349 298.706 760.046C298.706 761.153 298.331 762.035 297.581 762.691C296.837 763.348 295.856 763.676 294.637 763.676C293.407 763.676 292.419 763.348 291.675 762.691C290.937 762.029 290.568 761.147 290.568 760.046C290.568 759.354 290.755 758.73 291.13 758.174C291.511 757.617 292.036 757.195 292.703 756.908C292.135 756.627 291.687 756.237 291.359 755.739C291.031 755.241 290.867 754.676 290.867 754.043C290.867 752.965 291.212 752.109 291.904 751.477C292.595 750.844 293.506 750.527 294.637 750.527C295.762 750.527 296.67 750.844 297.362 751.477C298.059 752.109 298.408 752.965 298.408 754.043ZM297.08 760.011C297.08 759.296 296.852 758.713 296.395 758.262C295.944 757.811 295.352 757.585 294.619 757.585C293.887 757.585 293.298 757.808 292.853 758.253C292.413 758.698 292.194 759.284 292.194 760.011C292.194 760.737 292.408 761.309 292.835 761.725C293.269 762.141 293.869 762.349 294.637 762.349C295.399 762.349 295.996 762.141 296.43 761.725C296.864 761.303 297.08 760.731 297.08 760.011ZM294.637 751.863C293.998 751.863 293.48 752.062 293.081 752.461C292.689 752.854 292.493 753.39 292.493 754.069C292.493 754.72 292.686 755.247 293.073 755.651C293.465 756.05 293.987 756.249 294.637 756.249C295.287 756.249 295.806 756.05 296.193 755.651C296.585 755.247 296.782 754.72 296.782 754.069C296.782 753.419 296.579 752.889 296.175 752.479C295.771 752.068 295.258 751.863 294.637 751.863ZM313.419 758.851C313.419 760.298 313.088 761.464 312.426 762.349C311.764 763.233 310.868 763.676 309.737 763.676C308.582 763.676 307.674 763.31 307.012 762.577V767.156H305.386V753.99H306.871L306.951 755.045C307.613 754.225 308.533 753.814 309.71 753.814C310.853 753.814 311.755 754.245 312.417 755.106C313.085 755.968 313.419 757.166 313.419 758.701V758.851ZM311.793 758.666C311.793 757.594 311.565 756.747 311.108 756.126C310.651 755.505 310.024 755.194 309.227 755.194C308.243 755.194 307.504 755.631 307.012 756.504V761.048C307.498 761.915 308.243 762.349 309.244 762.349C310.024 762.349 310.642 762.041 311.099 761.426C311.562 760.805 311.793 759.885 311.793 758.666ZM318.543 757.462L320.653 753.99H322.551L319.44 758.692L322.648 763.5H320.767L318.57 759.94L316.372 763.5H314.483L317.691 758.692L314.579 753.99H316.46L318.543 757.462ZM333.696 758.323H330.69V763.5H328.994V750.703H333.23C334.671 750.703 335.779 751.031 336.552 751.688C337.331 752.344 337.721 753.299 337.721 754.553C337.721 755.35 337.504 756.044 337.071 756.636C336.643 757.228 336.045 757.67 335.278 757.963L338.284 763.395V763.5H336.473L333.696 758.323ZM330.69 756.943H333.283C334.12 756.943 334.786 756.727 335.278 756.293C335.776 755.859 336.025 755.279 336.025 754.553C336.025 753.762 335.787 753.155 335.313 752.733C334.844 752.312 334.164 752.098 333.274 752.092H330.69V756.943ZM343.786 763.676C342.496 763.676 341.448 763.254 340.639 762.41C339.83 761.561 339.426 760.427 339.426 759.009V758.71C339.426 757.767 339.605 756.926 339.962 756.188C340.326 755.443 340.829 754.863 341.474 754.447C342.124 754.025 342.827 753.814 343.583 753.814C344.82 753.814 345.781 754.222 346.466 755.036C347.152 755.851 347.494 757.017 347.494 758.534V759.211H341.052C341.076 760.148 341.348 760.907 341.869 761.487C342.397 762.062 343.065 762.349 343.873 762.349C344.448 762.349 344.934 762.231 345.332 761.997C345.731 761.763 346.079 761.452 346.378 761.065L347.371 761.839C346.575 763.063 345.379 763.676 343.786 763.676ZM343.583 755.15C342.927 755.15 342.376 755.391 341.931 755.871C341.486 756.346 341.21 757.014 341.105 757.875H345.869V757.752C345.822 756.926 345.599 756.287 345.201 755.836C344.802 755.379 344.263 755.15 343.583 755.15ZM348.997 758.666C348.997 757.184 349.34 756.006 350.026 755.133C350.711 754.254 351.619 753.814 352.75 753.814C353.911 753.814 354.816 754.225 355.466 755.045L355.545 753.99H357.031V763.271C357.031 764.502 356.664 765.472 355.932 766.181C355.205 766.89 354.227 767.244 352.996 767.244C352.311 767.244 351.64 767.098 350.984 766.805C350.327 766.512 349.827 766.11 349.481 765.601L350.325 764.625C351.022 765.486 351.874 765.917 352.882 765.917C353.673 765.917 354.288 765.694 354.728 765.249C355.173 764.804 355.396 764.177 355.396 763.368V762.551C354.745 763.301 353.858 763.676 352.733 763.676C351.619 763.676 350.717 763.228 350.026 762.331C349.34 761.435 348.997 760.213 348.997 758.666ZM350.632 758.851C350.632 759.923 350.852 760.767 351.291 761.382C351.731 761.991 352.346 762.296 353.137 762.296C354.162 762.296 354.915 761.83 355.396 760.898V756.557C354.898 755.648 354.151 755.194 353.155 755.194C352.364 755.194 351.745 755.502 351.3 756.117C350.855 756.732 350.632 757.644 350.632 758.851ZM365.363 762.56C364.73 763.304 363.801 763.676 362.577 763.676C361.563 763.676 360.789 763.383 360.256 762.797C359.729 762.205 359.462 761.332 359.456 760.178V753.99H361.082V760.134C361.082 761.575 361.668 762.296 362.84 762.296C364.082 762.296 364.909 761.833 365.319 760.907V753.99H366.945V763.5H365.398L365.363 762.56ZM371.19 763.5H369.564V750H371.19V763.5ZM379.671 763.5C379.577 763.312 379.501 762.979 379.443 762.498C378.687 763.283 377.785 763.676 376.736 763.676C375.798 763.676 375.028 763.412 374.424 762.885C373.827 762.352 373.528 761.678 373.528 760.863C373.528 759.873 373.903 759.105 374.653 758.561C375.409 758.01 376.469 757.734 377.834 757.734H379.416V756.987C379.416 756.419 379.246 755.968 378.907 755.634C378.567 755.294 378.066 755.124 377.404 755.124C376.824 755.124 376.337 755.271 375.945 755.563C375.552 755.856 375.356 756.211 375.356 756.627H373.721C373.721 756.152 373.888 755.695 374.222 755.256C374.562 754.811 375.019 754.459 375.593 754.201C376.173 753.943 376.809 753.814 377.5 753.814C378.596 753.814 379.454 754.09 380.076 754.641C380.697 755.186 381.019 755.938 381.042 756.899V761.276C381.042 762.149 381.154 762.844 381.376 763.359V763.5H379.671ZM376.973 762.261C377.483 762.261 377.966 762.129 378.423 761.865C378.88 761.602 379.211 761.259 379.416 760.837V758.886H378.142C376.15 758.886 375.154 759.469 375.154 760.635C375.154 761.145 375.324 761.543 375.663 761.83C376.003 762.117 376.44 762.261 376.973 762.261ZM388.188 755.449C387.942 755.408 387.675 755.388 387.388 755.388C386.322 755.388 385.598 755.842 385.217 756.75V763.5H383.591V753.99H385.173L385.2 755.089C385.733 754.239 386.489 753.814 387.467 753.814C387.784 753.814 388.024 753.855 388.188 753.938V755.449Z" fill="white"/>
<path d="M152.635 572.4V597.672H146.479V587.268H136.903V597.672H130.747V572.4H136.903V582.3H146.479V572.4H152.635ZM156.683 578.808C156.779 576.24 157.619 574.26 159.203 572.868C160.787 571.476 162.935 570.78 165.647 570.78C167.447 570.78 168.983 571.092 170.255 571.716C171.551 572.34 172.523 573.192 173.171 574.272C173.843 575.352 174.179 576.564 174.179 577.908C174.179 579.492 173.783 580.788 172.991 581.796C172.199 582.78 171.275 583.452 170.219 583.812V583.956C171.587 584.412 172.667 585.168 173.459 586.224C174.251 587.28 174.647 588.636 174.647 590.292C174.647 591.78 174.299 593.1 173.603 594.252C172.931 595.38 171.935 596.268 170.615 596.916C169.319 597.564 167.771 597.888 165.971 597.888C163.091 597.888 160.787 597.18 159.059 595.764C157.355 594.348 156.455 592.212 156.359 589.356H162.335C162.359 590.412 162.659 591.252 163.235 591.876C163.811 592.476 164.651 592.776 165.755 592.776C166.691 592.776 167.411 592.512 167.915 591.984C168.443 591.432 168.707 590.712 168.707 589.824C168.707 588.672 168.335 587.844 167.591 587.34C166.871 586.812 165.707 586.548 164.099 586.548H162.947V581.544H164.099C165.323 581.544 166.307 581.34 167.051 580.932C167.819 580.5 168.203 579.744 168.203 578.664C168.203 577.8 167.963 577.128 167.483 576.648C167.003 576.168 166.343 575.928 165.503 575.928C164.591 575.928 163.907 576.204 163.451 576.756C163.019 577.308 162.767 577.992 162.695 578.808H156.683ZM201.985 582.48V587.592H186.145V582.48H201.985ZM234.277 580.536C234.277 582 233.941 583.344 233.269 584.568C232.597 585.768 231.565 586.74 230.173 587.484C228.781 588.228 227.053 588.6 224.989 588.6H221.173V597.672H215.017V572.4H224.989C227.005 572.4 228.709 572.748 230.101 573.444C231.493 574.14 232.537 575.1 233.233 576.324C233.929 577.548 234.277 578.952 234.277 580.536ZM224.521 583.704C225.697 583.704 226.573 583.428 227.149 582.876C227.725 582.324 228.013 581.544 228.013 580.536C228.013 579.528 227.725 578.748 227.149 578.196C226.573 577.644 225.697 577.368 224.521 577.368H221.173V583.704H224.521ZM246.625 597.96C244.657 597.96 242.881 597.54 241.297 596.7C239.737 595.86 238.501 594.66 237.589 593.1C236.701 591.54 236.257 589.716 236.257 587.628C236.257 585.564 236.713 583.752 237.625 582.192C238.537 580.608 239.785 579.396 241.369 578.556C242.953 577.716 244.729 577.296 246.697 577.296C248.665 577.296 250.441 577.716 252.025 578.556C253.609 579.396 254.857 580.608 255.769 582.192C256.681 583.752 257.137 585.564 257.137 587.628C257.137 589.692 256.669 591.516 255.733 593.1C254.821 594.66 253.561 595.86 251.953 596.7C250.369 597.54 248.593 597.96 246.625 597.96ZM246.625 592.632C247.801 592.632 248.797 592.2 249.613 591.336C250.453 590.472 250.873 589.236 250.873 587.628C250.873 586.02 250.465 584.784 249.649 583.92C248.857 583.056 247.873 582.624 246.697 582.624C245.497 582.624 244.501 583.056 243.709 583.92C242.917 584.76 242.521 585.996 242.521 587.628C242.521 589.236 242.905 590.472 243.673 591.336C244.465 592.2 245.449 592.632 246.625 592.632ZM266.559 580.428C267.159 579.492 267.987 578.736 269.043 578.16C270.099 577.584 271.335 577.296 272.751 577.296C274.407 577.296 275.907 577.716 277.251 578.556C278.595 579.396 279.651 580.596 280.419 582.156C281.211 583.716 281.607 585.528 281.607 587.592C281.607 589.656 281.211 591.48 280.419 593.064C279.651 594.624 278.595 595.836 277.251 596.7C275.907 597.54 274.407 597.96 272.751 597.96C271.359 597.96 270.123 597.672 269.043 597.096C267.987 596.52 267.159 595.776 266.559 594.864V607.248H260.403V577.584H266.559V580.428ZM275.343 587.592C275.343 586.056 274.911 584.856 274.047 583.992C273.207 583.104 272.163 582.66 270.915 582.66C269.691 582.66 268.647 583.104 267.783 583.992C266.943 584.88 266.523 586.092 266.523 587.628C266.523 589.164 266.943 590.376 267.783 591.264C268.647 592.152 269.691 592.596 270.915 592.596C272.139 592.596 273.183 592.152 274.047 591.264C274.911 590.352 275.343 589.128 275.343 587.592ZM290.993 580.428C291.593 579.492 292.421 578.736 293.477 578.16C294.533 577.584 295.769 577.296 297.185 577.296C298.841 577.296 300.341 577.716 301.685 578.556C303.029 579.396 304.085 580.596 304.853 582.156C305.645 583.716 306.041 585.528 306.041 587.592C306.041 589.656 305.645 591.48 304.853 593.064C304.085 594.624 303.029 595.836 301.685 596.7C300.341 597.54 298.841 597.96 297.185 597.96C295.793 597.96 294.557 597.672 293.477 597.096C292.421 596.52 291.593 595.776 290.993 594.864V607.248H284.837V577.584H290.993V580.428ZM299.777 587.592C299.777 586.056 299.345 584.856 298.481 583.992C297.641 583.104 296.597 582.66 295.349 582.66C294.125 582.66 293.081 583.104 292.217 583.992C291.377 584.88 290.957 586.092 290.957 587.628C290.957 589.164 291.377 590.376 292.217 591.264C293.081 592.152 294.125 592.596 295.349 592.596C296.573 592.596 297.617 592.152 298.481 591.264C299.345 590.352 299.777 589.128 299.777 587.592ZM312.366 575.496C311.286 575.496 310.398 575.184 309.702 574.56C309.03 573.912 308.694 573.12 308.694 572.184C308.694 571.224 309.03 570.432 309.702 569.808C310.398 569.16 311.286 568.836 312.366 568.836C313.422 568.836 314.286 569.16 314.958 569.808C315.654 570.432 316.002 571.224 316.002 572.184C316.002 573.12 315.654 573.912 314.958 574.56C314.286 575.184 313.422 575.496 312.366 575.496ZM315.426 577.584V597.672H309.27V577.584H315.426ZM332.128 577.368C334.48 577.368 336.352 578.136 337.744 579.672C339.16 581.184 339.868 583.272 339.868 585.936V597.672H333.748V586.764C333.748 585.42 333.4 584.376 332.704 583.632C332.008 582.888 331.072 582.516 329.896 582.516C328.72 582.516 327.784 582.888 327.088 583.632C326.392 584.376 326.044 585.42 326.044 586.764V597.672H319.888V577.584H326.044V580.248C326.668 579.36 327.508 578.664 328.564 578.16C329.62 577.632 330.808 577.368 332.128 577.368ZM352.317 597.96C350.565 597.96 349.005 597.66 347.637 597.06C346.269 596.46 345.189 595.644 344.397 594.612C343.605 593.556 343.161 592.38 343.065 591.084H349.149C349.221 591.78 349.545 592.344 350.121 592.776C350.697 593.208 351.405 593.424 352.245 593.424C353.013 593.424 353.601 593.28 354.009 592.992C354.441 592.68 354.657 592.284 354.657 591.804C354.657 591.228 354.357 590.808 353.757 590.544C353.157 590.256 352.185 589.944 350.841 589.608C349.401 589.272 348.201 588.924 347.241 588.564C346.281 588.18 345.453 587.592 344.757 586.8C344.061 585.984 343.713 584.892 343.713 583.524C343.713 582.372 344.025 581.328 344.649 580.392C345.297 579.432 346.233 578.676 347.457 578.124C348.705 577.572 350.181 577.296 351.885 577.296C354.405 577.296 356.385 577.92 357.825 579.168C359.289 580.416 360.129 582.072 360.345 584.136H354.657C354.561 583.44 354.249 582.888 353.721 582.48C353.217 582.072 352.545 581.868 351.705 581.868C350.985 581.868 350.433 582.012 350.049 582.3C349.665 582.564 349.473 582.936 349.473 583.416C349.473 583.992 349.773 584.424 350.373 584.712C350.997 585 351.957 585.288 353.253 585.576C354.741 585.96 355.953 586.344 356.889 586.728C357.825 587.088 358.641 587.688 359.337 588.528C360.057 589.344 360.429 590.448 360.453 591.84C360.453 593.016 360.117 594.072 359.445 595.008C358.797 595.92 357.849 596.64 356.601 597.168C355.377 597.696 353.949 597.96 352.317 597.96ZM371.453 578.808C371.549 576.24 372.389 574.26 373.973 572.868C375.557 571.476 377.705 570.78 380.417 570.78C382.217 570.78 383.753 571.092 385.025 571.716C386.321 572.34 387.293 573.192 387.941 574.272C388.613 575.352 388.949 576.564 388.949 577.908C388.949 579.492 388.553 580.788 387.761 581.796C386.969 582.78 386.045 583.452 384.989 583.812V583.956C386.357 584.412 387.437 585.168 388.229 586.224C389.021 587.28 389.417 588.636 389.417 590.292C389.417 591.78 389.069 593.1 388.373 594.252C387.701 595.38 386.705 596.268 385.385 596.916C384.089 597.564 382.541 597.888 380.741 597.888C377.861 597.888 375.557 597.18 373.829 595.764C372.125 594.348 371.225 592.212 371.129 589.356H377.105C377.129 590.412 377.429 591.252 378.005 591.876C378.581 592.476 379.421 592.776 380.525 592.776C381.461 592.776 382.181 592.512 382.685 591.984C383.213 591.432 383.477 590.712 383.477 589.824C383.477 588.672 383.105 587.844 382.361 587.34C381.641 586.812 380.477 586.548 378.869 586.548H377.717V581.544H378.869C380.093 581.544 381.077 581.34 381.821 580.932C382.589 580.5 382.973 579.744 382.973 578.664C382.973 577.8 382.733 577.128 382.253 576.648C381.773 576.168 381.113 575.928 380.273 575.928C379.361 575.928 378.677 576.204 378.221 576.756C377.789 577.308 377.537 577.992 377.465 578.808H371.453ZM406.029 578.484C405.837 577.596 405.501 576.936 405.021 576.504C404.541 576.048 403.857 575.82 402.969 575.82C401.601 575.82 400.617 576.42 400.017 577.62C399.417 578.796 399.105 580.668 399.081 583.236C399.609 582.396 400.365 581.736 401.349 581.256C402.357 580.776 403.461 580.536 404.661 580.536C407.013 580.536 408.897 581.28 410.313 582.768C411.753 584.256 412.473 586.332 412.473 588.996C412.473 590.748 412.113 592.284 411.393 593.604C410.697 594.924 409.665 595.956 408.297 596.7C406.953 597.444 405.357 597.816 403.509 597.816C399.813 597.816 397.245 596.664 395.805 594.36C394.365 592.032 393.645 588.696 393.645 584.352C393.645 579.792 394.401 576.408 395.913 574.2C397.449 571.968 399.897 570.852 403.257 570.852C405.057 570.852 406.569 571.212 407.793 571.932C409.041 572.628 409.977 573.552 410.601 574.704C411.249 575.856 411.633 577.116 411.753 578.484H406.029ZM403.185 585.396C402.153 585.396 401.289 585.708 400.593 586.332C399.921 586.932 399.585 587.796 399.585 588.924C399.585 590.076 399.897 590.976 400.521 591.624C401.169 592.272 402.081 592.596 403.257 592.596C404.313 592.596 405.141 592.284 405.741 591.66C406.365 591.012 406.677 590.136 406.677 589.032C406.677 587.904 406.377 587.016 405.777 586.368C405.177 585.72 404.313 585.396 403.185 585.396ZM430.352 580.428C430.952 579.492 431.78 578.736 432.836 578.16C433.892 577.584 435.128 577.296 436.544 577.296C438.2 577.296 439.7 577.716 441.044 578.556C442.388 579.396 443.444 580.596 444.212 582.156C445.004 583.716 445.4 585.528 445.4 587.592C445.4 589.656 445.004 591.48 444.212 593.064C443.444 594.624 442.388 595.836 441.044 596.7C439.7 597.54 438.2 597.96 436.544 597.96C435.152 597.96 433.916 597.672 432.836 597.096C431.78 596.52 430.952 595.776 430.352 594.864V607.248H424.196V577.584H430.352V580.428ZM439.136 587.592C439.136 586.056 438.704 584.856 437.84 583.992C437 583.104 435.956 582.66 434.708 582.66C433.484 582.66 432.44 583.104 431.576 583.992C430.736 584.88 430.316 586.092 430.316 587.628C430.316 589.164 430.736 590.376 431.576 591.264C432.44 592.152 433.484 592.596 434.708 592.596C435.932 592.596 436.976 592.152 437.84 591.264C438.704 590.352 439.136 589.128 439.136 587.592ZM460.51 597.672L456.658 592.092L453.418 597.672H446.758L453.382 587.412L446.578 577.584H453.49L457.342 583.128L460.582 577.584H467.242L460.51 587.7L467.422 597.672H460.51ZM492.723 584.712C494.187 585.024 495.363 585.756 496.251 586.908C497.139 588.036 497.583 589.332 497.583 590.796C497.583 592.908 496.839 594.588 495.351 595.836C493.887 597.06 491.835 597.672 489.195 597.672H477.423V572.4H488.799C491.367 572.4 493.371 572.988 494.811 574.164C496.275 575.34 497.007 576.936 497.007 578.952C497.007 580.44 496.611 581.676 495.819 582.66C495.051 583.644 494.019 584.328 492.723 584.712ZM483.579 582.624H487.611C488.619 582.624 489.387 582.408 489.915 581.976C490.467 581.52 490.743 580.86 490.743 579.996C490.743 579.132 490.467 578.472 489.915 578.016C489.387 577.56 488.619 577.332 487.611 577.332H483.579V582.624ZM488.115 592.704C489.147 592.704 489.939 592.476 490.491 592.02C491.067 591.54 491.355 590.856 491.355 589.968C491.355 589.08 491.055 588.384 490.455 587.88C489.879 587.376 489.075 587.124 488.043 587.124H483.579V592.704H488.115ZM510.297 597.96C508.329 597.96 506.553 597.54 504.969 596.7C503.409 595.86 502.173 594.66 501.261 593.1C500.373 591.54 499.929 589.716 499.929 587.628C499.929 585.564 500.385 583.752 501.297 582.192C502.209 580.608 503.457 579.396 505.041 578.556C506.625 577.716 508.401 577.296 510.369 577.296C512.337 577.296 514.113 577.716 515.697 578.556C517.281 579.396 518.529 580.608 519.441 582.192C520.353 583.752 520.809 585.564 520.809 587.628C520.809 589.692 520.341 591.516 519.405 593.1C518.493 594.66 517.233 595.86 515.625 596.7C514.041 597.54 512.265 597.96 510.297 597.96ZM510.297 592.632C511.473 592.632 512.469 592.2 513.285 591.336C514.125 590.472 514.545 589.236 514.545 587.628C514.545 586.02 514.137 584.784 513.321 583.92C512.529 583.056 511.545 582.624 510.369 582.624C509.169 582.624 508.173 583.056 507.381 583.92C506.589 584.76 506.193 585.996 506.193 587.628C506.193 589.236 506.577 590.472 507.345 591.336C508.137 592.2 509.121 592.632 510.297 592.632ZM530.231 571.032V597.672H524.075V571.032H530.231ZM533.468 587.592C533.468 585.528 533.852 583.716 534.62 582.156C535.412 580.596 536.48 579.396 537.824 578.556C539.168 577.716 540.668 577.296 542.324 577.296C543.644 577.296 544.844 577.572 545.924 578.124C547.028 578.676 547.892 579.42 548.516 580.356V571.032H554.672V597.672H548.516V594.792C547.94 595.752 547.112 596.52 546.032 597.096C544.976 597.672 543.74 597.96 542.324 597.96C540.668 597.96 539.168 597.54 537.824 596.7C536.48 595.836 535.412 594.624 534.62 593.064C533.852 591.48 533.468 589.656 533.468 587.592ZM548.516 587.628C548.516 586.092 548.084 584.88 547.22 583.992C546.38 583.104 545.348 582.66 544.124 582.66C542.9 582.66 541.856 583.104 540.992 583.992C540.152 584.856 539.732 586.056 539.732 587.592C539.732 589.128 540.152 590.352 540.992 591.264C541.856 592.152 542.9 592.596 544.124 592.596C545.348 592.596 546.38 592.152 547.22 591.264C548.084 590.376 548.516 589.164 548.516 587.628Z" fill="white"/>
<path d="M164.695 456.764V494.672H155.461V479.066H141.097V494.672H131.863V456.764H141.097V471.614H155.461V456.764H164.695ZM170.119 487.274C171.343 486.302 171.901 485.852 171.793 485.924C175.321 483.008 178.093 480.614 180.109 478.742C182.161 476.87 183.889 474.908 185.293 472.856C186.697 470.804 187.399 468.806 187.399 466.862C187.399 465.386 187.057 464.234 186.373 463.406C185.689 462.578 184.663 462.164 183.295 462.164C181.927 462.164 180.847 462.686 180.055 463.73C179.299 464.738 178.921 466.178 178.921 468.05H170.011C170.083 464.99 170.731 462.434 171.955 460.382C173.215 458.33 174.853 456.818 176.869 455.846C178.921 454.874 181.189 454.388 183.673 454.388C187.957 454.388 191.179 455.486 193.339 457.682C195.535 459.878 196.633 462.74 196.633 466.268C196.633 470.12 195.319 473.702 192.691 477.014C190.063 480.29 186.715 483.494 182.647 486.626H197.227V494.132H170.119V487.274ZM236.874 471.884V479.552H213.114V471.884H236.874ZM285.312 468.968C285.312 471.164 284.808 473.18 283.8 475.016C282.792 476.816 281.244 478.274 279.156 479.39C277.068 480.506 274.476 481.064 271.38 481.064H265.656V494.672H256.422V456.764H271.38C274.404 456.764 276.96 457.286 279.048 458.33C281.136 459.374 282.702 460.814 283.746 462.65C284.79 464.486 285.312 466.592 285.312 468.968ZM270.678 473.72C272.442 473.72 273.756 473.306 274.62 472.478C275.484 471.65 275.916 470.48 275.916 468.968C275.916 467.456 275.484 466.286 274.62 465.458C273.756 464.63 272.442 464.216 270.678 464.216H265.656V473.72H270.678ZM303.835 495.104C300.883 495.104 298.219 494.474 295.843 493.214C293.503 491.954 291.649 490.154 290.281 487.814C288.949 485.474 288.283 482.738 288.283 479.606C288.283 476.51 288.967 473.792 290.335 471.452C291.703 469.076 293.575 467.258 295.951 465.998C298.327 464.738 300.991 464.108 303.943 464.108C306.895 464.108 309.559 464.738 311.935 465.998C314.311 467.258 316.183 469.076 317.551 471.452C318.919 473.792 319.603 476.51 319.603 479.606C319.603 482.702 318.901 485.438 317.497 487.814C316.129 490.154 314.239 491.954 311.827 493.214C309.451 494.474 306.787 495.104 303.835 495.104ZM303.835 487.112C305.599 487.112 307.093 486.464 308.317 485.168C309.577 483.872 310.207 482.018 310.207 479.606C310.207 477.194 309.595 475.34 308.371 474.044C307.183 472.748 305.707 472.1 303.943 472.1C302.143 472.1 300.649 472.748 299.461 474.044C298.273 475.304 297.679 477.158 297.679 479.606C297.679 482.018 298.255 483.872 299.407 485.168C300.595 486.464 302.071 487.112 303.835 487.112ZM333.736 468.806C334.636 467.402 335.878 466.268 337.462 465.404C339.046 464.54 340.9 464.108 343.024 464.108C345.508 464.108 347.758 464.738 349.774 465.998C351.79 467.258 353.374 469.058 354.526 471.398C355.714 473.738 356.308 476.456 356.308 479.552C356.308 482.648 355.714 485.384 354.526 487.76C353.374 490.1 351.79 491.918 349.774 493.214C347.758 494.474 345.508 495.104 343.024 495.104C340.936 495.104 339.082 494.672 337.462 493.808C335.878 492.944 334.636 491.828 333.736 490.46V509.036H324.502V464.54H333.736V468.806ZM346.912 479.552C346.912 477.248 346.264 475.448 344.968 474.152C343.708 472.82 342.142 472.154 340.27 472.154C338.434 472.154 336.868 472.82 335.572 474.152C334.312 475.484 333.682 477.302 333.682 479.606C333.682 481.91 334.312 483.728 335.572 485.06C336.868 486.392 338.434 487.058 340.27 487.058C342.106 487.058 343.672 486.392 344.968 485.06C346.264 483.692 346.912 481.856 346.912 479.552ZM370.386 468.806C371.286 467.402 372.528 466.268 374.112 465.404C375.696 464.54 377.55 464.108 379.674 464.108C382.158 464.108 384.408 464.738 386.424 465.998C388.44 467.258 390.024 469.058 391.176 471.398C392.364 473.738 392.958 476.456 392.958 479.552C392.958 482.648 392.364 485.384 391.176 487.76C390.024 490.1 388.44 491.918 386.424 493.214C384.408 494.474 382.158 495.104 379.674 495.104C377.586 495.104 375.732 494.672 374.112 493.808C372.528 492.944 371.286 491.828 370.386 490.46V509.036H361.152V464.54H370.386V468.806ZM383.562 479.552C383.562 477.248 382.914 475.448 381.618 474.152C380.358 472.82 378.792 472.154 376.92 472.154C375.084 472.154 373.518 472.82 372.222 474.152C370.962 475.484 370.332 477.302 370.332 479.606C370.332 481.91 370.962 483.728 372.222 485.06C373.518 486.392 375.084 487.058 376.92 487.058C378.756 487.058 380.322 486.392 381.618 485.06C382.914 483.692 383.562 481.856 383.562 479.552ZM402.446 461.408C400.826 461.408 399.494 460.94 398.45 460.004C397.442 459.032 396.938 457.844 396.938 456.44C396.938 455 397.442 453.812 398.45 452.876C399.494 451.904 400.826 451.418 402.446 451.418C404.03 451.418 405.326 451.904 406.334 452.876C407.378 453.812 407.9 455 407.9 456.44C407.9 457.844 407.378 459.032 406.334 460.004C405.326 460.94 404.03 461.408 402.446 461.408ZM407.036 464.54V494.672H397.802V464.54H407.036ZM432.088 464.216C435.616 464.216 438.424 465.368 440.512 467.672C442.636 469.94 443.698 473.072 443.698 477.068V494.672H434.518V478.31C434.518 476.294 433.996 474.728 432.952 473.612C431.908 472.496 430.504 471.938 428.74 471.938C426.976 471.938 425.572 472.496 424.528 473.612C423.484 474.728 422.962 476.294 422.962 478.31V494.672H413.728V464.54H422.962V468.536C423.898 467.204 425.158 466.16 426.742 465.404C428.326 464.612 430.108 464.216 432.088 464.216ZM462.373 495.104C459.745 495.104 457.405 494.654 455.353 493.754C453.301 492.854 451.681 491.63 450.493 490.082C449.305 488.498 448.639 486.734 448.495 484.79H457.621C457.729 485.834 458.215 486.68 459.079 487.328C459.943 487.976 461.005 488.3 462.265 488.3C463.417 488.3 464.299 488.084 464.911 487.652C465.559 487.184 465.883 486.59 465.883 485.87C465.883 485.006 465.433 484.376 464.533 483.98C463.633 483.548 462.175 483.08 460.159 482.576C457.999 482.072 456.199 481.55 454.759 481.01C453.319 480.434 452.077 479.552 451.033 478.364C449.989 477.14 449.467 475.502 449.467 473.45C449.467 471.722 449.935 470.156 450.871 468.752C451.843 467.312 453.247 466.178 455.083 465.35C456.955 464.522 459.169 464.108 461.725 464.108C465.505 464.108 468.475 465.044 470.635 466.916C472.831 468.788 474.091 471.272 474.415 474.368H465.883C465.739 473.324 465.271 472.496 464.479 471.884C463.723 471.272 462.715 470.966 461.455 470.966C460.375 470.966 459.547 471.182 458.971 471.614C458.395 472.01 458.107 472.568 458.107 473.288C458.107 474.152 458.557 474.8 459.457 475.232C460.393 475.664 461.833 476.096 463.777 476.528C466.009 477.104 467.827 477.68 469.231 478.256C470.635 478.796 471.859 479.696 472.903 480.956C473.983 482.18 474.541 483.836 474.577 485.924C474.577 487.688 474.073 489.272 473.065 490.676C472.093 492.044 470.671 493.124 468.799 493.916C466.963 494.708 464.821 495.104 462.373 495.104ZM518.508 463.298H501.66V470.75C502.38 469.958 503.388 469.31 504.684 468.806C505.98 468.302 507.384 468.05 508.896 468.05C511.596 468.05 513.828 468.662 515.592 469.886C517.392 471.11 518.706 472.694 519.534 474.638C520.362 476.582 520.776 478.688 520.776 480.956C520.776 485.168 519.588 488.516 517.212 491C514.836 493.448 511.488 494.672 507.168 494.672C504.288 494.672 501.786 494.186 499.662 493.214C497.538 492.206 495.9 490.82 494.748 489.056C493.596 487.292 492.966 485.258 492.858 482.954H501.876C502.092 484.07 502.614 485.006 503.442 485.762C504.27 486.482 505.404 486.842 506.844 486.842C508.536 486.842 509.796 486.302 510.624 485.222C511.452 484.142 511.866 482.702 511.866 480.902C511.866 479.138 511.434 477.788 510.57 476.852C509.706 475.916 508.446 475.448 506.79 475.448C505.566 475.448 504.558 475.754 503.766 476.366C502.974 476.942 502.452 477.716 502.2 478.688H493.29V455.198H518.508V463.298ZM526.089 487.652V480.2L543.153 455.792H553.467V479.66H557.895V487.652H553.467V494.672H544.233V487.652H526.089ZM544.881 465.944L535.809 479.66H544.881V465.944ZM584.013 468.806C584.913 467.402 586.155 466.268 587.739 465.404C589.323 464.54 591.177 464.108 593.301 464.108C595.785 464.108 598.035 464.738 600.051 465.998C602.067 467.258 603.651 469.058 604.803 471.398C605.991 473.738 606.585 476.456 606.585 479.552C606.585 482.648 605.991 485.384 604.803 487.76C603.651 490.1 602.067 491.918 600.051 493.214C598.035 494.474 595.785 495.104 593.301 495.104C591.213 495.104 589.359 494.672 587.739 493.808C586.155 492.944 584.913 491.828 584.013 490.46V509.036H574.779V464.54H584.013V468.806ZM597.189 479.552C597.189 477.248 596.541 475.448 595.245 474.152C593.985 472.82 592.419 472.154 590.547 472.154C588.711 472.154 587.145 472.82 585.849 474.152C584.589 475.484 583.959 477.302 583.959 479.606C583.959 481.91 584.589 483.728 585.849 485.06C587.145 486.392 588.711 487.058 590.547 487.058C592.383 487.058 593.949 486.392 595.245 485.06C596.541 483.692 597.189 481.856 597.189 479.552ZM629.249 494.672L623.471 486.302L618.611 494.672H608.621L618.557 479.282L608.351 464.54H618.719L624.497 472.856L629.357 464.54H639.347L629.249 479.714L639.617 494.672H629.249ZM677.569 475.232C679.765 475.7 681.529 476.798 682.861 478.526C684.193 480.218 684.859 482.162 684.859 484.358C684.859 487.526 683.743 490.046 681.511 491.918C679.315 493.754 676.237 494.672 672.277 494.672H654.619V456.764H671.683C675.535 456.764 678.541 457.646 680.701 459.41C682.897 461.174 683.995 463.568 683.995 466.592C683.995 468.824 683.401 470.678 682.213 472.154C681.061 473.63 679.513 474.656 677.569 475.232ZM663.853 472.1H669.901C671.413 472.1 672.565 471.776 673.357 471.128C674.185 470.444 674.599 469.454 674.599 468.158C674.599 466.862 674.185 465.872 673.357 465.188C672.565 464.504 671.413 464.162 669.901 464.162H663.853V472.1ZM670.657 487.22C672.205 487.22 673.393 486.878 674.221 486.194C675.085 485.474 675.517 484.448 675.517 483.116C675.517 481.784 675.067 480.74 674.167 479.984C673.303 479.228 672.097 478.85 670.549 478.85H663.853V487.22H670.657ZM703.931 495.104C700.979 495.104 698.315 494.474 695.939 493.214C693.599 491.954 691.745 490.154 690.377 487.814C689.045 485.474 688.379 482.738 688.379 479.606C688.379 476.51 689.063 473.792 690.431 471.452C691.799 469.076 693.671 467.258 696.047 465.998C698.423 464.738 701.087 464.108 704.039 464.108C706.991 464.108 709.655 464.738 712.031 465.998C714.407 467.258 716.279 469.076 717.647 471.452C719.015 473.792 719.699 476.51 719.699 479.606C719.699 482.702 718.997 485.438 717.593 487.814C716.225 490.154 714.335 491.954 711.923 493.214C709.547 494.474 706.883 495.104 703.931 495.104ZM703.931 487.112C705.695 487.112 707.189 486.464 708.413 485.168C709.673 483.872 710.303 482.018 710.303 479.606C710.303 477.194 709.691 475.34 708.467 474.044C707.279 472.748 705.803 472.1 704.039 472.1C702.239 472.1 700.745 472.748 699.557 474.044C698.369 475.304 697.775 477.158 697.775 479.606C697.775 482.018 698.351 483.872 699.503 485.168C700.691 486.464 702.167 487.112 703.931 487.112ZM733.831 454.712V494.672H724.597V454.712H733.831ZM738.687 479.552C738.687 476.456 739.263 473.738 740.415 471.398C741.603 469.058 743.205 467.258 745.221 465.998C747.237 464.738 749.487 464.108 751.971 464.108C753.951 464.108 755.751 464.522 757.371 465.35C759.027 466.178 760.323 467.294 761.259 468.698V454.712H770.493V494.672H761.259V490.352C760.395 491.792 759.153 492.944 757.533 493.808C755.949 494.672 754.095 495.104 751.971 495.104C749.487 495.104 747.237 494.474 745.221 493.214C743.205 491.918 741.603 490.1 740.415 487.76C739.263 485.384 738.687 482.648 738.687 479.552ZM761.259 479.606C761.259 477.302 760.611 475.484 759.315 474.152C758.055 472.82 756.507 472.154 754.671 472.154C752.835 472.154 751.269 472.82 749.973 474.152C748.713 475.448 748.083 477.248 748.083 479.552C748.083 481.856 748.713 483.692 749.973 485.06C751.269 486.392 752.835 487.058 754.671 487.058C756.507 487.058 758.055 486.392 759.315 485.06C760.611 483.728 761.259 481.91 761.259 479.606Z" fill="white"/>
<path d="M176.755 325.128V375.672H164.443V354.864H145.291V375.672H132.979V325.128H145.291V344.928H164.443V325.128H176.755ZM183.123 334.56V323.112H203.067V375.672H190.251V334.56H183.123ZM258.931 345.288V355.512H227.251V345.288H258.931ZM323.515 341.4C323.515 344.328 322.843 347.016 321.499 349.464C320.155 351.864 318.091 353.808 315.307 355.296C312.523 356.784 309.067 357.528 304.939 357.528H297.307V375.672H284.995V325.128H304.939C308.971 325.128 312.379 325.824 315.163 327.216C317.947 328.608 320.035 330.528 321.427 332.976C322.819 335.424 323.515 338.232 323.515 341.4ZM304.003 347.736C306.355 347.736 308.107 347.184 309.259 346.08C310.411 344.976 310.987 343.416 310.987 341.4C310.987 339.384 310.411 337.824 309.259 336.72C308.107 335.616 306.355 335.064 304.003 335.064H297.307V347.736H304.003ZM348.212 376.248C344.276 376.248 340.724 375.408 337.556 373.728C334.436 372.048 331.964 369.648 330.14 366.528C328.364 363.408 327.476 359.76 327.476 355.584C327.476 351.456 328.388 347.832 330.212 344.712C332.036 341.544 334.532 339.12 337.7 337.44C340.868 335.76 344.42 334.92 348.356 334.92C352.292 334.92 355.844 335.76 359.012 337.44C362.18 339.12 364.676 341.544 366.5 344.712C368.324 347.832 369.236 351.456 369.236 355.584C369.236 359.712 368.3 363.36 366.428 366.528C364.604 369.648 362.084 372.048 358.868 373.728C355.7 375.408 352.148 376.248 348.212 376.248ZM348.212 365.592C350.564 365.592 352.556 364.728 354.188 363C355.868 361.272 356.708 358.8 356.708 355.584C356.708 352.368 355.892 349.896 354.26 348.168C352.676 346.44 350.708 345.576 348.356 345.576C345.956 345.576 343.964 346.44 342.38 348.168C340.796 349.848 340.004 352.32 340.004 355.584C340.004 358.8 340.772 361.272 342.308 363C343.892 364.728 345.86 365.592 348.212 365.592ZM388.08 341.184C389.28 339.312 390.936 337.8 393.048 336.648C395.16 335.496 397.632 334.92 400.464 334.92C403.776 334.92 406.776 335.76 409.464 337.44C412.152 339.12 414.264 341.52 415.8 344.64C417.384 347.76 418.176 351.384 418.176 355.512C418.176 359.64 417.384 363.288 415.8 366.456C414.264 369.576 412.152 372 409.464 373.728C406.776 375.408 403.776 376.248 400.464 376.248C397.68 376.248 395.208 375.672 393.048 374.52C390.936 373.368 389.28 371.88 388.08 370.056V394.824H375.768V335.496H388.08V341.184ZM405.648 355.512C405.648 352.44 404.784 350.04 403.056 348.312C401.376 346.536 399.288 345.648 396.792 345.648C394.344 345.648 392.256 346.536 390.528 348.312C388.848 350.088 388.008 352.512 388.008 355.584C388.008 358.656 388.848 361.08 390.528 362.856C392.256 364.632 394.344 365.52 396.792 365.52C399.24 365.52 401.328 364.632 403.056 362.856C404.784 361.032 405.648 358.584 405.648 355.512ZM436.947 341.184C438.147 339.312 439.803 337.8 441.915 336.648C444.027 335.496 446.499 334.92 449.331 334.92C452.643 334.92 455.643 335.76 458.331 337.44C461.019 339.12 463.131 341.52 464.667 344.64C466.251 347.76 467.043 351.384 467.043 355.512C467.043 359.64 466.251 363.288 464.667 366.456C463.131 369.576 461.019 372 458.331 373.728C455.643 375.408 452.643 376.248 449.331 376.248C446.547 376.248 444.075 375.672 441.915 374.52C439.803 373.368 438.147 371.88 436.947 370.056V394.824H424.635V335.496H436.947V341.184ZM454.515 355.512C454.515 352.44 453.651 350.04 451.923 348.312C450.243 346.536 448.155 345.648 445.659 345.648C443.211 345.648 441.123 346.536 439.395 348.312C437.715 350.088 436.875 352.512 436.875 355.584C436.875 358.656 437.715 361.08 439.395 362.856C441.123 364.632 443.211 365.52 445.659 365.52C448.107 365.52 450.195 364.632 451.923 362.856C453.651 361.032 454.515 358.584 454.515 355.512ZM479.694 331.32C477.534 331.32 475.758 330.696 474.366 329.448C473.022 328.152 472.35 326.568 472.35 324.696C472.35 322.776 473.022 321.192 474.366 319.944C475.758 318.648 477.534 318 479.694 318C481.806 318 483.534 318.648 484.878 319.944C486.27 321.192 486.966 322.776 486.966 324.696C486.966 326.568 486.27 328.152 484.878 329.448C483.534 330.696 481.806 331.32 479.694 331.32ZM485.814 335.496V375.672H473.502V335.496H485.814ZM519.217 335.064C523.921 335.064 527.665 336.6 530.449 339.672C533.281 342.696 534.697 346.872 534.697 352.2V375.672H522.457V353.856C522.457 351.168 521.761 349.08 520.369 347.592C518.977 346.104 517.105 345.36 514.753 345.36C512.401 345.36 510.529 346.104 509.137 347.592C507.745 349.08 507.049 351.168 507.049 353.856V375.672H494.737V335.496H507.049V340.824C508.297 339.048 509.977 337.656 512.089 336.648C514.201 335.592 516.577 335.064 519.217 335.064ZM559.596 376.248C556.092 376.248 552.972 375.648 550.236 374.448C547.5 373.248 545.34 371.616 543.756 369.552C542.172 367.44 541.284 365.088 541.092 362.496H553.26C553.404 363.888 554.052 365.016 555.204 365.88C556.356 366.744 557.772 367.176 559.452 367.176C560.988 367.176 562.164 366.888 562.98 366.312C563.844 365.688 564.276 364.896 564.276 363.936C564.276 362.784 563.676 361.944 562.476 361.416C561.276 360.84 559.332 360.216 556.644 359.544C553.764 358.872 551.364 358.176 549.444 357.456C547.524 356.688 545.868 355.512 544.476 353.928C543.084 352.296 542.388 350.112 542.388 347.376C542.388 345.072 543.012 342.984 544.26 341.112C545.556 339.192 547.428 337.68 549.876 336.576C552.372 335.472 555.324 334.92 558.732 334.92C563.772 334.92 567.732 336.168 570.612 338.664C573.54 341.16 575.22 344.472 575.652 348.6H564.276C564.084 347.208 563.46 346.104 562.404 345.288C561.396 344.472 560.052 344.064 558.372 344.064C556.932 344.064 555.828 344.352 555.06 344.928C554.292 345.456 553.908 346.2 553.908 347.16C553.908 348.312 554.508 349.176 555.708 349.752C556.956 350.328 558.876 350.904 561.468 351.48C564.444 352.248 566.868 353.016 568.74 353.784C570.612 354.504 572.244 355.704 573.636 357.384C575.076 359.016 575.82 361.224 575.868 364.008C575.868 366.36 575.196 368.472 573.852 370.344C572.556 372.168 570.66 373.608 568.164 374.664C565.716 375.72 562.86 376.248 559.596 376.248ZM630.987 332.328L612.915 375.672H600.315L618.603 333.696H596.211V323.184H630.987V332.328ZM635.534 365.808C637.166 364.512 637.91 363.912 637.766 364.008C642.47 360.12 646.166 356.928 648.854 354.432C651.59 351.936 653.894 349.32 655.766 346.584C657.638 343.848 658.574 341.184 658.574 338.592C658.574 336.624 658.118 335.088 657.206 333.984C656.294 332.88 654.926 332.328 653.102 332.328C651.278 332.328 649.838 333.024 648.782 334.416C647.774 335.76 647.27 337.68 647.27 340.176H635.39C635.486 336.096 636.35 332.688 637.982 329.952C639.662 327.216 641.846 325.2 644.534 323.904C647.27 322.608 650.294 321.96 653.606 321.96C659.318 321.96 663.614 323.424 666.494 326.352C669.422 329.28 670.886 333.096 670.886 337.8C670.886 342.936 669.134 347.712 665.63 352.128C662.126 356.496 657.662 360.768 652.238 364.944H671.678V374.952H635.534V365.808ZM705.893 341.184C707.093 339.312 708.749 337.8 710.861 336.648C712.973 335.496 715.445 334.92 718.277 334.92C721.589 334.92 724.589 335.76 727.277 337.44C729.965 339.12 732.077 341.52 733.613 344.64C735.197 347.76 735.989 351.384 735.989 355.512C735.989 359.64 735.197 363.288 733.613 366.456C732.077 369.576 729.965 372 727.277 373.728C724.589 375.408 721.589 376.248 718.277 376.248C715.493 376.248 713.021 375.672 710.861 374.52C708.749 373.368 707.093 371.88 705.893 370.056V394.824H693.581V335.496H705.893V341.184ZM723.461 355.512C723.461 352.44 722.597 350.04 720.869 348.312C719.189 346.536 717.101 345.648 714.605 345.648C712.157 345.648 710.069 346.536 708.341 348.312C706.661 350.088 705.821 352.512 705.821 355.584C705.821 358.656 706.661 361.08 708.341 362.856C710.069 364.632 712.157 365.52 714.605 365.52C717.053 365.52 719.141 364.632 720.869 362.856C722.597 361.032 723.461 358.584 723.461 355.512ZM766.208 375.672L758.504 364.512L752.024 375.672H738.704L751.952 355.152L738.344 335.496H752.168L759.872 346.584L766.352 335.496H779.672L766.208 355.728L780.032 375.672H766.208ZM830.634 349.752C833.562 350.376 835.914 351.84 837.69 354.144C839.466 356.4 840.354 358.992 840.354 361.92C840.354 366.144 838.866 369.504 835.89 372C832.962 374.448 828.858 375.672 823.578 375.672H800.034V325.128H822.786C827.922 325.128 831.93 326.304 834.81 328.656C837.738 331.008 839.202 334.2 839.202 338.232C839.202 341.208 838.41 343.68 836.826 345.648C835.29 347.616 833.226 348.984 830.634 349.752ZM812.346 345.576H820.41C822.426 345.576 823.962 345.144 825.018 344.28C826.122 343.368 826.674 342.048 826.674 340.32C826.674 338.592 826.122 337.272 825.018 336.36C823.962 335.448 822.426 334.992 820.41 334.992H812.346V345.576ZM821.418 365.736C823.482 365.736 825.066 365.28 826.17 364.368C827.322 363.408 827.898 362.04 827.898 360.264C827.898 358.488 827.298 357.096 826.098 356.088C824.946 355.08 823.338 354.576 821.274 354.576H812.346V365.736H821.418ZM865.783 376.248C861.847 376.248 858.295 375.408 855.127 373.728C852.007 372.048 849.535 369.648 847.711 366.528C845.935 363.408 845.047 359.76 845.047 355.584C845.047 351.456 845.959 347.832 847.783 344.712C849.607 341.544 852.103 339.12 855.271 337.44C858.439 335.76 861.991 334.92 865.927 334.92C869.863 334.92 873.415 335.76 876.583 337.44C879.751 339.12 882.247 341.544 884.071 344.712C885.895 347.832 886.807 351.456 886.807 355.584C886.807 359.712 885.871 363.36 883.999 366.528C882.175 369.648 879.655 372.048 876.439 373.728C873.271 375.408 869.719 376.248 865.783 376.248ZM865.783 365.592C868.135 365.592 870.127 364.728 871.759 363C873.439 361.272 874.279 358.8 874.279 355.584C874.279 352.368 873.463 349.896 871.831 348.168C870.247 346.44 868.279 345.576 865.927 345.576C863.527 345.576 861.535 346.44 859.951 348.168C858.367 349.848 857.575 352.32 857.575 355.584C857.575 358.8 858.343 361.272 859.879 363C861.463 364.728 863.431 365.592 865.783 365.592ZM905.65 322.392V375.672H893.338V322.392H905.65ZM912.125 355.512C912.125 351.384 912.893 347.76 914.429 344.64C916.013 341.52 918.149 339.12 920.837 337.44C923.525 335.76 926.525 334.92 929.837 334.92C932.477 334.92 934.877 335.472 937.037 336.576C939.245 337.68 940.973 339.168 942.221 341.04V322.392H954.533V375.672H942.221V369.912C941.069 371.832 939.413 373.368 937.253 374.52C935.141 375.672 932.669 376.248 929.837 376.248C926.525 376.248 923.525 375.408 920.837 373.728C918.149 372 916.013 369.576 914.429 366.456C912.893 363.288 912.125 359.64 912.125 355.512ZM942.221 355.584C942.221 352.512 941.357 350.088 939.629 348.312C937.949 346.536 935.885 345.648 933.437 345.648C930.989 345.648 928.901 346.536 927.173 348.312C925.493 350.04 924.653 352.44 924.653 355.512C924.653 358.584 925.493 361.032 927.173 362.856C928.901 364.632 930.989 365.52 933.437 365.52C935.885 365.52 937.949 364.632 939.629 362.856C941.357 361.08 942.221 358.656 942.221 355.584Z" fill="white"/>
<path d="M143.781 677.105C143.781 676.003 143.394 675.132 142.619 674.494C141.844 673.847 140.427 673.236 138.367 672.662C136.307 672.079 134.803 671.445 133.855 670.762C132.507 669.796 131.832 668.529 131.832 666.961C131.832 665.439 132.456 664.204 133.705 663.256C134.963 662.299 136.567 661.82 138.518 661.82C139.839 661.82 141.02 662.076 142.059 662.586C143.107 663.096 143.918 663.807 144.492 664.719C145.066 665.63 145.354 666.646 145.354 667.768H143.658C143.658 666.41 143.193 665.32 142.264 664.5C141.334 663.671 140.085 663.256 138.518 663.256C136.995 663.256 135.783 663.598 134.881 664.281C133.979 664.956 133.527 665.84 133.527 666.934C133.527 667.945 133.933 668.77 134.744 669.408C135.555 670.046 136.854 670.611 138.641 671.104C140.427 671.587 141.781 672.092 142.701 672.621C143.622 673.141 144.314 673.765 144.779 674.494C145.244 675.223 145.477 676.085 145.477 677.078C145.477 678.646 144.848 679.904 143.59 680.852C142.341 681.799 140.691 682.273 138.641 682.273C137.237 682.273 135.947 682.023 134.771 681.521C133.605 681.02 132.716 680.318 132.105 679.416C131.504 678.514 131.203 677.479 131.203 676.312H132.885C132.885 677.716 133.409 678.824 134.457 679.635C135.505 680.446 136.9 680.852 138.641 680.852C140.19 680.852 141.434 680.51 142.373 679.826C143.312 679.143 143.781 678.236 143.781 677.105ZM158.246 680.127C157.262 681.558 155.689 682.273 153.529 682.273C151.952 682.273 150.754 681.818 149.934 680.906C149.113 679.986 148.694 678.628 148.676 676.832V667.207H150.303V676.627C150.303 679.443 151.442 680.852 153.721 680.852C156.09 680.852 157.59 679.872 158.219 677.912V667.207H159.859V682H158.273L158.246 680.127ZM176.033 674.754C176.033 677.06 175.523 678.892 174.502 680.25C173.481 681.599 172.109 682.273 170.387 682.273C168.327 682.273 166.768 681.508 165.711 679.977L165.643 682H164.111V661H165.738V669.354C166.777 667.74 168.318 666.934 170.359 666.934C172.109 666.934 173.49 667.604 174.502 668.943C175.523 670.274 176.033 672.129 176.033 674.508V674.754ZM174.393 674.467C174.393 672.516 174.014 671.012 173.258 669.955C172.501 668.889 171.435 668.355 170.059 668.355C169.01 668.355 168.122 668.615 167.393 669.135C166.663 669.645 166.112 670.397 165.738 671.391V678.062C166.559 679.922 168.008 680.852 170.086 680.852C171.435 680.852 172.488 680.318 173.244 679.252C174.01 678.186 174.393 676.59 174.393 674.467ZM181.283 669.709C181.821 668.825 182.509 668.141 183.348 667.658C184.186 667.175 185.102 666.934 186.096 666.934C187.682 666.934 188.862 667.38 189.637 668.273C190.411 669.167 190.803 670.507 190.812 672.293V682H189.186V672.279C189.176 670.958 188.894 669.973 188.338 669.326C187.791 668.679 186.911 668.355 185.699 668.355C184.688 668.355 183.79 668.674 183.006 669.312C182.231 669.941 181.657 670.794 181.283 671.869V682H179.656V661H181.283V669.709ZM200.752 682.273C199.494 682.273 198.355 681.964 197.334 681.344C196.322 680.724 195.534 679.863 194.969 678.76C194.404 677.648 194.121 676.404 194.121 675.027V674.439C194.121 673.018 194.395 671.737 194.941 670.598C195.497 669.458 196.268 668.565 197.252 667.918C198.236 667.262 199.303 666.934 200.451 666.934C202.247 666.934 203.669 667.549 204.717 668.779C205.774 670.001 206.303 671.673 206.303 673.797V674.713H195.748V675.027C195.748 676.704 196.227 678.104 197.184 679.225C198.15 680.337 199.362 680.893 200.82 680.893C201.695 680.893 202.465 680.733 203.131 680.414C203.805 680.095 204.416 679.585 204.963 678.883L205.988 679.662C204.785 681.403 203.04 682.273 200.752 682.273ZM200.451 668.328C199.221 668.328 198.182 668.779 197.334 669.682C196.495 670.584 195.985 671.796 195.803 673.318H204.676V673.141C204.63 671.719 204.225 670.561 203.459 669.668C202.693 668.775 201.691 668.328 200.451 668.328ZM218.826 682C218.662 681.535 218.557 680.847 218.512 679.936C217.938 680.683 217.204 681.262 216.311 681.672C215.426 682.073 214.488 682.273 213.494 682.273C212.072 682.273 210.919 681.877 210.035 681.084C209.16 680.291 208.723 679.288 208.723 678.076C208.723 676.636 209.32 675.497 210.514 674.658C211.717 673.82 213.389 673.4 215.531 673.4H218.498V671.719C218.498 670.661 218.17 669.832 217.514 669.23C216.867 668.62 215.919 668.314 214.67 668.314C213.531 668.314 212.587 668.606 211.84 669.189C211.092 669.773 210.719 670.475 210.719 671.295L209.078 671.281C209.078 670.105 209.625 669.089 210.719 668.232C211.812 667.367 213.157 666.934 214.752 666.934C216.402 666.934 217.701 667.348 218.648 668.178C219.605 668.998 220.098 670.146 220.125 671.623V678.623C220.125 680.054 220.275 681.125 220.576 681.836V682H218.826ZM213.686 680.824C214.779 680.824 215.755 680.56 216.611 680.031C217.477 679.503 218.106 678.796 218.498 677.912V674.658H215.572C213.941 674.676 212.665 674.977 211.744 675.561C210.824 676.135 210.363 676.928 210.363 677.939C210.363 678.769 210.669 679.457 211.279 680.004C211.899 680.551 212.701 680.824 213.686 680.824ZM223.844 674.467C223.844 672.17 224.354 670.342 225.375 668.984C226.405 667.617 227.799 666.934 229.559 666.934C231.555 666.934 233.077 667.722 234.125 669.299V661H235.752V682H234.221L234.152 680.031C233.104 681.526 231.564 682.273 229.531 682.273C227.827 682.273 226.451 681.59 225.402 680.223C224.363 678.846 223.844 676.992 223.844 674.658V674.467ZM225.498 674.754C225.498 676.641 225.876 678.131 226.633 679.225C227.389 680.309 228.456 680.852 229.832 680.852C231.846 680.852 233.277 679.963 234.125 678.186V671.24C233.277 669.317 231.855 668.355 229.859 668.355C228.483 668.355 227.412 668.898 226.646 669.982C225.881 671.058 225.498 672.648 225.498 674.754ZM241.891 682H240.25V667.207H241.891V682ZM239.963 662.928C239.963 662.618 240.063 662.358 240.264 662.148C240.464 661.93 240.738 661.82 241.084 661.82C241.43 661.82 241.704 661.93 241.904 662.148C242.114 662.358 242.219 662.618 242.219 662.928C242.219 663.238 242.114 663.497 241.904 663.707C241.704 663.917 241.43 664.021 241.084 664.021C240.738 664.021 240.464 663.917 240.264 663.707C240.063 663.497 239.963 663.238 239.963 662.928ZM247.906 667.207L247.961 669.736C248.517 668.825 249.21 668.132 250.039 667.658C250.868 667.175 251.785 666.934 252.787 666.934C254.373 666.934 255.553 667.38 256.328 668.273C257.103 669.167 257.495 670.507 257.504 672.293V682H255.877V672.279C255.868 670.958 255.585 669.973 255.029 669.326C254.482 668.679 253.603 668.355 252.391 668.355C251.379 668.355 250.481 668.674 249.697 669.312C248.923 669.941 248.348 670.794 247.975 671.869V682H246.348V667.207H247.906ZM261.086 674.467C261.086 672.152 261.596 670.32 262.617 668.971C263.647 667.613 265.042 666.934 266.801 666.934C268.815 666.934 270.346 667.736 271.395 669.34L271.477 667.207H273.008V681.699C273.008 683.604 272.475 685.113 271.408 686.225C270.342 687.337 268.897 687.893 267.074 687.893C266.044 687.893 265.06 687.66 264.121 687.195C263.191 686.74 262.458 686.129 261.92 685.363L262.836 684.379C263.993 685.801 265.37 686.512 266.965 686.512C268.332 686.512 269.398 686.106 270.164 685.295C270.93 684.493 271.326 683.376 271.354 681.945V680.086C270.305 681.544 268.779 682.273 266.773 682.273C265.06 682.273 263.684 681.59 262.645 680.223C261.605 678.855 261.086 677.01 261.086 674.686V674.467ZM262.74 674.754C262.74 676.641 263.118 678.131 263.875 679.225C264.632 680.309 265.698 680.852 267.074 680.852C269.089 680.852 270.515 679.949 271.354 678.145V671.268C270.971 670.32 270.419 669.6 269.699 669.107C268.979 668.606 268.113 668.355 267.102 668.355C265.725 668.355 264.654 668.898 263.889 669.982C263.123 671.058 262.74 672.648 262.74 674.754ZM289.168 673.906H282.619V672.525H289.168V673.906ZM306.723 673.715H300.939V682H299.244V662.094H305.711C307.835 662.094 309.493 662.609 310.688 663.639C311.882 664.669 312.479 666.109 312.479 667.959C312.479 669.235 312.105 670.361 311.357 671.336C310.61 672.311 309.607 672.986 308.35 673.359L313.326 681.822V682H311.535L306.723 673.715ZM300.939 672.279H306.094C307.507 672.279 308.641 671.878 309.498 671.076C310.355 670.274 310.783 669.235 310.783 667.959C310.783 666.555 310.337 665.466 309.443 664.691C308.55 663.917 307.297 663.529 305.684 663.529H300.939V672.279ZM315.773 674.385C315.773 672.963 316.047 671.682 316.594 670.543C317.15 669.404 317.929 668.52 318.932 667.891C319.943 667.253 321.087 666.934 322.363 666.934C324.332 666.934 325.927 667.626 327.148 669.012C328.37 670.388 328.98 672.215 328.98 674.494V674.836C328.98 676.267 328.702 677.557 328.146 678.705C327.6 679.844 326.825 680.724 325.822 681.344C324.82 681.964 323.676 682.273 322.391 682.273C320.431 682.273 318.836 681.585 317.605 680.209C316.384 678.824 315.773 676.992 315.773 674.713V674.385ZM317.414 674.836C317.414 676.604 317.87 678.058 318.781 679.197C319.702 680.327 320.905 680.893 322.391 680.893C323.867 680.893 325.061 680.327 325.973 679.197C326.893 678.058 327.354 676.559 327.354 674.699V674.385C327.354 673.255 327.144 672.22 326.725 671.281C326.305 670.342 325.717 669.618 324.961 669.107C324.204 668.588 323.339 668.328 322.363 668.328C320.905 668.328 319.715 668.902 318.795 670.051C317.874 671.19 317.414 672.685 317.414 674.535V674.836ZM344.279 674.754C344.279 677.06 343.769 678.892 342.748 680.25C341.727 681.599 340.355 682.273 338.633 682.273C336.573 682.273 335.014 681.508 333.957 679.977L333.889 682H332.357V661H333.984V669.354C335.023 667.74 336.564 666.934 338.605 666.934C340.355 666.934 341.736 667.604 342.748 668.943C343.769 670.274 344.279 672.129 344.279 674.508V674.754ZM342.639 674.467C342.639 672.516 342.26 671.012 341.504 669.955C340.747 668.889 339.681 668.355 338.305 668.355C337.257 668.355 336.368 668.615 335.639 669.135C334.91 669.645 334.358 670.397 333.984 671.391V678.062C334.805 679.922 336.254 680.852 338.332 680.852C339.681 680.852 340.734 680.318 341.49 679.252C342.256 678.186 342.639 676.59 342.639 674.467ZM347 674.385C347 672.963 347.273 671.682 347.82 670.543C348.376 669.404 349.156 668.52 350.158 667.891C351.17 667.253 352.314 666.934 353.59 666.934C355.559 666.934 357.154 667.626 358.375 669.012C359.596 670.388 360.207 672.215 360.207 674.494V674.836C360.207 676.267 359.929 677.557 359.373 678.705C358.826 679.844 358.051 680.724 357.049 681.344C356.046 681.964 354.902 682.273 353.617 682.273C351.658 682.273 350.062 681.585 348.832 680.209C347.611 678.824 347 676.992 347 674.713V674.385ZM348.641 674.836C348.641 676.604 349.096 678.058 350.008 679.197C350.928 680.327 352.132 680.893 353.617 680.893C355.094 680.893 356.288 680.327 357.199 679.197C358.12 678.058 358.58 676.559 358.58 674.699V674.385C358.58 673.255 358.37 672.22 357.951 671.281C357.532 670.342 356.944 669.618 356.188 669.107C355.431 668.588 354.565 668.328 353.59 668.328C352.132 668.328 350.942 668.902 350.021 670.051C349.101 671.19 348.641 672.685 348.641 674.535V674.836ZM366.141 663.42V667.207H369.203V668.547H366.141V678.404C366.141 679.225 366.286 679.835 366.578 680.236C366.879 680.637 367.376 680.838 368.068 680.838C368.342 680.838 368.784 680.792 369.395 680.701L369.463 682.041C369.035 682.196 368.451 682.273 367.713 682.273C366.592 682.273 365.776 681.95 365.266 681.303C364.755 680.646 364.5 679.685 364.5 678.418V668.547H361.779V667.207H364.5V663.42H366.141ZM371.418 674.385C371.418 672.963 371.691 671.682 372.238 670.543C372.794 669.404 373.574 668.52 374.576 667.891C375.588 667.253 376.732 666.934 378.008 666.934C379.977 666.934 381.572 667.626 382.793 669.012C384.014 670.388 384.625 672.215 384.625 674.494V674.836C384.625 676.267 384.347 677.557 383.791 678.705C383.244 679.844 382.469 680.724 381.467 681.344C380.464 681.964 379.32 682.273 378.035 682.273C376.076 682.273 374.48 681.585 373.25 680.209C372.029 678.824 371.418 676.992 371.418 674.713V674.385ZM373.059 674.836C373.059 676.604 373.514 678.058 374.426 679.197C375.346 680.327 376.549 680.893 378.035 680.893C379.512 680.893 380.706 680.327 381.617 679.197C382.538 678.058 382.998 676.559 382.998 674.699V674.385C382.998 673.255 382.788 672.22 382.369 671.281C381.95 670.342 381.362 669.618 380.605 669.107C379.849 668.588 378.983 668.328 378.008 668.328C376.549 668.328 375.36 668.902 374.439 670.051C373.519 671.19 373.059 672.685 373.059 674.535V674.836ZM407.033 682H394.564V680.742L401.387 673.004C402.517 671.701 403.301 670.625 403.738 669.777C404.176 668.93 404.395 668.105 404.395 667.303C404.395 666.045 404.025 665.051 403.287 664.322C402.549 663.584 401.533 663.215 400.238 663.215C398.898 663.215 397.814 663.643 396.984 664.5C396.164 665.357 395.754 666.469 395.754 667.836H394.127C394.127 666.715 394.378 665.694 394.879 664.773C395.389 663.853 396.109 663.133 397.039 662.613C397.978 662.085 399.044 661.82 400.238 661.82C402.061 661.82 403.483 662.299 404.504 663.256C405.534 664.213 406.049 665.516 406.049 667.166C406.049 668.096 405.757 669.112 405.174 670.215C404.6 671.318 403.583 672.694 402.125 674.344L396.574 680.619H407.033V682ZM421.826 667.221C421.826 668.251 421.525 669.176 420.924 669.996C420.322 670.807 419.529 671.404 418.545 671.787C419.693 672.179 420.614 672.812 421.307 673.688C421.999 674.562 422.346 675.574 422.346 676.723C422.346 678.427 421.767 679.781 420.609 680.783C419.452 681.777 417.921 682.273 416.016 682.273C414.092 682.273 412.552 681.777 411.395 680.783C410.246 679.79 409.672 678.436 409.672 676.723C409.672 675.592 410.005 674.585 410.67 673.701C411.335 672.817 412.247 672.179 413.404 671.787C412.42 671.404 411.636 670.807 411.053 669.996C410.469 669.176 410.178 668.251 410.178 667.221C410.178 665.571 410.706 664.258 411.764 663.283C412.83 662.308 414.238 661.82 415.988 661.82C417.738 661.82 419.146 662.312 420.213 663.297C421.288 664.281 421.826 665.589 421.826 667.221ZM420.705 676.736C420.705 675.497 420.263 674.48 419.379 673.688C418.495 672.885 417.365 672.484 415.988 672.484C414.612 672.484 413.486 672.876 412.611 673.66C411.736 674.444 411.299 675.469 411.299 676.736C411.299 678.003 411.723 679.015 412.57 679.771C413.418 680.519 414.566 680.893 416.016 680.893C417.428 680.893 418.563 680.519 419.42 679.771C420.277 679.024 420.705 678.012 420.705 676.736ZM420.186 667.207C420.186 666.068 419.789 665.12 418.996 664.363C418.212 663.598 417.21 663.215 415.988 663.215C414.749 663.215 413.742 663.584 412.967 664.322C412.201 665.051 411.818 666.013 411.818 667.207C411.818 668.374 412.201 669.312 412.967 670.023C413.742 670.734 414.753 671.09 416.002 671.09C417.232 671.09 418.235 670.734 419.01 670.023C419.794 669.303 420.186 668.365 420.186 667.207ZM444.59 674.754C444.59 677.06 444.079 678.892 443.059 680.25C442.038 681.599 440.671 682.273 438.957 682.273C436.934 682.273 435.384 681.562 434.309 680.141V687.688H432.682V667.207H434.199L434.281 669.299C435.348 667.722 436.893 666.934 438.916 666.934C440.684 666.934 442.07 667.604 443.072 668.943C444.084 670.283 444.59 672.143 444.59 674.521V674.754ZM442.949 674.467C442.949 672.58 442.562 671.09 441.787 669.996C441.012 668.902 439.932 668.355 438.547 668.355C437.544 668.355 436.683 668.597 435.963 669.08C435.243 669.563 434.691 670.265 434.309 671.186V678.281C434.701 679.129 435.261 679.776 435.99 680.223C436.719 680.669 437.581 680.893 438.574 680.893C439.951 680.893 441.021 680.346 441.787 679.252C442.562 678.149 442.949 676.554 442.949 674.467ZM452.656 673.209L456.648 667.207H458.59L453.572 674.467L458.809 682H456.881L452.67 675.738L448.459 682H446.531L451.754 674.467L446.736 667.207H448.664L452.656 673.209ZM470.512 680.578H480.342V682H468.816V662.094H470.512V680.578ZM485.031 682H483.391V667.207H485.031V682ZM483.104 662.928C483.104 662.618 483.204 662.358 483.404 662.148C483.605 661.93 483.878 661.82 484.225 661.82C484.571 661.82 484.844 661.93 485.045 662.148C485.255 662.358 485.359 662.618 485.359 662.928C485.359 663.238 485.255 663.497 485.045 663.707C484.844 663.917 484.571 664.021 484.225 664.021C483.878 664.021 483.605 663.917 483.404 663.707C483.204 663.497 483.104 663.238 483.104 662.928ZM488.832 674.467C488.832 672.152 489.342 670.32 490.363 668.971C491.393 667.613 492.788 666.934 494.547 666.934C496.561 666.934 498.092 667.736 499.141 669.34L499.223 667.207H500.754V681.699C500.754 683.604 500.221 685.113 499.154 686.225C498.088 687.337 496.643 687.893 494.82 687.893C493.79 687.893 492.806 687.66 491.867 687.195C490.938 686.74 490.204 686.129 489.666 685.363L490.582 684.379C491.74 685.801 493.116 686.512 494.711 686.512C496.078 686.512 497.145 686.106 497.91 685.295C498.676 684.493 499.072 683.376 499.1 681.945V680.086C498.051 681.544 496.525 682.273 494.52 682.273C492.806 682.273 491.43 681.59 490.391 680.223C489.352 678.855 488.832 677.01 488.832 674.686V674.467ZM490.486 674.754C490.486 676.641 490.865 678.131 491.621 679.225C492.378 680.309 493.444 680.852 494.82 680.852C496.835 680.852 498.261 679.949 499.1 678.145V671.268C498.717 670.32 498.165 669.6 497.445 669.107C496.725 668.606 495.859 668.355 494.848 668.355C493.471 668.355 492.4 668.898 491.635 669.982C490.869 671.058 490.486 672.648 490.486 674.754ZM506.646 669.709C507.184 668.825 507.872 668.141 508.711 667.658C509.549 667.175 510.465 666.934 511.459 666.934C513.045 666.934 514.225 667.38 515 668.273C515.775 669.167 516.167 670.507 516.176 672.293V682H514.549V672.279C514.54 670.958 514.257 669.973 513.701 669.326C513.154 668.679 512.275 668.355 511.062 668.355C510.051 668.355 509.153 668.674 508.369 669.312C507.594 669.941 507.02 670.794 506.646 671.869V682H505.02V661H506.646V669.709ZM522.93 663.42V667.207H525.992V668.547H522.93V678.404C522.93 679.225 523.076 679.835 523.367 680.236C523.668 680.637 524.165 680.838 524.857 680.838C525.131 680.838 525.573 680.792 526.184 680.701L526.252 682.041C525.824 682.196 525.24 682.273 524.502 682.273C523.381 682.273 522.565 681.95 522.055 681.303C521.544 680.646 521.289 679.685 521.289 678.418V668.547H518.568V667.207H521.289V663.42H522.93Z" fill="white"/>
</svg>
