<svg width="1085" height="1085" viewBox="0 0 1085 1085" fill="none" xmlns="http://www.w3.org/2000/svg">
<g clip-path="url(#clip0_3_2)">
<path d="M1085 0H0V1085H1085V0Z" fill="#3A1C71"/>
<path d="M1084.5 323.491C1251.23 323.491 1386.39 188.329 1386.39 21.5995C1386.39 -145.13 1251.23 -280.292 1084.5 -280.292C917.768 -280.292 782.606 -145.13 782.606 21.5995C782.606 188.329 917.768 323.491 1084.5 323.491Z" fill="url(#paint0_linear_3_2)"/>
<path d="M0.502319 890.102C192.755 890.102 348.607 734.25 348.607 541.998C348.607 349.745 192.755 193.894 0.502319 193.894C-191.75 193.894 -347.602 349.745 -347.602 541.998C-347.602 734.25 -191.75 890.102 0.502319 890.102Z" fill="url(#paint1_linear_3_2)"/>
<path d="M290.575 497.887C283.195 493.943 275.324 491.972 266.469 491.972H234V593.52H267.453C276.308 593.52 284.179 591.548 291.558 587.112C298.938 583.168 304.349 577.252 308.285 569.858C312.22 562.464 314.188 554.084 314.188 544.718V540.281C314.188 530.915 312.22 522.535 308.285 515.141C303.365 507.746 297.462 502.324 290.575 497.887ZM288.115 544.718C288.115 554.577 286.147 561.971 282.703 566.901C279.26 571.83 273.356 574.295 266.469 574.295H258.106V510.211H266.469C273.848 510.211 279.26 512.676 282.703 517.605C286.639 522.535 288.115 529.929 288.115 539.788V544.718Z" fill="#FFFEFB"/>
<path d="M352.069 491.972H327.472V593.52H352.069V491.972Z" fill="#FFFEFB"/>
<path d="M410.611 556.056H427.829V571.83C424.878 574.788 419.958 576.267 413.563 576.267C406.184 576.267 400.772 573.802 397.329 568.38C393.884 563.45 391.917 555.563 391.917 545.704V539.788C391.917 529.929 393.884 522.535 396.836 517.605C399.788 512.676 404.708 509.718 411.103 509.718C416.023 509.718 419.958 510.704 422.91 513.169C425.862 515.633 427.338 519.577 428.321 525.492H451.935C450.951 514.154 446.524 505.281 439.636 499.366C432.749 493.45 422.91 490.493 410.119 490.493C401.264 490.493 393.884 492.465 387.489 496.408C381.094 500.352 375.683 506.267 372.239 513.662C368.795 521.056 366.827 529.929 366.827 539.788V548.661C367.319 562.957 371.747 574.295 379.618 582.675C387.489 591.056 398.312 594.999 411.595 594.999C420.45 594.999 428.321 593.52 435.209 591.056C442.588 588.591 448 585.14 451.935 580.703V538.802H410.611V556.056Z" fill="#FFFEFB"/>
<path d="M492.766 491.972H468.169V593.52H492.766V491.972Z" fill="#FFFEFB"/>
<path d="M539.503 508.239C543.438 505.774 547.866 504.296 553.277 504.296C558.689 504.296 562.625 505.774 565.576 508.732C568.036 511.69 569.511 515.634 569.02 521.056H586.238C586.238 515.141 585.254 509.718 582.795 504.789C580.335 500.352 576.399 496.408 571.48 493.944C566.56 491.479 561.149 490 554.753 490C548.358 490 541.962 490.986 536.059 493.451C530.156 495.915 525.728 499.366 521.792 503.803C518.349 508.239 516.381 513.169 515.889 519.084C515.397 525.986 517.365 531.408 521.792 536.831C526.22 542.253 533.599 546.197 543.93 550.14L549.341 552.112C557.705 555.563 561.149 560.492 560.165 566.901C559.181 571.338 557.213 574.788 553.277 577.253C549.341 579.718 544.914 580.703 539.503 580.703C533.599 580.703 528.68 579.224 525.728 575.774C522.284 572.816 521.301 568.38 521.301 562.465H504.082C504.082 568.873 505.066 574.295 508.018 579.225C510.97 584.155 514.905 588.098 520.316 590.562C525.728 593.52 531.631 594.506 538.519 594.999C545.406 594.999 551.801 594.014 557.705 591.549C563.608 589.084 568.036 586.126 571.48 581.69C574.923 577.253 576.891 572.323 576.891 566.901C577.383 560 575.415 553.591 571.48 548.662C567.544 543.732 559.673 538.802 549.341 535.352L543.93 533.38C535.075 529.929 531.14 525.493 532.123 519.577C533.599 514.648 535.567 511.197 539.503 508.239Z" fill="#FFFEFB"/>
<path d="M654.127 548.168L656.587 534.366H616.247L621.166 506.267H667.902L670.362 491.972H606.408L588.698 593.52H653.144L655.603 579.718H608.376L613.787 548.168H654.127Z" fill="#FFFEFB"/>
<path d="M743.663 539.295C747.598 534.366 749.566 528.943 750.058 522.042C751.042 512.676 748.09 505.281 742.679 499.859C736.775 494.436 728.412 491.972 717.589 491.972H685.612L667.902 593.52H685.12L692.008 554.577H711.193L723.984 593.52H742.187V592.534L727.428 550.633C734.315 547.675 739.727 544.225 743.663 539.295ZM732.84 523.028C732.348 528.45 729.888 532.887 725.952 535.845C722.017 538.802 717.097 540.774 710.702 540.774H693.975L699.879 506.76H718.081C723.493 506.76 726.936 508.239 729.888 511.197C732.839 514.154 733.824 517.605 732.84 523.028Z" fill="#FFFEFB"/>
<path d="M849.924 555.563H828.278L815.98 491.972H800.729L746.122 593.52H764.816L777.115 569.858H814.995L818.931 593.52H836.15L831.722 569.858H850.416V555.563H849.924ZM805.156 513.662L812.044 555.563H783.51L805.156 513.662Z" fill="#FFFEFB"/>
</g>
<defs>
<linearGradient id="paint0_linear_3_2" x1="857.231" y1="181.025" x2="1321.94" y2="-144.61" gradientUnits="userSpaceOnUse">
<stop stop-color="#E69E6F"/>
<stop offset="0.96875" stop-color="#FFBF95"/>
</linearGradient>
<linearGradient id="paint1_linear_3_2" x1="-330.209" y1="890.102" x2="299.804" y2="787.308" gradientUnits="userSpaceOnUse">
<stop stop-color="#C2626B"/>
<stop offset="1" stop-color="#DF8A92"/>
</linearGradient>
<clipPath id="clip0_3_2">
<rect width="1085" height="1085" fill="white"/>
</clipPath>
</defs>
</svg>
