<svg width="1085" height="1085" viewBox="0 0 1085 1085" fill="none" xmlns="http://www.w3.org/2000/svg">
<rect width="1085" height="1085" fill="#3A1C71"/>
<path d="M166.245 194.483C161.126 191.742 155.666 190.371 149.523 190.371H127V260.971H150.205C156.348 260.971 161.808 259.6 166.927 256.516C172.046 253.774 175.8 249.661 178.53 244.52C181.26 239.38 182.625 233.554 182.625 227.042V223.957C182.625 217.446 181.26 211.619 178.53 206.479C175.117 201.338 171.022 197.568 166.245 194.483ZM164.538 227.042C164.538 233.896 163.173 239.037 160.784 242.464C158.396 245.891 154.301 247.605 149.523 247.605H143.722V203.051H149.523C154.642 203.051 158.396 204.765 160.784 208.192C163.515 211.619 164.538 216.76 164.538 223.615V227.042Z" fill="white"/>
<path d="M208.902 190.371H191.839V260.971H208.902V190.371Z" fill="white"/>
<path d="M249.511 234.924H261.455V245.891C259.408 247.948 255.995 248.976 251.559 248.976C246.44 248.976 242.686 247.262 240.298 243.493C237.909 240.065 236.544 234.582 236.544 227.727V223.615C236.544 216.76 237.909 211.619 239.956 208.192C242.004 204.765 245.416 202.709 249.853 202.709C253.265 202.709 255.995 203.394 258.043 205.108C260.09 206.821 261.114 209.563 261.797 213.676H278.177C277.494 205.793 274.423 199.624 269.646 195.512C264.868 191.399 258.043 189.343 249.17 189.343C243.028 189.343 237.909 190.713 233.472 193.455C229.036 196.197 225.282 200.31 222.894 205.45C220.504 210.591 219.14 216.76 219.14 223.615V229.784C219.481 239.722 222.552 247.605 228.012 253.431C233.472 259.258 240.98 262 250.194 262C256.336 262 261.797 260.971 266.574 259.258C271.693 257.544 275.447 255.145 278.177 252.06V222.929H249.511V234.924Z" fill="white"/>
<path d="M306.501 190.371H289.438V260.971H306.501V190.371Z" fill="white"/>
<path d="M338.921 201.681C341.651 199.967 344.722 198.939 348.476 198.939C352.23 198.939 354.96 199.967 357.008 202.023C358.714 204.08 359.737 206.821 359.396 210.591H371.34C371.34 206.479 370.658 202.709 368.951 199.282C367.245 196.197 364.515 193.455 361.103 191.742C357.69 190.028 353.936 189 349.5 189C345.063 189 340.627 189.685 336.532 191.399C332.437 193.113 329.365 195.512 326.635 198.596C324.247 201.681 322.881 205.108 322.54 209.221C322.199 214.019 323.564 217.789 326.635 221.558C329.707 225.328 334.826 228.07 341.992 230.812L345.746 232.183C351.547 234.582 353.936 238.009 353.254 242.464C352.571 245.549 351.206 247.948 348.476 249.662C345.746 251.375 342.675 252.06 338.921 252.06C334.826 252.06 331.413 251.032 329.365 248.633C326.977 246.577 326.294 243.493 326.294 239.38H314.35C314.35 243.835 315.032 247.605 317.08 251.033C319.128 254.46 321.858 257.201 325.612 258.915C329.365 260.971 333.46 261.657 338.238 262C343.016 262 347.452 261.314 351.547 259.601C355.642 257.887 358.713 255.831 361.103 252.746C363.491 249.662 364.856 246.234 364.856 242.464C365.197 237.667 363.833 233.211 361.103 229.784C358.372 226.357 352.912 222.929 345.746 220.53L341.992 219.159C335.849 216.76 333.119 213.676 333.802 209.563C334.826 206.136 336.191 203.737 338.921 201.681Z" fill="white"/>
<path d="M418.433 229.441L420.14 219.845H392.157L395.569 200.31H427.989L429.695 190.371H385.332L373.046 260.971H417.751L419.457 251.375H386.696L390.45 229.441H418.433Z" fill="white"/>
<path d="M480.542 223.272C483.273 219.845 484.637 216.075 484.979 211.277C485.661 204.765 483.613 199.624 479.86 195.854C475.765 192.084 469.963 190.371 462.456 190.371H440.274L427.989 260.971H439.933L444.71 233.896H458.019L466.892 260.971H479.519V260.285L469.281 231.154C474.058 229.098 477.812 226.699 480.542 223.272ZM473.035 211.962C472.694 215.732 470.987 218.816 468.257 220.873C465.527 222.929 462.114 224.3 457.678 224.3H446.075L450.171 200.652H462.797C466.551 200.652 468.94 201.68 470.987 203.737C473.034 205.793 473.717 208.192 473.035 211.962Z" fill="white"/>
<path d="M554.254 234.582H539.239L530.707 190.371H520.128L482.249 260.971H495.216L503.748 244.52H530.024L532.754 260.971H544.699L541.627 244.52H554.595V234.582H554.254ZM523.199 205.45L527.977 234.582H508.184L523.199 205.45Z" fill="white"/>
<path d="M128.485 890V877.203H132.669C134.058 877.203 135.101 877.49 135.798 878.064C136.501 878.639 136.853 879.488 136.853 880.613C136.853 881.211 136.683 881.741 136.343 882.204C136.003 882.661 135.54 883.016 134.954 883.268C135.646 883.461 136.19 883.83 136.589 884.375C136.993 884.914 137.195 885.559 137.195 886.309C137.195 887.457 136.823 888.359 136.079 889.016C135.335 889.672 134.283 890 132.924 890H128.485ZM130.173 884.015V888.62H132.959C133.744 888.62 134.362 888.418 134.813 888.014C135.271 887.604 135.499 887.041 135.499 886.326C135.499 884.785 134.661 884.015 132.985 884.015H130.173ZM130.173 882.661H132.722C133.46 882.661 134.049 882.477 134.488 882.107C134.934 881.738 135.156 881.237 135.156 880.604C135.156 879.901 134.951 879.392 134.541 879.075C134.131 878.753 133.507 878.592 132.669 878.592H130.173V882.661ZM139.015 885.157C139.015 884.226 139.196 883.388 139.56 882.644C139.929 881.899 140.438 881.325 141.089 880.921C141.745 880.517 142.492 880.314 143.33 880.314C144.625 880.314 145.671 880.763 146.468 881.659C147.271 882.556 147.672 883.748 147.672 885.236V885.351C147.672 886.276 147.493 887.108 147.136 887.847C146.784 888.579 146.277 889.15 145.615 889.561C144.959 889.971 144.203 890.176 143.348 890.176C142.059 890.176 141.013 889.728 140.21 888.831C139.413 887.935 139.015 886.748 139.015 885.271V885.157ZM140.649 885.351C140.649 886.405 140.893 887.252 141.379 887.891C141.871 888.529 142.527 888.849 143.348 888.849C144.174 888.849 144.83 888.526 145.316 887.882C145.803 887.231 146.046 886.323 146.046 885.157C146.046 884.114 145.797 883.271 145.299 882.626C144.807 881.976 144.15 881.65 143.33 881.65C142.527 881.65 141.88 881.97 141.388 882.608C140.896 883.247 140.649 884.161 140.649 885.351ZM149.315 885.166C149.315 883.707 149.661 882.535 150.353 881.65C151.044 880.76 151.949 880.314 153.068 880.314C154.182 880.314 155.063 880.695 155.714 881.457V876.5H157.34V890H155.846L155.767 888.98C155.116 889.777 154.211 890.176 153.051 890.176C151.949 890.176 151.05 889.725 150.353 888.822C149.661 887.92 149.315 886.742 149.315 885.289V885.166ZM150.941 885.351C150.941 886.429 151.164 887.272 151.609 887.882C152.055 888.491 152.67 888.796 153.455 888.796C154.486 888.796 155.239 888.333 155.714 887.407V883.039C155.228 882.143 154.48 881.694 153.473 881.694C152.676 881.694 152.055 882.002 151.609 882.617C151.164 883.232 150.941 884.144 150.941 885.351ZM162.982 887.618L165.197 880.49H166.938L163.114 891.468C162.522 893.05 161.582 893.841 160.293 893.841L159.985 893.814L159.379 893.7V892.382L159.818 892.417C160.369 892.417 160.797 892.306 161.102 892.083C161.412 891.86 161.667 891.453 161.866 890.861L162.227 889.895L158.834 880.49H160.609L162.982 887.618ZM175.067 878.188V880.49H176.843V881.747H175.067V887.645C175.067 888.025 175.146 888.312 175.305 888.506C175.463 888.693 175.732 888.787 176.113 888.787C176.301 888.787 176.559 888.752 176.887 888.682V890C176.459 890.117 176.043 890.176 175.639 890.176C174.912 890.176 174.364 889.956 173.995 889.517C173.626 889.077 173.441 888.453 173.441 887.645V881.747H171.71V880.49H173.441V878.188H175.067ZM182.696 890.176C181.407 890.176 180.358 889.754 179.55 888.91C178.741 888.061 178.337 886.927 178.337 885.509V885.21C178.337 884.267 178.516 883.426 178.873 882.688C179.236 881.943 179.74 881.363 180.385 880.947C181.035 880.525 181.738 880.314 182.494 880.314C183.73 880.314 184.691 880.722 185.377 881.536C186.062 882.351 186.405 883.517 186.405 885.034V885.711H179.963C179.986 886.648 180.259 887.407 180.78 887.987C181.308 888.562 181.976 888.849 182.784 888.849C183.358 888.849 183.845 888.731 184.243 888.497C184.642 888.263 184.99 887.952 185.289 887.565L186.282 888.339C185.485 889.563 184.29 890.176 182.696 890.176ZM182.494 881.65C181.838 881.65 181.287 881.891 180.842 882.371C180.396 882.846 180.121 883.514 180.016 884.375H184.779V884.252C184.732 883.426 184.51 882.787 184.111 882.336C183.713 881.879 183.174 881.65 182.494 881.65ZM191.485 883.962L193.595 880.49H195.493L192.382 885.192L195.59 890H193.709L191.512 886.44L189.314 890H187.425L190.633 885.192L187.521 880.49H189.402L191.485 883.962ZM199.431 878.188V880.49H201.206V881.747H199.431V887.645C199.431 888.025 199.51 888.312 199.668 888.506C199.826 888.693 200.096 888.787 200.477 888.787C200.664 888.787 200.922 888.752 201.25 888.682V890C200.822 890.117 200.406 890.176 200.002 890.176C199.275 890.176 198.728 889.956 198.358 889.517C197.989 889.077 197.805 888.453 197.805 887.645V881.747H196.073V880.49H197.805V878.188H199.431ZM210.962 885.228H206.673V883.9H210.962V885.228ZM221.966 884.823H218.96V890H217.264V877.203H221.5C222.941 877.203 224.049 877.531 224.822 878.188C225.602 878.844 225.991 879.799 225.991 881.053C225.991 881.85 225.774 882.544 225.341 883.136C224.913 883.728 224.315 884.17 223.548 884.463L226.554 889.895V890H224.743L221.966 884.823ZM218.96 883.443H221.553C222.391 883.443 223.056 883.227 223.548 882.793C224.046 882.359 224.295 881.779 224.295 881.053C224.295 880.262 224.058 879.655 223.583 879.233C223.114 878.812 222.435 878.598 221.544 878.592H218.96V883.443ZM227.679 885.157C227.679 884.226 227.86 883.388 228.224 882.644C228.593 881.899 229.103 881.325 229.753 880.921C230.409 880.517 231.156 880.314 231.994 880.314C233.289 880.314 234.335 880.763 235.132 881.659C235.935 882.556 236.336 883.748 236.336 885.236V885.351C236.336 886.276 236.157 887.108 235.8 887.847C235.448 888.579 234.941 889.15 234.279 889.561C233.623 889.971 232.867 890.176 232.012 890.176C230.723 890.176 229.677 889.728 228.874 888.831C228.077 887.935 227.679 886.748 227.679 885.271V885.157ZM229.313 885.351C229.313 886.405 229.557 887.252 230.043 887.891C230.535 888.529 231.191 888.849 232.012 888.849C232.838 888.849 233.494 888.526 233.98 887.882C234.467 887.231 234.71 886.323 234.71 885.157C234.71 884.114 234.461 883.271 233.963 882.626C233.471 881.976 232.814 881.65 231.994 881.65C231.191 881.65 230.544 881.97 230.052 882.608C229.56 883.247 229.313 884.161 229.313 885.351ZM246.426 885.351C246.426 886.804 246.092 887.973 245.424 888.857C244.756 889.736 243.859 890.176 242.734 890.176C241.533 890.176 240.604 889.751 239.948 888.901L239.869 890H238.375V876.5H240.001V881.536C240.657 880.722 241.562 880.314 242.717 880.314C243.871 880.314 244.776 880.751 245.433 881.624C246.095 882.497 246.426 883.692 246.426 885.21V885.351ZM244.8 885.166C244.8 884.059 244.586 883.203 244.158 882.6C243.73 881.996 243.115 881.694 242.312 881.694C241.24 881.694 240.47 882.192 240.001 883.188V887.302C240.499 888.298 241.275 888.796 242.33 888.796C243.109 888.796 243.716 888.494 244.149 887.891C244.583 887.287 244.8 886.379 244.8 885.166ZM248.052 885.157C248.052 884.226 248.233 883.388 248.597 882.644C248.966 881.899 249.476 881.325 250.126 880.921C250.782 880.517 251.529 880.314 252.367 880.314C253.662 880.314 254.708 880.763 255.505 881.659C256.308 882.556 256.709 883.748 256.709 885.236V885.351C256.709 886.276 256.53 887.108 256.173 887.847C255.821 888.579 255.314 889.15 254.652 889.561C253.996 889.971 253.24 890.176 252.385 890.176C251.096 890.176 250.05 889.728 249.247 888.831C248.45 887.935 248.052 886.748 248.052 885.271V885.157ZM249.687 885.351C249.687 886.405 249.93 887.252 250.416 887.891C250.908 888.529 251.564 888.849 252.385 888.849C253.211 888.849 253.867 888.526 254.354 887.882C254.84 887.231 255.083 886.323 255.083 885.157C255.083 884.114 254.834 883.271 254.336 882.626C253.844 881.976 253.188 881.65 252.367 881.65C251.564 881.65 250.917 881.97 250.425 882.608C249.933 883.247 249.687 884.161 249.687 885.351ZM260.954 878.188V880.49H262.729V881.747H260.954V887.645C260.954 888.025 261.033 888.312 261.191 888.506C261.35 888.693 261.619 888.787 262 888.787C262.188 888.787 262.445 888.752 262.773 888.682V890C262.346 890.117 261.93 890.176 261.525 890.176C260.799 890.176 260.251 889.956 259.882 889.517C259.513 889.077 259.328 888.453 259.328 887.645V881.747H257.597V880.49H259.328V878.188H260.954ZM264.03 885.157C264.03 884.226 264.212 883.388 264.575 882.644C264.944 881.899 265.454 881.325 266.104 880.921C266.761 880.517 267.508 880.314 268.346 880.314C269.641 880.314 270.687 880.763 271.483 881.659C272.286 882.556 272.688 883.748 272.688 885.236V885.351C272.688 886.276 272.509 887.108 272.151 887.847C271.8 888.579 271.293 889.15 270.631 889.561C269.975 889.971 269.219 890.176 268.363 890.176C267.074 890.176 266.028 889.728 265.226 888.831C264.429 887.935 264.03 886.748 264.03 885.271V885.157ZM265.665 885.351C265.665 886.405 265.908 887.252 266.395 887.891C266.887 888.529 267.543 888.849 268.363 888.849C269.189 888.849 269.846 888.526 270.332 887.882C270.818 887.231 271.062 886.323 271.062 885.157C271.062 884.114 270.812 883.271 270.314 882.626C269.822 881.976 269.166 881.65 268.346 881.65C267.543 881.65 266.896 881.97 266.403 882.608C265.911 883.247 265.665 884.161 265.665 885.351ZM284.368 890H282.733V879.163L279.455 880.367V878.891L284.113 877.142H284.368V890ZM296.893 880.543C296.893 881.182 296.723 881.75 296.383 882.248C296.049 882.746 295.595 883.136 295.021 883.417C295.688 883.704 296.216 884.123 296.603 884.674C296.995 885.225 297.191 885.849 297.191 886.546C297.191 887.653 296.816 888.535 296.066 889.191C295.322 889.848 294.341 890.176 293.122 890.176C291.892 890.176 290.904 889.848 290.16 889.191C289.422 888.529 289.053 887.647 289.053 886.546C289.053 885.854 289.24 885.23 289.615 884.674C289.996 884.117 290.521 883.695 291.188 883.408C290.62 883.127 290.172 882.737 289.844 882.239C289.516 881.741 289.352 881.176 289.352 880.543C289.352 879.465 289.697 878.609 290.389 877.977C291.08 877.344 291.991 877.027 293.122 877.027C294.247 877.027 295.155 877.344 295.847 877.977C296.544 878.609 296.893 879.465 296.893 880.543ZM295.565 886.511C295.565 885.796 295.337 885.213 294.88 884.762C294.429 884.311 293.837 884.085 293.104 884.085C292.372 884.085 291.783 884.308 291.338 884.753C290.898 885.198 290.679 885.784 290.679 886.511C290.679 887.237 290.893 887.809 291.32 888.225C291.754 888.641 292.354 888.849 293.122 888.849C293.884 888.849 294.481 888.641 294.915 888.225C295.349 887.803 295.565 887.231 295.565 886.511ZM293.122 878.363C292.483 878.363 291.965 878.562 291.566 878.961C291.174 879.354 290.978 879.89 290.978 880.569C290.978 881.22 291.171 881.747 291.558 882.151C291.95 882.55 292.472 882.749 293.122 882.749C293.772 882.749 294.291 882.55 294.678 882.151C295.07 881.747 295.267 881.22 295.267 880.569C295.267 879.919 295.064 879.389 294.66 878.979C294.256 878.568 293.743 878.363 293.122 878.363ZM311.904 885.351C311.904 886.798 311.573 887.964 310.911 888.849C310.249 889.733 309.353 890.176 308.222 890.176C307.067 890.176 306.159 889.81 305.497 889.077V893.656H303.871V880.49H305.356L305.436 881.545C306.098 880.725 307.018 880.314 308.195 880.314C309.338 880.314 310.24 880.745 310.902 881.606C311.57 882.468 311.904 883.666 311.904 885.201V885.351ZM310.278 885.166C310.278 884.094 310.05 883.247 309.593 882.626C309.136 882.005 308.509 881.694 307.712 881.694C306.728 881.694 305.989 882.131 305.497 883.004V887.548C305.983 888.415 306.728 888.849 307.729 888.849C308.509 888.849 309.127 888.541 309.584 887.926C310.047 887.305 310.278 886.385 310.278 885.166ZM317.028 883.962L319.138 880.49H321.036L317.925 885.192L321.133 890H319.252L317.055 886.44L314.857 890H312.968L316.176 885.192L313.064 880.49H314.945L317.028 883.962ZM332.181 884.823H329.175V890H327.479V877.203H331.715C333.156 877.203 334.264 877.531 335.037 878.188C335.816 878.844 336.206 879.799 336.206 881.053C336.206 881.85 335.989 882.544 335.556 883.136C335.128 883.728 334.53 884.17 333.763 884.463L336.769 889.895V890H334.958L332.181 884.823ZM329.175 883.443H331.768C332.605 883.443 333.271 883.227 333.763 882.793C334.261 882.359 334.51 881.779 334.51 881.053C334.51 880.262 334.272 879.655 333.798 879.233C333.329 878.812 332.649 878.598 331.759 878.592H329.175V883.443ZM342.271 890.176C340.981 890.176 339.933 889.754 339.124 888.91C338.315 888.061 337.911 886.927 337.911 885.509V885.21C337.911 884.267 338.09 883.426 338.447 882.688C338.811 881.943 339.314 881.363 339.959 880.947C340.609 880.525 341.312 880.314 342.068 880.314C343.305 880.314 344.266 880.722 344.951 881.536C345.637 882.351 345.979 883.517 345.979 885.034V885.711H339.537C339.561 886.648 339.833 887.407 340.354 887.987C340.882 888.562 341.55 888.849 342.358 888.849C342.933 888.849 343.419 888.731 343.817 888.497C344.216 888.263 344.564 887.952 344.863 887.565L345.856 888.339C345.06 889.563 343.864 890.176 342.271 890.176ZM342.068 881.65C341.412 881.65 340.861 881.891 340.416 882.371C339.971 882.846 339.695 883.514 339.59 884.375H344.354V884.252C344.307 883.426 344.084 882.787 343.686 882.336C343.287 881.879 342.748 881.65 342.068 881.65ZM347.482 885.166C347.482 883.684 347.825 882.506 348.511 881.633C349.196 880.754 350.104 880.314 351.235 880.314C352.396 880.314 353.301 880.725 353.951 881.545L354.03 880.49H355.516V889.771C355.516 891.002 355.149 891.972 354.417 892.681C353.69 893.39 352.712 893.744 351.481 893.744C350.796 893.744 350.125 893.598 349.469 893.305C348.812 893.012 348.312 892.61 347.966 892.101L348.81 891.125C349.507 891.986 350.359 892.417 351.367 892.417C352.158 892.417 352.773 892.194 353.213 891.749C353.658 891.304 353.881 890.677 353.881 889.868V889.051C353.23 889.801 352.343 890.176 351.218 890.176C350.104 890.176 349.202 889.728 348.511 888.831C347.825 887.935 347.482 886.713 347.482 885.166ZM349.117 885.351C349.117 886.423 349.337 887.267 349.776 887.882C350.216 888.491 350.831 888.796 351.622 888.796C352.647 888.796 353.4 888.33 353.881 887.398V883.057C353.383 882.148 352.636 881.694 351.64 881.694C350.849 881.694 350.23 882.002 349.785 882.617C349.34 883.232 349.117 884.144 349.117 885.351ZM363.848 889.06C363.215 889.804 362.286 890.176 361.062 890.176C360.048 890.176 359.274 889.883 358.741 889.297C358.214 888.705 357.947 887.832 357.941 886.678V880.49H359.567V886.634C359.567 888.075 360.153 888.796 361.325 888.796C362.567 888.796 363.394 888.333 363.804 887.407V880.49H365.43V890H363.883L363.848 889.06ZM369.675 890H368.049V876.5H369.675V890ZM378.156 890C378.062 889.812 377.986 889.479 377.928 888.998C377.172 889.783 376.27 890.176 375.221 890.176C374.283 890.176 373.513 889.912 372.909 889.385C372.312 888.852 372.013 888.178 372.013 887.363C372.013 886.373 372.388 885.605 373.138 885.061C373.894 884.51 374.954 884.234 376.319 884.234H377.901V883.487C377.901 882.919 377.731 882.468 377.392 882.134C377.052 881.794 376.551 881.624 375.889 881.624C375.309 881.624 374.822 881.771 374.43 882.063C374.037 882.356 373.841 882.711 373.841 883.127H372.206C372.206 882.652 372.373 882.195 372.707 881.756C373.047 881.311 373.504 880.959 374.078 880.701C374.658 880.443 375.294 880.314 375.985 880.314C377.081 880.314 377.939 880.59 378.561 881.141C379.182 881.686 379.504 882.438 379.527 883.399V887.776C379.527 888.649 379.639 889.344 379.861 889.859V890H378.156ZM375.458 888.761C375.968 888.761 376.451 888.629 376.908 888.365C377.365 888.102 377.696 887.759 377.901 887.337V885.386H376.627C374.635 885.386 373.639 885.969 373.639 887.135C373.639 887.645 373.809 888.043 374.148 888.33C374.488 888.617 374.925 888.761 375.458 888.761ZM386.673 881.949C386.427 881.908 386.16 881.888 385.873 881.888C384.807 881.888 384.083 882.342 383.702 883.25V890H382.076V880.49H383.658L383.685 881.589C384.218 880.739 384.974 880.314 385.952 880.314C386.269 880.314 386.509 880.355 386.673 880.438V881.949Z" fill="white"/>
<path d="M131.197 805.893V814H129.516V794.094H136.297C138.366 794.094 139.997 794.622 141.191 795.68C142.395 796.737 142.996 798.191 142.996 800.041C142.996 801.91 142.417 803.354 141.26 804.375C140.111 805.387 138.443 805.893 136.256 805.893H131.197ZM131.197 804.471H136.297C137.928 804.471 139.173 804.083 140.029 803.309C140.886 802.534 141.314 801.454 141.314 800.068C141.314 798.692 140.886 797.598 140.029 796.787C139.182 795.967 137.974 795.548 136.406 795.529H131.197V804.471ZM153.223 800.602C152.876 800.538 152.507 800.506 152.115 800.506C151.094 800.506 150.229 800.793 149.518 801.367C148.816 801.932 148.314 802.757 148.014 803.842V814H146.387V799.207H147.986L148.014 801.559C148.88 799.809 150.27 798.934 152.184 798.934C152.639 798.934 152.999 798.993 153.264 799.111L153.223 800.602ZM161.275 814.273C160.018 814.273 158.878 813.964 157.857 813.344C156.846 812.724 156.057 811.863 155.492 810.76C154.927 809.648 154.645 808.404 154.645 807.027V806.439C154.645 805.018 154.918 803.737 155.465 802.598C156.021 801.458 156.791 800.565 157.775 799.918C158.76 799.262 159.826 798.934 160.975 798.934C162.77 798.934 164.192 799.549 165.24 800.779C166.298 802.001 166.826 803.673 166.826 805.797V806.713H156.271V807.027C156.271 808.704 156.75 810.104 157.707 811.225C158.673 812.337 159.885 812.893 161.344 812.893C162.219 812.893 162.989 812.733 163.654 812.414C164.329 812.095 164.939 811.585 165.486 810.883L166.512 811.662C165.309 813.403 163.563 814.273 161.275 814.273ZM160.975 800.328C159.744 800.328 158.705 800.779 157.857 801.682C157.019 802.584 156.508 803.796 156.326 805.318H165.199V805.141C165.154 803.719 164.748 802.561 163.982 801.668C163.217 800.775 162.214 800.328 160.975 800.328ZM179.35 814C179.186 813.535 179.081 812.847 179.035 811.936C178.461 812.683 177.727 813.262 176.834 813.672C175.95 814.073 175.011 814.273 174.018 814.273C172.596 814.273 171.443 813.877 170.559 813.084C169.684 812.291 169.246 811.288 169.246 810.076C169.246 808.636 169.843 807.497 171.037 806.658C172.24 805.82 173.913 805.4 176.055 805.4H179.021V803.719C179.021 802.661 178.693 801.832 178.037 801.23C177.39 800.62 176.442 800.314 175.193 800.314C174.054 800.314 173.111 800.606 172.363 801.189C171.616 801.773 171.242 802.475 171.242 803.295L169.602 803.281C169.602 802.105 170.148 801.089 171.242 800.232C172.336 799.367 173.68 798.934 175.275 798.934C176.925 798.934 178.224 799.348 179.172 800.178C180.129 800.998 180.621 802.146 180.648 803.623V810.623C180.648 812.054 180.799 813.125 181.1 813.836V814H179.35ZM174.209 812.824C175.303 812.824 176.278 812.56 177.135 812.031C178.001 811.503 178.63 810.796 179.021 809.912V806.658H176.096C174.464 806.676 173.188 806.977 172.268 807.561C171.347 808.135 170.887 808.928 170.887 809.939C170.887 810.769 171.192 811.457 171.803 812.004C172.423 812.551 173.225 812.824 174.209 812.824ZM186.514 799.207L186.568 801.613C187.115 800.72 187.799 800.05 188.619 799.604C189.439 799.157 190.351 798.934 191.354 798.934C193.687 798.934 195.168 799.891 195.797 801.805C196.326 800.884 197.032 800.178 197.916 799.686C198.8 799.184 199.775 798.934 200.842 798.934C204.014 798.934 205.632 800.665 205.695 804.129V814H204.055V804.252C204.046 802.93 203.758 801.951 203.193 801.312C202.637 800.674 201.726 800.355 200.459 800.355C199.283 800.374 198.29 800.757 197.479 801.504C196.667 802.242 196.216 803.145 196.125 804.211V814H194.484V804.129C194.475 802.862 194.174 801.919 193.582 801.299C192.999 800.67 192.096 800.355 190.875 800.355C189.845 800.355 188.961 800.652 188.223 801.244C187.484 801.827 186.938 802.698 186.582 803.855V814H184.941V799.207H186.514ZM221.76 806.754C221.76 809.06 221.249 810.892 220.229 812.25C219.208 813.599 217.836 814.273 216.113 814.273C214.053 814.273 212.495 813.508 211.438 811.977L211.369 814H209.838V793H211.465V801.354C212.504 799.74 214.044 798.934 216.086 798.934C217.836 798.934 219.217 799.604 220.229 800.943C221.249 802.274 221.76 804.129 221.76 806.508V806.754ZM220.119 806.467C220.119 804.516 219.741 803.012 218.984 801.955C218.228 800.889 217.161 800.355 215.785 800.355C214.737 800.355 213.848 800.615 213.119 801.135C212.39 801.645 211.839 802.397 211.465 803.391V810.062C212.285 811.922 213.734 812.852 215.812 812.852C217.161 812.852 218.214 812.318 218.971 811.252C219.736 810.186 220.119 808.59 220.119 806.467ZM227.215 814H225.574V793H227.215V814ZM237.4 814.273C236.143 814.273 235.003 813.964 233.982 813.344C232.971 812.724 232.182 811.863 231.617 810.76C231.052 809.648 230.77 808.404 230.77 807.027V806.439C230.77 805.018 231.043 803.737 231.59 802.598C232.146 801.458 232.916 800.565 233.9 799.918C234.885 799.262 235.951 798.934 237.1 798.934C238.895 798.934 240.317 799.549 241.365 800.779C242.423 802.001 242.951 803.673 242.951 805.797V806.713H232.396V807.027C232.396 808.704 232.875 810.104 233.832 811.225C234.798 812.337 236.01 812.893 237.469 812.893C238.344 812.893 239.114 812.733 239.779 812.414C240.454 812.095 241.064 811.585 241.611 810.883L242.637 811.662C241.434 813.403 239.688 814.273 237.4 814.273ZM237.1 800.328C235.869 800.328 234.83 800.779 233.982 801.682C233.144 802.584 232.633 803.796 232.451 805.318H241.324V805.141C241.279 803.719 240.873 802.561 240.107 801.668C239.342 800.775 238.339 800.328 237.1 800.328ZM258.031 805.906H251.482V804.525H258.031V805.906ZM275.586 805.715H269.803V814H268.107V794.094H274.574C276.698 794.094 278.357 794.609 279.551 795.639C280.745 796.669 281.342 798.109 281.342 799.959C281.342 801.235 280.968 802.361 280.221 803.336C279.473 804.311 278.471 804.986 277.213 805.359L282.189 813.822V814H280.398L275.586 805.715ZM269.803 804.279H274.957C276.37 804.279 277.505 803.878 278.361 803.076C279.218 802.274 279.646 801.235 279.646 799.959C279.646 798.555 279.2 797.466 278.307 796.691C277.413 795.917 276.16 795.529 274.547 795.529H269.803V804.279ZM284.637 806.385C284.637 804.963 284.91 803.682 285.457 802.543C286.013 801.404 286.792 800.52 287.795 799.891C288.807 799.253 289.951 798.934 291.227 798.934C293.195 798.934 294.79 799.626 296.012 801.012C297.233 802.388 297.844 804.215 297.844 806.494V806.836C297.844 808.267 297.566 809.557 297.01 810.705C296.463 811.844 295.688 812.724 294.686 813.344C293.683 813.964 292.539 814.273 291.254 814.273C289.294 814.273 287.699 813.585 286.469 812.209C285.247 810.824 284.637 808.992 284.637 806.713V806.385ZM286.277 806.836C286.277 808.604 286.733 810.058 287.645 811.197C288.565 812.327 289.768 812.893 291.254 812.893C292.73 812.893 293.924 812.327 294.836 811.197C295.757 810.058 296.217 808.559 296.217 806.699V806.385C296.217 805.255 296.007 804.22 295.588 803.281C295.169 802.342 294.581 801.618 293.824 801.107C293.068 800.588 292.202 800.328 291.227 800.328C289.768 800.328 288.579 800.902 287.658 802.051C286.738 803.19 286.277 804.685 286.277 806.535V806.836ZM313.143 806.754C313.143 809.06 312.632 810.892 311.611 812.25C310.59 813.599 309.219 814.273 307.496 814.273C305.436 814.273 303.878 813.508 302.82 811.977L302.752 814H301.221V793H302.848V801.354C303.887 799.74 305.427 798.934 307.469 798.934C309.219 798.934 310.6 799.604 311.611 800.943C312.632 802.274 313.143 804.129 313.143 806.508V806.754ZM311.502 806.467C311.502 804.516 311.124 803.012 310.367 801.955C309.611 800.889 308.544 800.355 307.168 800.355C306.12 800.355 305.231 800.615 304.502 801.135C303.773 801.645 303.221 802.397 302.848 803.391V810.062C303.668 811.922 305.117 812.852 307.195 812.852C308.544 812.852 309.597 812.318 310.354 811.252C311.119 810.186 311.502 808.59 311.502 806.467ZM315.863 806.385C315.863 804.963 316.137 803.682 316.684 802.543C317.24 801.404 318.019 800.52 319.021 799.891C320.033 799.253 321.177 798.934 322.453 798.934C324.422 798.934 326.017 799.626 327.238 801.012C328.46 802.388 329.07 804.215 329.07 806.494V806.836C329.07 808.267 328.792 809.557 328.236 810.705C327.689 811.844 326.915 812.724 325.912 813.344C324.91 813.964 323.766 814.273 322.48 814.273C320.521 814.273 318.926 813.585 317.695 812.209C316.474 810.824 315.863 808.992 315.863 806.713V806.385ZM317.504 806.836C317.504 808.604 317.96 810.058 318.871 811.197C319.792 812.327 320.995 812.893 322.48 812.893C323.957 812.893 325.151 812.327 326.062 811.197C326.983 810.058 327.443 808.559 327.443 806.699V806.385C327.443 805.255 327.234 804.22 326.814 803.281C326.395 802.342 325.807 801.618 325.051 801.107C324.294 800.588 323.428 800.328 322.453 800.328C320.995 800.328 319.805 800.902 318.885 802.051C317.964 803.19 317.504 804.685 317.504 806.535V806.836ZM335.004 795.42V799.207H338.066V800.547H335.004V810.404C335.004 811.225 335.15 811.835 335.441 812.236C335.742 812.637 336.239 812.838 336.932 812.838C337.205 812.838 337.647 812.792 338.258 812.701L338.326 814.041C337.898 814.196 337.314 814.273 336.576 814.273C335.455 814.273 334.639 813.95 334.129 813.303C333.618 812.646 333.363 811.685 333.363 810.418V800.547H330.643V799.207H333.363V795.42H335.004ZM340.281 806.385C340.281 804.963 340.555 803.682 341.102 802.543C341.658 801.404 342.437 800.52 343.439 799.891C344.451 799.253 345.595 798.934 346.871 798.934C348.84 798.934 350.435 799.626 351.656 801.012C352.878 802.388 353.488 804.215 353.488 806.494V806.836C353.488 808.267 353.21 809.557 352.654 810.705C352.107 811.844 351.333 812.724 350.33 813.344C349.327 813.964 348.184 814.273 346.898 814.273C344.939 814.273 343.344 813.585 342.113 812.209C340.892 810.824 340.281 808.992 340.281 806.713V806.385ZM341.922 806.836C341.922 808.604 342.378 810.058 343.289 811.197C344.21 812.327 345.413 812.893 346.898 812.893C348.375 812.893 349.569 812.327 350.48 811.197C351.401 810.058 351.861 808.559 351.861 806.699V806.385C351.861 805.255 351.652 804.22 351.232 803.281C350.813 802.342 350.225 801.618 349.469 801.107C348.712 800.588 347.846 800.328 346.871 800.328C345.413 800.328 344.223 800.902 343.303 802.051C342.382 803.19 341.922 804.685 341.922 806.535V806.836ZM375.896 814H363.428V812.742L370.25 805.004C371.38 803.701 372.164 802.625 372.602 801.777C373.039 800.93 373.258 800.105 373.258 799.303C373.258 798.045 372.889 797.051 372.15 796.322C371.412 795.584 370.396 795.215 369.102 795.215C367.762 795.215 366.677 795.643 365.848 796.5C365.027 797.357 364.617 798.469 364.617 799.836H362.99C362.99 798.715 363.241 797.694 363.742 796.773C364.253 795.853 364.973 795.133 365.902 794.613C366.841 794.085 367.908 793.82 369.102 793.82C370.924 793.82 372.346 794.299 373.367 795.256C374.397 796.213 374.912 797.516 374.912 799.166C374.912 800.096 374.62 801.112 374.037 802.215C373.463 803.318 372.447 804.694 370.988 806.344L365.438 812.619H375.896V814ZM390.689 799.221C390.689 800.251 390.389 801.176 389.787 801.996C389.186 802.807 388.393 803.404 387.408 803.787C388.557 804.179 389.477 804.812 390.17 805.688C390.863 806.562 391.209 807.574 391.209 808.723C391.209 810.427 390.63 811.781 389.473 812.783C388.315 813.777 386.784 814.273 384.879 814.273C382.956 814.273 381.415 813.777 380.258 812.783C379.109 811.79 378.535 810.436 378.535 808.723C378.535 807.592 378.868 806.585 379.533 805.701C380.199 804.817 381.11 804.179 382.268 803.787C381.283 803.404 380.499 802.807 379.916 801.996C379.333 801.176 379.041 800.251 379.041 799.221C379.041 797.571 379.57 796.258 380.627 795.283C381.693 794.308 383.102 793.82 384.852 793.82C386.602 793.82 388.01 794.312 389.076 795.297C390.152 796.281 390.689 797.589 390.689 799.221ZM389.568 808.736C389.568 807.497 389.126 806.48 388.242 805.688C387.358 804.885 386.228 804.484 384.852 804.484C383.475 804.484 382.35 804.876 381.475 805.66C380.6 806.444 380.162 807.469 380.162 808.736C380.162 810.003 380.586 811.015 381.434 811.771C382.281 812.519 383.43 812.893 384.879 812.893C386.292 812.893 387.426 812.519 388.283 811.771C389.14 811.024 389.568 810.012 389.568 808.736ZM389.049 799.207C389.049 798.068 388.652 797.12 387.859 796.363C387.076 795.598 386.073 795.215 384.852 795.215C383.612 795.215 382.605 795.584 381.83 796.322C381.064 797.051 380.682 798.013 380.682 799.207C380.682 800.374 381.064 801.312 381.83 802.023C382.605 802.734 383.617 803.09 384.865 803.09C386.096 803.09 387.098 802.734 387.873 802.023C388.657 801.303 389.049 800.365 389.049 799.207ZM413.453 806.754C413.453 809.06 412.943 810.892 411.922 812.25C410.901 813.599 409.534 814.273 407.82 814.273C405.797 814.273 404.247 813.562 403.172 812.141V819.688H401.545V799.207H403.062L403.145 801.299C404.211 799.722 405.756 798.934 407.779 798.934C409.548 798.934 410.933 799.604 411.936 800.943C412.947 802.283 413.453 804.143 413.453 806.521V806.754ZM411.812 806.467C411.812 804.58 411.425 803.09 410.65 801.996C409.876 800.902 408.796 800.355 407.41 800.355C406.408 800.355 405.546 800.597 404.826 801.08C404.106 801.563 403.555 802.265 403.172 803.186V810.281C403.564 811.129 404.124 811.776 404.854 812.223C405.583 812.669 406.444 812.893 407.438 812.893C408.814 812.893 409.885 812.346 410.65 811.252C411.425 810.149 411.812 808.554 411.812 806.467ZM421.52 805.209L425.512 799.207H427.453L422.436 806.467L427.672 814H425.744L421.533 807.738L417.322 814H415.395L420.617 806.467L415.6 799.207H417.527L421.52 805.209ZM439.375 812.578H449.205V814H437.68V794.094H439.375V812.578ZM453.895 814H452.254V799.207H453.895V814ZM451.967 794.928C451.967 794.618 452.067 794.358 452.268 794.148C452.468 793.93 452.742 793.82 453.088 793.82C453.434 793.82 453.708 793.93 453.908 794.148C454.118 794.358 454.223 794.618 454.223 794.928C454.223 795.238 454.118 795.497 453.908 795.707C453.708 795.917 453.434 796.021 453.088 796.021C452.742 796.021 452.468 795.917 452.268 795.707C452.067 795.497 451.967 795.238 451.967 794.928ZM457.695 806.467C457.695 804.152 458.206 802.32 459.227 800.971C460.257 799.613 461.651 798.934 463.41 798.934C465.424 798.934 466.956 799.736 468.004 801.34L468.086 799.207H469.617V813.699C469.617 815.604 469.084 817.113 468.018 818.225C466.951 819.337 465.507 819.893 463.684 819.893C462.654 819.893 461.669 819.66 460.73 819.195C459.801 818.74 459.067 818.129 458.529 817.363L459.445 816.379C460.603 817.801 461.979 818.512 463.574 818.512C464.941 818.512 466.008 818.106 466.773 817.295C467.539 816.493 467.936 815.376 467.963 813.945V812.086C466.915 813.544 465.388 814.273 463.383 814.273C461.669 814.273 460.293 813.59 459.254 812.223C458.215 810.855 457.695 809.01 457.695 806.686V806.467ZM459.35 806.754C459.35 808.641 459.728 810.131 460.484 811.225C461.241 812.309 462.307 812.852 463.684 812.852C465.698 812.852 467.124 811.949 467.963 810.145V803.268C467.58 802.32 467.029 801.6 466.309 801.107C465.589 800.606 464.723 800.355 463.711 800.355C462.335 800.355 461.264 800.898 460.498 801.982C459.732 803.058 459.35 804.648 459.35 806.754ZM475.51 801.709C476.048 800.825 476.736 800.141 477.574 799.658C478.413 799.175 479.329 798.934 480.322 798.934C481.908 798.934 483.089 799.38 483.863 800.273C484.638 801.167 485.03 802.507 485.039 804.293V814H483.412V804.279C483.403 802.958 483.12 801.973 482.564 801.326C482.018 800.679 481.138 800.355 479.926 800.355C478.914 800.355 478.016 800.674 477.232 801.312C476.458 801.941 475.883 802.794 475.51 803.869V814H473.883V793H475.51V801.709ZM491.793 795.42V799.207H494.855V800.547H491.793V810.404C491.793 811.225 491.939 811.835 492.23 812.236C492.531 812.637 493.028 812.838 493.721 812.838C493.994 812.838 494.436 812.792 495.047 812.701L495.115 814.041C494.687 814.196 494.104 814.273 493.365 814.273C492.244 814.273 491.428 813.95 490.918 813.303C490.408 812.646 490.152 811.685 490.152 810.418V800.547H487.432V799.207H490.152V795.42H491.793Z" fill="white"/>
<path d="M143.08 709.152V726H138.976V719.064H132.592V726H128.488V709.152H132.592V715.752H138.976V709.152H143.08ZM145.731 722.88V719.568L153.315 708.72H157.899V719.328H159.867V722.88H157.899V726H153.795V722.88H145.731ZM154.083 713.232L150.051 719.328H154.083V713.232ZM177.691 715.872V719.28H167.131V715.872H177.691ZM199.219 714.576C199.219 715.552 198.995 716.448 198.547 717.264C198.099 718.064 197.411 718.712 196.483 719.208C195.555 719.704 194.403 719.952 193.027 719.952H190.483V726H186.379V709.152H193.027C194.371 709.152 195.507 709.384 196.435 709.848C197.363 710.312 198.059 710.952 198.523 711.768C198.987 712.584 199.219 713.52 199.219 714.576ZM192.715 716.688C193.499 716.688 194.083 716.504 194.467 716.136C194.851 715.768 195.043 715.248 195.043 714.576C195.043 713.904 194.851 713.384 194.467 713.016C194.083 712.648 193.499 712.464 192.715 712.464H190.483V716.688H192.715ZM207.451 726.192C206.139 726.192 204.955 725.912 203.899 725.352C202.859 724.792 202.035 723.992 201.427 722.952C200.835 721.912 200.539 720.696 200.539 719.304C200.539 717.928 200.843 716.72 201.451 715.68C202.059 714.624 202.891 713.816 203.947 713.256C205.003 712.696 206.187 712.416 207.499 712.416C208.811 712.416 209.995 712.696 211.051 713.256C212.107 713.816 212.939 714.624 213.547 715.68C214.155 716.72 214.459 717.928 214.459 719.304C214.459 720.68 214.147 721.896 213.523 722.952C212.915 723.992 212.075 724.792 211.003 725.352C209.947 725.912 208.763 726.192 207.451 726.192ZM207.451 722.64C208.235 722.64 208.899 722.352 209.443 721.776C210.003 721.2 210.283 720.376 210.283 719.304C210.283 718.232 210.011 717.408 209.467 716.832C208.939 716.256 208.283 715.968 207.499 715.968C206.699 715.968 206.035 716.256 205.507 716.832C204.979 717.392 204.715 718.216 204.715 719.304C204.715 720.376 204.971 721.2 205.483 721.776C206.011 722.352 206.667 722.64 207.451 722.64ZM220.74 714.504C221.14 713.88 221.692 713.376 222.396 712.992C223.1 712.608 223.924 712.416 224.868 712.416C225.972 712.416 226.972 712.696 227.868 713.256C228.764 713.816 229.468 714.616 229.98 715.656C230.508 716.696 230.772 717.904 230.772 719.28C230.772 720.656 230.508 721.872 229.98 722.928C229.468 723.968 228.764 724.776 227.868 725.352C226.972 725.912 225.972 726.192 224.868 726.192C223.94 726.192 223.116 726 222.396 725.616C221.692 725.232 221.14 724.736 220.74 724.128V732.384H216.636V712.608H220.74V714.504ZM226.596 719.28C226.596 718.256 226.308 717.456 225.732 716.88C225.172 716.288 224.476 715.992 223.644 715.992C222.828 715.992 222.132 716.288 221.556 716.88C220.996 717.472 220.716 718.28 220.716 719.304C220.716 720.328 220.996 721.136 221.556 721.728C222.132 722.32 222.828 722.616 223.644 722.616C224.46 722.616 225.156 722.32 225.732 721.728C226.308 721.12 226.596 720.304 226.596 719.28ZM237.03 714.504C237.43 713.88 237.982 713.376 238.686 712.992C239.39 712.608 240.214 712.416 241.158 712.416C242.262 712.416 243.262 712.696 244.158 713.256C245.054 713.816 245.758 714.616 246.27 715.656C246.798 716.696 247.062 717.904 247.062 719.28C247.062 720.656 246.798 721.872 246.27 722.928C245.758 723.968 245.054 724.776 244.158 725.352C243.262 725.912 242.262 726.192 241.158 726.192C240.23 726.192 239.406 726 238.686 725.616C237.982 725.232 237.43 724.736 237.03 724.128V732.384H232.926V712.608H237.03V714.504ZM242.886 719.28C242.886 718.256 242.598 717.456 242.022 716.88C241.462 716.288 240.766 715.992 239.934 715.992C239.118 715.992 238.422 716.288 237.846 716.88C237.286 717.472 237.006 718.28 237.006 719.304C237.006 720.328 237.286 721.136 237.846 721.728C238.422 722.32 239.118 722.616 239.934 722.616C240.75 722.616 241.446 722.32 242.022 721.728C242.598 721.12 242.886 720.304 242.886 719.28ZM251.279 711.216C250.559 711.216 249.967 711.008 249.503 710.592C249.055 710.16 248.831 709.632 248.831 709.008C248.831 708.368 249.055 707.84 249.503 707.424C249.967 706.992 250.559 706.776 251.279 706.776C251.983 706.776 252.559 706.992 253.007 707.424C253.471 707.84 253.703 708.368 253.703 709.008C253.703 709.632 253.471 710.16 253.007 710.592C252.559 711.008 251.983 711.216 251.279 711.216ZM253.319 712.608V726H249.215V712.608H253.319ZM264.453 712.464C266.021 712.464 267.269 712.976 268.197 714C269.141 715.008 269.613 716.4 269.613 718.176V726H265.533V718.728C265.533 717.832 265.301 717.136 264.837 716.64C264.373 716.144 263.749 715.896 262.965 715.896C262.181 715.896 261.557 716.144 261.093 716.64C260.629 717.136 260.397 717.832 260.397 718.728V726H256.293V712.608H260.397V714.384C260.813 713.792 261.373 713.328 262.077 712.992C262.781 712.64 263.573 712.464 264.453 712.464ZM277.913 726.192C276.745 726.192 275.705 725.992 274.793 725.592C273.881 725.192 273.161 724.648 272.633 723.96C272.105 723.256 271.809 722.472 271.745 721.608H275.801C275.849 722.072 276.065 722.448 276.449 722.736C276.833 723.024 277.305 723.168 277.865 723.168C278.377 723.168 278.769 723.072 279.041 722.88C279.329 722.672 279.473 722.408 279.473 722.088C279.473 721.704 279.273 721.424 278.873 721.248C278.473 721.056 277.825 720.848 276.929 720.624C275.969 720.4 275.169 720.168 274.529 719.928C273.889 719.672 273.337 719.28 272.873 718.752C272.409 718.208 272.177 717.48 272.177 716.568C272.177 715.8 272.385 715.104 272.801 714.48C273.233 713.84 273.857 713.336 274.673 712.968C275.505 712.6 276.489 712.416 277.625 712.416C279.305 712.416 280.625 712.832 281.585 713.664C282.561 714.496 283.121 715.6 283.265 716.976H279.473C279.409 716.512 279.201 716.144 278.849 715.872C278.513 715.6 278.065 715.464 277.505 715.464C277.025 715.464 276.657 715.56 276.401 715.752C276.145 715.928 276.017 716.176 276.017 716.496C276.017 716.88 276.217 717.168 276.617 717.36C277.033 717.552 277.673 717.744 278.537 717.936C279.529 718.192 280.337 718.448 280.961 718.704C281.585 718.944 282.129 719.344 282.593 719.904C283.073 720.448 283.321 721.184 283.337 722.112C283.337 722.896 283.113 723.6 282.665 724.224C282.233 724.832 281.601 725.312 280.769 725.664C279.953 726.016 279.001 726.192 277.913 726.192ZM290.381 722.712C290.925 722.28 291.173 722.08 291.125 722.112C292.693 720.816 293.925 719.752 294.821 718.92C295.733 718.088 296.501 717.216 297.125 716.304C297.749 715.392 298.061 714.504 298.061 713.64C298.061 712.984 297.909 712.472 297.605 712.104C297.301 711.736 296.845 711.552 296.237 711.552C295.629 711.552 295.149 711.784 294.797 712.248C294.461 712.696 294.293 713.336 294.293 714.168H290.333C290.365 712.808 290.653 711.672 291.197 710.76C291.757 709.848 292.485 709.176 293.381 708.744C294.293 708.312 295.301 708.096 296.405 708.096C298.309 708.096 299.741 708.584 300.701 709.56C301.677 710.536 302.165 711.808 302.165 713.376C302.165 715.088 301.581 716.68 300.413 718.152C299.245 719.608 297.757 721.032 295.949 722.424H302.429V725.76H290.381V722.712ZM304.332 722.88V719.568L311.916 708.72H316.5V719.328H318.468V722.88H316.5V726H312.396V722.88H304.332ZM312.684 713.232L308.652 719.328H312.684V713.232ZM330.076 714.504C330.476 713.88 331.028 713.376 331.732 712.992C332.436 712.608 333.26 712.416 334.204 712.416C335.308 712.416 336.308 712.696 337.204 713.256C338.1 713.816 338.804 714.616 339.316 715.656C339.844 716.696 340.108 717.904 340.108 719.28C340.108 720.656 339.844 721.872 339.316 722.928C338.804 723.968 338.1 724.776 337.204 725.352C336.308 725.912 335.308 726.192 334.204 726.192C333.276 726.192 332.452 726 331.732 725.616C331.028 725.232 330.476 724.736 330.076 724.128V732.384H325.972V712.608H330.076V714.504ZM335.932 719.28C335.932 718.256 335.644 717.456 335.068 716.88C334.508 716.288 333.812 715.992 332.98 715.992C332.164 715.992 331.468 716.288 330.892 716.88C330.332 717.472 330.052 718.28 330.052 719.304C330.052 720.328 330.332 721.136 330.892 721.728C331.468 722.32 332.164 722.616 332.98 722.616C333.796 722.616 334.492 722.32 335.068 721.728C335.644 721.12 335.932 720.304 335.932 719.28ZM350.181 726L347.613 722.28L345.453 726H341.013L345.429 719.16L340.893 712.608H345.501L348.069 716.304L350.229 712.608H354.669L350.181 719.352L354.789 726H350.181ZM371.657 717.36C372.633 717.568 373.417 718.056 374.009 718.824C374.601 719.576 374.897 720.44 374.897 721.416C374.897 722.824 374.401 723.944 373.409 724.776C372.433 725.592 371.065 726 369.305 726H361.457V709.152H369.041C370.753 709.152 372.089 709.544 373.049 710.328C374.025 711.112 374.513 712.176 374.513 713.52C374.513 714.512 374.249 715.336 373.721 715.992C373.209 716.648 372.521 717.104 371.657 717.36ZM365.561 715.968H368.249C368.921 715.968 369.433 715.824 369.785 715.536C370.153 715.232 370.337 714.792 370.337 714.216C370.337 713.64 370.153 713.2 369.785 712.896C369.433 712.592 368.921 712.44 368.249 712.44H365.561V715.968ZM368.585 722.688C369.273 722.688 369.801 722.536 370.169 722.232C370.553 721.912 370.745 721.456 370.745 720.864C370.745 720.272 370.545 719.808 370.145 719.472C369.761 719.136 369.225 718.968 368.537 718.968H365.561V722.688H368.585ZM383.373 726.192C382.061 726.192 380.877 725.912 379.821 725.352C378.781 724.792 377.957 723.992 377.349 722.952C376.757 721.912 376.461 720.696 376.461 719.304C376.461 717.928 376.765 716.72 377.373 715.68C377.981 714.624 378.813 713.816 379.869 713.256C380.925 712.696 382.109 712.416 383.421 712.416C384.733 712.416 385.917 712.696 386.973 713.256C388.029 713.816 388.861 714.624 389.469 715.68C390.077 716.72 390.381 717.928 390.381 719.304C390.381 720.68 390.069 721.896 389.445 722.952C388.837 723.992 387.997 724.792 386.925 725.352C385.869 725.912 384.685 726.192 383.373 726.192ZM383.373 722.64C384.157 722.64 384.821 722.352 385.365 721.776C385.925 721.2 386.205 720.376 386.205 719.304C386.205 718.232 385.933 717.408 385.389 716.832C384.861 716.256 384.205 715.968 383.421 715.968C382.621 715.968 381.957 716.256 381.429 716.832C380.901 717.392 380.637 718.216 380.637 719.304C380.637 720.376 380.893 721.2 381.405 721.776C381.933 722.352 382.589 722.64 383.373 722.64ZM396.662 708.24V726H392.558V708.24H396.662ZM398.82 719.28C398.82 717.904 399.076 716.696 399.588 715.656C400.116 714.616 400.828 713.816 401.724 713.256C402.62 712.696 403.62 712.416 404.724 712.416C405.604 712.416 406.404 712.6 407.124 712.968C407.86 713.336 408.436 713.832 408.852 714.456V708.24H412.956V726H408.852V724.08C408.468 724.72 407.916 725.232 407.196 725.616C406.492 726 405.668 726.192 404.724 726.192C403.62 726.192 402.62 725.912 401.724 725.352C400.828 724.776 400.116 723.968 399.588 722.928C399.076 721.872 398.82 720.656 398.82 719.28ZM408.852 719.304C408.852 718.28 408.564 717.472 407.988 716.88C407.428 716.288 406.74 715.992 405.924 715.992C405.108 715.992 404.412 716.288 403.836 716.88C403.276 717.456 402.996 718.256 402.996 719.28C402.996 720.304 403.276 721.12 403.836 721.728C404.412 722.32 405.108 722.616 405.924 722.616C406.74 722.616 407.428 722.32 407.988 721.728C408.564 721.136 408.852 720.328 408.852 719.304Z" fill="white"/>
<path d="M151.12 619.728V645H144.964V634.596H135.388V645H129.232V619.728H135.388V629.628H144.964V619.728H151.12ZM155.168 626.136C155.264 623.568 156.104 621.588 157.688 620.196C159.272 618.804 161.42 618.108 164.132 618.108C165.932 618.108 167.468 618.42 168.74 619.044C170.036 619.668 171.008 620.52 171.656 621.6C172.328 622.68 172.664 623.892 172.664 625.236C172.664 626.82 172.268 628.116 171.476 629.124C170.684 630.108 169.76 630.78 168.704 631.14V631.284C170.072 631.74 171.152 632.496 171.944 633.552C172.736 634.608 173.132 635.964 173.132 637.62C173.132 639.108 172.784 640.428 172.088 641.58C171.416 642.708 170.42 643.596 169.1 644.244C167.804 644.892 166.256 645.216 164.456 645.216C161.576 645.216 159.272 644.508 157.544 643.092C155.84 641.676 154.94 639.54 154.844 636.684H160.82C160.844 637.74 161.144 638.58 161.72 639.204C162.296 639.804 163.136 640.104 164.24 640.104C165.176 640.104 165.896 639.84 166.4 639.312C166.928 638.76 167.192 638.04 167.192 637.152C167.192 636 166.82 635.172 166.076 634.668C165.356 634.14 164.192 633.876 162.584 633.876H161.432V628.872H162.584C163.808 628.872 164.792 628.668 165.536 628.26C166.304 627.828 166.688 627.072 166.688 625.992C166.688 625.128 166.448 624.456 165.968 623.976C165.488 623.496 164.828 623.256 163.988 623.256C163.076 623.256 162.392 623.532 161.936 624.084C161.504 624.636 161.252 625.32 161.18 626.136H155.168ZM200.47 629.808V634.92H184.63V629.808H200.47ZM232.762 627.864C232.762 629.328 232.426 630.672 231.754 631.896C231.082 633.096 230.05 634.068 228.658 634.812C227.266 635.556 225.538 635.928 223.474 635.928H219.658V645H213.502V619.728H223.474C225.49 619.728 227.194 620.076 228.586 620.772C229.978 621.468 231.022 622.428 231.718 623.652C232.414 624.876 232.762 626.28 232.762 627.864ZM223.006 631.032C224.182 631.032 225.058 630.756 225.634 630.204C226.21 629.652 226.498 628.872 226.498 627.864C226.498 626.856 226.21 626.076 225.634 625.524C225.058 624.972 224.182 624.696 223.006 624.696H219.658V631.032H223.006ZM245.11 645.288C243.142 645.288 241.366 644.868 239.782 644.028C238.222 643.188 236.986 641.988 236.074 640.428C235.186 638.868 234.742 637.044 234.742 634.956C234.742 632.892 235.198 631.08 236.11 629.52C237.022 627.936 238.27 626.724 239.854 625.884C241.438 625.044 243.214 624.624 245.182 624.624C247.15 624.624 248.926 625.044 250.51 625.884C252.094 626.724 253.342 627.936 254.254 629.52C255.166 631.08 255.622 632.892 255.622 634.956C255.622 637.02 255.154 638.844 254.218 640.428C253.306 641.988 252.046 643.188 250.438 644.028C248.854 644.868 247.078 645.288 245.11 645.288ZM245.11 639.96C246.286 639.96 247.282 639.528 248.098 638.664C248.938 637.8 249.358 636.564 249.358 634.956C249.358 633.348 248.95 632.112 248.134 631.248C247.342 630.384 246.358 629.952 245.182 629.952C243.982 629.952 242.986 630.384 242.194 631.248C241.402 632.088 241.006 633.324 241.006 634.956C241.006 636.564 241.39 637.8 242.158 638.664C242.95 639.528 243.934 639.96 245.11 639.96ZM265.044 627.756C265.644 626.82 266.472 626.064 267.528 625.488C268.584 624.912 269.82 624.624 271.236 624.624C272.892 624.624 274.392 625.044 275.736 625.884C277.08 626.724 278.136 627.924 278.904 629.484C279.696 631.044 280.092 632.856 280.092 634.92C280.092 636.984 279.696 638.808 278.904 640.392C278.136 641.952 277.08 643.164 275.736 644.028C274.392 644.868 272.892 645.288 271.236 645.288C269.844 645.288 268.608 645 267.528 644.424C266.472 643.848 265.644 643.104 265.044 642.192V654.576H258.888V624.912H265.044V627.756ZM273.828 634.92C273.828 633.384 273.396 632.184 272.532 631.32C271.692 630.432 270.648 629.988 269.4 629.988C268.176 629.988 267.132 630.432 266.268 631.32C265.428 632.208 265.008 633.42 265.008 634.956C265.008 636.492 265.428 637.704 266.268 638.592C267.132 639.48 268.176 639.924 269.4 639.924C270.624 639.924 271.668 639.48 272.532 638.592C273.396 637.68 273.828 636.456 273.828 634.92ZM289.478 627.756C290.078 626.82 290.906 626.064 291.962 625.488C293.018 624.912 294.254 624.624 295.67 624.624C297.326 624.624 298.826 625.044 300.17 625.884C301.514 626.724 302.57 627.924 303.338 629.484C304.13 631.044 304.526 632.856 304.526 634.92C304.526 636.984 304.13 638.808 303.338 640.392C302.57 641.952 301.514 643.164 300.17 644.028C298.826 644.868 297.326 645.288 295.67 645.288C294.278 645.288 293.042 645 291.962 644.424C290.906 643.848 290.078 643.104 289.478 642.192V654.576H283.322V624.912H289.478V627.756ZM298.262 634.92C298.262 633.384 297.83 632.184 296.966 631.32C296.126 630.432 295.082 629.988 293.834 629.988C292.61 629.988 291.566 630.432 290.702 631.32C289.862 632.208 289.442 633.42 289.442 634.956C289.442 636.492 289.862 637.704 290.702 638.592C291.566 639.48 292.61 639.924 293.834 639.924C295.058 639.924 296.102 639.48 296.966 638.592C297.83 637.68 298.262 636.456 298.262 634.92ZM310.851 622.824C309.771 622.824 308.883 622.512 308.187 621.888C307.515 621.24 307.179 620.448 307.179 619.512C307.179 618.552 307.515 617.76 308.187 617.136C308.883 616.488 309.771 616.164 310.851 616.164C311.907 616.164 312.771 616.488 313.443 617.136C314.139 617.76 314.487 618.552 314.487 619.512C314.487 620.448 314.139 621.24 313.443 621.888C312.771 622.512 311.907 622.824 310.851 622.824ZM313.911 624.912V645H307.755V624.912H313.911ZM330.613 624.696C332.965 624.696 334.837 625.464 336.229 627C337.645 628.512 338.353 630.6 338.353 633.264V645H332.233V634.092C332.233 632.748 331.885 631.704 331.189 630.96C330.493 630.216 329.557 629.844 328.381 629.844C327.205 629.844 326.269 630.216 325.573 630.96C324.877 631.704 324.529 632.748 324.529 634.092V645H318.373V624.912H324.529V627.576C325.153 626.688 325.993 625.992 327.049 625.488C328.105 624.96 329.293 624.696 330.613 624.696ZM350.802 645.288C349.05 645.288 347.49 644.988 346.122 644.388C344.754 643.788 343.674 642.972 342.882 641.94C342.09 640.884 341.646 639.708 341.55 638.412H347.634C347.706 639.108 348.03 639.672 348.606 640.104C349.182 640.536 349.89 640.752 350.73 640.752C351.498 640.752 352.086 640.608 352.494 640.32C352.926 640.008 353.142 639.612 353.142 639.132C353.142 638.556 352.842 638.136 352.242 637.872C351.642 637.584 350.67 637.272 349.326 636.936C347.886 636.6 346.686 636.252 345.726 635.892C344.766 635.508 343.938 634.92 343.242 634.128C342.546 633.312 342.198 632.22 342.198 630.852C342.198 629.7 342.51 628.656 343.134 627.72C343.782 626.76 344.718 626.004 345.942 625.452C347.19 624.9 348.666 624.624 350.37 624.624C352.89 624.624 354.87 625.248 356.31 626.496C357.774 627.744 358.614 629.4 358.83 631.464H353.142C353.046 630.768 352.734 630.216 352.206 629.808C351.702 629.4 351.03 629.196 350.19 629.196C349.47 629.196 348.918 629.34 348.534 629.628C348.15 629.892 347.958 630.264 347.958 630.744C347.958 631.32 348.258 631.752 348.858 632.04C349.482 632.328 350.442 632.616 351.738 632.904C353.226 633.288 354.438 633.672 355.374 634.056C356.31 634.416 357.126 635.016 357.822 635.856C358.542 636.672 358.914 637.776 358.938 639.168C358.938 640.344 358.602 641.4 357.93 642.336C357.282 643.248 356.334 643.968 355.086 644.496C353.862 645.024 352.434 645.288 350.802 645.288ZM369.938 626.136C370.034 623.568 370.874 621.588 372.458 620.196C374.042 618.804 376.19 618.108 378.902 618.108C380.702 618.108 382.238 618.42 383.51 619.044C384.806 619.668 385.778 620.52 386.426 621.6C387.098 622.68 387.434 623.892 387.434 625.236C387.434 626.82 387.038 628.116 386.246 629.124C385.454 630.108 384.53 630.78 383.474 631.14V631.284C384.842 631.74 385.922 632.496 386.714 633.552C387.506 634.608 387.902 635.964 387.902 637.62C387.902 639.108 387.554 640.428 386.858 641.58C386.186 642.708 385.19 643.596 383.87 644.244C382.574 644.892 381.026 645.216 379.226 645.216C376.346 645.216 374.042 644.508 372.314 643.092C370.61 641.676 369.71 639.54 369.614 636.684H375.59C375.614 637.74 375.914 638.58 376.49 639.204C377.066 639.804 377.906 640.104 379.01 640.104C379.946 640.104 380.666 639.84 381.17 639.312C381.698 638.76 381.962 638.04 381.962 637.152C381.962 636 381.59 635.172 380.846 634.668C380.126 634.14 378.962 633.876 377.354 633.876H376.202V628.872H377.354C378.578 628.872 379.562 628.668 380.306 628.26C381.074 627.828 381.458 627.072 381.458 625.992C381.458 625.128 381.218 624.456 380.738 623.976C380.258 623.496 379.598 623.256 378.758 623.256C377.846 623.256 377.162 623.532 376.706 624.084C376.274 624.636 376.022 625.32 375.95 626.136H369.938ZM404.514 625.812C404.322 624.924 403.986 624.264 403.506 623.832C403.026 623.376 402.342 623.148 401.454 623.148C400.086 623.148 399.102 623.748 398.502 624.948C397.902 626.124 397.59 627.996 397.566 630.564C398.094 629.724 398.85 629.064 399.834 628.584C400.842 628.104 401.946 627.864 403.146 627.864C405.498 627.864 407.382 628.608 408.798 630.096C410.238 631.584 410.958 633.66 410.958 636.324C410.958 638.076 410.598 639.612 409.878 640.932C409.182 642.252 408.15 643.284 406.782 644.028C405.438 644.772 403.842 645.144 401.994 645.144C398.298 645.144 395.73 643.992 394.29 641.688C392.85 639.36 392.13 636.024 392.13 631.68C392.13 627.12 392.886 623.736 394.398 621.528C395.934 619.296 398.382 618.18 401.742 618.18C403.542 618.18 405.054 618.54 406.278 619.26C407.526 619.956 408.462 620.88 409.086 622.032C409.734 623.184 410.118 624.444 410.238 625.812H404.514ZM401.67 632.724C400.638 632.724 399.774 633.036 399.078 633.66C398.406 634.26 398.07 635.124 398.07 636.252C398.07 637.404 398.382 638.304 399.006 638.952C399.654 639.6 400.566 639.924 401.742 639.924C402.798 639.924 403.626 639.612 404.226 638.988C404.85 638.34 405.162 637.464 405.162 636.36C405.162 635.232 404.862 634.344 404.262 633.696C403.662 633.048 402.798 632.724 401.67 632.724ZM428.837 627.756C429.437 626.82 430.265 626.064 431.321 625.488C432.377 624.912 433.613 624.624 435.029 624.624C436.685 624.624 438.185 625.044 439.529 625.884C440.873 626.724 441.929 627.924 442.697 629.484C443.489 631.044 443.885 632.856 443.885 634.92C443.885 636.984 443.489 638.808 442.697 640.392C441.929 641.952 440.873 643.164 439.529 644.028C438.185 644.868 436.685 645.288 435.029 645.288C433.637 645.288 432.401 645 431.321 644.424C430.265 643.848 429.437 643.104 428.837 642.192V654.576H422.681V624.912H428.837V627.756ZM437.621 634.92C437.621 633.384 437.189 632.184 436.325 631.32C435.485 630.432 434.441 629.988 433.193 629.988C431.969 629.988 430.925 630.432 430.061 631.32C429.221 632.208 428.801 633.42 428.801 634.956C428.801 636.492 429.221 637.704 430.061 638.592C430.925 639.48 431.969 639.924 433.193 639.924C434.417 639.924 435.461 639.48 436.325 638.592C437.189 637.68 437.621 636.456 437.621 634.92ZM458.995 645L455.143 639.42L451.903 645H445.243L451.867 634.74L445.063 624.912H451.975L455.827 630.456L459.067 624.912H465.727L458.995 635.028L465.907 645H458.995ZM491.208 632.04C492.672 632.352 493.848 633.084 494.736 634.236C495.624 635.364 496.068 636.66 496.068 638.124C496.068 640.236 495.324 641.916 493.836 643.164C492.372 644.388 490.32 645 487.68 645H475.908V619.728H487.284C489.852 619.728 491.856 620.316 493.296 621.492C494.76 622.668 495.492 624.264 495.492 626.28C495.492 627.768 495.096 629.004 494.304 629.988C493.536 630.972 492.504 631.656 491.208 632.04ZM482.064 629.952H486.096C487.104 629.952 487.872 629.736 488.4 629.304C488.952 628.848 489.228 628.188 489.228 627.324C489.228 626.46 488.952 625.8 488.4 625.344C487.872 624.888 487.104 624.66 486.096 624.66H482.064V629.952ZM486.6 640.032C487.632 640.032 488.424 639.804 488.976 639.348C489.552 638.868 489.84 638.184 489.84 637.296C489.84 636.408 489.54 635.712 488.94 635.208C488.364 634.704 487.56 634.452 486.528 634.452H482.064V640.032H486.6ZM508.782 645.288C506.814 645.288 505.038 644.868 503.454 644.028C501.894 643.188 500.658 641.988 499.746 640.428C498.858 638.868 498.414 637.044 498.414 634.956C498.414 632.892 498.87 631.08 499.782 629.52C500.694 627.936 501.942 626.724 503.526 625.884C505.11 625.044 506.886 624.624 508.854 624.624C510.822 624.624 512.598 625.044 514.182 625.884C515.766 626.724 517.014 627.936 517.926 629.52C518.838 631.08 519.294 632.892 519.294 634.956C519.294 637.02 518.826 638.844 517.89 640.428C516.978 641.988 515.718 643.188 514.11 644.028C512.526 644.868 510.75 645.288 508.782 645.288ZM508.782 639.96C509.958 639.96 510.954 639.528 511.77 638.664C512.61 637.8 513.03 636.564 513.03 634.956C513.03 633.348 512.622 632.112 511.806 631.248C511.014 630.384 510.03 629.952 508.854 629.952C507.654 629.952 506.658 630.384 505.866 631.248C505.074 632.088 504.678 633.324 504.678 634.956C504.678 636.564 505.062 637.8 505.83 638.664C506.622 639.528 507.606 639.96 508.782 639.96ZM528.716 618.36V645H522.56V618.36H528.716ZM531.953 634.92C531.953 632.856 532.337 631.044 533.105 629.484C533.897 627.924 534.965 626.724 536.309 625.884C537.653 625.044 539.153 624.624 540.809 624.624C542.129 624.624 543.329 624.9 544.409 625.452C545.513 626.004 546.377 626.748 547.001 627.684V618.36H553.157V645H547.001V642.12C546.425 643.08 545.597 643.848 544.517 644.424C543.461 645 542.225 645.288 540.809 645.288C539.153 645.288 537.653 644.868 536.309 644.028C534.965 643.164 533.897 641.952 533.105 640.392C532.337 638.808 531.953 636.984 531.953 634.92ZM547.001 634.956C547.001 633.42 546.569 632.208 545.705 631.32C544.865 630.432 543.833 629.988 542.609 629.988C541.385 629.988 540.341 630.432 539.477 631.32C538.637 632.184 538.217 633.384 538.217 634.92C538.217 636.456 538.637 637.68 539.477 638.592C540.341 639.48 541.385 639.924 542.609 639.924C543.833 639.924 544.865 639.48 545.705 638.592C546.569 637.704 547.001 636.492 547.001 634.956Z" fill="white"/>
<path d="M163.18 504.092V542H153.946V526.394H139.582V542H130.348V504.092H139.582V518.942H153.946V504.092H163.18ZM168.604 534.602C169.828 533.63 170.386 533.18 170.278 533.252C173.806 530.336 176.578 527.942 178.594 526.07C180.646 524.198 182.374 522.236 183.778 520.184C185.182 518.132 185.884 516.134 185.884 514.19C185.884 512.714 185.542 511.562 184.858 510.734C184.174 509.906 183.148 509.492 181.78 509.492C180.412 509.492 179.332 510.014 178.54 511.058C177.784 512.066 177.406 513.506 177.406 515.378H168.496C168.568 512.318 169.216 509.762 170.44 507.71C171.7 505.658 173.338 504.146 175.354 503.174C177.406 502.202 179.674 501.716 182.158 501.716C186.442 501.716 189.664 502.814 191.824 505.01C194.02 507.206 195.118 510.068 195.118 513.596C195.118 517.448 193.804 521.03 191.176 524.342C188.548 527.618 185.2 530.822 181.132 533.954H195.712V541.46H168.604V534.602ZM235.359 519.212V526.88H211.599V519.212H235.359ZM283.797 516.296C283.797 518.492 283.293 520.508 282.285 522.344C281.277 524.144 279.729 525.602 277.641 526.718C275.553 527.834 272.961 528.392 269.865 528.392H264.141V542H254.907V504.092H269.865C272.889 504.092 275.445 504.614 277.533 505.658C279.621 506.702 281.187 508.142 282.231 509.978C283.275 511.814 283.797 513.92 283.797 516.296ZM269.163 521.048C270.927 521.048 272.241 520.634 273.105 519.806C273.969 518.978 274.401 517.808 274.401 516.296C274.401 514.784 273.969 513.614 273.105 512.786C272.241 511.958 270.927 511.544 269.163 511.544H264.141V521.048H269.163ZM302.32 542.432C299.368 542.432 296.704 541.802 294.328 540.542C291.988 539.282 290.134 537.482 288.766 535.142C287.434 532.802 286.768 530.066 286.768 526.934C286.768 523.838 287.452 521.12 288.82 518.78C290.188 516.404 292.06 514.586 294.436 513.326C296.812 512.066 299.476 511.436 302.428 511.436C305.38 511.436 308.044 512.066 310.42 513.326C312.796 514.586 314.668 516.404 316.036 518.78C317.404 521.12 318.088 523.838 318.088 526.934C318.088 530.03 317.386 532.766 315.982 535.142C314.614 537.482 312.724 539.282 310.312 540.542C307.936 541.802 305.272 542.432 302.32 542.432ZM302.32 534.44C304.084 534.44 305.578 533.792 306.802 532.496C308.062 531.2 308.692 529.346 308.692 526.934C308.692 524.522 308.08 522.668 306.856 521.372C305.668 520.076 304.192 519.428 302.428 519.428C300.628 519.428 299.134 520.076 297.946 521.372C296.758 522.632 296.164 524.486 296.164 526.934C296.164 529.346 296.74 531.2 297.892 532.496C299.08 533.792 300.556 534.44 302.32 534.44ZM332.221 516.134C333.121 514.73 334.363 513.596 335.947 512.732C337.531 511.868 339.385 511.436 341.509 511.436C343.993 511.436 346.243 512.066 348.259 513.326C350.275 514.586 351.859 516.386 353.011 518.726C354.199 521.066 354.793 523.784 354.793 526.88C354.793 529.976 354.199 532.712 353.011 535.088C351.859 537.428 350.275 539.246 348.259 540.542C346.243 541.802 343.993 542.432 341.509 542.432C339.421 542.432 337.567 542 335.947 541.136C334.363 540.272 333.121 539.156 332.221 537.788V556.364H322.987V511.868H332.221V516.134ZM345.397 526.88C345.397 524.576 344.749 522.776 343.453 521.48C342.193 520.148 340.627 519.482 338.755 519.482C336.919 519.482 335.353 520.148 334.057 521.48C332.797 522.812 332.167 524.63 332.167 526.934C332.167 529.238 332.797 531.056 334.057 532.388C335.353 533.72 336.919 534.386 338.755 534.386C340.591 534.386 342.157 533.72 343.453 532.388C344.749 531.02 345.397 529.184 345.397 526.88ZM368.871 516.134C369.771 514.73 371.013 513.596 372.597 512.732C374.181 511.868 376.035 511.436 378.159 511.436C380.643 511.436 382.893 512.066 384.909 513.326C386.925 514.586 388.509 516.386 389.661 518.726C390.849 521.066 391.443 523.784 391.443 526.88C391.443 529.976 390.849 532.712 389.661 535.088C388.509 537.428 386.925 539.246 384.909 540.542C382.893 541.802 380.643 542.432 378.159 542.432C376.071 542.432 374.217 542 372.597 541.136C371.013 540.272 369.771 539.156 368.871 537.788V556.364H359.637V511.868H368.871V516.134ZM382.047 526.88C382.047 524.576 381.399 522.776 380.103 521.48C378.843 520.148 377.277 519.482 375.405 519.482C373.569 519.482 372.003 520.148 370.707 521.48C369.447 522.812 368.817 524.63 368.817 526.934C368.817 529.238 369.447 531.056 370.707 532.388C372.003 533.72 373.569 534.386 375.405 534.386C377.241 534.386 378.807 533.72 380.103 532.388C381.399 531.02 382.047 529.184 382.047 526.88ZM400.931 508.736C399.311 508.736 397.979 508.268 396.935 507.332C395.927 506.36 395.423 505.172 395.423 503.768C395.423 502.328 395.927 501.14 396.935 500.204C397.979 499.232 399.311 498.746 400.931 498.746C402.515 498.746 403.811 499.232 404.819 500.204C405.863 501.14 406.385 502.328 406.385 503.768C406.385 505.172 405.863 506.36 404.819 507.332C403.811 508.268 402.515 508.736 400.931 508.736ZM405.521 511.868V542H396.287V511.868H405.521ZM430.573 511.544C434.101 511.544 436.909 512.696 438.997 515C441.121 517.268 442.183 520.4 442.183 524.396V542H433.003V525.638C433.003 523.622 432.481 522.056 431.437 520.94C430.393 519.824 428.989 519.266 427.225 519.266C425.461 519.266 424.057 519.824 423.013 520.94C421.969 522.056 421.447 523.622 421.447 525.638V542H412.213V511.868H421.447V515.864C422.383 514.532 423.643 513.488 425.227 512.732C426.811 511.94 428.593 511.544 430.573 511.544ZM460.858 542.432C458.23 542.432 455.89 541.982 453.838 541.082C451.786 540.182 450.166 538.958 448.978 537.41C447.79 535.826 447.124 534.062 446.98 532.118H456.106C456.214 533.162 456.7 534.008 457.564 534.656C458.428 535.304 459.49 535.628 460.75 535.628C461.902 535.628 462.784 535.412 463.396 534.98C464.044 534.512 464.368 533.918 464.368 533.198C464.368 532.334 463.918 531.704 463.018 531.308C462.118 530.876 460.66 530.408 458.644 529.904C456.484 529.4 454.684 528.878 453.244 528.338C451.804 527.762 450.562 526.88 449.518 525.692C448.474 524.468 447.952 522.83 447.952 520.778C447.952 519.05 448.42 517.484 449.356 516.08C450.328 514.64 451.732 513.506 453.568 512.678C455.44 511.85 457.654 511.436 460.21 511.436C463.99 511.436 466.96 512.372 469.12 514.244C471.316 516.116 472.576 518.6 472.9 521.696H464.368C464.224 520.652 463.756 519.824 462.964 519.212C462.208 518.6 461.2 518.294 459.94 518.294C458.86 518.294 458.032 518.51 457.456 518.942C456.88 519.338 456.592 519.896 456.592 520.616C456.592 521.48 457.042 522.128 457.942 522.56C458.878 522.992 460.318 523.424 462.262 523.856C464.494 524.432 466.312 525.008 467.716 525.584C469.12 526.124 470.344 527.024 471.388 528.284C472.468 529.508 473.026 531.164 473.062 533.252C473.062 535.016 472.558 536.6 471.55 538.004C470.578 539.372 469.156 540.452 467.284 541.244C465.448 542.036 463.306 542.432 460.858 542.432ZM516.993 510.626H500.145V518.078C500.865 517.286 501.873 516.638 503.169 516.134C504.465 515.63 505.869 515.378 507.381 515.378C510.081 515.378 512.313 515.99 514.077 517.214C515.877 518.438 517.191 520.022 518.019 521.966C518.847 523.91 519.261 526.016 519.261 528.284C519.261 532.496 518.073 535.844 515.697 538.328C513.321 540.776 509.973 542 505.653 542C502.773 542 500.271 541.514 498.147 540.542C496.023 539.534 494.385 538.148 493.233 536.384C492.081 534.62 491.451 532.586 491.343 530.282H500.361C500.577 531.398 501.099 532.334 501.927 533.09C502.755 533.81 503.889 534.17 505.329 534.17C507.021 534.17 508.281 533.63 509.109 532.55C509.937 531.47 510.351 530.03 510.351 528.23C510.351 526.466 509.919 525.116 509.055 524.18C508.191 523.244 506.931 522.776 505.275 522.776C504.051 522.776 503.043 523.082 502.251 523.694C501.459 524.27 500.937 525.044 500.685 526.016H491.775V502.526H516.993V510.626ZM524.574 534.98V527.528L541.638 503.12H551.952V526.988H556.38V534.98H551.952V542H542.718V534.98H524.574ZM543.366 513.272L534.294 526.988H543.366V513.272ZM582.498 516.134C583.398 514.73 584.64 513.596 586.224 512.732C587.808 511.868 589.662 511.436 591.786 511.436C594.27 511.436 596.52 512.066 598.536 513.326C600.552 514.586 602.136 516.386 603.288 518.726C604.476 521.066 605.07 523.784 605.07 526.88C605.07 529.976 604.476 532.712 603.288 535.088C602.136 537.428 600.552 539.246 598.536 540.542C596.52 541.802 594.27 542.432 591.786 542.432C589.698 542.432 587.844 542 586.224 541.136C584.64 540.272 583.398 539.156 582.498 537.788V556.364H573.264V511.868H582.498V516.134ZM595.674 526.88C595.674 524.576 595.026 522.776 593.73 521.48C592.47 520.148 590.904 519.482 589.032 519.482C587.196 519.482 585.63 520.148 584.334 521.48C583.074 522.812 582.444 524.63 582.444 526.934C582.444 529.238 583.074 531.056 584.334 532.388C585.63 533.72 587.196 534.386 589.032 534.386C590.868 534.386 592.434 533.72 593.73 532.388C595.026 531.02 595.674 529.184 595.674 526.88ZM627.734 542L621.956 533.63L617.096 542H607.106L617.042 526.61L606.836 511.868H617.204L622.982 520.184L627.842 511.868H637.832L627.734 527.042L638.102 542H627.734ZM676.054 522.56C678.25 523.028 680.014 524.126 681.346 525.854C682.678 527.546 683.344 529.49 683.344 531.686C683.344 534.854 682.228 537.374 679.996 539.246C677.8 541.082 674.722 542 670.762 542H653.104V504.092H670.168C674.02 504.092 677.026 504.974 679.186 506.738C681.382 508.502 682.48 510.896 682.48 513.92C682.48 516.152 681.886 518.006 680.698 519.482C679.546 520.958 677.998 521.984 676.054 522.56ZM662.338 519.428H668.386C669.898 519.428 671.05 519.104 671.842 518.456C672.67 517.772 673.084 516.782 673.084 515.486C673.084 514.19 672.67 513.2 671.842 512.516C671.05 511.832 669.898 511.49 668.386 511.49H662.338V519.428ZM669.142 534.548C670.69 534.548 671.878 534.206 672.706 533.522C673.57 532.802 674.002 531.776 674.002 530.444C674.002 529.112 673.552 528.068 672.652 527.312C671.788 526.556 670.582 526.178 669.034 526.178H662.338V534.548H669.142ZM702.416 542.432C699.464 542.432 696.8 541.802 694.424 540.542C692.084 539.282 690.23 537.482 688.862 535.142C687.53 532.802 686.864 530.066 686.864 526.934C686.864 523.838 687.548 521.12 688.916 518.78C690.284 516.404 692.156 514.586 694.532 513.326C696.908 512.066 699.572 511.436 702.524 511.436C705.476 511.436 708.14 512.066 710.516 513.326C712.892 514.586 714.764 516.404 716.132 518.78C717.5 521.12 718.184 523.838 718.184 526.934C718.184 530.03 717.482 532.766 716.078 535.142C714.71 537.482 712.82 539.282 710.408 540.542C708.032 541.802 705.368 542.432 702.416 542.432ZM702.416 534.44C704.18 534.44 705.674 533.792 706.898 532.496C708.158 531.2 708.788 529.346 708.788 526.934C708.788 524.522 708.176 522.668 706.952 521.372C705.764 520.076 704.288 519.428 702.524 519.428C700.724 519.428 699.23 520.076 698.042 521.372C696.854 522.632 696.26 524.486 696.26 526.934C696.26 529.346 696.836 531.2 697.988 532.496C699.176 533.792 700.652 534.44 702.416 534.44ZM732.316 502.04V542H723.082V502.04H732.316ZM737.172 526.88C737.172 523.784 737.748 521.066 738.9 518.726C740.088 516.386 741.69 514.586 743.706 513.326C745.722 512.066 747.972 511.436 750.456 511.436C752.436 511.436 754.236 511.85 755.856 512.678C757.512 513.506 758.808 514.622 759.744 516.026V502.04H768.978V542H759.744V537.68C758.88 539.12 757.638 540.272 756.018 541.136C754.434 542 752.58 542.432 750.456 542.432C747.972 542.432 745.722 541.802 743.706 540.542C741.69 539.246 740.088 537.428 738.9 535.088C737.748 532.712 737.172 529.976 737.172 526.88ZM759.744 526.934C759.744 524.63 759.096 522.812 757.8 521.48C756.54 520.148 754.992 519.482 753.156 519.482C751.32 519.482 749.754 520.148 748.458 521.48C747.198 522.776 746.568 524.576 746.568 526.88C746.568 529.184 747.198 531.02 748.458 532.388C749.754 533.72 751.32 534.386 753.156 534.386C754.992 534.386 756.54 533.72 757.8 532.388C759.096 531.056 759.744 529.238 759.744 526.934Z" fill="white"/>
<path d="M175.24 371.456V422H162.928V401.192H143.776V422H131.464V371.456H143.776V391.256H162.928V371.456H175.24ZM181.608 380.888V369.44H201.552V422H188.736V380.888H181.608ZM257.416 391.616V401.84H225.736V391.616H257.416ZM322 387.728C322 390.656 321.328 393.344 319.984 395.792C318.64 398.192 316.576 400.136 313.792 401.624C311.008 403.112 307.552 403.856 303.424 403.856H295.792V422H283.48V371.456H303.424C307.456 371.456 310.864 372.152 313.648 373.544C316.432 374.936 318.52 376.856 319.912 379.304C321.304 381.752 322 384.56 322 387.728ZM302.488 394.064C304.84 394.064 306.592 393.512 307.744 392.408C308.896 391.304 309.472 389.744 309.472 387.728C309.472 385.712 308.896 384.152 307.744 383.048C306.592 381.944 304.84 381.392 302.488 381.392H295.792V394.064H302.488ZM346.697 422.576C342.761 422.576 339.209 421.736 336.041 420.056C332.921 418.376 330.449 415.976 328.625 412.856C326.849 409.736 325.961 406.088 325.961 401.912C325.961 397.784 326.873 394.16 328.697 391.04C330.521 387.872 333.017 385.448 336.185 383.768C339.353 382.088 342.905 381.248 346.841 381.248C350.777 381.248 354.329 382.088 357.497 383.768C360.665 385.448 363.161 387.872 364.985 391.04C366.809 394.16 367.721 397.784 367.721 401.912C367.721 406.04 366.785 409.688 364.913 412.856C363.089 415.976 360.569 418.376 357.353 420.056C354.185 421.736 350.633 422.576 346.697 422.576ZM346.697 411.92C349.049 411.92 351.041 411.056 352.673 409.328C354.353 407.6 355.193 405.128 355.193 401.912C355.193 398.696 354.377 396.224 352.745 394.496C351.161 392.768 349.193 391.904 346.841 391.904C344.441 391.904 342.449 392.768 340.865 394.496C339.281 396.176 338.489 398.648 338.489 401.912C338.489 405.128 339.257 407.6 340.793 409.328C342.377 411.056 344.345 411.92 346.697 411.92ZM386.565 387.512C387.765 385.64 389.421 384.128 391.533 382.976C393.645 381.824 396.117 381.248 398.949 381.248C402.261 381.248 405.261 382.088 407.949 383.768C410.637 385.448 412.749 387.848 414.285 390.968C415.869 394.088 416.661 397.712 416.661 401.84C416.661 405.968 415.869 409.616 414.285 412.784C412.749 415.904 410.637 418.328 407.949 420.056C405.261 421.736 402.261 422.576 398.949 422.576C396.165 422.576 393.693 422 391.533 420.848C389.421 419.696 387.765 418.208 386.565 416.384V441.152H374.253V381.824H386.565V387.512ZM404.133 401.84C404.133 398.768 403.269 396.368 401.541 394.64C399.861 392.864 397.773 391.976 395.277 391.976C392.829 391.976 390.741 392.864 389.013 394.64C387.333 396.416 386.493 398.84 386.493 401.912C386.493 404.984 387.333 407.408 389.013 409.184C390.741 410.96 392.829 411.848 395.277 411.848C397.725 411.848 399.813 410.96 401.541 409.184C403.269 407.36 404.133 404.912 404.133 401.84ZM435.432 387.512C436.632 385.64 438.288 384.128 440.4 382.976C442.512 381.824 444.984 381.248 447.816 381.248C451.128 381.248 454.128 382.088 456.816 383.768C459.504 385.448 461.616 387.848 463.152 390.968C464.736 394.088 465.528 397.712 465.528 401.84C465.528 405.968 464.736 409.616 463.152 412.784C461.616 415.904 459.504 418.328 456.816 420.056C454.128 421.736 451.128 422.576 447.816 422.576C445.032 422.576 442.56 422 440.4 420.848C438.288 419.696 436.632 418.208 435.432 416.384V441.152H423.12V381.824H435.432V387.512ZM453 401.84C453 398.768 452.136 396.368 450.408 394.64C448.728 392.864 446.64 391.976 444.144 391.976C441.696 391.976 439.608 392.864 437.88 394.64C436.2 396.416 435.36 398.84 435.36 401.912C435.36 404.984 436.2 407.408 437.88 409.184C439.608 410.96 441.696 411.848 444.144 411.848C446.592 411.848 448.68 410.96 450.408 409.184C452.136 407.36 453 404.912 453 401.84ZM478.179 377.648C476.019 377.648 474.243 377.024 472.851 375.776C471.507 374.48 470.835 372.896 470.835 371.024C470.835 369.104 471.507 367.52 472.851 366.272C474.243 364.976 476.019 364.328 478.179 364.328C480.291 364.328 482.019 364.976 483.363 366.272C484.755 367.52 485.451 369.104 485.451 371.024C485.451 372.896 484.755 374.48 483.363 375.776C482.019 377.024 480.291 377.648 478.179 377.648ZM484.299 381.824V422H471.987V381.824H484.299ZM517.702 381.392C522.406 381.392 526.15 382.928 528.934 386C531.766 389.024 533.182 393.2 533.182 398.528V422H520.942V400.184C520.942 397.496 520.246 395.408 518.854 393.92C517.462 392.432 515.59 391.688 513.238 391.688C510.886 391.688 509.014 392.432 507.622 393.92C506.23 395.408 505.534 397.496 505.534 400.184V422H493.222V381.824H505.534V387.152C506.782 385.376 508.462 383.984 510.574 382.976C512.686 381.92 515.062 381.392 517.702 381.392ZM558.081 422.576C554.577 422.576 551.457 421.976 548.721 420.776C545.985 419.576 543.825 417.944 542.241 415.88C540.657 413.768 539.769 411.416 539.577 408.824H551.745C551.889 410.216 552.537 411.344 553.689 412.208C554.841 413.072 556.257 413.504 557.937 413.504C559.473 413.504 560.649 413.216 561.465 412.64C562.329 412.016 562.761 411.224 562.761 410.264C562.761 409.112 562.161 408.272 560.961 407.744C559.761 407.168 557.817 406.544 555.129 405.872C552.249 405.2 549.849 404.504 547.929 403.784C546.009 403.016 544.353 401.84 542.961 400.256C541.569 398.624 540.873 396.44 540.873 393.704C540.873 391.4 541.497 389.312 542.745 387.44C544.041 385.52 545.913 384.008 548.361 382.904C550.857 381.8 553.809 381.248 557.217 381.248C562.257 381.248 566.217 382.496 569.097 384.992C572.025 387.488 573.705 390.8 574.137 394.928H562.761C562.569 393.536 561.945 392.432 560.889 391.616C559.881 390.8 558.537 390.392 556.857 390.392C555.417 390.392 554.313 390.68 553.545 391.256C552.777 391.784 552.393 392.528 552.393 393.488C552.393 394.64 552.993 395.504 554.193 396.08C555.441 396.656 557.361 397.232 559.953 397.808C562.929 398.576 565.353 399.344 567.225 400.112C569.097 400.832 570.729 402.032 572.121 403.712C573.561 405.344 574.305 407.552 574.353 410.336C574.353 412.688 573.681 414.8 572.337 416.672C571.041 418.496 569.145 419.936 566.649 420.992C564.201 422.048 561.345 422.576 558.081 422.576ZM629.472 378.656L611.4 422H598.8L617.088 380.024H594.696V369.512H629.472V378.656ZM634.019 412.136C635.651 410.84 636.395 410.24 636.251 410.336C640.955 406.448 644.651 403.256 647.339 400.76C650.075 398.264 652.379 395.648 654.251 392.912C656.123 390.176 657.059 387.512 657.059 384.92C657.059 382.952 656.603 381.416 655.691 380.312C654.779 379.208 653.411 378.656 651.587 378.656C649.763 378.656 648.323 379.352 647.267 380.744C646.259 382.088 645.755 384.008 645.755 386.504H633.875C633.971 382.424 634.835 379.016 636.467 376.28C638.147 373.544 640.331 371.528 643.019 370.232C645.755 368.936 648.779 368.288 652.091 368.288C657.803 368.288 662.099 369.752 664.979 372.68C667.907 375.608 669.371 379.424 669.371 384.128C669.371 389.264 667.619 394.04 664.115 398.456C660.611 402.824 656.147 407.096 650.723 411.272H670.163V421.28H634.019V412.136ZM704.378 387.512C705.578 385.64 707.234 384.128 709.346 382.976C711.458 381.824 713.93 381.248 716.762 381.248C720.074 381.248 723.074 382.088 725.762 383.768C728.45 385.448 730.562 387.848 732.098 390.968C733.682 394.088 734.474 397.712 734.474 401.84C734.474 405.968 733.682 409.616 732.098 412.784C730.562 415.904 728.45 418.328 725.762 420.056C723.074 421.736 720.074 422.576 716.762 422.576C713.978 422.576 711.506 422 709.346 420.848C707.234 419.696 705.578 418.208 704.378 416.384V441.152H692.066V381.824H704.378V387.512ZM721.946 401.84C721.946 398.768 721.082 396.368 719.354 394.64C717.674 392.864 715.586 391.976 713.09 391.976C710.642 391.976 708.554 392.864 706.826 394.64C705.146 396.416 704.306 398.84 704.306 401.912C704.306 404.984 705.146 407.408 706.826 409.184C708.554 410.96 710.642 411.848 713.09 411.848C715.538 411.848 717.626 410.96 719.354 409.184C721.082 407.36 721.946 404.912 721.946 401.84ZM764.693 422L756.989 410.84L750.509 422H737.189L750.437 401.48L736.829 381.824H750.653L758.357 392.912L764.837 381.824H778.157L764.693 402.056L778.517 422H764.693ZM829.119 396.08C832.047 396.704 834.399 398.168 836.175 400.472C837.951 402.728 838.839 405.32 838.839 408.248C838.839 412.472 837.351 415.832 834.375 418.328C831.447 420.776 827.343 422 822.063 422H798.519V371.456H821.271C826.407 371.456 830.415 372.632 833.295 374.984C836.223 377.336 837.687 380.528 837.687 384.56C837.687 387.536 836.895 390.008 835.311 391.976C833.775 393.944 831.711 395.312 829.119 396.08ZM810.831 391.904H818.895C820.911 391.904 822.447 391.472 823.503 390.608C824.607 389.696 825.159 388.376 825.159 386.648C825.159 384.92 824.607 383.6 823.503 382.688C822.447 381.776 820.911 381.32 818.895 381.32H810.831V391.904ZM819.903 412.064C821.967 412.064 823.551 411.608 824.655 410.696C825.807 409.736 826.383 408.368 826.383 406.592C826.383 404.816 825.783 403.424 824.583 402.416C823.431 401.408 821.823 400.904 819.759 400.904H810.831V412.064H819.903ZM864.268 422.576C860.332 422.576 856.78 421.736 853.612 420.056C850.492 418.376 848.02 415.976 846.196 412.856C844.42 409.736 843.532 406.088 843.532 401.912C843.532 397.784 844.444 394.16 846.268 391.04C848.092 387.872 850.588 385.448 853.756 383.768C856.924 382.088 860.476 381.248 864.412 381.248C868.348 381.248 871.9 382.088 875.068 383.768C878.236 385.448 880.732 387.872 882.556 391.04C884.38 394.16 885.292 397.784 885.292 401.912C885.292 406.04 884.356 409.688 882.484 412.856C880.66 415.976 878.14 418.376 874.924 420.056C871.756 421.736 868.204 422.576 864.268 422.576ZM864.268 411.92C866.62 411.92 868.612 411.056 870.244 409.328C871.924 407.6 872.764 405.128 872.764 401.912C872.764 398.696 871.948 396.224 870.316 394.496C868.732 392.768 866.764 391.904 864.412 391.904C862.012 391.904 860.02 392.768 858.436 394.496C856.852 396.176 856.06 398.648 856.06 401.912C856.06 405.128 856.828 407.6 858.364 409.328C859.948 411.056 861.916 411.92 864.268 411.92ZM904.135 368.72V422H891.823V368.72H904.135ZM910.61 401.84C910.61 397.712 911.378 394.088 912.914 390.968C914.498 387.848 916.634 385.448 919.322 383.768C922.01 382.088 925.01 381.248 928.322 381.248C930.962 381.248 933.362 381.8 935.522 382.904C937.73 384.008 939.458 385.496 940.706 387.368V368.72H953.018V422H940.706V416.24C939.554 418.16 937.898 419.696 935.738 420.848C933.626 422 931.154 422.576 928.322 422.576C925.01 422.576 922.01 421.736 919.322 420.056C916.634 418.328 914.498 415.904 912.914 412.784C911.378 409.616 910.61 405.968 910.61 401.84ZM940.706 401.912C940.706 398.84 939.842 396.416 938.114 394.64C936.434 392.864 934.37 391.976 931.922 391.976C929.474 391.976 927.386 392.864 925.658 394.64C923.978 396.368 923.138 398.768 923.138 401.84C923.138 404.912 923.978 407.36 925.658 409.184C927.386 410.96 929.474 411.848 931.922 411.848C934.37 411.848 936.434 410.96 938.114 409.184C939.842 407.408 940.706 404.984 940.706 401.912Z" fill="white"/>
</svg>
