<svg width="1085" height="1085" viewBox="0 0 1085 1085" fill="none" xmlns="http://www.w3.org/2000/svg">
<path d="M1085 0H0V1085H1085V0Z" fill="white"/>
<rect width="1085" height="543" fill="#3A1C71"/>
<path d="M237.669 213.389C228.843 208.695 219.428 206.347 208.836 206.347H170V327.239H210.013C220.605 327.239 230.02 324.891 238.846 319.609C247.673 314.914 254.145 307.872 258.853 299.069C263.56 290.266 265.914 280.29 265.914 269.14V263.858C265.914 252.708 263.56 242.732 258.853 233.929C252.969 225.126 245.907 218.671 237.669 213.389ZM234.727 269.14C234.727 280.877 232.373 289.68 228.255 295.549C224.135 301.417 217.074 304.351 208.836 304.351H198.833V228.061H208.836C217.663 228.061 224.135 230.995 228.255 236.863C232.962 242.732 234.727 251.535 234.727 263.272V269.14Z" fill="#FFFEFB"/>
<path d="M311.224 206.347H281.802V327.239H311.224V206.347Z" fill="#FFFEFB"/>
<path d="M381.246 282.638H401.841V301.417C398.311 304.938 392.427 306.699 384.777 306.699C375.951 306.699 369.478 303.764 365.359 297.309C361.239 291.441 358.886 282.051 358.886 270.314V263.272C358.886 251.535 361.239 242.732 364.77 236.863C368.301 230.995 374.185 227.474 381.835 227.474C387.719 227.474 392.427 228.647 395.957 231.582C399.487 234.516 401.253 239.211 402.43 246.253H430.674C429.497 232.755 424.202 222.192 415.963 215.15C407.726 208.108 395.957 204.587 380.658 204.587C370.066 204.587 361.239 206.934 353.59 211.629C345.941 216.324 339.468 223.366 335.349 232.169C331.229 240.971 328.876 251.535 328.876 263.272V273.835C329.464 290.854 334.76 304.351 344.175 314.327C353.59 324.304 366.536 328.999 382.423 328.999C393.014 328.999 402.43 327.238 410.668 324.304C419.494 321.37 425.967 317.262 430.674 311.98V262.098H381.246V282.638Z" fill="#FFFEFB"/>
<path d="M479.513 206.347H450.092V327.239H479.513V206.347Z" fill="#FFFEFB"/>
<path d="M535.415 225.713C540.122 222.779 545.419 221.019 551.891 221.019C558.364 221.019 563.071 222.779 566.602 226.3C569.544 229.821 571.309 234.516 570.721 240.972H591.316C591.316 233.929 590.139 227.474 587.197 221.606C584.255 216.324 579.547 211.629 573.663 208.695C567.779 205.76 561.306 204 553.656 204C546.006 204 538.357 205.174 531.296 208.108C524.235 211.042 518.939 215.15 514.231 220.432C510.112 225.713 507.758 231.582 507.17 238.624C506.582 246.84 508.936 253.295 514.231 259.751C519.528 266.206 528.354 270.901 540.71 275.596L547.183 277.943C557.187 282.051 561.306 287.919 560.129 295.549C558.952 300.831 556.598 304.938 551.891 307.873C547.183 310.807 541.888 311.98 535.415 311.98C528.354 311.98 522.47 310.22 518.939 306.112C514.82 302.59 513.643 297.309 513.643 290.267H493.048C493.048 297.896 494.224 304.351 497.755 310.22C501.286 316.089 505.994 320.783 512.466 323.717C518.939 327.238 526 328.412 534.238 328.999C542.476 328.999 550.125 327.826 557.187 324.891C564.248 321.957 569.543 318.436 573.663 313.155C577.782 307.873 580.135 302.004 580.135 295.549C580.724 287.333 578.37 279.704 573.663 273.835C568.955 267.967 559.54 262.098 547.183 257.99L540.71 255.643C530.118 251.535 525.412 246.253 526.588 239.211C528.354 233.343 530.707 229.234 535.415 225.713Z" fill="#FFFEFB"/>
<path d="M672.519 273.248L675.461 256.816H627.21L633.094 223.366H688.995L691.937 206.347H615.441L594.258 327.239H671.342L674.284 310.807H617.795L624.267 273.248H672.519Z" fill="#FFFEFB"/>
<path d="M779.613 262.685C784.32 256.816 786.674 250.361 787.262 242.145C788.439 230.995 784.908 222.192 778.436 215.737C771.374 209.281 761.371 206.347 748.426 206.347H710.178L688.995 327.239H709.589L717.828 280.877H740.776L756.075 327.239H777.847V326.064L760.195 276.182C768.432 272.661 774.905 268.553 779.613 262.685ZM766.668 243.319C766.079 249.774 763.137 255.056 758.429 258.577C753.722 262.098 747.838 264.445 740.188 264.445H720.181L727.243 223.953H749.014C755.487 223.953 759.606 225.713 763.137 229.234C766.667 232.755 767.844 236.863 766.668 243.319Z" fill="#FFFEFB"/>
<path d="M906.714 282.051H880.823L866.112 206.347H847.871L782.555 327.239H804.915L819.626 299.069H864.935L869.642 327.239H890.238L884.941 299.069H907.302V282.051H906.714ZM853.166 232.168L861.405 282.051H827.275L853.166 232.168Z" fill="#FFFEFB"/>
<path d="M238.215 763.489C229.318 758.744 219.827 756.372 209.15 756.372H170V878.543H210.336C221.013 878.543 230.504 876.171 239.402 870.833C248.299 866.088 254.824 858.972 259.57 850.076C264.316 841.18 266.688 831.098 266.688 819.83V814.492C266.688 803.224 264.316 793.142 259.57 784.246C253.638 775.35 246.52 768.826 238.215 763.489ZM235.25 819.83C235.25 831.691 232.877 840.587 228.725 846.518C224.572 852.448 217.454 855.414 209.15 855.414H199.066V778.315H209.15C218.047 778.315 224.572 781.281 228.725 787.211C233.47 793.142 235.25 802.038 235.25 813.899V819.83Z" fill="black"/>
<path d="M312.363 756.372H282.704V878.543H312.363V756.372Z" fill="black"/>
<path d="M382.951 833.471H403.712V852.449C400.153 856.007 394.221 857.786 386.51 857.786C377.612 857.786 371.087 854.821 366.935 848.298C362.783 842.366 360.41 832.877 360.41 821.016V813.9C360.41 802.038 362.783 793.142 366.342 787.212C369.901 781.281 375.833 777.723 383.544 777.723C389.476 777.723 394.221 778.909 397.78 781.874C401.339 784.839 403.119 789.584 404.306 796.701H432.778C431.592 783.06 426.253 772.385 417.948 765.268C409.644 758.151 397.78 754.593 382.358 754.593C371.681 754.593 362.783 756.965 355.071 761.71C347.361 766.454 340.835 773.571 336.683 782.467C332.531 791.363 330.158 802.038 330.158 813.9V824.575C330.751 841.773 336.09 855.414 345.581 865.496C355.071 875.578 368.122 880.323 384.138 880.323C394.814 880.323 404.306 878.543 412.61 875.579C421.507 872.613 428.033 868.462 432.778 863.124V812.713H382.951V833.471Z" fill="black"/>
<path d="M482.011 756.372H452.352V878.543H482.011V756.372Z" fill="black"/>
<path d="M538.363 775.943C543.109 772.978 548.448 771.199 554.973 771.199C561.497 771.199 566.243 772.978 569.802 776.536C572.768 780.095 574.547 784.839 573.954 791.363H594.715C594.715 784.246 593.529 777.723 590.564 771.792C587.598 766.454 582.852 761.71 576.92 758.744C570.989 755.779 564.464 754 556.752 754C549.041 754 541.329 755.186 534.211 758.151C527.094 761.117 521.754 765.268 517.009 770.606C512.857 775.943 510.484 781.874 509.891 788.991C509.298 797.294 511.671 803.817 517.009 810.341C522.347 816.865 531.246 821.609 543.702 826.354L550.227 828.726C560.311 832.878 564.463 838.808 563.277 846.518C562.09 851.856 559.718 856.007 554.973 858.972C550.227 861.938 544.889 863.124 538.363 863.124C531.246 863.124 525.314 861.345 521.754 857.193C517.602 853.635 516.416 848.297 516.416 841.181H495.655C495.655 848.89 496.841 855.414 500.4 861.345C503.959 867.275 508.705 872.02 515.23 874.985C521.754 878.543 528.873 879.729 537.177 880.323C545.482 880.323 553.193 879.136 560.311 876.172C567.43 873.206 572.768 869.648 576.92 864.31C581.072 858.972 583.445 853.042 583.445 846.518C584.038 838.215 581.665 830.505 576.92 824.575C572.175 818.644 562.684 812.713 550.227 808.562L543.702 806.19C533.025 802.038 528.28 796.701 529.466 789.584C531.246 783.653 533.618 779.502 538.363 775.943Z" fill="black"/>
<path d="M676.574 823.981L679.54 807.375H630.899L636.831 773.571H693.183L696.149 756.372H619.035L597.681 878.543H675.387L678.353 861.937H621.408L627.934 823.981H676.574Z" fill="black"/>
<path d="M784.532 813.306C789.278 807.375 791.65 800.852 792.244 792.549C793.43 781.281 789.871 772.384 783.346 765.861C776.228 759.337 766.144 756.372 753.094 756.372H714.537L693.183 878.543H713.944L722.248 831.691H745.383L760.805 878.543H782.752V877.357L764.958 826.946C773.262 823.388 779.786 819.237 784.532 813.306ZM771.482 793.735C770.889 800.258 767.923 805.596 763.178 809.154C758.432 812.713 752.501 815.085 744.789 815.085H724.621L731.739 774.164H753.687C760.212 774.164 764.364 775.943 767.923 779.501C771.482 783.06 772.669 787.211 771.482 793.735Z" fill="black"/>
<path d="M912.659 832.877H886.559L871.729 756.372H853.341L787.498 878.543H810.039L824.868 850.076H870.543L875.288 878.543H896.05L890.711 850.076H913.252V832.877H912.659ZM858.679 782.467L866.984 832.877H832.58L858.679 782.467Z" fill="black"/>
</svg>
