<svg width="1085" height="1085" viewBox="0 0 1085 1085" fill="none" xmlns="http://www.w3.org/2000/svg">
<g clip-path="url(#clip0_511_7518)">
<rect width="1085" height="1085" fill="#EE8888"/>
<path fill-rule="evenodd" clip-rule="evenodd" d="M751.823 -217.527C852.887 -201.609 957.646 -190.844 1029.83 -120.077C1101.85 -49.4807 1112.45 52.4905 1127.68 150.937C1147.14 276.775 1193.59 407.845 1128.55 518.188C1047.79 655.219 913.696 797.334 751.823 788.618C591.706 779.998 507.269 607.276 414.528 479.745C342.34 380.477 296.35 272.351 288.099 150.937C279.094 18.44 261.078 -140.637 366.663 -224.532C470.135 -306.749 620.042 -238.284 751.823 -217.527Z" fill="#11756E"/>
<path d="M714.814 345L718.684 325.094H720.652L716.77 345H714.814ZM720.379 345L724.262 325.094H726.217L722.334 345H720.379ZM727.885 332.682H713.666V330.781H727.885V332.682ZM726.859 339.395H712.627V337.508H726.859V339.395ZM738.221 324.984V345H735.691V328.143L730.592 330.002V327.719L737.824 324.984H738.221ZM753.971 324.984V345H751.441V328.143L746.342 330.002V327.719L753.574 324.984H753.971ZM774.273 325.094V326.516L766.029 345H763.363L771.594 327.172H760.82V325.094H774.273ZM780.357 335.525L778.334 335.006L779.332 325.094H789.545V327.432H781.479L780.877 332.846C781.242 332.636 781.702 332.44 782.258 332.258C782.823 332.076 783.47 331.984 784.199 331.984C785.12 331.984 785.945 332.144 786.674 332.463C787.403 332.773 788.023 333.219 788.533 333.803C789.053 334.386 789.449 335.088 789.723 335.908C789.996 336.729 790.133 337.645 790.133 338.656C790.133 339.613 790.001 340.493 789.736 341.295C789.481 342.097 789.094 342.799 788.574 343.4C788.055 343.993 787.398 344.453 786.605 344.781C785.822 345.109 784.896 345.273 783.83 345.273C783.028 345.273 782.267 345.164 781.547 344.945C780.836 344.717 780.198 344.376 779.633 343.92C779.077 343.455 778.621 342.881 778.266 342.197C777.919 341.505 777.701 340.693 777.609 339.764H780.016C780.125 340.511 780.344 341.14 780.672 341.65C781 342.161 781.428 342.548 781.957 342.812C782.495 343.068 783.119 343.195 783.83 343.195C784.432 343.195 784.965 343.09 785.43 342.881C785.895 342.671 786.286 342.37 786.605 341.979C786.924 341.587 787.166 341.113 787.33 340.557C787.503 340.001 787.59 339.376 787.59 338.684C787.59 338.055 787.503 337.471 787.33 336.934C787.157 336.396 786.897 335.926 786.551 335.525C786.214 335.124 785.799 334.814 785.307 334.596C784.814 334.368 784.249 334.254 783.611 334.254C782.764 334.254 782.121 334.368 781.684 334.596C781.255 334.824 780.813 335.133 780.357 335.525ZM802.615 325.066H802.834V327.213H802.615C801.275 327.213 800.154 327.432 799.252 327.869C798.35 328.298 797.634 328.876 797.105 329.605C796.577 330.326 796.194 331.137 795.957 332.039C795.729 332.941 795.615 333.857 795.615 334.787V337.713C795.615 338.597 795.72 339.381 795.93 340.064C796.139 340.739 796.426 341.309 796.791 341.773C797.156 342.238 797.566 342.589 798.021 342.826C798.486 343.063 798.969 343.182 799.471 343.182C800.054 343.182 800.574 343.072 801.029 342.854C801.485 342.626 801.868 342.311 802.178 341.91C802.497 341.5 802.738 341.017 802.902 340.461C803.066 339.905 803.148 339.294 803.148 338.629C803.148 338.036 803.076 337.467 802.93 336.92C802.784 336.364 802.561 335.872 802.26 335.443C801.959 335.006 801.581 334.664 801.125 334.418C800.678 334.163 800.145 334.035 799.525 334.035C798.824 334.035 798.167 334.208 797.557 334.555C796.955 334.892 796.458 335.339 796.066 335.895C795.684 336.441 795.465 337.038 795.41 337.686L794.07 337.672C794.198 336.651 794.435 335.781 794.781 335.061C795.137 334.331 795.574 333.739 796.094 333.283C796.622 332.818 797.21 332.481 797.857 332.271C798.514 332.053 799.206 331.943 799.936 331.943C800.929 331.943 801.786 332.13 802.506 332.504C803.226 332.878 803.818 333.379 804.283 334.008C804.748 334.628 805.09 335.329 805.309 336.113C805.536 336.888 805.65 337.686 805.65 338.506C805.65 339.445 805.518 340.324 805.254 341.145C804.99 341.965 804.593 342.685 804.064 343.305C803.545 343.924 802.902 344.408 802.137 344.754C801.371 345.1 800.482 345.273 799.471 345.273C798.395 345.273 797.456 345.055 796.654 344.617C795.852 344.171 795.187 343.578 794.658 342.84C794.13 342.102 793.733 341.281 793.469 340.379C793.204 339.477 793.072 338.561 793.072 337.631V336.441C793.072 335.038 793.214 333.661 793.496 332.312C793.779 330.964 794.266 329.742 794.959 328.648C795.661 327.555 796.632 326.684 797.871 326.037C799.111 325.39 800.692 325.066 802.615 325.066ZM821.961 342.854V345H811.42V342.854H821.961ZM811.953 325.094V345H809.314V325.094H811.953ZM820.566 333.652V335.799H811.42V333.652H820.566ZM821.824 325.094V327.254H811.42V325.094H821.824Z" fill="#FFFDF6"/>
<path d="M921.814 1031L925.684 1011.09H927.652L923.77 1031H921.814ZM927.379 1031L931.262 1011.09H933.217L929.334 1031H927.379ZM934.885 1018.68H920.666V1016.78H934.885V1018.68ZM933.859 1025.39H919.627V1023.51H933.859V1025.39ZM950.211 1028.85V1031H939.67V1028.85H950.211ZM940.203 1011.09V1031H937.564V1011.09H940.203ZM948.816 1019.65V1021.8H939.67V1019.65H948.816ZM950.074 1011.09V1013.25H939.67V1011.09H950.074ZM966.125 1028.85V1031H955.584V1028.85H966.125ZM956.117 1011.09V1031H953.479V1011.09H956.117ZM964.73 1019.65V1021.8H955.584V1019.65H964.73ZM965.988 1011.09V1013.25H955.584V1011.09H965.988ZM981.287 1025.61C981.287 1026.83 981.005 1027.86 980.439 1028.7C979.883 1029.54 979.127 1030.18 978.17 1030.62C977.222 1031.05 976.151 1031.27 974.957 1031.27C973.763 1031.27 972.688 1031.05 971.73 1030.62C970.773 1030.18 970.017 1029.54 969.461 1028.7C968.905 1027.86 968.627 1026.83 968.627 1025.61C968.627 1024.82 968.777 1024.1 969.078 1023.44C969.388 1022.77 969.821 1022.2 970.377 1021.7C970.942 1021.21 971.607 1020.83 972.373 1020.57C973.148 1020.29 974 1020.16 974.93 1020.16C976.151 1020.16 977.24 1020.4 978.197 1020.87C979.154 1021.33 979.906 1021.98 980.453 1022.8C981.009 1023.62 981.287 1024.56 981.287 1025.61ZM978.744 1025.56C978.744 1024.82 978.585 1024.17 978.266 1023.6C977.947 1023.03 977.5 1022.58 976.926 1022.26C976.352 1021.94 975.686 1021.79 974.93 1021.79C974.155 1021.79 973.485 1021.94 972.92 1022.26C972.364 1022.58 971.931 1023.03 971.621 1023.6C971.311 1024.17 971.156 1024.82 971.156 1025.56C971.156 1026.32 971.307 1026.98 971.607 1027.53C971.917 1028.07 972.355 1028.48 972.92 1028.77C973.494 1029.05 974.173 1029.2 974.957 1029.2C975.741 1029.2 976.415 1029.05 976.98 1028.77C977.546 1028.48 977.979 1028.07 978.279 1027.53C978.589 1026.98 978.744 1026.32 978.744 1025.56ZM980.822 1016.28C980.822 1017.24 980.567 1018.11 980.057 1018.89C979.546 1019.66 978.849 1020.27 977.965 1020.72C977.081 1021.17 976.078 1021.39 974.957 1021.39C973.818 1021.39 972.801 1021.17 971.908 1020.72C971.024 1020.27 970.331 1019.66 969.83 1018.89C969.329 1018.11 969.078 1017.24 969.078 1016.28C969.078 1015.12 969.329 1014.13 969.83 1013.32C970.34 1012.51 971.038 1011.89 971.922 1011.46C972.806 1011.03 973.813 1010.82 974.943 1010.82C976.083 1010.82 977.094 1011.03 977.979 1011.46C978.863 1011.89 979.555 1012.51 980.057 1013.32C980.567 1014.13 980.822 1015.12 980.822 1016.28ZM978.293 1016.32C978.293 1015.65 978.152 1015.06 977.869 1014.55C977.587 1014.04 977.195 1013.64 976.693 1013.35C976.192 1013.05 975.609 1012.9 974.943 1012.9C974.278 1012.9 973.695 1013.04 973.193 1013.32C972.701 1013.6 972.314 1013.99 972.031 1014.5C971.758 1015.01 971.621 1015.61 971.621 1016.32C971.621 1017 971.758 1017.6 972.031 1018.11C972.314 1018.62 972.706 1019.01 973.207 1019.3C973.708 1019.58 974.292 1019.72 974.957 1019.72C975.622 1019.72 976.201 1019.58 976.693 1019.3C977.195 1019.01 977.587 1018.62 977.869 1018.11C978.152 1017.6 978.293 1017 978.293 1016.32ZM997.037 1025.61C997.037 1026.83 996.755 1027.86 996.189 1028.7C995.633 1029.54 994.877 1030.18 993.92 1030.62C992.972 1031.05 991.901 1031.27 990.707 1031.27C989.513 1031.27 988.438 1031.05 987.48 1030.62C986.523 1030.18 985.767 1029.54 985.211 1028.7C984.655 1027.86 984.377 1026.83 984.377 1025.61C984.377 1024.82 984.527 1024.1 984.828 1023.44C985.138 1022.77 985.571 1022.2 986.127 1021.7C986.692 1021.21 987.357 1020.83 988.123 1020.57C988.898 1020.29 989.75 1020.16 990.68 1020.16C991.901 1020.16 992.99 1020.4 993.947 1020.87C994.904 1021.33 995.656 1021.98 996.203 1022.8C996.759 1023.62 997.037 1024.56 997.037 1025.61ZM994.494 1025.56C994.494 1024.82 994.335 1024.17 994.016 1023.6C993.697 1023.03 993.25 1022.58 992.676 1022.26C992.102 1021.94 991.436 1021.79 990.68 1021.79C989.905 1021.79 989.235 1021.94 988.67 1022.26C988.114 1022.58 987.681 1023.03 987.371 1023.6C987.061 1024.17 986.906 1024.82 986.906 1025.56C986.906 1026.32 987.057 1026.98 987.357 1027.53C987.667 1028.07 988.105 1028.48 988.67 1028.77C989.244 1029.05 989.923 1029.2 990.707 1029.2C991.491 1029.2 992.165 1029.05 992.73 1028.77C993.296 1028.48 993.729 1028.07 994.029 1027.53C994.339 1026.98 994.494 1026.32 994.494 1025.56ZM996.572 1016.28C996.572 1017.24 996.317 1018.11 995.807 1018.89C995.296 1019.66 994.599 1020.27 993.715 1020.72C992.831 1021.17 991.828 1021.39 990.707 1021.39C989.568 1021.39 988.551 1021.17 987.658 1020.72C986.774 1020.27 986.081 1019.66 985.58 1018.89C985.079 1018.11 984.828 1017.24 984.828 1016.28C984.828 1015.12 985.079 1014.13 985.58 1013.32C986.09 1012.51 986.788 1011.89 987.672 1011.46C988.556 1011.03 989.563 1010.82 990.693 1010.82C991.833 1010.82 992.844 1011.03 993.729 1011.46C994.613 1011.89 995.305 1012.51 995.807 1013.32C996.317 1014.13 996.572 1015.12 996.572 1016.28ZM994.043 1016.32C994.043 1015.65 993.902 1015.06 993.619 1014.55C993.337 1014.04 992.945 1013.64 992.443 1013.35C991.942 1013.05 991.359 1012.9 990.693 1012.9C990.028 1012.9 989.445 1013.04 988.943 1013.32C988.451 1013.6 988.064 1013.99 987.781 1014.5C987.508 1015.01 987.371 1015.61 987.371 1016.32C987.371 1017 987.508 1017.6 987.781 1018.11C988.064 1018.62 988.456 1019.01 988.957 1019.3C989.458 1019.58 990.042 1019.72 990.707 1019.72C991.372 1019.72 991.951 1019.58 992.443 1019.3C992.945 1019.01 993.337 1018.62 993.619 1018.11C993.902 1017.6 994.043 1017 994.043 1016.32ZM1012.79 1025.61C1012.79 1026.83 1012.5 1027.86 1011.94 1028.7C1011.38 1029.54 1010.63 1030.18 1009.67 1030.62C1008.72 1031.05 1007.65 1031.27 1006.46 1031.27C1005.26 1031.27 1004.19 1031.05 1003.23 1030.62C1002.27 1030.18 1001.52 1029.54 1000.96 1028.7C1000.4 1027.86 1000.13 1026.83 1000.13 1025.61C1000.13 1024.82 1000.28 1024.1 1000.58 1023.44C1000.89 1022.77 1001.32 1022.2 1001.88 1021.7C1002.44 1021.21 1003.11 1020.83 1003.87 1020.57C1004.65 1020.29 1005.5 1020.16 1006.43 1020.16C1007.65 1020.16 1008.74 1020.4 1009.7 1020.87C1010.65 1021.33 1011.41 1021.98 1011.95 1022.8C1012.51 1023.62 1012.79 1024.56 1012.79 1025.61ZM1010.24 1025.56C1010.24 1024.82 1010.08 1024.17 1009.77 1023.6C1009.45 1023.03 1009 1022.58 1008.43 1022.26C1007.85 1021.94 1007.19 1021.79 1006.43 1021.79C1005.65 1021.79 1004.99 1021.94 1004.42 1022.26C1003.86 1022.58 1003.43 1023.03 1003.12 1023.6C1002.81 1024.17 1002.66 1024.82 1002.66 1025.56C1002.66 1026.32 1002.81 1026.98 1003.11 1027.53C1003.42 1028.07 1003.85 1028.48 1004.42 1028.77C1004.99 1029.05 1005.67 1029.2 1006.46 1029.2C1007.24 1029.2 1007.92 1029.05 1008.48 1028.77C1009.05 1028.48 1009.48 1028.07 1009.78 1027.53C1010.09 1026.98 1010.24 1026.32 1010.24 1025.56ZM1012.32 1016.28C1012.32 1017.24 1012.07 1018.11 1011.56 1018.89C1011.05 1019.66 1010.35 1020.27 1009.46 1020.72C1008.58 1021.17 1007.58 1021.39 1006.46 1021.39C1005.32 1021.39 1004.3 1021.17 1003.41 1020.72C1002.52 1020.27 1001.83 1019.66 1001.33 1018.89C1000.83 1018.11 1000.58 1017.24 1000.58 1016.28C1000.58 1015.12 1000.83 1014.13 1001.33 1013.32C1001.84 1012.51 1002.54 1011.89 1003.42 1011.46C1004.31 1011.03 1005.31 1010.82 1006.44 1010.82C1007.58 1010.82 1008.59 1011.03 1009.48 1011.46C1010.36 1011.89 1011.06 1012.51 1011.56 1013.32C1012.07 1014.13 1012.32 1015.12 1012.32 1016.28ZM1009.79 1016.32C1009.79 1015.65 1009.65 1015.06 1009.37 1014.55C1009.09 1014.04 1008.69 1013.64 1008.19 1013.35C1007.69 1013.05 1007.11 1012.9 1006.44 1012.9C1005.78 1012.9 1005.19 1013.04 1004.69 1013.32C1004.2 1013.6 1003.81 1013.99 1003.53 1014.5C1003.26 1015.01 1003.12 1015.61 1003.12 1016.32C1003.12 1017 1003.26 1017.6 1003.53 1018.11C1003.81 1018.62 1004.21 1019.01 1004.71 1019.3C1005.21 1019.58 1005.79 1019.72 1006.46 1019.72C1007.12 1019.72 1007.7 1019.58 1008.19 1019.3C1008.69 1019.01 1009.09 1018.62 1009.37 1018.11C1009.65 1017.6 1009.79 1017 1009.79 1016.32ZM1028.54 1025.61C1028.54 1026.83 1028.25 1027.86 1027.69 1028.7C1027.13 1029.54 1026.38 1030.18 1025.42 1030.62C1024.47 1031.05 1023.4 1031.27 1022.21 1031.27C1021.01 1031.27 1019.94 1031.05 1018.98 1030.62C1018.02 1030.18 1017.27 1029.54 1016.71 1028.7C1016.15 1027.86 1015.88 1026.83 1015.88 1025.61C1015.88 1024.82 1016.03 1024.1 1016.33 1023.44C1016.64 1022.77 1017.07 1022.2 1017.63 1021.7C1018.19 1021.21 1018.86 1020.83 1019.62 1020.57C1020.4 1020.29 1021.25 1020.16 1022.18 1020.16C1023.4 1020.16 1024.49 1020.4 1025.45 1020.87C1026.4 1021.33 1027.16 1021.98 1027.7 1022.8C1028.26 1023.62 1028.54 1024.56 1028.54 1025.61ZM1025.99 1025.56C1025.99 1024.82 1025.83 1024.17 1025.52 1023.6C1025.2 1023.03 1024.75 1022.58 1024.18 1022.26C1023.6 1021.94 1022.94 1021.79 1022.18 1021.79C1021.4 1021.79 1020.74 1021.94 1020.17 1022.26C1019.61 1022.58 1019.18 1023.03 1018.87 1023.6C1018.56 1024.17 1018.41 1024.82 1018.41 1025.56C1018.41 1026.32 1018.56 1026.98 1018.86 1027.53C1019.17 1028.07 1019.6 1028.48 1020.17 1028.77C1020.74 1029.05 1021.42 1029.2 1022.21 1029.2C1022.99 1029.2 1023.67 1029.05 1024.23 1028.77C1024.8 1028.48 1025.23 1028.07 1025.53 1027.53C1025.84 1026.98 1025.99 1026.32 1025.99 1025.56ZM1028.07 1016.28C1028.07 1017.24 1027.82 1018.11 1027.31 1018.89C1026.8 1019.66 1026.1 1020.27 1025.21 1020.72C1024.33 1021.17 1023.33 1021.39 1022.21 1021.39C1021.07 1021.39 1020.05 1021.17 1019.16 1020.72C1018.27 1020.27 1017.58 1019.66 1017.08 1018.89C1016.58 1018.11 1016.33 1017.24 1016.33 1016.28C1016.33 1015.12 1016.58 1014.13 1017.08 1013.32C1017.59 1012.51 1018.29 1011.89 1019.17 1011.46C1020.06 1011.03 1021.06 1010.82 1022.19 1010.82C1023.33 1010.82 1024.34 1011.03 1025.23 1011.46C1026.11 1011.89 1026.81 1012.51 1027.31 1013.32C1027.82 1014.13 1028.07 1015.12 1028.07 1016.28ZM1025.54 1016.32C1025.54 1015.65 1025.4 1015.06 1025.12 1014.55C1024.84 1014.04 1024.44 1013.64 1023.94 1013.35C1023.44 1013.05 1022.86 1012.9 1022.19 1012.9C1021.53 1012.9 1020.94 1013.04 1020.44 1013.32C1019.95 1013.6 1019.56 1013.99 1019.28 1014.5C1019.01 1015.01 1018.87 1015.61 1018.87 1016.32C1018.87 1017 1019.01 1017.6 1019.28 1018.11C1019.56 1018.62 1019.96 1019.01 1020.46 1019.3C1020.96 1019.58 1021.54 1019.72 1022.21 1019.72C1022.87 1019.72 1023.45 1019.58 1023.94 1019.3C1024.44 1019.01 1024.84 1018.62 1025.12 1018.11C1025.4 1017.6 1025.54 1017 1025.54 1016.32Z" fill="#FFFDF6"/>
<path fill-rule="evenodd" clip-rule="evenodd" d="M358.603 427.392C429.251 436.959 495.359 453.55 552.5 496.183C622 548.037 708.53 603.394 710.684 690.08C712.854 777.387 627.785 835.982 562.382 893.859C502.559 946.798 437.78 1012.24 358.603 1001.64C282.936 991.515 251.66 904.518 202.942 845.741C161.719 796.005 115.512 752.878 100.363 690.08C79.6689 604.294 42.1014 498.373 103.966 435.443C165.855 372.487 271.12 415.545 358.603 427.392Z" fill="#FFFDF6"/>
<path d="M336.814 712L340.684 692.094H342.652L338.77 712H336.814ZM342.379 712L346.262 692.094H348.217L344.334 712H342.379ZM349.885 699.682H335.666V697.781H349.885V699.682ZM348.859 706.395H334.627V704.508H348.859V706.395ZM355.203 692.094V712H352.564V692.094H355.203ZM363.543 701.049V703.209H354.629V701.049H363.543ZM364.896 692.094V694.254H354.629V692.094H364.896ZM370.68 692.094V712H368.041V692.094H370.68ZM379.02 701.049V703.209H370.105V701.049H379.02ZM380.373 692.094V694.254H370.105V692.094H380.373ZM386.156 692.094V712H383.518V692.094H386.156ZM394.496 701.049V703.209H385.582V701.049H394.496ZM395.85 692.094V694.254H385.582V692.094H395.85ZM404.381 712H400.225L400.252 709.854H404.381C405.803 709.854 406.988 709.557 407.936 708.965C408.883 708.363 409.594 707.525 410.068 706.449C410.551 705.365 410.793 704.098 410.793 702.648V701.432C410.793 700.292 410.656 699.281 410.383 698.396C410.109 697.503 409.708 696.751 409.18 696.141C408.651 695.521 408.004 695.051 407.238 694.732C406.482 694.413 405.611 694.254 404.627 694.254H400.143V692.094H404.627C405.93 692.094 407.12 692.312 408.195 692.75C409.271 693.178 410.196 693.803 410.971 694.623C411.755 695.434 412.356 696.419 412.775 697.576C413.195 698.725 413.404 700.019 413.404 701.459V702.648C413.404 704.089 413.195 705.387 412.775 706.545C412.356 707.693 411.75 708.673 410.957 709.484C410.173 710.296 409.225 710.92 408.113 711.357C407.01 711.786 405.766 712 404.381 712ZM401.633 692.094V712H398.994V692.094H401.633ZM420.008 692.094V712H417.369V692.094H420.008ZM428.348 701.049V703.209H419.434V701.049H428.348ZM429.701 692.094V694.254H419.434V692.094H429.701ZM441.896 692.066H442.115V694.213H441.896C440.557 694.213 439.436 694.432 438.533 694.869C437.631 695.298 436.915 695.876 436.387 696.605C435.858 697.326 435.475 698.137 435.238 699.039C435.01 699.941 434.896 700.857 434.896 701.787V704.713C434.896 705.597 435.001 706.381 435.211 707.064C435.421 707.739 435.708 708.309 436.072 708.773C436.437 709.238 436.847 709.589 437.303 709.826C437.768 710.063 438.251 710.182 438.752 710.182C439.335 710.182 439.855 710.072 440.311 709.854C440.766 709.626 441.149 709.311 441.459 708.91C441.778 708.5 442.02 708.017 442.184 707.461C442.348 706.905 442.43 706.294 442.43 705.629C442.43 705.036 442.357 704.467 442.211 703.92C442.065 703.364 441.842 702.872 441.541 702.443C441.24 702.006 440.862 701.664 440.406 701.418C439.96 701.163 439.426 701.035 438.807 701.035C438.105 701.035 437.449 701.208 436.838 701.555C436.236 701.892 435.74 702.339 435.348 702.895C434.965 703.441 434.746 704.038 434.691 704.686L433.352 704.672C433.479 703.651 433.716 702.781 434.062 702.061C434.418 701.331 434.855 700.739 435.375 700.283C435.904 699.818 436.492 699.481 437.139 699.271C437.795 699.053 438.488 698.943 439.217 698.943C440.21 698.943 441.067 699.13 441.787 699.504C442.507 699.878 443.1 700.379 443.564 701.008C444.029 701.628 444.371 702.329 444.59 703.113C444.818 703.888 444.932 704.686 444.932 705.506C444.932 706.445 444.799 707.324 444.535 708.145C444.271 708.965 443.874 709.685 443.346 710.305C442.826 710.924 442.184 711.408 441.418 711.754C440.652 712.1 439.764 712.273 438.752 712.273C437.676 712.273 436.738 712.055 435.936 711.617C435.133 711.171 434.468 710.578 433.939 709.84C433.411 709.102 433.014 708.281 432.75 707.379C432.486 706.477 432.354 705.561 432.354 704.631V703.441C432.354 702.038 432.495 700.661 432.777 699.312C433.06 697.964 433.548 696.742 434.24 695.648C434.942 694.555 435.913 693.684 437.152 693.037C438.392 692.39 439.973 692.066 441.896 692.066Z" fill="#11756E"/>
</g>
<defs>
<clipPath id="clip0_511_7518">
<rect width="1085" height="1085" fill="white"/>
</clipPath>
</defs>
</svg>
