<svg width="1085" height="1085" viewBox="0 0 1085 1085" fill="none" xmlns="http://www.w3.org/2000/svg">
<g clip-path="url(#clip0_501_2)">
<rect width="1085" height="1085" fill="#11756E"/>
<path fill-rule="evenodd" clip-rule="evenodd" d="M352.538 939.715C109.202 1086.88 -180.491 1143.17 -416.915 1118.83C-650.786 1094.76 -839.041 988.308 -883.827 812.467C-924.561 652.538 -767.107 456.562 -631.72 275.463C-518.481 123.991 -382.951 -27.6375 -188.295 -117.904C-2.9916 -203.834 166.721 -167.424 350.58 -180.053C617.155 -198.364 1000.59 -361.095 1109.93 -207.079C1218.08 -54.7468 903.631 194.247 765.154 403.92C640.278 592.998 577.957 803.382 352.538 939.715Z" fill="#EE8888"/>
<path d="M219.473 529.022C219.473 537.374 213.991 549.068 213.991 549.068L219.473 529.022ZM215.818 532.362C215.818 532.362 221.3 518.998 208.51 508.975C195.72 498.952 175.622 502.293 175.622 502.293C175.622 502.293 175.622 515.657 186.585 525.681C197.547 535.703 215.818 532.362 215.818 532.362ZM219.473 525.681C219.473 525.681 213.991 512.316 226.781 502.293C239.571 492.27 259.669 495.611 259.669 495.611C259.669 495.611 259.669 508.975 248.707 518.998C237.744 529.022 219.473 525.681 219.473 525.681Z" stroke="#FFFEFB" stroke-width="10" stroke-linecap="round" stroke-linejoin="round"/>
<path d="M190.239 549.068H237.744C237.744 549.068 241.398 579.138 213.991 579.138C186.585 579.138 190.239 549.068 190.239 549.068Z" stroke="#FFFEFB" stroke-width="10" stroke-linecap="round" stroke-linejoin="round"/>
<path d="M334.456 557.006V536.329H349.966C352.895 536.329 355.437 535.769 357.591 534.649C359.745 533.443 361.425 531.763 362.632 529.609C363.838 527.455 364.441 524.914 364.441 521.985C364.441 518.969 363.838 516.385 362.632 514.231C361.425 512.077 359.745 510.44 357.591 509.32C355.437 508.2 352.895 507.64 349.966 507.64H334.456V486.963H349.319C357.419 486.963 364.398 488.342 370.257 491.099C376.202 493.769 380.769 497.646 383.957 502.729C387.145 507.812 388.739 513.886 388.739 520.951V523.019C388.739 529.997 387.145 536.028 383.957 541.111C380.769 546.194 376.202 550.114 370.257 552.871C364.398 555.628 357.419 557.006 349.319 557.006H334.456ZM313.002 582.077V486.963H337.041V582.077H313.002ZM400.343 582.077V487.739H423.865V582.077H400.343ZM392.329 504.797V487.739H423.865V504.797H392.329ZM484.379 582.077V561.142H480.502V538.785C480.502 535.511 479.727 533.099 478.176 531.548C476.711 529.911 474.255 529.092 470.809 529.092C469.172 529.092 466.759 529.135 463.571 529.222C460.383 529.308 457.023 529.437 453.49 529.609C449.957 529.782 446.726 529.954 443.797 530.126V510.483C445.865 510.311 448.32 510.139 451.164 509.966C454.007 509.794 456.937 509.665 459.952 509.579C463.054 509.492 465.897 509.449 468.482 509.449C475.806 509.449 482.01 510.526 487.093 512.68C492.263 514.834 496.184 518.065 498.855 522.372C501.612 526.68 502.99 532.151 502.99 538.785V582.077H484.379ZM461.762 583.886C456.764 583.886 452.327 582.982 448.45 581.172C444.572 579.363 441.513 576.779 439.273 573.419C437.119 569.972 436.042 565.88 436.042 561.142C436.042 555.8 437.464 551.492 440.307 548.219C443.151 544.859 447.071 542.403 452.068 540.852C457.066 539.302 462.796 538.526 469.258 538.526H483.087V550.674H469.258C466.07 550.674 463.614 551.492 461.891 553.129C460.168 554.68 459.306 556.791 459.306 559.462C459.306 562.046 460.168 564.157 461.891 565.794C463.614 567.345 466.07 568.12 469.258 568.12C471.326 568.12 473.135 567.775 474.686 567.086C476.323 566.311 477.659 565.019 478.693 563.209C479.727 561.4 480.33 558.902 480.502 555.714L485.93 560.883C485.499 565.794 484.293 569.972 482.311 573.419C480.416 576.779 477.745 579.363 474.298 581.172C470.938 582.982 466.759 583.886 461.762 583.886ZM518.707 582.077V510.742H537.318V541.369H536.284C536.284 533.96 537.232 527.843 539.128 523.019C541.023 518.108 543.824 514.446 547.529 512.034C551.32 509.622 555.886 508.415 561.228 508.415H562.262C570.362 508.415 576.608 511.129 581.003 516.557C585.483 521.899 587.723 530.126 587.723 541.24V582.077H564.201V540.594C564.201 537.32 563.21 534.649 561.228 532.582C559.333 530.428 556.705 529.351 553.345 529.351C549.984 529.351 547.27 530.428 545.202 532.582C543.22 534.649 542.23 537.406 542.23 540.852V582.077H518.707ZM637.515 583.111C629.76 583.111 623.557 582.163 618.904 580.268C614.337 578.372 611.02 575.228 608.952 570.834C606.884 566.44 605.85 560.495 605.85 553L605.979 492.132H627.692L627.563 553.646C627.563 556.834 628.382 559.289 630.019 561.012C631.742 562.649 634.198 563.468 637.386 563.468H647.208V583.111H637.515ZM595.511 527.8V510.742H647.208V527.8H595.511ZM681.529 582.852V564.502H702.337C705.87 564.502 708.498 563.597 710.221 561.788C711.944 559.979 712.806 557.351 712.806 553.905C712.806 550.459 711.944 547.874 710.221 546.151C708.498 544.342 705.87 543.437 702.337 543.437H681.529V529.222H701.561C708.196 529.222 714.141 530.04 719.397 531.677C724.653 533.228 728.789 535.812 731.804 539.431C734.82 543.049 736.328 547.874 736.328 553.905V555.714C736.328 561.4 734.992 566.268 732.321 570.317C729.65 574.366 725.73 577.468 720.56 579.622C715.39 581.775 709.058 582.852 701.561 582.852H681.529ZM660.85 582.852V486.963H684.113V582.852H660.85ZM681.529 539.819V525.603H698.847C702.38 525.603 704.922 524.742 706.473 523.019C708.11 521.209 708.928 518.711 708.928 515.523C708.928 512.249 708.11 509.751 706.473 508.028C704.922 506.219 702.38 505.314 698.847 505.314H681.529V486.963H697.813C708.842 486.963 717.372 489.289 723.404 493.942C729.435 498.508 732.451 505.055 732.451 513.585V515.523C732.451 521.468 730.9 526.249 727.798 529.868C724.782 533.4 720.646 535.942 715.391 537.492C710.221 539.043 704.362 539.819 697.813 539.819H681.529ZM773.717 584.403C765.618 584.403 759.328 581.775 754.847 576.52C750.453 571.179 748.256 563.037 748.256 552.095V510.742H771.778V552.742C771.778 555.929 772.726 558.514 774.622 560.495C776.517 562.477 779.059 563.468 782.248 563.468C785.436 563.468 788.021 562.477 790.002 560.495C791.984 558.514 792.975 555.843 792.975 552.483V510.742H816.497V582.077H797.886V552.095H799.179C799.179 559.419 798.231 565.492 796.335 570.317C794.526 575.055 791.812 578.588 788.193 580.914C784.574 583.24 780.094 584.403 774.751 584.403H773.717ZM863.204 584.403C858.206 584.403 853.64 583.499 849.504 581.689C845.454 579.88 841.922 577.382 838.906 574.194C835.976 570.92 833.693 567.086 832.056 562.692C830.505 558.299 829.729 553.517 829.729 548.348V545.246C829.729 540.077 830.462 535.295 831.927 530.902C833.478 526.422 835.675 522.545 838.518 519.271C841.361 515.911 844.808 513.326 848.858 511.517C852.907 509.622 857.431 508.674 862.428 508.674C868.201 508.674 873.112 509.966 877.162 512.551C881.298 515.049 884.443 518.711 886.597 523.535C888.837 528.36 890.043 534.219 890.216 541.111L884.787 537.105V487.739H908.31V582.077H889.699V553.129H892.284C892.111 559.505 890.819 565.062 888.406 569.8C885.994 574.452 882.633 578.071 878.325 580.655C874.103 583.154 869.063 584.403 863.204 584.403ZM869.537 565.019C872.38 565.019 874.965 564.372 877.291 563.08C879.704 561.788 881.642 559.892 883.107 557.394C884.572 554.895 885.304 551.88 885.304 548.348V543.954C885.304 540.508 884.529 537.622 882.978 535.295C881.513 532.969 879.575 531.203 877.162 529.997C874.836 528.705 872.294 528.059 869.537 528.059C866.435 528.059 863.634 528.877 861.136 530.514C858.723 532.065 856.785 534.262 855.32 537.105C853.941 539.862 853.252 543.092 853.252 546.797C853.252 550.502 853.941 553.732 855.32 556.489C856.785 559.16 858.723 561.271 861.136 562.822C863.634 564.286 866.435 565.019 869.537 565.019Z" fill="#FFFEFB"/>
<g clip-path="url(#clip1_501_2)">
<path d="M390.073 787.59C418.451 741.827 404.358 681.724 358.596 653.345C312.833 624.967 252.729 639.059 224.351 684.822C195.972 730.585 210.065 790.689 255.828 819.067C301.591 847.446 361.694 833.353 390.073 787.59Z" fill="#11756E"/>
<path d="M244.692 704.221L242.798 703.075L244.122 700.888C244.389 700.447 244.525 700.025 244.531 699.621C244.543 699.208 244.441 698.831 244.227 698.49C244.018 698.14 243.713 697.843 243.313 697.601C242.913 697.358 242.509 697.226 242.101 697.204C241.7 697.172 241.324 697.26 240.974 697.468C240.619 697.66 240.308 697.977 240.041 698.419L238.717 700.605L236.823 699.459L238.035 697.457C238.607 696.513 239.245 695.805 239.951 695.334C240.663 694.853 241.412 694.612 242.198 694.611C242.974 694.604 243.752 694.836 244.532 695.309L244.778 695.458C245.559 695.93 246.131 696.515 246.494 697.212C246.848 697.902 246.981 698.678 246.896 699.538C246.806 700.381 246.475 701.275 245.904 702.22L244.692 704.221ZM247.005 708.188L235.686 701.338L237.01 699.151L248.328 706.001L247.005 708.188Z" fill="#FFFDF6"/>
<path d="M257.343 692.551L248.243 683.072L250.086 681.302L259.187 690.78L257.343 692.551ZM258.927 691.03L257.369 689.407L261.459 685.48L263.017 687.103L258.927 691.03Z" fill="#FFFDF6"/>
<path d="M268.166 682.008L266.173 668.269L269.891 666.367L279.977 675.968L277.637 677.164L268.972 668.799L269.969 668.733L267.966 669.758L268.619 668.979L270.442 680.844L268.166 682.008ZM269.365 677.473L269.102 675.181L273.846 672.755L275.534 674.318L269.365 677.473Z" fill="#FFFDF6"/>
<path d="M289.528 671.933L287.959 658.887L292.123 658.386L298.925 668.664L299.514 668.593L299.196 668.957L297.842 657.698L300.237 657.41L301.805 670.457L297.623 670.959L290.822 660.682L290.214 660.755L290.533 660.39L291.887 671.649L289.528 671.933Z" fill="#FFFDF6"/>
<path d="M316.59 670.665L318.849 659.644L321.353 660.157L319.094 671.178L316.59 670.665ZM315.056 659.234L315.507 657.03L325.453 659.068L325.001 661.272L315.056 659.234Z" fill="#FFFDF6"/>
<path d="M334.5 676.404C333.464 675.873 332.673 675.259 332.126 674.562C331.591 673.87 331.284 673.14 331.205 672.372C331.132 671.593 331.284 670.835 331.661 670.098L333.888 671.238C333.73 671.547 333.66 671.896 333.677 672.282C333.701 672.658 333.853 673.033 334.134 673.405C334.425 673.784 334.881 674.132 335.5 674.449C336.056 674.733 336.562 674.891 337.018 674.922C337.473 674.953 337.858 674.887 338.171 674.723C338.489 674.549 338.733 674.297 338.902 673.966C339.115 673.549 339.109 673.128 338.882 672.701C338.661 672.265 338.198 671.826 337.494 671.384L336.509 670.779C335.437 670.109 334.717 669.303 334.35 668.36C334 667.412 334.078 666.442 334.587 665.448C334.97 664.7 335.474 664.15 336.1 663.796C336.731 663.432 337.436 663.266 338.214 663.301C339.008 663.33 339.832 663.563 340.686 664C341.573 664.454 342.258 665 342.74 665.637C343.222 666.275 343.495 666.967 343.558 667.714C343.626 668.45 343.466 669.197 343.078 669.956L340.85 668.816C341.015 668.495 341.085 668.16 341.061 667.811C341.054 667.457 340.936 667.121 340.708 666.802C340.497 666.478 340.156 666.195 339.686 665.955C339.237 665.725 338.825 665.609 338.45 665.605C338.074 665.602 337.746 665.69 337.465 665.87C337.184 666.049 336.967 666.289 336.814 666.588C336.628 666.951 336.598 667.34 336.723 667.754C336.853 668.158 337.196 668.529 337.751 668.867L338.727 669.488C339.527 669.979 340.169 670.529 340.652 671.14C341.134 671.751 341.421 672.39 341.511 673.056C341.612 673.728 341.485 674.411 341.129 675.105C340.752 675.843 340.226 676.396 339.552 676.765C338.883 677.124 338.112 677.275 337.237 677.218C336.374 677.167 335.461 676.896 334.5 676.404Z" fill="#FFFDF6"/>
<path d="M356.159 690.776L369.543 687.089L371.893 690.541L363.622 701.743L362.144 699.571L369.366 689.931L369.555 690.913L368.289 689.053L369.143 689.604L357.597 692.889L356.159 690.776ZM360.808 691.401L363.049 690.855L366.047 695.26L364.706 697.13L360.808 691.401Z" fill="#FFFDF6"/>
<path d="M368.591 710.631L381.331 707.063L382.02 709.525L369.281 713.093L368.591 710.631ZM370.756 718.362L375.181 712.935L375.953 715.691L371.562 721.239L370.756 718.362ZM373.306 711.18L375.299 710.622L376.202 713.846C376.328 714.296 376.529 714.658 376.805 714.929C377.083 715.213 377.416 715.4 377.803 715.491C378.19 715.582 378.597 715.568 379.025 715.448C379.464 715.325 379.825 715.124 380.108 714.845C380.392 714.567 380.579 714.234 380.67 713.847C380.764 713.472 380.748 713.059 380.622 712.608L379.719 709.384L381.816 708.797L382.647 711.76C382.931 712.777 383.027 713.698 382.934 714.521C382.844 715.357 382.549 716.062 382.05 716.638C381.551 717.214 380.839 717.632 379.915 717.89L379.637 717.968C378.701 718.23 377.875 718.237 377.157 717.99C376.443 717.754 375.832 717.308 375.325 716.652C374.817 715.997 374.421 715.161 374.136 714.144L373.306 711.18Z" fill="#FFFDF6"/>
<path d="M373.298 730.584L386.438 730.722L386.411 733.224L373.272 733.085L373.298 730.584ZM373.276 732.725L375.436 732.748L375.373 738.706L373.213 738.683L373.276 732.725ZM378.873 732.784L381.033 732.807L380.976 738.297L378.816 738.274L378.873 732.784ZM384.255 732.841L386.415 732.864L386.354 738.678L384.194 738.655L384.255 732.841Z" fill="#FFFDF6"/>
<path d="M369.224 759.581L381.057 765.295L379.945 767.596L368.113 761.883L369.224 759.581ZM373.197 763.938L375.142 764.877L372.873 769.618L370.928 768.679L373.197 763.938ZM378.157 766.333L380.102 767.272L377.707 772.232L375.762 771.293L378.157 766.333Z" fill="#FFFDF6"/>
<path d="M361.971 774.143L371.875 782.915L370.18 784.829L360.276 776.057L361.971 774.143ZM356.648 780.153L363.606 780.93L361.709 783.072L354.667 782.39L356.648 780.153ZM364.065 778.403L365.615 779.775L363.395 782.282C363.085 782.632 362.89 782.997 362.811 783.375C362.724 783.763 362.747 784.144 362.88 784.519C363.013 784.893 363.246 785.228 363.579 785.522C363.92 785.824 364.284 786.019 364.672 786.106C365.06 786.193 365.441 786.17 365.816 786.037C366.182 785.913 366.521 785.675 366.831 785.325L369.051 782.819L370.681 784.263L368.64 786.567C367.94 787.357 367.219 787.937 366.476 788.305C365.725 788.682 364.973 788.817 364.218 788.709C363.463 788.602 362.727 788.23 362.008 787.594L361.793 787.403C361.065 786.758 360.611 786.067 360.43 785.33C360.241 784.602 360.285 783.847 360.561 783.065C360.836 782.284 361.324 781.498 362.024 780.707L364.065 778.403Z" fill="#FFFDF6"/>
<path d="M347.627 788.484L355.235 799.198L353.15 800.678L345.543 789.964L347.627 788.484Z" fill="#FFFDF6"/>
<path d="M339.794 793.981L345.111 805.998L342.823 807.01L337.506 794.994L339.794 793.981ZM337.835 794.848L338.709 796.823L333.261 799.234L332.387 797.259L337.835 794.848ZM340.1 799.967L340.974 801.943L335.954 804.164L335.08 802.189L340.1 799.967ZM342.278 804.889L343.152 806.865L337.835 809.217L336.961 807.242L342.278 804.889Z" fill="#FFFDF6"/>
<path d="M323.772 800.882L325.104 813.955L320.931 814.38L314.318 803.98L313.727 804.041L314.052 803.682L315.201 814.963L312.802 815.208L311.47 802.136L315.66 801.709L322.274 812.108L322.883 812.046L322.558 812.405L321.409 801.123L323.772 800.882Z" fill="#FFFDF6"/>
<path d="M296.865 801.691L296.258 803.988L293.63 803.293C292.969 803.118 292.357 803.062 291.794 803.124C291.217 803.195 290.699 803.368 290.241 803.644C289.784 803.92 289.396 804.283 289.078 804.733C288.746 805.191 288.499 805.728 288.336 806.343C288.167 806.981 288.116 807.575 288.181 808.126C288.232 808.686 288.389 809.193 288.654 809.648C288.918 810.103 289.287 810.492 289.76 810.815C290.221 811.136 290.783 811.384 291.444 811.559L294.072 812.254L293.464 814.551L290.993 813.897C289.844 813.593 288.885 813.16 288.116 812.596C287.346 812.033 286.756 811.38 286.344 810.638C285.929 809.908 285.682 809.129 285.603 808.301C285.509 807.482 285.568 806.672 285.78 805.871L285.881 805.489C286.083 804.723 286.428 804.007 286.914 803.341C287.389 802.673 287.99 802.112 288.718 801.659C289.446 801.206 290.287 800.913 291.241 800.781C292.194 800.648 293.246 800.734 294.394 801.037L296.865 801.691ZM298.988 802.252L295.587 815.112L293.116 814.459L296.517 801.599L298.988 802.252Z" fill="#FFFDF6"/>
<path d="M274.081 792.985C275.059 793.615 275.785 794.305 276.26 795.053C276.724 795.795 276.957 796.552 276.959 797.324C276.954 798.106 276.728 798.845 276.279 799.541L274.176 798.186C274.365 797.893 274.469 797.554 274.49 797.167C274.504 796.791 274.39 796.403 274.147 796.004C273.895 795.599 273.476 795.208 272.891 794.83C272.366 794.492 271.879 794.285 271.428 794.209C270.978 794.133 270.589 794.16 270.261 794.292C269.927 794.434 269.66 794.661 269.458 794.973C269.204 795.367 269.169 795.787 269.353 796.233C269.529 796.69 269.946 797.173 270.603 797.682L271.523 798.382C272.523 799.155 273.159 800.029 273.431 801.003C273.686 801.981 273.511 802.939 272.906 803.877C272.451 804.583 271.894 805.081 271.237 805.371C270.572 805.671 269.855 805.765 269.084 805.654C268.297 805.546 267.5 805.233 266.693 804.712C265.856 804.173 265.229 803.562 264.812 802.879C264.395 802.197 264.193 801.481 264.205 800.732C264.21 799.993 264.443 799.265 264.905 798.549L267.008 799.904C266.813 800.207 266.71 800.533 266.698 800.883C266.671 801.236 266.754 801.583 266.949 801.922C267.128 802.266 267.439 802.581 267.882 802.867C268.306 803.14 268.705 803.297 269.078 803.337C269.452 803.378 269.787 803.323 270.084 803.172C270.381 803.021 270.621 802.804 270.803 802.522C271.024 802.179 271.093 801.795 271.01 801.37C270.92 800.956 270.616 800.553 270.097 800.161L269.188 799.446C268.44 798.879 267.856 798.267 267.437 797.611C267.017 796.955 266.796 796.291 266.772 795.619C266.738 794.941 266.932 794.274 267.355 793.618C267.804 792.922 268.382 792.424 269.089 792.123C269.791 791.833 270.573 791.759 271.438 791.902C272.292 792.039 273.173 792.4 274.081 792.985Z" fill="#FFFDF6"/>
<path d="M253.947 776.512L240.258 778.83L238.269 775.158L247.628 764.848L248.88 767.158L240.722 776.02L240.633 775.024L241.705 777.003L240.91 776.368L252.729 774.265L253.947 776.512ZM249.385 775.422L247.1 775.738L244.562 771.054L246.084 769.328L249.385 775.422Z" fill="#FFFDF6"/>
<path d="M243.529 755.476L230.491 757.719L230.057 755.2L243.096 752.957L243.529 755.476ZM242.168 747.564L237.21 752.508L236.725 749.687L241.661 744.619L242.168 747.564ZM238.895 754.446L236.855 754.797L236.288 751.498C236.208 751.037 236.046 750.657 235.799 750.358C235.551 750.048 235.239 749.827 234.864 749.697C234.488 749.567 234.082 749.54 233.644 749.615C233.195 749.692 232.815 749.855 232.504 750.103C232.194 750.351 231.974 750.663 231.844 751.039C231.711 751.402 231.685 751.815 231.764 752.276L232.332 755.576L230.185 755.945L229.664 752.912C229.484 751.871 229.484 750.946 229.661 750.136C229.836 749.314 230.201 748.643 230.757 748.121C231.313 747.599 232.063 747.257 233.01 747.094L233.293 747.045C234.251 746.88 235.074 746.958 235.763 747.278C236.449 747.586 237.011 748.092 237.448 748.796C237.886 749.5 238.195 750.372 238.374 751.413L238.895 754.446Z" fill="#FFFDF6"/>
<path d="M240.881 735.163L227.823 733.697L228.102 731.211L241.16 732.676L240.881 735.163ZM241.12 733.034L238.973 732.793L239.638 726.872L241.784 727.113L241.12 733.034ZM235.557 732.41L233.41 732.169L234.023 726.713L236.169 726.954L235.557 732.41ZM230.208 731.809L228.062 731.569L228.71 725.791L230.857 726.032L230.208 731.809Z" fill="#FFFDF6"/>
<path d="M237.534 717.354C238.34 717.165 238.841 716.358 238.652 715.551C238.463 714.745 237.656 714.244 236.849 714.433C236.043 714.622 235.542 715.429 235.731 716.236C235.92 717.043 236.727 717.543 237.534 717.354Z" fill="#FFFDF6"/>
<path d="M257.811 789.588C258.618 789.399 259.118 788.592 258.929 787.786C258.74 786.979 257.933 786.478 257.126 786.668C256.32 786.857 255.819 787.664 256.008 788.47C256.198 789.277 257.005 789.777 257.811 789.588Z" fill="#FFFDF6"/>
<path d="M377.822 752.742C378.629 752.553 379.129 751.746 378.94 750.939C378.751 750.133 377.944 749.632 377.137 749.821C376.331 750.011 375.83 750.818 376.019 751.624C376.208 752.431 377.015 752.931 377.822 752.742Z" fill="#FFFDF6"/>
<path d="M353.373 682.122C354.179 681.933 354.68 681.125 354.491 680.319C354.302 679.512 353.494 679.012 352.688 679.201C351.881 679.39 351.381 680.197 351.57 681.004C351.759 681.81 352.566 682.311 353.373 682.122Z" fill="#FFFDF6"/>
<path d="M314.107 756.059C308.704 757.936 302.777 757.589 297.629 755.096C292.482 752.603 288.536 748.167 286.659 742.764C284.782 737.361 285.128 731.433 287.622 726.286C290.115 721.138 294.551 717.192 299.954 715.315C305.357 713.439 311.284 713.785 316.432 716.278C321.579 718.772 325.526 723.208 327.403 728.611C329.279 734.014 328.933 739.941 326.44 745.088C323.946 750.236 319.51 754.182 314.107 756.059ZM315.118 758.969C321.293 756.824 326.363 752.314 329.212 746.432C332.062 740.549 332.458 733.775 330.313 727.6C328.168 721.425 323.658 716.355 317.775 713.506C311.892 710.656 305.118 710.26 298.943 712.405C292.768 714.55 287.699 719.06 284.849 724.943C281.999 730.826 281.604 737.6 283.749 743.775C285.893 749.949 290.403 755.019 296.286 757.869C302.169 760.718 308.943 761.114 315.118 758.969Z" fill="#FFFDF6"/>
<path d="M318.715 738.197C318.968 738.036 319.263 737.953 319.564 737.958C319.864 737.962 320.157 738.055 320.405 738.223C320.654 738.392 320.848 738.63 320.963 738.907C321.078 739.185 321.109 739.49 321.053 739.785C320.596 742.176 319.517 744.404 317.925 746.245C316.333 748.087 314.284 749.476 311.984 750.274C309.685 751.074 307.216 751.254 304.825 750.796C302.434 750.338 300.206 749.259 298.365 747.666C298.138 747.469 297.974 747.211 297.892 746.921C297.81 746.632 297.815 746.326 297.905 746.039C297.996 745.753 298.168 745.499 298.401 745.309C298.634 745.119 298.917 745.001 299.216 744.97L299.23 744.965L299.285 744.963L299.495 744.939L300.284 744.844C300.956 744.76 301.892 744.638 302.949 744.469C305.091 744.13 307.623 743.635 309.456 742.998C311.29 742.361 313.586 741.179 315.475 740.118C316.488 739.549 317.488 738.958 318.476 738.345L318.656 738.234L318.701 738.205L318.714 738.194L318.715 738.197ZM294.119 728.973C294.9 724.057 305.697 724.56 300.361 738.004C285.663 737.904 289.177 727.871 294.119 728.973ZM313 722.414C316.196 718.486 325.172 724.18 313.701 733.37C301.183 726.127 309.343 719.04 313 722.414Z" fill="#FFFDF6"/>
</g>
</g>
<defs>
<clipPath id="clip0_501_2">
<rect width="1085" height="1085" fill="white"/>
</clipPath>
<clipPath id="clip1_501_2">
<rect width="195.04" height="195.04" fill="white" transform="translate(190 663.525) rotate(-13.1961)"/>
</clipPath>
</defs>
</svg>
