<svg width="1085" height="1085" viewBox="0 0 1085 1085" fill="none" xmlns="http://www.w3.org/2000/svg">
<rect width="1085" height="1085" fill="#EE8888"/>
<path fill-rule="evenodd" clip-rule="evenodd" d="M121.386 422.352L140.367 437.806L159.277 422.411L159.526 422.613L159.847 422.352L178.828 437.806L197.738 422.411L197.874 422.522L198.083 422.352L217.065 437.806L235.974 422.411L235.998 422.43L236.095 422.352L255.076 437.806L273.986 422.411L274.009 422.429L274.104 422.352L293.086 437.806L311.996 422.411L312.02 422.43L312.116 422.352L331.098 437.806L350.008 422.411L350.032 422.43L350.128 422.352L369.11 437.806L388.019 422.411L388.042 422.429L388.138 422.352L407.119 437.806L426.029 422.411L426.053 422.43L426.149 422.352L445.131 437.806L464.041 422.411L464.065 422.43L464.161 422.352L483.143 437.806L502.053 422.411L502.076 422.429L502.171 422.352L521.153 437.806L540.062 422.411L540.086 422.43L540.182 422.352L559.164 437.806L578.074 422.411L578.098 422.43L578.194 422.352L597.176 437.806L616.086 422.411L616.11 422.43L616.206 422.352L635.188 437.806L654.098 422.411L654.121 422.429L654.216 422.352L673.198 437.806L692.107 422.411L692.131 422.43L692.228 422.352L711.209 437.806L730.119 422.411L730.143 422.43L730.239 422.352L749.221 437.806L768.131 422.411L768.154 422.429L768.249 422.352L787.231 437.806L806.141 422.411L806.164 422.43L806.261 422.352L825.242 437.806L844.152 422.411L844.176 422.43L844.272 422.352L863.254 437.806L882.164 422.411L882.188 422.43L882.284 422.352L901.266 437.806L920.176 422.411L920.199 422.429L920.294 422.352L939.276 437.806L958.185 422.411L960.571 424.353L939.26 441.704L936.874 439.761L936.89 439.748L920.271 426.218L901.25 441.704L898.864 439.761L898.88 439.748L882.26 426.217L863.238 441.704L860.852 439.761L860.869 439.748L844.248 426.217L825.226 441.704L822.841 439.761L822.857 439.748L806.237 426.217L787.215 441.704L784.829 439.761L784.845 439.748L768.226 426.218L749.205 441.704L746.819 439.761L746.835 439.748L730.215 426.217L711.193 441.704L708.808 439.761L708.824 439.748L692.203 426.217L673.181 441.704L670.796 439.761L670.812 439.748L654.193 426.218L635.172 441.704L632.786 439.761L632.802 439.748L616.182 426.217L597.16 441.704L594.774 439.761L594.79 439.748L578.17 426.217L559.148 441.704L556.763 439.761L556.779 439.748L540.158 426.217L521.136 441.704L518.751 439.761L518.767 439.748L502.148 426.218L483.127 441.704L480.741 439.761L480.757 439.748L464.137 426.217L445.115 441.704L442.729 439.761L442.746 439.748L426.125 426.217L407.103 441.704L404.718 439.761L404.734 439.748L388.115 426.218L369.094 441.704L366.708 439.761L366.724 439.748L350.104 426.217L331.082 441.704L328.696 439.761L328.712 439.748L312.092 426.217L293.07 441.704L290.684 439.761L290.701 439.748L274.081 426.218L255.06 441.704L252.675 439.761L252.691 439.748L236.071 426.217L217.049 441.704L214.663 439.761L214.679 439.748L197.947 426.125L178.812 441.704L176.427 439.761L176.443 439.748L159.598 426.034L140.351 441.704L137.966 439.761L137.982 439.748L119 424.294L121.386 422.352Z" fill="#FFFDF6"/>
<path fill-rule="evenodd" clip-rule="evenodd" d="M121.386 466.704L140.367 482.158L159.277 466.762L159.526 466.965L159.847 466.704L178.828 482.158L197.738 466.762L197.874 466.873L198.083 466.704L217.065 482.158L235.974 466.762L235.998 466.782L236.095 466.704L255.076 482.158L273.986 466.762L274.009 466.781L274.104 466.704L293.086 482.158L311.996 466.762L312.02 466.782L312.116 466.704L331.098 482.158L350.008 466.762L350.032 466.782L350.128 466.704L369.11 482.158L388.019 466.762L388.042 466.781L388.138 466.704L407.119 482.158L426.029 466.762L426.053 466.782L426.149 466.704L445.131 482.158L464.041 466.762L464.065 466.782L464.161 466.704L483.143 482.158L502.053 466.762L502.076 466.781L502.171 466.704L521.153 482.158L540.062 466.762L540.086 466.782L540.182 466.704L559.164 482.158L578.074 466.762L578.098 466.782L578.194 466.704L597.176 482.158L616.086 466.762L616.11 466.782L616.206 466.704L635.188 482.158L654.098 466.762L654.121 466.781L654.216 466.704L673.198 482.158L692.107 466.762L692.131 466.782L692.228 466.704L711.209 482.158L730.119 466.762L730.143 466.782L730.239 466.704L749.221 482.158L768.131 466.762L768.154 466.781L768.249 466.704L787.231 482.158L806.141 466.762L806.164 466.782L806.261 466.704L825.242 482.158L844.152 466.762L844.176 466.782L844.272 466.704L863.254 482.158L882.164 466.762L882.188 466.782L882.284 466.704L901.266 482.158L920.176 466.762L920.199 466.781L920.294 466.704L939.276 482.158L958.185 466.762L960.571 468.705L939.26 486.055L936.874 484.113L936.89 484.1L920.271 470.569L901.25 486.055L898.864 484.113L898.88 484.1L882.26 470.569L863.238 486.055L860.852 484.113L860.869 484.1L844.248 470.569L825.226 486.055L822.841 484.113L822.857 484.1L806.237 470.569L787.215 486.055L784.829 484.113L784.845 484.1L768.226 470.569L749.205 486.055L746.819 484.113L746.835 484.1L730.215 470.569L711.193 486.055L708.808 484.113L708.824 484.1L692.203 470.569L673.181 486.055L670.796 484.113L670.812 484.1L654.193 470.569L635.172 486.055L632.786 484.113L632.802 484.1L616.182 470.569L597.16 486.055L594.774 484.113L594.79 484.1L578.17 470.569L559.148 486.055L556.763 484.113L556.779 484.1L540.158 470.569L521.136 486.055L518.751 484.113L518.767 484.1L502.148 470.569L483.127 486.055L480.741 484.113L480.757 484.1L464.137 470.569L445.115 486.055L442.729 484.113L442.746 484.1L426.125 470.569L407.103 486.055L404.718 484.113L404.734 484.1L388.115 470.569L369.094 486.055L366.708 484.113L366.724 484.1L350.104 470.569L331.082 486.055L328.696 484.113L328.712 484.1L312.092 470.569L293.07 486.055L290.684 484.113L290.701 484.1L274.081 470.569L255.06 486.055L252.675 484.113L252.691 484.1L236.071 470.569L217.049 486.055L214.663 484.113L214.679 484.1L197.947 470.477L178.812 486.055L176.427 484.113L176.443 484.1L159.598 470.386L140.351 486.055L137.966 484.113L137.982 484.1L119 468.646L121.386 466.704Z" fill="#FFFDF6"/>
<path fill-rule="evenodd" clip-rule="evenodd" d="M121.388 511.055L140.369 526.51L159.279 511.114L159.528 511.317L159.849 511.055L178.83 526.51L197.74 511.114L197.876 511.225L198.085 511.055L217.067 526.51L235.976 511.114L236 511.134L236.097 511.055L255.078 526.51L273.988 511.114L274.011 511.133L274.106 511.055L293.088 526.51L311.998 511.114L312.022 511.134L312.118 511.055L331.1 526.51L350.01 511.114L350.034 511.134L350.13 511.055L369.112 526.51L388.021 511.114L388.044 511.133L388.14 511.055L407.121 526.51L426.031 511.114L426.055 511.134L426.151 511.055L445.133 526.51L464.043 511.114L464.067 511.134L464.163 511.055L483.145 526.51L502.055 511.114L502.078 511.133L502.173 511.055L521.155 526.51L540.064 511.114L540.088 511.134L540.184 511.055L559.166 526.51L578.076 511.114L578.1 511.134L578.196 511.055L597.178 526.51L616.088 511.114L616.112 511.134L616.208 511.055L635.19 526.51L654.099 511.114L654.122 511.133L654.218 511.055L673.2 526.51L692.109 511.114L692.133 511.134L692.229 511.055L711.211 526.51L730.121 511.114L730.145 511.134L730.241 511.055L749.223 526.51L768.133 511.114L768.156 511.133L768.251 511.055L787.233 526.51L806.142 511.114L806.166 511.134L806.263 511.055L825.244 526.51L844.154 511.114L844.178 511.134L844.274 511.055L863.256 526.51L882.166 511.114L882.19 511.134L882.286 511.055L901.268 526.51L920.178 511.114L920.201 511.133L920.296 511.055L939.278 526.51L958.187 511.114L960.573 513.056L939.261 530.407L936.876 528.465L936.892 528.452L920.273 514.921L901.252 530.407L898.866 528.465L898.882 528.452L882.262 514.92L863.24 530.407L860.854 528.465L860.871 528.452L844.25 514.92L825.228 530.407L822.843 528.465L822.859 528.452L806.239 514.92L787.217 530.407L784.831 528.465L784.847 528.452L768.228 514.921L749.207 530.407L746.821 528.465L746.837 528.452L730.217 514.92L711.195 530.407L708.81 528.465L708.826 528.452L692.205 514.92L673.183 530.407L670.798 528.465L670.814 528.452L654.195 514.921L635.174 530.407L632.788 528.465L632.804 528.452L616.184 514.92L597.162 530.407L594.776 528.465L594.792 528.452L578.172 514.92L559.15 530.407L556.765 528.465L556.781 528.452L540.16 514.92L521.138 530.407L518.753 528.465L518.769 528.452L502.15 514.921L483.129 530.407L480.743 528.465L480.759 528.452L464.139 514.92L445.117 530.407L442.731 528.465L442.748 528.452L426.127 514.92L407.105 530.407L404.72 528.465L404.736 528.452L388.116 514.921L369.095 530.407L366.71 528.465L366.726 528.452L350.106 514.92L331.084 530.407L328.698 528.465L328.714 528.452L312.094 514.92L293.072 530.407L290.686 528.465L290.703 528.452L274.083 514.921L255.062 530.407L252.677 528.465L252.693 528.452L236.073 514.92L217.051 530.407L214.665 528.465L214.681 528.452L197.949 514.829L178.814 530.407L176.429 528.465L176.445 528.452L159.6 514.738L140.353 530.407L137.968 528.465L137.984 528.452L119.002 512.998L121.388 511.055Z" fill="#FFFDF6"/>
<path fill-rule="evenodd" clip-rule="evenodd" d="M121.388 555.407L140.369 570.861L159.279 555.466L159.528 555.668L159.849 555.407L178.83 570.861L197.74 555.466L197.876 555.577L198.085 555.407L217.067 570.861L235.976 555.466L236 555.485L236.097 555.407L255.078 570.861L273.988 555.466L274.011 555.485L274.106 555.407L293.088 570.861L311.998 555.466L312.022 555.485L312.118 555.407L331.1 570.861L350.01 555.466L350.034 555.485L350.13 555.407L369.112 570.861L388.021 555.466L388.044 555.485L388.14 555.407L407.121 570.861L426.031 555.466L426.055 555.486L426.151 555.407L445.133 570.861L464.043 555.466L464.067 555.485L464.163 555.407L483.145 570.861L502.055 555.466L502.078 555.485L502.173 555.407L521.154 570.861L540.064 555.466L540.088 555.485L540.184 555.407L559.166 570.861L578.076 555.466L578.1 555.485L578.196 555.407L597.178 570.861L616.088 555.466L616.112 555.485L616.208 555.407L635.19 570.861L654.1 555.466L654.123 555.485L654.218 555.407L673.199 570.861L692.109 555.466L692.133 555.486L692.229 555.407L711.211 570.861L730.121 555.466L730.145 555.485L730.241 555.407L749.223 570.861L768.133 555.466L768.156 555.485L768.251 555.407L787.233 570.861L806.143 555.466L806.167 555.485L806.263 555.407L825.244 570.861L844.154 555.466L844.178 555.485L844.274 555.407L863.256 570.861L882.166 555.466L882.19 555.485L882.286 555.407L901.268 570.861L920.178 555.466L920.201 555.485L920.296 555.407L939.278 570.861L958.187 555.466L960.573 557.408L939.261 574.759L936.876 572.817L936.892 572.804L920.273 559.273L901.252 574.759L898.866 572.817L898.882 572.804L882.262 559.272L863.24 574.759L860.854 572.817L860.87 572.804L844.25 559.272L825.228 574.759L822.843 572.817L822.859 572.804L806.239 559.272L787.217 574.759L784.831 572.817L784.847 572.804L768.228 559.273L749.207 574.759L746.821 572.817L746.837 572.804L730.217 559.272L711.195 574.759L708.81 572.817L708.826 572.804L692.205 559.272L673.183 574.759L670.798 572.817L670.814 572.804L654.195 559.273L635.174 574.759L632.788 572.817L632.804 572.804L616.184 559.272L597.162 574.759L594.776 572.817L594.792 572.804L578.172 559.272L559.15 574.759L556.765 572.817L556.781 572.804L540.16 559.272L521.138 574.759L518.753 572.817L518.769 572.804L502.15 559.273L483.129 574.759L480.743 572.817L480.759 572.804L464.139 559.272L445.117 574.759L442.731 572.817L442.747 572.804L426.127 559.272L407.105 574.759L404.72 572.817L404.736 572.804L388.117 559.273L369.095 574.759L366.71 572.817L366.726 572.804L350.106 559.272L331.084 574.759L328.698 572.817L328.714 572.804L312.094 559.272L293.072 574.759L290.686 572.817L290.702 572.804L274.083 559.273L255.062 574.759L252.677 572.817L252.693 572.804L236.073 559.272L217.051 574.759L214.665 572.817L214.681 572.804L197.949 559.181L178.814 574.759L176.429 572.817L176.445 572.804L159.6 559.089L140.353 574.759L137.968 572.817L137.984 572.804L119.002 557.349L121.388 555.407Z" fill="#FFFDF6"/>
<path fill-rule="evenodd" clip-rule="evenodd" d="M121.388 599.759L140.369 615.213L159.279 599.818L159.528 600.02L159.849 599.759L178.83 615.213L197.74 599.818L197.876 599.929L198.085 599.759L217.067 615.213L235.976 599.818L236 599.837L236.097 599.759L255.078 615.213L273.988 599.818L274.011 599.836L274.106 599.759L293.088 615.213L311.998 599.818L312.022 599.837L312.118 599.759L331.1 615.213L350.01 599.818L350.034 599.837L350.13 599.759L369.112 615.213L388.021 599.818L388.044 599.836L388.14 599.759L407.121 615.213L426.031 599.818L426.055 599.837L426.151 599.759L445.133 615.213L464.043 599.818L464.067 599.837L464.163 599.759L483.145 615.213L502.055 599.818L502.078 599.836L502.173 599.759L521.155 615.213L540.064 599.818L540.088 599.837L540.184 599.759L559.166 615.213L578.076 599.818L578.1 599.837L578.196 599.759L597.178 615.213L616.088 599.818L616.112 599.837L616.208 599.759L635.19 615.213L654.1 599.818L654.123 599.836L654.218 599.759L673.199 615.213L692.109 599.818L692.133 599.837L692.229 599.759L711.211 615.213L730.121 599.818L730.145 599.837L730.241 599.759L749.223 615.213L768.133 599.818L768.156 599.836L768.251 599.759L787.233 615.213L806.143 599.818L806.167 599.837L806.263 599.759L825.244 615.213L844.154 599.818L844.178 599.837L844.274 599.759L863.256 615.213L882.166 599.818L882.19 599.837L882.286 599.759L901.268 615.213L920.178 599.818L920.201 599.836L920.296 599.759L939.278 615.213L958.187 599.818L960.573 601.76L939.261 619.111L936.876 617.168L936.892 617.155L920.273 603.625L901.252 619.111L898.866 617.168L898.882 617.155L882.262 603.624L863.24 619.111L860.854 617.168L860.87 617.155L844.25 603.624L825.228 619.111L822.843 617.168L822.859 617.155L806.239 603.624L787.217 619.111L784.831 617.168L784.847 617.155L768.228 603.625L749.207 619.111L746.821 617.168L746.837 617.155L730.217 603.624L711.195 619.111L708.81 617.168L708.826 617.155L692.205 603.624L673.183 619.111L670.798 617.168L670.814 617.155L654.195 603.625L635.174 619.111L632.788 617.168L632.804 617.155L616.184 603.624L597.162 619.111L594.776 617.168L594.792 617.155L578.172 603.624L559.15 619.111L556.765 617.168L556.781 617.155L540.16 603.624L521.138 619.111L518.753 617.168L518.769 617.155L502.15 603.625L483.129 619.111L480.743 617.168L480.759 617.155L464.139 603.624L445.117 619.111L442.731 617.168L442.748 617.155L426.127 603.624L407.105 619.111L404.72 617.168L404.736 617.155L388.116 603.625L369.095 619.111L366.71 617.168L366.726 617.155L350.106 603.624L331.084 619.111L328.698 617.168L328.714 617.155L312.094 603.624L293.072 619.111L290.686 617.168L290.702 617.155L274.083 603.625L255.062 619.111L252.677 617.168L252.693 617.155L236.073 603.624L217.051 619.111L214.665 617.168L214.681 617.155L197.949 603.532L178.814 619.111L176.429 617.168L176.445 617.155L159.6 603.441L140.353 619.111L137.968 617.168L137.984 617.155L119.002 601.701L121.388 599.759Z" fill="#FFFDF6"/>
<path fill-rule="evenodd" clip-rule="evenodd" d="M121.388 644.111L140.369 659.565L159.279 644.169L159.528 644.372L159.849 644.111L178.83 659.565L197.74 644.169L197.876 644.28L198.085 644.111L217.067 659.565L235.976 644.169L236 644.189L236.097 644.111L255.078 659.565L273.988 644.169L274.011 644.188L274.106 644.111L293.088 659.565L311.998 644.169L312.022 644.189L312.118 644.111L331.1 659.565L350.01 644.169L350.034 644.189L350.13 644.111L369.112 659.565L388.021 644.169L388.044 644.188L388.14 644.111L407.121 659.565L426.031 644.169L426.055 644.189L426.151 644.111L445.133 659.565L464.043 644.169L464.067 644.189L464.163 644.111L483.145 659.565L502.054 644.169L502.078 644.188L502.173 644.111L521.155 659.565L540.064 644.169L540.088 644.189L540.184 644.111L559.166 659.565L578.076 644.169L578.1 644.189L578.196 644.111L597.178 659.565L616.088 644.169L616.112 644.189L616.208 644.111L635.19 659.565L654.099 644.169L654.123 644.188L654.218 644.111L673.2 659.565L692.109 644.169L692.133 644.189L692.229 644.111L711.211 659.565L730.121 644.169L730.145 644.189L730.241 644.111L749.223 659.565L768.133 644.169L768.156 644.188L768.251 644.111L787.233 659.565L806.142 644.169L806.167 644.189L806.263 644.111L825.244 659.565L844.154 644.169L844.178 644.189L844.274 644.111L863.256 659.565L882.166 644.169L882.19 644.189L882.286 644.111L901.268 659.565L920.178 644.169L920.201 644.188L920.296 644.111L939.278 659.565L958.187 644.169L960.573 646.112L939.261 663.462L936.876 661.52L936.892 661.507L920.273 647.976L901.252 663.462L898.866 661.52L898.882 661.507L882.262 647.976L863.24 663.462L860.854 661.52L860.871 661.507L844.25 647.976L825.228 663.462L822.843 661.52L822.859 661.507L806.238 647.976L787.217 663.462L784.831 661.52L784.847 661.507L768.228 647.976L749.207 663.462L746.821 661.52L746.837 661.507L730.217 647.976L711.195 663.462L708.81 661.52L708.826 661.507L692.205 647.975L673.183 663.462L670.798 661.52L670.814 661.507L654.195 647.976L635.174 663.462L632.788 661.52L632.804 661.507L616.184 647.976L597.162 663.462L594.776 661.52L594.792 661.507L578.172 647.975L559.15 663.462L556.765 661.52L556.781 661.507L540.16 647.976L521.138 663.462L518.753 661.52L518.769 661.507L502.15 647.976L483.129 663.462L480.743 661.52L480.759 661.507L464.139 647.976L445.117 663.462L442.731 661.52L442.748 661.507L426.127 647.975L407.105 663.462L404.72 661.52L404.736 661.507L388.116 647.976L369.095 663.462L366.71 661.52L366.726 661.507L350.106 647.975L331.084 663.462L328.698 661.52L328.714 661.507L312.094 647.975L293.072 663.462L290.686 661.52L290.703 661.507L274.083 647.976L255.062 663.462L252.677 661.52L252.693 661.507L236.072 647.975L217.051 663.462L214.665 661.52L214.681 661.507L197.948 647.884L178.814 663.462L176.429 661.52L176.445 661.507L159.6 647.793L140.353 663.462L137.968 661.52L137.984 661.507L119.002 646.053L121.388 644.111Z" fill="#FFFDF6"/>
<g clip-path="url(#clip0_511_7535)">
<path d="M532.881 504.878C556.817 456.643 537.119 398.137 488.883 374.2C440.648 350.264 382.142 369.963 358.206 418.198C334.269 466.433 353.968 524.94 402.203 548.876C450.438 572.812 508.945 553.114 532.881 504.878Z" fill="#11756E"/>
<path d="M380.287 435.592L378.293 434.629L379.404 432.328C379.629 431.863 379.724 431.43 379.692 431.028C379.665 430.615 379.528 430.249 379.282 429.93C379.042 429.601 378.711 429.334 378.289 429.131C377.868 428.927 377.453 428.834 377.046 428.85C376.643 428.856 376.277 428.979 375.948 429.22C375.613 429.444 375.333 429.789 375.109 430.254L373.997 432.555L372.004 431.593L373.021 429.486C373.501 428.491 374.07 427.727 374.728 427.192C375.391 426.646 376.114 426.335 376.897 426.26C377.669 426.18 378.465 426.338 379.287 426.734L379.546 426.859C380.367 427.256 380.992 427.784 381.419 428.444C381.836 429.098 382.043 429.857 382.039 430.721C382.029 431.569 381.784 432.491 381.304 433.485L380.287 435.592ZM382.963 439.323L371.049 433.57L372.16 431.269L384.074 437.021L382.963 439.323Z" fill="#FFFDF6"/>
<path d="M391.779 422.78L381.825 414.202L383.494 412.266L393.448 420.844L391.779 422.78ZM393.213 421.116L391.508 419.648L395.21 415.352L396.914 416.821L393.213 421.116Z" fill="#FFFDF6"/>
<path d="M401.559 411.264L398.28 397.774L401.802 395.53L412.748 404.137L410.531 405.549L401.116 398.037L402.103 397.878L400.205 399.087L400.782 398.25L403.715 409.891L401.559 411.264ZM402.325 406.636L401.847 404.379L406.341 401.517L408.17 402.913L402.325 406.636Z" fill="#FFFDF6"/>
<path d="M421.876 399.219L419.084 386.379L423.183 385.488L430.923 395.078L431.504 394.952L431.221 395.345L428.811 384.264L431.168 383.751L433.96 396.591L429.844 397.486L422.104 387.896L421.506 388.026L421.789 387.633L424.198 398.714L421.876 399.219Z" fill="#FFFDF6"/>
<path d="M448.699 395.404L449.908 384.22L452.449 384.494L451.24 395.679L448.699 395.404ZM446.093 384.169L446.335 381.932L456.428 383.023L456.186 385.26L446.093 384.169Z" fill="#FFFDF6"/>
<path d="M467.07 399.428C465.988 398.998 465.143 398.462 464.533 397.819C463.935 397.18 463.56 396.483 463.41 395.725C463.263 394.957 463.343 394.188 463.649 393.418L465.974 394.343C465.845 394.667 465.808 395.02 465.862 395.403C465.921 395.775 466.108 396.133 466.423 396.478C466.749 396.827 467.235 397.131 467.882 397.388C468.461 397.619 468.98 397.728 469.437 397.716C469.893 397.704 470.27 397.602 470.566 397.41C470.866 397.206 471.085 396.932 471.223 396.586C471.396 396.151 471.349 395.732 471.083 395.33C470.822 394.916 470.32 394.522 469.577 394.149L468.54 393.64C467.409 393.074 466.616 392.339 466.162 391.435C465.724 390.524 465.711 389.551 466.123 388.514C466.434 387.733 466.884 387.137 467.474 386.726C468.068 386.304 468.754 386.073 469.531 386.034C470.324 385.988 471.167 386.142 472.059 386.497C472.985 386.865 473.717 387.344 474.258 387.933C474.798 388.523 475.135 389.186 475.268 389.923C475.405 390.65 475.316 391.409 475.001 392.2L472.677 391.275C472.81 390.941 472.848 390.601 472.792 390.256C472.751 389.904 472.602 389.58 472.345 389.284C472.104 388.981 471.738 388.732 471.247 388.537C470.779 388.351 470.358 388.274 469.983 388.306C469.609 388.338 469.291 388.456 469.028 388.662C468.766 388.867 468.572 389.126 468.448 389.438C468.297 389.817 468.304 390.207 468.467 390.608C468.635 390.998 469.011 391.335 469.595 391.619L470.626 392.145C471.469 392.558 472.16 393.046 472.698 393.608C473.236 394.171 473.581 394.78 473.734 395.435C473.898 396.094 473.836 396.786 473.547 397.511C473.241 398.28 472.77 398.881 472.134 399.312C471.502 399.732 470.748 399.955 469.872 399.981C469.007 400.012 468.073 399.828 467.07 399.428Z" fill="#FFFDF6"/>
<path d="M489.988 411.694L502.965 406.761L505.63 409.976L498.452 421.909L496.775 419.885L503.056 409.607L503.337 410.567L501.901 408.835L502.804 409.303L491.619 413.662L489.988 411.694ZM494.675 411.878L496.855 411.123L500.254 415.225L499.097 417.214L494.675 411.878Z" fill="#FFFDF6"/>
<path d="M504.237 430.289L516.584 425.535L517.502 427.92L505.156 432.674L504.237 430.289ZM507.122 437.78L511.015 431.961L512.043 434.632L508.195 440.569L507.122 437.78ZM508.983 430.39L510.914 429.646L512.117 432.771C512.286 433.208 512.52 433.548 512.82 433.793C513.124 434.049 513.473 434.204 513.866 434.258C514.26 434.312 514.664 434.259 515.079 434.1C515.504 433.936 515.845 433.702 516.101 433.398C516.356 433.093 516.511 432.744 516.565 432.351C516.624 431.968 516.569 431.558 516.401 431.122L515.198 427.997L517.23 427.215L518.336 430.087C518.716 431.073 518.898 431.98 518.883 432.809C518.872 433.649 518.645 434.379 518.202 434.999C517.76 435.62 517.091 436.103 516.195 436.447L515.926 436.551C515.019 436.9 514.197 436.985 513.459 436.806C512.726 436.639 512.076 436.252 511.508 435.648C510.941 435.043 510.468 434.248 510.089 433.263L508.983 430.39Z" fill="#FFFDF6"/>
<path d="M510.805 449.708L523.898 448.607L524.108 451.1L511.014 452.201L510.805 449.708ZM510.984 451.842L513.136 451.661L513.636 457.598L511.483 457.779L510.984 451.842ZM516.562 451.373L518.715 451.192L519.175 456.663L517.023 456.844L516.562 451.373ZM521.925 450.922L524.078 450.741L524.565 456.535L522.413 456.716L521.925 450.922Z" fill="#FFFDF6"/>
<path d="M509.483 478.96L521.802 483.533L520.913 485.929L508.594 481.357L509.483 478.96ZM513.849 482.923L515.874 483.675L514.062 488.609L512.037 487.857L513.849 482.923ZM519.013 484.84L521.038 485.591L519.121 490.755L517.096 490.003L519.013 484.84Z" fill="#FFFDF6"/>
<path d="M503.636 494.142L514.323 501.941L512.816 504.005L502.129 496.207L503.636 494.142ZM498.903 500.627L505.904 500.744L504.217 503.056L497.142 503.04L498.903 500.627ZM506.123 498.185L507.795 499.405L505.821 502.11C505.545 502.488 505.386 502.869 505.343 503.253C505.293 503.648 505.352 504.025 505.52 504.385C505.688 504.745 505.951 505.056 506.309 505.318C506.678 505.587 507.059 505.746 507.453 505.796C507.848 505.847 508.225 505.788 508.585 505.62C508.938 505.461 509.253 505.193 509.529 504.815L511.502 502.111L513.262 503.395L511.447 505.881C510.825 506.734 510.161 507.379 509.456 507.815C508.745 508.261 508.008 508.467 507.247 508.431C506.485 508.395 505.717 508.095 504.942 507.529L504.709 507.359C503.924 506.786 503.406 506.141 503.157 505.424C502.901 504.717 502.873 503.961 503.073 503.157C503.274 502.353 503.686 501.524 504.308 500.671L506.123 498.185Z" fill="#FFFDF6"/>
<path d="M490.708 509.772L499.292 519.72L497.357 521.39L488.773 511.441L490.708 509.772Z" fill="#FFFDF6"/>
<path d="M483.429 515.983L489.855 527.445L487.672 528.668L481.246 517.207L483.429 515.983ZM481.56 517.031L482.617 518.915L477.42 521.828L476.363 519.944L481.56 517.031ZM484.298 521.913L485.354 523.798L480.566 526.482L479.509 524.598L484.298 521.913ZM486.93 526.608L487.986 528.492L482.915 531.335L481.859 529.451L486.93 526.608Z" fill="#FFFDF6"/>
<path d="M468.129 524.364L470.687 537.253L466.574 538.069L459.009 528.34L458.426 528.456L458.716 528.068L460.924 539.191L458.558 539.661L456 526.772L460.131 525.952L467.696 535.681L468.296 535.562L468.006 535.95L465.798 524.827L468.129 524.364Z" fill="#FFFDF6"/>
<path d="M441.418 527.707L441.03 530.051L438.348 529.607C437.674 529.495 437.059 529.496 436.505 529.611C435.937 529.736 435.438 529.958 435.008 530.276C434.579 530.594 434.227 530.992 433.953 531.47C433.666 531.957 433.47 532.515 433.366 533.142C433.258 533.793 433.263 534.39 433.38 534.932C433.483 535.485 433.687 535.975 433.994 536.402C434.3 536.83 434.704 537.183 435.205 537.461C435.695 537.736 436.277 537.93 436.952 538.042L439.633 538.486L439.245 540.83L436.723 540.412C435.551 540.218 434.556 539.877 433.736 539.389C432.917 538.9 432.268 538.306 431.787 537.606C431.305 536.918 430.986 536.166 430.829 535.349C430.659 534.543 430.641 533.731 430.776 532.914L430.841 532.523C430.97 531.742 431.246 530.997 431.667 530.288C432.077 529.578 432.623 528.963 433.305 528.443C433.987 527.923 434.796 527.553 435.733 527.331C436.67 527.109 437.724 527.095 438.896 527.289L441.418 527.707ZM443.585 528.065L441.411 541.189L438.89 540.771L441.063 527.648L443.585 528.065Z" fill="#FFFDF6"/>
<path d="M417.916 521.188C418.949 521.724 419.737 522.341 420.28 523.042C420.812 523.736 421.115 524.468 421.19 525.236C421.259 526.016 421.103 526.773 420.723 527.508L418.501 526.357C418.661 526.048 418.733 525.7 418.717 525.313C418.696 524.937 418.546 524.562 418.267 524.188C417.977 523.808 417.523 523.458 416.905 523.138C416.351 522.851 415.846 522.69 415.391 522.657C414.935 522.624 414.55 522.688 414.237 522.85C413.917 523.022 413.672 523.274 413.501 523.604C413.286 524.019 413.29 524.441 413.515 524.868C413.734 525.306 414.195 525.747 414.897 526.192L415.878 526.802C416.947 527.478 417.663 528.288 418.025 529.232C418.371 530.182 418.287 531.152 417.773 532.143C417.387 532.889 416.88 533.437 416.252 533.787C415.619 534.149 414.914 534.31 414.136 534.272C413.342 534.239 412.519 534.002 411.667 533.56C410.782 533.102 410.101 532.553 409.621 531.912C409.142 531.272 408.873 530.579 408.814 529.832C408.75 529.096 408.913 528.349 409.305 527.593L411.527 528.744C411.361 529.064 411.289 529.398 411.311 529.747C411.317 530.101 411.433 530.439 411.659 530.758C411.869 531.084 412.208 531.367 412.677 531.61C413.124 531.842 413.536 531.961 413.912 531.966C414.287 531.972 414.616 531.885 414.898 531.707C415.179 531.528 415.397 531.29 415.552 530.992C415.74 530.63 415.772 530.241 415.649 529.826C415.521 529.421 415.18 529.049 414.627 528.708L413.654 528.082C412.856 527.588 412.217 527.034 411.738 526.42C411.258 525.807 410.975 525.167 410.888 524.5C410.79 523.828 410.921 523.145 411.28 522.453C411.661 521.718 412.189 521.167 412.865 520.801C413.536 520.446 414.308 520.299 415.182 520.36C416.046 520.415 416.957 520.691 417.916 521.188Z" fill="#FFFDF6"/>
<path d="M396.316 506.688L382.907 510.286L380.581 506.819L388.925 495.671L390.389 497.854L383.103 507.445L382.921 506.462L384.174 508.331L383.324 507.774L394.892 504.565L396.316 506.688ZM391.671 506.032L389.426 506.563L386.458 502.139L387.81 500.277L391.671 506.032Z" fill="#FFFDF6"/>
<path d="M383.962 486.727L371.193 490.19L370.524 487.724L383.293 484.261L383.962 486.727ZM381.861 478.979L377.392 484.369L376.643 481.607L381.079 476.095L381.861 478.979ZM379.252 486.14L377.254 486.682L376.378 483.45C376.255 482.999 376.057 482.636 375.784 482.362C375.508 482.076 375.177 481.886 374.79 481.792C374.404 481.698 373.997 481.709 373.568 481.825C373.128 481.944 372.766 482.142 372.48 482.419C372.194 482.695 372.004 483.026 371.91 483.412C371.813 483.787 371.825 484.2 371.948 484.652L372.824 487.883L370.722 488.453L369.917 485.482C369.64 484.463 369.552 483.542 369.652 482.719C369.749 481.885 370.049 481.182 370.553 480.61C371.057 480.038 371.772 479.627 372.699 479.375L372.977 479.3C373.915 479.045 374.742 479.045 375.457 479.299C376.169 479.541 376.776 479.991 377.279 480.651C377.781 481.311 378.17 482.15 378.446 483.169L379.252 486.14Z" fill="#FFFDF6"/>
<path d="M379.41 466.755L366.272 466.527L366.315 464.026L379.453 464.253L379.41 466.755ZM379.447 464.613L377.288 464.576L377.391 458.619L379.55 458.656L379.447 464.613ZM373.85 464.516L371.69 464.479L371.785 458.99L373.945 459.027L373.85 464.516ZM368.469 464.423L366.309 464.386L366.41 458.573L368.57 458.61L368.469 464.423Z" fill="#FFFDF6"/>
<path d="M374.398 449.341C375.183 449.077 375.606 448.226 375.341 447.441C375.077 446.656 374.226 446.234 373.441 446.498C372.656 446.762 372.234 447.613 372.498 448.398C372.762 449.183 373.613 449.606 374.398 449.341Z" fill="#FFFDF6"/>
<path d="M401.398 519.341C402.183 519.077 402.606 518.226 402.341 517.441C402.077 516.656 401.226 516.234 400.441 516.498C399.656 516.762 399.234 517.613 399.498 518.398C399.763 519.183 400.613 519.606 401.398 519.341Z" fill="#FFFDF6"/>
<path d="M517.398 471.341C518.184 471.077 518.606 470.226 518.341 469.441C518.077 468.656 517.226 468.234 516.441 468.498C515.656 468.762 515.234 469.613 515.498 470.398C515.762 471.183 516.613 471.606 517.398 471.341Z" fill="#FFFDF6"/>
<path d="M486.398 403.341C487.184 403.077 487.606 402.226 487.341 401.441C487.077 400.656 486.226 400.234 485.441 400.498C484.656 400.762 484.234 401.613 484.498 402.398C484.762 403.183 485.613 403.606 486.398 403.341Z" fill="#FFFDF6"/>
<path d="M454.281 480.652C449.079 483.03 443.146 483.244 437.786 481.247C432.426 479.25 428.079 475.206 425.701 470.004C423.323 464.803 423.109 458.869 425.106 453.509C427.103 448.15 431.147 443.803 436.349 441.425C441.551 439.047 447.484 438.832 452.844 440.829C458.204 442.826 462.551 446.87 464.929 452.072C467.307 457.274 467.521 463.207 465.524 468.567C463.527 473.927 459.483 478.274 454.281 480.652ZM455.562 483.454C461.507 480.736 466.129 475.768 468.411 469.643C470.693 463.517 470.448 456.736 467.731 450.791C465.013 444.846 460.045 440.224 453.92 437.942C447.794 435.66 441.013 435.905 435.068 438.623C429.123 441.34 424.501 446.308 422.219 452.434C419.937 458.559 420.182 465.34 422.899 471.285C425.617 477.23 430.585 481.852 436.711 484.134C442.836 486.416 449.617 486.172 455.562 483.454Z" fill="#FFFDF6"/>
<path d="M457.184 462.435C457.421 462.251 457.707 462.14 458.007 462.117C458.306 462.093 458.606 462.157 458.869 462.302C459.133 462.446 459.348 462.665 459.489 462.93C459.63 463.196 459.69 463.496 459.662 463.796C459.432 466.219 458.568 468.539 457.156 470.522C455.745 472.505 453.836 474.082 451.622 475.093C449.408 476.106 446.967 476.518 444.544 476.288C442.121 476.058 439.801 475.193 437.818 473.781C437.573 473.607 437.385 473.364 437.277 473.084C437.168 472.804 437.144 472.498 437.207 472.205C437.27 471.911 437.417 471.642 437.631 471.431C437.845 471.22 438.116 471.076 438.411 471.017L438.425 471.011L438.479 471.003L438.686 470.959L439.462 470.791C440.123 470.644 441.043 470.433 442.08 470.166C444.18 469.626 446.654 468.895 448.42 468.088C450.185 467.281 452.359 465.887 454.139 464.653C455.094 463.991 456.034 463.308 456.96 462.605L457.128 462.477L457.171 462.444L457.182 462.432L457.184 462.435ZM431.827 455.571C432.141 450.604 442.938 450.086 438.893 463.974C424.251 465.261 426.804 454.941 431.827 455.571ZM450.006 447.261C452.817 443.05 462.291 447.872 451.738 458.102C438.592 452.073 446.047 444.247 450.006 447.261Z" fill="#FFFDF6"/>
</g>
<circle cx="640.5" cy="624.5" r="97.5" fill="#11756E"/>
<rect x="586.797" y="562" width="130.725" height="99.1488" rx="5" transform="rotate(12.7 586.797 562)" fill="#FFFDF6"/>
<path d="M612.46 596.689L613.028 594.169L615.937 594.825C616.525 594.957 617.043 594.952 617.491 594.809C617.953 594.669 618.333 594.417 618.63 594.054C618.941 593.693 619.156 593.247 619.276 592.714C619.396 592.181 619.393 591.686 619.267 591.227C619.155 590.771 618.918 590.387 618.558 590.077C618.214 589.755 617.748 589.528 617.161 589.396L614.252 588.74L614.82 586.22L617.483 586.821C618.74 587.104 619.759 587.549 620.541 588.156C621.336 588.765 621.88 589.505 622.172 590.374C622.467 591.23 622.497 592.177 622.263 593.215L622.189 593.543C621.955 594.581 621.52 595.43 620.883 596.09C620.25 596.737 619.441 597.171 618.458 597.395C617.492 597.607 616.38 597.572 615.124 597.289L612.46 596.689ZM608.927 600.714L612.321 585.657L615.23 586.313L611.836 601.37L608.927 600.714ZM622.411 603.754L625.782 588.799L628.691 589.454L625.32 604.409L622.411 603.754ZM624.91 604.317L625.487 601.756L631.94 603.211L631.363 605.771L624.91 604.317ZM632.419 606.01L640.891 592.205L645.644 593.276L647.517 609.413L644.526 608.739L643.004 594.769L643.947 595.455L641.386 594.878L642.553 594.667L635.328 606.665L632.419 606.01ZM636.88 602.839L638.356 600.588L644.419 601.955L644.767 604.617L636.88 602.839ZM649.739 609.913L653.11 594.959L657.883 596.035L661.346 609.99L662.022 610.142L661.529 610.418L664.438 597.512L667.184 598.131L663.813 613.086L659.019 612.005L655.556 598.05L654.859 597.893L655.352 597.617L652.443 610.523L649.739 609.913ZM670.454 614.583L673.34 601.779L676.249 602.435L673.363 615.239L670.454 614.583ZM668.925 601.215L669.502 598.654L681.056 601.258L680.479 603.819L668.925 601.215ZM611.686 626.046L612.212 623.71L615.961 624.555C616.644 624.709 617.205 624.642 617.643 624.353C618.084 624.051 618.379 623.572 618.526 622.916C618.674 622.261 618.61 621.716 618.335 621.28C618.063 620.832 617.586 620.53 616.903 620.376L613.154 619.531L613.556 617.749L617.1 618.548C618.097 618.773 618.957 619.096 619.68 619.517C620.42 619.928 620.945 620.462 621.256 621.121C621.581 621.782 621.637 622.584 621.424 623.527L621.359 623.813C621.159 624.701 620.79 625.414 620.253 625.953C619.732 626.482 619.044 626.829 618.188 626.995C617.35 627.15 616.363 627.1 615.23 626.845L611.686 626.046ZM609.248 625.496L612.665 610.337L615.513 610.979L612.096 626.138L609.248 625.496ZM613.26 619.06L613.662 617.278L616.858 617.998C617.555 618.155 618.108 618.086 618.519 617.791C618.93 617.497 619.205 617.042 619.343 616.427C619.482 615.813 619.429 615.284 619.184 614.841C618.939 614.399 618.469 614.099 617.772 613.942L614.576 613.222L615.103 610.886L618.032 611.547C619.726 611.928 620.93 612.573 621.644 613.48C622.371 614.39 622.586 615.508 622.287 616.832L622.223 617.119C622.013 618.048 621.62 618.742 621.043 619.2C620.483 619.648 619.786 619.907 618.952 619.977C618.121 620.034 617.201 619.948 616.19 619.72L613.26 619.06ZM629.394 630.339C628.001 630.025 626.886 629.494 626.05 628.746C625.214 627.997 624.651 627.088 624.362 626.018C624.088 624.938 624.098 623.749 624.391 622.452L626.399 613.54L629.308 614.196L627.263 623.271C627.103 623.981 627.098 624.64 627.248 625.248C627.401 625.842 627.703 626.348 628.154 626.766C628.622 627.173 629.238 627.462 630.003 627.635C630.754 627.804 631.422 627.804 632.005 627.634C632.606 627.453 633.096 627.126 633.475 626.652C633.869 626.181 634.147 625.583 634.31 624.86L636.356 615.784L639.265 616.44L637.256 625.351C636.963 626.649 636.462 627.727 635.752 628.586C635.058 629.434 634.173 630.017 633.097 630.334C632.021 630.651 630.787 630.653 629.394 630.339ZM641.781 632.808L642.39 630.104L645.484 630.801C646.262 630.977 646.978 631.016 647.631 630.919C648.301 630.812 648.897 630.587 649.419 630.246C649.941 629.904 650.377 629.464 650.728 628.926C651.096 628.378 651.361 627.742 651.524 627.018C651.694 626.267 651.728 625.571 651.629 624.932C651.546 624.281 651.34 623.697 651.012 623.178C650.684 622.659 650.238 622.221 649.672 621.864C649.121 621.51 648.456 621.246 647.677 621.07L644.584 620.373L645.193 617.669L648.102 618.324C649.454 618.629 650.591 619.094 651.512 619.717C652.434 620.341 653.151 621.077 653.663 621.924C654.178 622.758 654.499 623.656 654.627 624.617C654.772 625.568 654.738 626.515 654.525 627.457L654.424 627.908C654.22 628.809 653.85 629.659 653.311 630.456C652.786 631.256 652.109 631.936 651.28 632.495C650.451 633.054 649.483 633.432 648.377 633.627C647.271 633.823 646.042 633.768 644.69 633.464L641.781 632.808ZM639.281 632.245L642.694 617.105L645.603 617.761L642.19 632.9L639.281 632.245ZM660.318 637.309C658.993 637.011 657.921 636.547 657.101 635.917C656.295 635.29 655.736 634.554 655.425 633.709C655.116 632.85 655.068 631.95 655.28 631.007L658.128 631.649C658.039 632.045 658.06 632.459 658.192 632.891C658.328 633.309 658.608 633.688 659.034 634.028C659.473 634.371 660.089 634.631 660.881 634.81C661.591 634.97 662.209 635.002 662.733 634.904C663.257 634.807 663.672 634.621 663.978 634.346C664.287 634.057 664.49 633.7 664.585 633.277C664.705 632.744 664.575 632.27 664.195 631.854C663.818 631.425 663.168 631.063 662.244 630.769L660.956 630.371C659.55 629.925 658.503 629.222 657.815 628.263C657.143 627.294 656.951 626.174 657.237 624.904C657.453 623.948 657.863 623.18 658.467 622.598C659.075 622.003 659.823 621.612 660.712 621.425C661.618 621.228 662.617 621.252 663.71 621.498C664.843 621.754 665.775 622.172 666.505 622.753C667.235 623.333 667.744 624.036 668.032 624.862C668.322 625.674 668.358 626.564 668.14 627.534L665.292 626.892C665.385 626.482 665.367 626.084 665.239 625.696C665.128 625.298 664.897 624.952 664.547 624.658C664.214 624.353 663.747 624.133 663.146 623.997C662.573 623.868 662.073 623.856 661.648 623.961C661.222 624.066 660.877 624.261 660.612 624.545C660.347 624.83 660.171 625.164 660.085 625.546C659.98 626.01 660.058 626.459 660.32 626.891C660.584 627.309 661.079 627.629 661.804 627.85L663.088 628.268C664.135 628.59 665.019 629.026 665.742 629.577C666.465 630.127 666.974 630.766 667.269 631.492C667.578 632.222 667.633 633.031 667.433 633.919C667.22 634.861 666.786 635.639 666.132 636.252C665.48 636.851 664.652 637.246 663.648 637.436C662.657 637.628 661.547 637.586 660.318 637.309ZM604.251 649.273C602.857 648.959 601.743 648.428 600.907 647.68C600.071 646.932 599.508 646.023 599.218 644.953C598.945 643.873 598.955 642.684 599.247 641.386L601.256 632.475L604.165 633.13L602.119 642.206C601.959 642.916 601.954 643.575 602.104 644.183C602.257 644.777 602.56 645.283 603.011 645.7C603.479 646.107 604.095 646.397 604.86 646.569C605.611 646.739 606.279 646.738 606.862 646.568C607.463 646.388 607.953 646.061 608.332 645.587C608.725 645.116 609.003 644.518 609.167 643.794L611.212 634.719L614.121 635.375L612.113 644.286C611.82 645.584 611.319 646.662 610.609 647.521C609.915 648.369 609.03 648.952 607.954 649.269C606.878 649.586 605.644 649.587 604.251 649.273ZM614.157 651.097L617.528 636.142L622.301 637.218L625.764 651.174L626.44 651.326L625.947 651.602L628.856 638.696L631.601 639.315L628.231 654.27L623.437 653.189L619.974 639.234L619.277 639.077L619.77 638.801L616.861 651.707L614.157 651.097ZM631.963 655.111L635.334 640.156L638.243 640.812L634.872 655.767L631.963 655.111ZM641.554 657.273L644.44 644.469L647.349 645.125L644.463 657.929L641.554 657.273ZM640.025 643.904L640.602 641.344L652.156 643.948L651.579 646.509L640.025 643.904ZM651.107 659.426L654.478 644.472L657.326 645.113L653.955 660.068L651.107 659.426ZM653.545 659.976L654.099 657.518L660.88 659.046L660.326 661.504L653.545 659.976ZM654.981 653.605L655.536 651.146L661.784 652.555L661.23 655.013L654.981 653.605ZM656.362 647.479L656.916 645.021L663.533 646.513L662.979 648.971L656.362 647.479ZM664.283 657.294L666.559 647.195L669.468 647.85L667.192 657.95L664.283 657.294ZM662.963 662.099L663.646 659.067L667.006 659.824L666.323 662.856L662.963 662.099Z" fill="#EE8888"/>
<path d="M638.835 695.966L659.94 671.666L667.52 681.368L638.835 695.966Z" fill="#FFFDF6"/>
<defs>
<clipPath id="clip0_511_7535">
<rect width="195.04" height="195.04" fill="white" transform="translate(322 400.234) rotate(-18.6076)"/>
</clipPath>
</defs>
</svg>
