<svg width="1085" height="1085" viewBox="0 0 1085 1085" fill="none" xmlns="http://www.w3.org/2000/svg">
<rect width="1085" height="1085" fill="white"/>
<rect y="271" width="1085" height="271.25" fill="black"/>
<path d="M48.8145 506L52.6836 486.094H54.6523L50.7695 506H48.8145ZM54.3789 506L58.2617 486.094H60.2168L56.334 506H54.3789ZM61.8848 493.682H47.666V491.781H61.8848V493.682ZM60.8594 500.395H46.627V498.508H60.8594V500.395ZM76.4043 494.461V497.496C76.4043 499.128 76.2585 500.504 75.9668 501.625C75.6751 502.746 75.2559 503.648 74.709 504.332C74.1621 505.016 73.5013 505.512 72.7266 505.822C71.9609 506.123 71.0951 506.273 70.1289 506.273C69.3633 506.273 68.6569 506.178 68.0098 505.986C67.3626 505.795 66.7793 505.49 66.2598 505.07C65.7493 504.642 65.3118 504.086 64.9473 503.402C64.5827 502.719 64.3047 501.889 64.1133 500.914C63.9219 499.939 63.8262 498.799 63.8262 497.496V494.461C63.8262 492.829 63.972 491.462 64.2637 490.359C64.5645 489.257 64.9883 488.372 65.5352 487.707C66.082 487.033 66.7383 486.549 67.5039 486.258C68.2786 485.966 69.1445 485.82 70.1016 485.82C70.8763 485.82 71.5872 485.916 72.2344 486.107C72.8906 486.29 73.474 486.586 73.9844 486.996C74.4948 487.397 74.9277 487.935 75.2832 488.609C75.6478 489.275 75.9258 490.09 76.1172 491.057C76.3086 492.023 76.4043 493.158 76.4043 494.461ZM73.8613 497.906V494.037C73.8613 493.144 73.8066 492.36 73.6973 491.686C73.597 491.002 73.4466 490.419 73.2461 489.936C73.0456 489.452 72.7904 489.061 72.4805 488.76C72.1797 488.459 71.8288 488.24 71.4277 488.104C71.0358 487.958 70.5938 487.885 70.1016 487.885C69.5 487.885 68.9668 487.999 68.502 488.227C68.0371 488.445 67.6452 488.796 67.3262 489.279C67.0163 489.762 66.7793 490.396 66.6152 491.18C66.4512 491.964 66.3691 492.916 66.3691 494.037V497.906C66.3691 498.799 66.4193 499.588 66.5195 500.271C66.6289 500.955 66.7884 501.548 66.998 502.049C67.2077 502.541 67.4629 502.947 67.7637 503.266C68.0645 503.585 68.4108 503.822 68.8027 503.977C69.2038 504.122 69.6458 504.195 70.1289 504.195C70.7487 504.195 71.291 504.077 71.7559 503.84C72.2207 503.603 72.6081 503.234 72.918 502.732C73.237 502.222 73.474 501.57 73.6289 500.777C73.7839 499.975 73.8613 499.018 73.8613 497.906ZM92.1543 494.461V497.496C92.1543 499.128 92.0085 500.504 91.7168 501.625C91.4251 502.746 91.0059 503.648 90.459 504.332C89.9121 505.016 89.2513 505.512 88.4766 505.822C87.7109 506.123 86.8451 506.273 85.8789 506.273C85.1133 506.273 84.4069 506.178 83.7598 505.986C83.1126 505.795 82.5293 505.49 82.0098 505.07C81.4993 504.642 81.0618 504.086 80.6973 503.402C80.3327 502.719 80.0547 501.889 79.8633 500.914C79.6719 499.939 79.5762 498.799 79.5762 497.496V494.461C79.5762 492.829 79.722 491.462 80.0137 490.359C80.3145 489.257 80.7383 488.372 81.2852 487.707C81.832 487.033 82.4883 486.549 83.2539 486.258C84.0286 485.966 84.8945 485.82 85.8516 485.82C86.6263 485.82 87.3372 485.916 87.9844 486.107C88.6406 486.29 89.224 486.586 89.7344 486.996C90.2448 487.397 90.6777 487.935 91.0332 488.609C91.3978 489.275 91.6758 490.09 91.8672 491.057C92.0586 492.023 92.1543 493.158 92.1543 494.461ZM89.6113 497.906V494.037C89.6113 493.144 89.5566 492.36 89.4473 491.686C89.347 491.002 89.1966 490.419 88.9961 489.936C88.7956 489.452 88.5404 489.061 88.2305 488.76C87.9297 488.459 87.5788 488.24 87.1777 488.104C86.7858 487.958 86.3438 487.885 85.8516 487.885C85.25 487.885 84.7168 487.999 84.252 488.227C83.7871 488.445 83.3952 488.796 83.0762 489.279C82.7663 489.762 82.5293 490.396 82.3652 491.18C82.2012 491.964 82.1191 492.916 82.1191 494.037V497.906C82.1191 498.799 82.1693 499.588 82.2695 500.271C82.3789 500.955 82.5384 501.548 82.748 502.049C82.9577 502.541 83.2129 502.947 83.5137 503.266C83.8145 503.585 84.1608 503.822 84.5527 503.977C84.9538 504.122 85.3958 504.195 85.8789 504.195C86.4987 504.195 87.041 504.077 87.5059 503.84C87.9707 503.603 88.3581 503.234 88.668 502.732C88.987 502.222 89.224 501.57 89.3789 500.777C89.5339 499.975 89.6113 499.018 89.6113 497.906ZM107.904 494.461V497.496C107.904 499.128 107.758 500.504 107.467 501.625C107.175 502.746 106.756 503.648 106.209 504.332C105.662 505.016 105.001 505.512 104.227 505.822C103.461 506.123 102.595 506.273 101.629 506.273C100.863 506.273 100.157 506.178 99.5098 505.986C98.8626 505.795 98.2793 505.49 97.7598 505.07C97.2493 504.642 96.8118 504.086 96.4473 503.402C96.0827 502.719 95.8047 501.889 95.6133 500.914C95.4219 499.939 95.3262 498.799 95.3262 497.496V494.461C95.3262 492.829 95.472 491.462 95.7637 490.359C96.0645 489.257 96.4883 488.372 97.0352 487.707C97.582 487.033 98.2383 486.549 99.0039 486.258C99.7786 485.966 100.645 485.82 101.602 485.82C102.376 485.82 103.087 485.916 103.734 486.107C104.391 486.29 104.974 486.586 105.484 486.996C105.995 487.397 106.428 487.935 106.783 488.609C107.148 489.275 107.426 490.09 107.617 491.057C107.809 492.023 107.904 493.158 107.904 494.461ZM105.361 497.906V494.037C105.361 493.144 105.307 492.36 105.197 491.686C105.097 491.002 104.947 490.419 104.746 489.936C104.546 489.452 104.29 489.061 103.98 488.76C103.68 488.459 103.329 488.24 102.928 488.104C102.536 487.958 102.094 487.885 101.602 487.885C101 487.885 100.467 487.999 100.002 488.227C99.5371 488.445 99.1452 488.796 98.8262 489.279C98.5163 489.762 98.2793 490.396 98.1152 491.18C97.9512 491.964 97.8691 492.916 97.8691 494.037V497.906C97.8691 498.799 97.9193 499.588 98.0195 500.271C98.1289 500.955 98.2884 501.548 98.498 502.049C98.7077 502.541 98.9629 502.947 99.2637 503.266C99.5645 503.585 99.9108 503.822 100.303 503.977C100.704 504.122 101.146 504.195 101.629 504.195C102.249 504.195 102.791 504.077 103.256 503.84C103.721 503.603 104.108 503.234 104.418 502.732C104.737 502.222 104.974 501.57 105.129 500.777C105.284 499.975 105.361 499.018 105.361 497.906ZM123.654 494.461V497.496C123.654 499.128 123.508 500.504 123.217 501.625C122.925 502.746 122.506 503.648 121.959 504.332C121.412 505.016 120.751 505.512 119.977 505.822C119.211 506.123 118.345 506.273 117.379 506.273C116.613 506.273 115.907 506.178 115.26 505.986C114.613 505.795 114.029 505.49 113.51 505.07C112.999 504.642 112.562 504.086 112.197 503.402C111.833 502.719 111.555 501.889 111.363 500.914C111.172 499.939 111.076 498.799 111.076 497.496V494.461C111.076 492.829 111.222 491.462 111.514 490.359C111.814 489.257 112.238 488.372 112.785 487.707C113.332 487.033 113.988 486.549 114.754 486.258C115.529 485.966 116.395 485.82 117.352 485.82C118.126 485.82 118.837 485.916 119.484 486.107C120.141 486.29 120.724 486.586 121.234 486.996C121.745 487.397 122.178 487.935 122.533 488.609C122.898 489.275 123.176 490.09 123.367 491.057C123.559 492.023 123.654 493.158 123.654 494.461ZM121.111 497.906V494.037C121.111 493.144 121.057 492.36 120.947 491.686C120.847 491.002 120.697 490.419 120.496 489.936C120.296 489.452 120.04 489.061 119.73 488.76C119.43 488.459 119.079 488.24 118.678 488.104C118.286 487.958 117.844 487.885 117.352 487.885C116.75 487.885 116.217 487.999 115.752 488.227C115.287 488.445 114.895 488.796 114.576 489.279C114.266 489.762 114.029 490.396 113.865 491.18C113.701 491.964 113.619 492.916 113.619 494.037V497.906C113.619 498.799 113.669 499.588 113.77 500.271C113.879 500.955 114.038 501.548 114.248 502.049C114.458 502.541 114.713 502.947 115.014 503.266C115.314 503.585 115.661 503.822 116.053 503.977C116.454 504.122 116.896 504.195 117.379 504.195C117.999 504.195 118.541 504.077 119.006 503.84C119.471 503.603 119.858 503.234 120.168 502.732C120.487 502.222 120.724 501.57 120.879 500.777C121.034 499.975 121.111 499.018 121.111 497.906ZM139.404 494.461V497.496C139.404 499.128 139.258 500.504 138.967 501.625C138.675 502.746 138.256 503.648 137.709 504.332C137.162 505.016 136.501 505.512 135.727 505.822C134.961 506.123 134.095 506.273 133.129 506.273C132.363 506.273 131.657 506.178 131.01 505.986C130.363 505.795 129.779 505.49 129.26 505.07C128.749 504.642 128.312 504.086 127.947 503.402C127.583 502.719 127.305 501.889 127.113 500.914C126.922 499.939 126.826 498.799 126.826 497.496V494.461C126.826 492.829 126.972 491.462 127.264 490.359C127.564 489.257 127.988 488.372 128.535 487.707C129.082 487.033 129.738 486.549 130.504 486.258C131.279 485.966 132.145 485.82 133.102 485.82C133.876 485.82 134.587 485.916 135.234 486.107C135.891 486.29 136.474 486.586 136.984 486.996C137.495 487.397 137.928 487.935 138.283 488.609C138.648 489.275 138.926 490.09 139.117 491.057C139.309 492.023 139.404 493.158 139.404 494.461ZM136.861 497.906V494.037C136.861 493.144 136.807 492.36 136.697 491.686C136.597 491.002 136.447 490.419 136.246 489.936C136.046 489.452 135.79 489.061 135.48 488.76C135.18 488.459 134.829 488.24 134.428 488.104C134.036 487.958 133.594 487.885 133.102 487.885C132.5 487.885 131.967 487.999 131.502 488.227C131.037 488.445 130.645 488.796 130.326 489.279C130.016 489.762 129.779 490.396 129.615 491.18C129.451 491.964 129.369 492.916 129.369 494.037V497.906C129.369 498.799 129.419 499.588 129.52 500.271C129.629 500.955 129.788 501.548 129.998 502.049C130.208 502.541 130.463 502.947 130.764 503.266C131.064 503.585 131.411 503.822 131.803 503.977C132.204 504.122 132.646 504.195 133.129 504.195C133.749 504.195 134.291 504.077 134.756 503.84C135.221 503.603 135.608 503.234 135.918 502.732C136.237 502.222 136.474 501.57 136.629 500.777C136.784 499.975 136.861 499.018 136.861 497.906ZM155.154 494.461V497.496C155.154 499.128 155.008 500.504 154.717 501.625C154.425 502.746 154.006 503.648 153.459 504.332C152.912 505.016 152.251 505.512 151.477 505.822C150.711 506.123 149.845 506.273 148.879 506.273C148.113 506.273 147.407 506.178 146.76 505.986C146.113 505.795 145.529 505.49 145.01 505.07C144.499 504.642 144.062 504.086 143.697 503.402C143.333 502.719 143.055 501.889 142.863 500.914C142.672 499.939 142.576 498.799 142.576 497.496V494.461C142.576 492.829 142.722 491.462 143.014 490.359C143.314 489.257 143.738 488.372 144.285 487.707C144.832 487.033 145.488 486.549 146.254 486.258C147.029 485.966 147.895 485.82 148.852 485.82C149.626 485.82 150.337 485.916 150.984 486.107C151.641 486.29 152.224 486.586 152.734 486.996C153.245 487.397 153.678 487.935 154.033 488.609C154.398 489.275 154.676 490.09 154.867 491.057C155.059 492.023 155.154 493.158 155.154 494.461ZM152.611 497.906V494.037C152.611 493.144 152.557 492.36 152.447 491.686C152.347 491.002 152.197 490.419 151.996 489.936C151.796 489.452 151.54 489.061 151.23 488.76C150.93 488.459 150.579 488.24 150.178 488.104C149.786 487.958 149.344 487.885 148.852 487.885C148.25 487.885 147.717 487.999 147.252 488.227C146.787 488.445 146.395 488.796 146.076 489.279C145.766 489.762 145.529 490.396 145.365 491.18C145.201 491.964 145.119 492.916 145.119 494.037V497.906C145.119 498.799 145.169 499.588 145.27 500.271C145.379 500.955 145.538 501.548 145.748 502.049C145.958 502.541 146.213 502.947 146.514 503.266C146.814 503.585 147.161 503.822 147.553 503.977C147.954 504.122 148.396 504.195 148.879 504.195C149.499 504.195 150.041 504.077 150.506 503.84C150.971 503.603 151.358 503.234 151.668 502.732C151.987 502.222 152.224 501.57 152.379 500.777C152.534 499.975 152.611 499.018 152.611 497.906Z" fill="white"/>
<rect y="542" width="542" height="271" fill="#666666"/>
<rect x="542" y="542" width="542.5" height="271" fill="#E6E6E6"/>
<rect y="813" width="1085" height="272" fill="#F9F7F7"/>
<path d="M48.8145 1048.57L52.6836 1028.67H54.6523L50.7695 1048.57H48.8145ZM54.3789 1048.57L58.2617 1028.67H60.2168L56.334 1048.57H54.3789ZM61.8848 1036.25H47.666V1034.35H61.8848V1036.25ZM60.8594 1042.97H46.627V1041.08H60.8594V1042.97ZM67.2031 1028.67V1048.57H64.5645V1028.67H67.2031ZM75.543 1037.62V1039.78H66.6289V1037.62H75.543ZM76.8965 1028.67V1030.83H66.6289V1028.67H76.8965ZM81.9004 1046.45H82.1602C83.6185 1046.45 84.8034 1046.25 85.7148 1045.84C86.6263 1045.43 87.3281 1044.88 87.8203 1044.18C88.3125 1043.49 88.6497 1042.71 88.832 1041.85C89.0143 1040.97 89.1055 1040.07 89.1055 1039.15V1036.1C89.1055 1035.2 89.0007 1034.4 88.791 1033.7C88.5905 1033 88.3079 1032.41 87.9434 1031.93C87.5879 1031.46 87.1823 1031.1 86.7266 1030.85C86.2708 1030.61 85.7878 1030.48 85.2773 1030.48C84.694 1030.48 84.1699 1030.6 83.7051 1030.84C83.2493 1031.07 82.862 1031.39 82.543 1031.81C82.2331 1032.23 81.9961 1032.72 81.832 1033.29C81.668 1033.85 81.5859 1034.47 81.5859 1035.13C81.5859 1035.73 81.6589 1036.3 81.8047 1036.86C81.9505 1037.41 82.1738 1037.91 82.4746 1038.36C82.7754 1038.81 83.1491 1039.16 83.5957 1039.43C84.0514 1039.68 84.5846 1039.81 85.1953 1039.81C85.7604 1039.81 86.2891 1039.7 86.7812 1039.48C87.2826 1039.25 87.7246 1038.95 88.1074 1038.56C88.4993 1038.17 88.8092 1037.73 89.0371 1037.24C89.2741 1036.75 89.4108 1036.23 89.4473 1035.69H90.6504C90.6504 1036.45 90.5 1037.2 90.1992 1037.94C89.9076 1038.66 89.4974 1039.33 88.9688 1039.93C88.4401 1040.53 87.8203 1041.02 87.1094 1041.38C86.3984 1041.74 85.6237 1041.91 84.7852 1041.91C83.8008 1041.91 82.9486 1041.72 82.2285 1041.34C81.5085 1040.96 80.916 1040.45 80.4512 1039.81C79.9954 1039.17 79.6536 1038.46 79.4258 1037.68C79.207 1036.88 79.0977 1036.08 79.0977 1035.27C79.0977 1034.32 79.2298 1033.43 79.4941 1032.6C79.7585 1031.77 80.1504 1031.05 80.6699 1030.42C81.1895 1029.78 81.832 1029.28 82.5977 1028.93C83.3724 1028.57 84.2656 1028.39 85.2773 1028.39C86.4167 1028.39 87.3874 1028.62 88.1895 1029.08C88.9915 1029.53 89.6432 1030.14 90.1445 1030.91C90.6549 1031.67 91.0286 1032.54 91.2656 1033.49C91.5026 1034.45 91.6211 1035.43 91.6211 1036.45V1037.36C91.6211 1038.39 91.5527 1039.44 91.416 1040.51C91.2884 1041.56 91.0378 1042.57 90.6641 1043.54C90.2995 1044.51 89.7663 1045.37 89.0645 1046.14C88.3626 1046.9 87.4466 1047.5 86.3164 1047.94C85.1953 1048.38 83.8099 1048.6 82.1602 1048.6H81.9004V1046.45ZM98.4297 1028.67V1048.57H95.791V1028.67H98.4297ZM106.77 1037.62V1039.78H97.8555V1037.62H106.77ZM108.123 1028.67V1030.83H97.8555V1028.67H108.123ZM123.477 1028.67V1030.09L115.232 1048.57H112.566L120.797 1030.74H110.023V1028.67H123.477ZM129.656 1028.67V1048.57H127.018V1028.67H129.656ZM137.996 1037.62V1039.78H129.082V1037.62H137.996ZM139.35 1028.67V1030.83H129.082V1028.67H139.35ZM154.703 1028.67V1030.09L146.459 1048.57H143.793L152.023 1030.74H141.25V1028.67H154.703Z" fill="black"/>
<path d="M590.814 777L594.684 757.094H596.652L592.77 777H590.814ZM596.379 777L600.262 757.094H602.217L598.334 777H596.379ZM603.885 764.682H589.666V762.781H603.885V764.682ZM602.859 771.395H588.627V769.508H602.859V771.395ZM619.211 774.854V777H608.67V774.854H619.211ZM609.203 757.094V777H606.564V757.094H609.203ZM617.816 765.652V767.799H608.67V765.652H617.816ZM619.074 757.094V759.254H608.67V757.094H619.074ZM631.529 757.066H631.748V759.213H631.529C630.189 759.213 629.068 759.432 628.166 759.869C627.264 760.298 626.548 760.876 626.02 761.605C625.491 762.326 625.108 763.137 624.871 764.039C624.643 764.941 624.529 765.857 624.529 766.787V769.713C624.529 770.597 624.634 771.381 624.844 772.064C625.053 772.739 625.34 773.309 625.705 773.773C626.07 774.238 626.48 774.589 626.936 774.826C627.4 775.063 627.883 775.182 628.385 775.182C628.968 775.182 629.488 775.072 629.943 774.854C630.399 774.626 630.782 774.311 631.092 773.91C631.411 773.5 631.652 773.017 631.816 772.461C631.98 771.905 632.062 771.294 632.062 770.629C632.062 770.036 631.99 769.467 631.844 768.92C631.698 768.364 631.475 767.872 631.174 767.443C630.873 767.006 630.495 766.664 630.039 766.418C629.592 766.163 629.059 766.035 628.439 766.035C627.738 766.035 627.081 766.208 626.471 766.555C625.869 766.892 625.372 767.339 624.98 767.895C624.598 768.441 624.379 769.038 624.324 769.686L622.984 769.672C623.112 768.651 623.349 767.781 623.695 767.061C624.051 766.331 624.488 765.739 625.008 765.283C625.536 764.818 626.124 764.481 626.771 764.271C627.428 764.053 628.12 763.943 628.85 763.943C629.843 763.943 630.7 764.13 631.42 764.504C632.14 764.878 632.732 765.379 633.197 766.008C633.662 766.628 634.004 767.329 634.223 768.113C634.451 768.888 634.564 769.686 634.564 770.506C634.564 771.445 634.432 772.324 634.168 773.145C633.904 773.965 633.507 774.685 632.979 775.305C632.459 775.924 631.816 776.408 631.051 776.754C630.285 777.1 629.396 777.273 628.385 777.273C627.309 777.273 626.37 777.055 625.568 776.617C624.766 776.171 624.101 775.578 623.572 774.84C623.044 774.102 622.647 773.281 622.383 772.379C622.118 771.477 621.986 770.561 621.986 769.631V768.441C621.986 767.038 622.128 765.661 622.41 764.312C622.693 762.964 623.18 761.742 623.873 760.648C624.575 759.555 625.546 758.684 626.785 758.037C628.025 757.39 629.606 757.066 631.529 757.066ZM650.875 774.854V777H640.334V774.854H650.875ZM640.867 757.094V777H638.229V757.094H640.867ZM649.48 765.652V767.799H640.334V765.652H649.48ZM650.738 757.094V759.254H640.334V757.094H650.738ZM663.193 757.066H663.412V759.213H663.193C661.854 759.213 660.732 759.432 659.83 759.869C658.928 760.298 658.212 760.876 657.684 761.605C657.155 762.326 656.772 763.137 656.535 764.039C656.307 764.941 656.193 765.857 656.193 766.787V769.713C656.193 770.597 656.298 771.381 656.508 772.064C656.717 772.739 657.005 773.309 657.369 773.773C657.734 774.238 658.144 774.589 658.6 774.826C659.064 775.063 659.548 775.182 660.049 775.182C660.632 775.182 661.152 775.072 661.607 774.854C662.063 774.626 662.446 774.311 662.756 773.91C663.075 773.5 663.316 773.017 663.48 772.461C663.645 771.905 663.727 771.294 663.727 770.629C663.727 770.036 663.654 769.467 663.508 768.92C663.362 768.364 663.139 767.872 662.838 767.443C662.537 767.006 662.159 766.664 661.703 766.418C661.257 766.163 660.723 766.035 660.104 766.035C659.402 766.035 658.745 766.208 658.135 766.555C657.533 766.892 657.036 767.339 656.645 767.895C656.262 768.441 656.043 769.038 655.988 769.686L654.648 769.672C654.776 768.651 655.013 767.781 655.359 767.061C655.715 766.331 656.152 765.739 656.672 765.283C657.201 764.818 657.788 764.481 658.436 764.271C659.092 764.053 659.785 763.943 660.514 763.943C661.507 763.943 662.364 764.13 663.084 764.504C663.804 764.878 664.396 765.379 664.861 766.008C665.326 766.628 665.668 767.329 665.887 768.113C666.115 768.888 666.229 769.686 666.229 770.506C666.229 771.445 666.096 772.324 665.832 773.145C665.568 773.965 665.171 774.685 664.643 775.305C664.123 775.924 663.48 776.408 662.715 776.754C661.949 777.1 661.061 777.273 660.049 777.273C658.973 777.273 658.035 777.055 657.232 776.617C656.43 776.171 655.765 775.578 655.236 774.84C654.708 774.102 654.311 773.281 654.047 772.379C653.783 771.477 653.65 770.561 653.65 769.631V768.441C653.65 767.038 653.792 765.661 654.074 764.312C654.357 762.964 654.844 761.742 655.537 760.648C656.239 759.555 657.21 758.684 658.449 758.037C659.689 757.39 661.27 757.066 663.193 757.066ZM682.539 774.854V777H671.998V774.854H682.539ZM672.531 757.094V777H669.893V757.094H672.531ZM681.145 765.652V767.799H671.998V765.652H681.145ZM682.402 757.094V759.254H671.998V757.094H682.402ZM694.857 757.066H695.076V759.213H694.857C693.518 759.213 692.396 759.432 691.494 759.869C690.592 760.298 689.876 760.876 689.348 761.605C688.819 762.326 688.436 763.137 688.199 764.039C687.971 764.941 687.857 765.857 687.857 766.787V769.713C687.857 770.597 687.962 771.381 688.172 772.064C688.382 772.739 688.669 773.309 689.033 773.773C689.398 774.238 689.808 774.589 690.264 774.826C690.729 775.063 691.212 775.182 691.713 775.182C692.296 775.182 692.816 775.072 693.271 774.854C693.727 774.626 694.11 774.311 694.42 773.91C694.739 773.5 694.98 773.017 695.145 772.461C695.309 771.905 695.391 771.294 695.391 770.629C695.391 770.036 695.318 769.467 695.172 768.92C695.026 768.364 694.803 767.872 694.502 767.443C694.201 767.006 693.823 766.664 693.367 766.418C692.921 766.163 692.387 766.035 691.768 766.035C691.066 766.035 690.41 766.208 689.799 766.555C689.197 766.892 688.701 767.339 688.309 767.895C687.926 768.441 687.707 769.038 687.652 769.686L686.312 769.672C686.44 768.651 686.677 767.781 687.023 767.061C687.379 766.331 687.816 765.739 688.336 765.283C688.865 764.818 689.452 764.481 690.1 764.271C690.756 764.053 691.449 763.943 692.178 763.943C693.171 763.943 694.028 764.13 694.748 764.504C695.468 764.878 696.061 765.379 696.525 766.008C696.99 766.628 697.332 767.329 697.551 768.113C697.779 768.888 697.893 769.686 697.893 770.506C697.893 771.445 697.76 772.324 697.496 773.145C697.232 773.965 696.835 774.685 696.307 775.305C695.787 775.924 695.145 776.408 694.379 776.754C693.613 777.1 692.725 777.273 691.713 777.273C690.637 777.273 689.699 777.055 688.896 776.617C688.094 776.171 687.429 775.578 686.9 774.84C686.372 774.102 685.975 773.281 685.711 772.379C685.447 771.477 685.314 770.561 685.314 769.631V768.441C685.314 767.038 685.456 765.661 685.738 764.312C686.021 762.964 686.508 761.742 687.201 760.648C687.903 759.555 688.874 758.684 690.113 758.037C691.353 757.39 692.934 757.066 694.857 757.066Z" fill="black"/>
<path d="M48.8145 777L52.6836 757.094H54.6523L50.7695 777H48.8145ZM54.3789 777L58.2617 757.094H60.2168L56.334 777H54.3789ZM61.8848 764.682H47.666V762.781H61.8848V764.682ZM60.8594 771.395H46.627V769.508H60.8594V771.395ZM73.6152 757.066H73.834V759.213H73.6152C72.2754 759.213 71.1543 759.432 70.252 759.869C69.3496 760.298 68.6341 760.876 68.1055 761.605C67.5768 762.326 67.194 763.137 66.957 764.039C66.7292 764.941 66.6152 765.857 66.6152 766.787V769.713C66.6152 770.597 66.7201 771.381 66.9297 772.064C67.1393 772.739 67.4264 773.309 67.791 773.773C68.1556 774.238 68.5658 774.589 69.0215 774.826C69.4863 775.063 69.9694 775.182 70.4707 775.182C71.054 775.182 71.5736 775.072 72.0293 774.854C72.485 774.626 72.8678 774.311 73.1777 773.91C73.4967 773.5 73.7383 773.017 73.9023 772.461C74.0664 771.905 74.1484 771.294 74.1484 770.629C74.1484 770.036 74.0755 769.467 73.9297 768.92C73.7839 768.364 73.5605 767.872 73.2598 767.443C72.959 767.006 72.5807 766.664 72.125 766.418C71.6784 766.163 71.1452 766.035 70.5254 766.035C69.8236 766.035 69.1673 766.208 68.5566 766.555C67.9551 766.892 67.4583 767.339 67.0664 767.895C66.6836 768.441 66.4648 769.038 66.4102 769.686L65.0703 769.672C65.1979 768.651 65.4349 767.781 65.7812 767.061C66.1367 766.331 66.5742 765.739 67.0938 765.283C67.6224 764.818 68.2103 764.481 68.8574 764.271C69.5137 764.053 70.2064 763.943 70.9355 763.943C71.929 763.943 72.7858 764.13 73.5059 764.504C74.2259 764.878 74.8184 765.379 75.2832 766.008C75.748 766.628 76.0898 767.329 76.3086 768.113C76.5365 768.888 76.6504 769.686 76.6504 770.506C76.6504 771.445 76.5182 772.324 76.2539 773.145C75.9896 773.965 75.5931 774.685 75.0645 775.305C74.5449 775.924 73.9023 776.408 73.1367 776.754C72.3711 777.1 71.4824 777.273 70.4707 777.273C69.3952 777.273 68.4564 777.055 67.6543 776.617C66.8522 776.171 66.1868 775.578 65.6582 774.84C65.1296 774.102 64.7331 773.281 64.4688 772.379C64.2044 771.477 64.0723 770.561 64.0723 769.631V768.441C64.0723 767.038 64.2135 765.661 64.4961 764.312C64.7786 762.964 65.2663 761.742 65.959 760.648C66.6608 759.555 67.6315 758.684 68.8711 758.037C70.1107 757.39 71.6921 757.066 73.6152 757.066ZM89.3652 757.066H89.584V759.213H89.3652C88.0254 759.213 86.9043 759.432 86.002 759.869C85.0996 760.298 84.3841 760.876 83.8555 761.605C83.3268 762.326 82.944 763.137 82.707 764.039C82.4792 764.941 82.3652 765.857 82.3652 766.787V769.713C82.3652 770.597 82.4701 771.381 82.6797 772.064C82.8893 772.739 83.1764 773.309 83.541 773.773C83.9056 774.238 84.3158 774.589 84.7715 774.826C85.2363 775.063 85.7194 775.182 86.2207 775.182C86.804 775.182 87.3236 775.072 87.7793 774.854C88.235 774.626 88.6178 774.311 88.9277 773.91C89.2467 773.5 89.4883 773.017 89.6523 772.461C89.8164 771.905 89.8984 771.294 89.8984 770.629C89.8984 770.036 89.8255 769.467 89.6797 768.92C89.5339 768.364 89.3105 767.872 89.0098 767.443C88.709 767.006 88.3307 766.664 87.875 766.418C87.4284 766.163 86.8952 766.035 86.2754 766.035C85.5736 766.035 84.9173 766.208 84.3066 766.555C83.7051 766.892 83.2083 767.339 82.8164 767.895C82.4336 768.441 82.2148 769.038 82.1602 769.686L80.8203 769.672C80.9479 768.651 81.1849 767.781 81.5312 767.061C81.8867 766.331 82.3242 765.739 82.8438 765.283C83.3724 764.818 83.9603 764.481 84.6074 764.271C85.2637 764.053 85.9564 763.943 86.6855 763.943C87.679 763.943 88.5358 764.13 89.2559 764.504C89.9759 764.878 90.5684 765.379 91.0332 766.008C91.498 766.628 91.8398 767.329 92.0586 768.113C92.2865 768.888 92.4004 769.686 92.4004 770.506C92.4004 771.445 92.2682 772.324 92.0039 773.145C91.7396 773.965 91.3431 774.685 90.8145 775.305C90.2949 775.924 89.6523 776.408 88.8867 776.754C88.1211 777.1 87.2324 777.273 86.2207 777.273C85.1452 777.273 84.2064 777.055 83.4043 776.617C82.6022 776.171 81.9368 775.578 81.4082 774.84C80.8796 774.102 80.4831 773.281 80.2188 772.379C79.9544 771.477 79.8223 770.561 79.8223 769.631V768.441C79.8223 767.038 79.9635 765.661 80.2461 764.312C80.5286 762.964 81.0163 761.742 81.709 760.648C82.4108 759.555 83.3815 758.684 84.6211 758.037C85.8607 757.39 87.4421 757.066 89.3652 757.066ZM105.115 757.066H105.334V759.213H105.115C103.775 759.213 102.654 759.432 101.752 759.869C100.85 760.298 100.134 760.876 99.6055 761.605C99.0768 762.326 98.694 763.137 98.457 764.039C98.2292 764.941 98.1152 765.857 98.1152 766.787V769.713C98.1152 770.597 98.2201 771.381 98.4297 772.064C98.6393 772.739 98.9264 773.309 99.291 773.773C99.6556 774.238 100.066 774.589 100.521 774.826C100.986 775.063 101.469 775.182 101.971 775.182C102.554 775.182 103.074 775.072 103.529 774.854C103.985 774.626 104.368 774.311 104.678 773.91C104.997 773.5 105.238 773.017 105.402 772.461C105.566 771.905 105.648 771.294 105.648 770.629C105.648 770.036 105.576 769.467 105.43 768.92C105.284 768.364 105.061 767.872 104.76 767.443C104.459 767.006 104.081 766.664 103.625 766.418C103.178 766.163 102.645 766.035 102.025 766.035C101.324 766.035 100.667 766.208 100.057 766.555C99.4551 766.892 98.9583 767.339 98.5664 767.895C98.1836 768.441 97.9648 769.038 97.9102 769.686L96.5703 769.672C96.6979 768.651 96.9349 767.781 97.2812 767.061C97.6367 766.331 98.0742 765.739 98.5938 765.283C99.1224 764.818 99.7103 764.481 100.357 764.271C101.014 764.053 101.706 763.943 102.436 763.943C103.429 763.943 104.286 764.13 105.006 764.504C105.726 764.878 106.318 765.379 106.783 766.008C107.248 766.628 107.59 767.329 107.809 768.113C108.036 768.888 108.15 769.686 108.15 770.506C108.15 771.445 108.018 772.324 107.754 773.145C107.49 773.965 107.093 774.685 106.564 775.305C106.045 775.924 105.402 776.408 104.637 776.754C103.871 777.1 102.982 777.273 101.971 777.273C100.895 777.273 99.9564 777.055 99.1543 776.617C98.3522 776.171 97.6868 775.578 97.1582 774.84C96.6296 774.102 96.2331 773.281 95.9688 772.379C95.7044 771.477 95.5723 770.561 95.5723 769.631V768.441C95.5723 767.038 95.7135 765.661 95.9961 764.312C96.2786 762.964 96.7663 761.742 97.459 760.648C98.1608 759.555 99.1315 758.684 100.371 758.037C101.611 757.39 103.192 757.066 105.115 757.066ZM120.865 757.066H121.084V759.213H120.865C119.525 759.213 118.404 759.432 117.502 759.869C116.6 760.298 115.884 760.876 115.355 761.605C114.827 762.326 114.444 763.137 114.207 764.039C113.979 764.941 113.865 765.857 113.865 766.787V769.713C113.865 770.597 113.97 771.381 114.18 772.064C114.389 772.739 114.676 773.309 115.041 773.773C115.406 774.238 115.816 774.589 116.271 774.826C116.736 775.063 117.219 775.182 117.721 775.182C118.304 775.182 118.824 775.072 119.279 774.854C119.735 774.626 120.118 774.311 120.428 773.91C120.747 773.5 120.988 773.017 121.152 772.461C121.316 771.905 121.398 771.294 121.398 770.629C121.398 770.036 121.326 769.467 121.18 768.92C121.034 768.364 120.811 767.872 120.51 767.443C120.209 767.006 119.831 766.664 119.375 766.418C118.928 766.163 118.395 766.035 117.775 766.035C117.074 766.035 116.417 766.208 115.807 766.555C115.205 766.892 114.708 767.339 114.316 767.895C113.934 768.441 113.715 769.038 113.66 769.686L112.32 769.672C112.448 768.651 112.685 767.781 113.031 767.061C113.387 766.331 113.824 765.739 114.344 765.283C114.872 764.818 115.46 764.481 116.107 764.271C116.764 764.053 117.456 763.943 118.186 763.943C119.179 763.943 120.036 764.13 120.756 764.504C121.476 764.878 122.068 765.379 122.533 766.008C122.998 766.628 123.34 767.329 123.559 768.113C123.786 768.888 123.9 769.686 123.9 770.506C123.9 771.445 123.768 772.324 123.504 773.145C123.24 773.965 122.843 774.685 122.314 775.305C121.795 775.924 121.152 776.408 120.387 776.754C119.621 777.1 118.732 777.273 117.721 777.273C116.645 777.273 115.706 777.055 114.904 776.617C114.102 776.171 113.437 775.578 112.908 774.84C112.38 774.102 111.983 773.281 111.719 772.379C111.454 771.477 111.322 770.561 111.322 769.631V768.441C111.322 767.038 111.464 765.661 111.746 764.312C112.029 762.964 112.516 761.742 113.209 760.648C113.911 759.555 114.882 758.684 116.121 758.037C117.361 757.39 118.942 757.066 120.865 757.066ZM136.615 757.066H136.834V759.213H136.615C135.275 759.213 134.154 759.432 133.252 759.869C132.35 760.298 131.634 760.876 131.105 761.605C130.577 762.326 130.194 763.137 129.957 764.039C129.729 764.941 129.615 765.857 129.615 766.787V769.713C129.615 770.597 129.72 771.381 129.93 772.064C130.139 772.739 130.426 773.309 130.791 773.773C131.156 774.238 131.566 774.589 132.021 774.826C132.486 775.063 132.969 775.182 133.471 775.182C134.054 775.182 134.574 775.072 135.029 774.854C135.485 774.626 135.868 774.311 136.178 773.91C136.497 773.5 136.738 773.017 136.902 772.461C137.066 771.905 137.148 771.294 137.148 770.629C137.148 770.036 137.076 769.467 136.93 768.92C136.784 768.364 136.561 767.872 136.26 767.443C135.959 767.006 135.581 766.664 135.125 766.418C134.678 766.163 134.145 766.035 133.525 766.035C132.824 766.035 132.167 766.208 131.557 766.555C130.955 766.892 130.458 767.339 130.066 767.895C129.684 768.441 129.465 769.038 129.41 769.686L128.07 769.672C128.198 768.651 128.435 767.781 128.781 767.061C129.137 766.331 129.574 765.739 130.094 765.283C130.622 764.818 131.21 764.481 131.857 764.271C132.514 764.053 133.206 763.943 133.936 763.943C134.929 763.943 135.786 764.13 136.506 764.504C137.226 764.878 137.818 765.379 138.283 766.008C138.748 766.628 139.09 767.329 139.309 768.113C139.536 768.888 139.65 769.686 139.65 770.506C139.65 771.445 139.518 772.324 139.254 773.145C138.99 773.965 138.593 774.685 138.064 775.305C137.545 775.924 136.902 776.408 136.137 776.754C135.371 777.1 134.482 777.273 133.471 777.273C132.395 777.273 131.456 777.055 130.654 776.617C129.852 776.171 129.187 775.578 128.658 774.84C128.13 774.102 127.733 773.281 127.469 772.379C127.204 771.477 127.072 770.561 127.072 769.631V768.441C127.072 767.038 127.214 765.661 127.496 764.312C127.779 762.964 128.266 761.742 128.959 760.648C129.661 759.555 130.632 758.684 131.871 758.037C133.111 757.39 134.692 757.066 136.615 757.066ZM152.365 757.066H152.584V759.213H152.365C151.025 759.213 149.904 759.432 149.002 759.869C148.1 760.298 147.384 760.876 146.855 761.605C146.327 762.326 145.944 763.137 145.707 764.039C145.479 764.941 145.365 765.857 145.365 766.787V769.713C145.365 770.597 145.47 771.381 145.68 772.064C145.889 772.739 146.176 773.309 146.541 773.773C146.906 774.238 147.316 774.589 147.771 774.826C148.236 775.063 148.719 775.182 149.221 775.182C149.804 775.182 150.324 775.072 150.779 774.854C151.235 774.626 151.618 774.311 151.928 773.91C152.247 773.5 152.488 773.017 152.652 772.461C152.816 771.905 152.898 771.294 152.898 770.629C152.898 770.036 152.826 769.467 152.68 768.92C152.534 768.364 152.311 767.872 152.01 767.443C151.709 767.006 151.331 766.664 150.875 766.418C150.428 766.163 149.895 766.035 149.275 766.035C148.574 766.035 147.917 766.208 147.307 766.555C146.705 766.892 146.208 767.339 145.816 767.895C145.434 768.441 145.215 769.038 145.16 769.686L143.82 769.672C143.948 768.651 144.185 767.781 144.531 767.061C144.887 766.331 145.324 765.739 145.844 765.283C146.372 764.818 146.96 764.481 147.607 764.271C148.264 764.053 148.956 763.943 149.686 763.943C150.679 763.943 151.536 764.13 152.256 764.504C152.976 764.878 153.568 765.379 154.033 766.008C154.498 766.628 154.84 767.329 155.059 768.113C155.286 768.888 155.4 769.686 155.4 770.506C155.4 771.445 155.268 772.324 155.004 773.145C154.74 773.965 154.343 774.685 153.814 775.305C153.295 775.924 152.652 776.408 151.887 776.754C151.121 777.1 150.232 777.273 149.221 777.273C148.145 777.273 147.206 777.055 146.404 776.617C145.602 776.171 144.937 775.578 144.408 774.84C143.88 774.102 143.483 773.281 143.219 772.379C142.954 771.477 142.822 770.561 142.822 769.631V768.441C142.822 767.038 142.964 765.661 143.246 764.312C143.529 762.964 144.016 761.742 144.709 760.648C145.411 759.555 146.382 758.684 147.621 758.037C148.861 757.39 150.442 757.066 152.365 757.066Z" fill="white"/>
<rect width="1085" height="271" fill="#FFD80E"/>
<path d="M48.8145 235L52.6836 215.094H54.6523L50.7695 235H48.8145ZM54.3789 235L58.2617 215.094H60.2168L56.334 235H54.3789ZM61.8848 222.682H47.666V220.781H61.8848V222.682ZM60.8594 229.395H46.627V227.508H60.8594V229.395ZM67.2031 215.094V235H64.5645V215.094H67.2031ZM75.543 224.049V226.209H66.6289V224.049H75.543ZM76.8965 215.094V217.254H66.6289V215.094H76.8965ZM82.6797 215.094V235H80.041V215.094H82.6797ZM91.0195 224.049V226.209H82.1055V224.049H91.0195ZM92.373 215.094V217.254H82.1055V215.094H92.373ZM100.904 235H96.748L96.7754 232.854H100.904C102.326 232.854 103.511 232.557 104.459 231.965C105.407 231.363 106.118 230.525 106.592 229.449C107.075 228.365 107.316 227.098 107.316 225.648V224.432C107.316 223.292 107.18 222.281 106.906 221.396C106.633 220.503 106.232 219.751 105.703 219.141C105.174 218.521 104.527 218.051 103.762 217.732C103.005 217.413 102.135 217.254 101.15 217.254H96.666V215.094H101.15C102.454 215.094 103.643 215.312 104.719 215.75C105.794 216.178 106.719 216.803 107.494 217.623C108.278 218.434 108.88 219.419 109.299 220.576C109.718 221.725 109.928 223.019 109.928 224.459V225.648C109.928 227.089 109.718 228.387 109.299 229.545C108.88 230.693 108.273 231.673 107.48 232.484C106.697 233.296 105.749 233.92 104.637 234.357C103.534 234.786 102.29 235 100.904 235ZM98.1562 215.094V235H95.5176V215.094H98.1562ZM125.787 229.613C125.787 230.826 125.505 231.855 124.939 232.703C124.383 233.542 123.627 234.18 122.67 234.617C121.722 235.055 120.651 235.273 119.457 235.273C118.263 235.273 117.188 235.055 116.23 234.617C115.273 234.18 114.517 233.542 113.961 232.703C113.405 231.855 113.127 230.826 113.127 229.613C113.127 228.82 113.277 228.096 113.578 227.439C113.888 226.774 114.321 226.195 114.877 225.703C115.442 225.211 116.107 224.833 116.873 224.568C117.648 224.295 118.5 224.158 119.43 224.158C120.651 224.158 121.74 224.395 122.697 224.869C123.654 225.334 124.406 225.977 124.953 226.797C125.509 227.617 125.787 228.556 125.787 229.613ZM123.244 229.559C123.244 228.82 123.085 228.169 122.766 227.604C122.447 227.029 122 226.583 121.426 226.264C120.852 225.945 120.186 225.785 119.43 225.785C118.655 225.785 117.985 225.945 117.42 226.264C116.864 226.583 116.431 227.029 116.121 227.604C115.811 228.169 115.656 228.82 115.656 229.559C115.656 230.324 115.807 230.98 116.107 231.527C116.417 232.065 116.855 232.48 117.42 232.771C117.994 233.054 118.673 233.195 119.457 233.195C120.241 233.195 120.915 233.054 121.48 232.771C122.046 232.48 122.479 232.065 122.779 231.527C123.089 230.98 123.244 230.324 123.244 229.559ZM125.322 220.275C125.322 221.242 125.067 222.112 124.557 222.887C124.046 223.661 123.349 224.272 122.465 224.719C121.581 225.165 120.578 225.389 119.457 225.389C118.318 225.389 117.301 225.165 116.408 224.719C115.524 224.272 114.831 223.661 114.33 222.887C113.829 222.112 113.578 221.242 113.578 220.275C113.578 219.118 113.829 218.133 114.33 217.322C114.84 216.511 115.538 215.891 116.422 215.463C117.306 215.035 118.313 214.82 119.443 214.82C120.583 214.82 121.594 215.035 122.479 215.463C123.363 215.891 124.055 216.511 124.557 217.322C125.067 218.133 125.322 219.118 125.322 220.275ZM122.793 220.316C122.793 219.651 122.652 219.063 122.369 218.553C122.087 218.042 121.695 217.641 121.193 217.35C120.692 217.049 120.109 216.898 119.443 216.898C118.778 216.898 118.195 217.04 117.693 217.322C117.201 217.596 116.814 217.988 116.531 218.498C116.258 219.008 116.121 219.615 116.121 220.316C116.121 221 116.258 221.597 116.531 222.107C116.814 222.618 117.206 223.014 117.707 223.297C118.208 223.579 118.792 223.721 119.457 223.721C120.122 223.721 120.701 223.579 121.193 223.297C121.695 223.014 122.087 222.618 122.369 222.107C122.652 221.597 122.793 221 122.793 220.316ZM141.482 223.461V226.496C141.482 228.128 141.337 229.504 141.045 230.625C140.753 231.746 140.334 232.648 139.787 233.332C139.24 234.016 138.579 234.512 137.805 234.822C137.039 235.123 136.173 235.273 135.207 235.273C134.441 235.273 133.735 235.178 133.088 234.986C132.441 234.795 131.857 234.49 131.338 234.07C130.827 233.642 130.39 233.086 130.025 232.402C129.661 231.719 129.383 230.889 129.191 229.914C129 228.939 128.904 227.799 128.904 226.496V223.461C128.904 221.829 129.05 220.462 129.342 219.359C129.643 218.257 130.066 217.372 130.613 216.707C131.16 216.033 131.816 215.549 132.582 215.258C133.357 214.966 134.223 214.82 135.18 214.82C135.954 214.82 136.665 214.916 137.312 215.107C137.969 215.29 138.552 215.586 139.062 215.996C139.573 216.397 140.006 216.935 140.361 217.609C140.726 218.275 141.004 219.09 141.195 220.057C141.387 221.023 141.482 222.158 141.482 223.461ZM138.939 226.906V223.037C138.939 222.144 138.885 221.36 138.775 220.686C138.675 220.002 138.525 219.419 138.324 218.936C138.124 218.452 137.868 218.061 137.559 217.76C137.258 217.459 136.907 217.24 136.506 217.104C136.114 216.958 135.672 216.885 135.18 216.885C134.578 216.885 134.045 216.999 133.58 217.227C133.115 217.445 132.723 217.796 132.404 218.279C132.094 218.762 131.857 219.396 131.693 220.18C131.529 220.964 131.447 221.916 131.447 223.037V226.906C131.447 227.799 131.497 228.588 131.598 229.271C131.707 229.955 131.867 230.548 132.076 231.049C132.286 231.541 132.541 231.947 132.842 232.266C133.143 232.585 133.489 232.822 133.881 232.977C134.282 233.122 134.724 233.195 135.207 233.195C135.827 233.195 136.369 233.077 136.834 232.84C137.299 232.603 137.686 232.234 137.996 231.732C138.315 231.222 138.552 230.57 138.707 229.777C138.862 228.975 138.939 228.018 138.939 226.906ZM158.039 232.854V235H147.498V232.854H158.039ZM148.031 215.094V235H145.393V215.094H148.031ZM156.645 223.652V225.799H147.498V223.652H156.645ZM157.902 215.094V217.254H147.498V215.094H157.902Z" fill="black"/>
</svg>
