<svg width="1085" height="1085" viewBox="0 0 1085 1085" fill="none" xmlns="http://www.w3.org/2000/svg">
<rect width="1085" height="1085" fill="white"/>
<rect y="271" width="1085" height="271.25" fill="black"/>
<path d="M48.8145 506L52.6836 486.094H54.6523L50.7695 506H48.8145ZM54.3789 506L58.2617 486.094H60.2168L56.334 506H54.3789ZM61.8848 493.682H47.666V491.781H61.8848V493.682ZM60.8594 500.395H46.627V498.508H60.8594V500.395ZM76.4043 494.461V497.496C76.4043 499.128 76.2585 500.504 75.9668 501.625C75.6751 502.746 75.2559 503.648 74.709 504.332C74.1621 505.016 73.5013 505.512 72.7266 505.822C71.9609 506.123 71.0951 506.273 70.1289 506.273C69.3633 506.273 68.6569 506.178 68.0098 505.986C67.3626 505.795 66.7793 505.49 66.2598 505.07C65.7493 504.642 65.3118 504.086 64.9473 503.402C64.5827 502.719 64.3047 501.889 64.1133 500.914C63.9219 499.939 63.8262 498.799 63.8262 497.496V494.461C63.8262 492.829 63.972 491.462 64.2637 490.359C64.5645 489.257 64.9883 488.372 65.5352 487.707C66.082 487.033 66.7383 486.549 67.5039 486.258C68.2786 485.966 69.1445 485.82 70.1016 485.82C70.8763 485.82 71.5872 485.916 72.2344 486.107C72.8906 486.29 73.474 486.586 73.9844 486.996C74.4948 487.397 74.9277 487.935 75.2832 488.609C75.6478 489.275 75.9258 490.09 76.1172 491.057C76.3086 492.023 76.4043 493.158 76.4043 494.461ZM73.8613 497.906V494.037C73.8613 493.144 73.8066 492.36 73.6973 491.686C73.597 491.002 73.4466 490.419 73.2461 489.936C73.0456 489.452 72.7904 489.061 72.4805 488.76C72.1797 488.459 71.8288 488.24 71.4277 488.104C71.0358 487.958 70.5938 487.885 70.1016 487.885C69.5 487.885 68.9668 487.999 68.502 488.227C68.0371 488.445 67.6452 488.796 67.3262 489.279C67.0163 489.762 66.7793 490.396 66.6152 491.18C66.4512 491.964 66.3691 492.916 66.3691 494.037V497.906C66.3691 498.799 66.4193 499.588 66.5195 500.271C66.6289 500.955 66.7884 501.548 66.998 502.049C67.2077 502.541 67.4629 502.947 67.7637 503.266C68.0645 503.585 68.4108 503.822 68.8027 503.977C69.2038 504.122 69.6458 504.195 70.1289 504.195C70.7487 504.195 71.291 504.077 71.7559 503.84C72.2207 503.603 72.6081 503.234 72.918 502.732C73.237 502.222 73.474 501.57 73.6289 500.777C73.7839 499.975 73.8613 499.018 73.8613 497.906ZM92.1543 494.461V497.496C92.1543 499.128 92.0085 500.504 91.7168 501.625C91.4251 502.746 91.0059 503.648 90.459 504.332C89.9121 505.016 89.2513 505.512 88.4766 505.822C87.7109 506.123 86.8451 506.273 85.8789 506.273C85.1133 506.273 84.4069 506.178 83.7598 505.986C83.1126 505.795 82.5293 505.49 82.0098 505.07C81.4993 504.642 81.0618 504.086 80.6973 503.402C80.3327 502.719 80.0547 501.889 79.8633 500.914C79.6719 499.939 79.5762 498.799 79.5762 497.496V494.461C79.5762 492.829 79.722 491.462 80.0137 490.359C80.3145 489.257 80.7383 488.372 81.2852 487.707C81.832 487.033 82.4883 486.549 83.2539 486.258C84.0286 485.966 84.8945 485.82 85.8516 485.82C86.6263 485.82 87.3372 485.916 87.9844 486.107C88.6406 486.29 89.224 486.586 89.7344 486.996C90.2448 487.397 90.6777 487.935 91.0332 488.609C91.3978 489.275 91.6758 490.09 91.8672 491.057C92.0586 492.023 92.1543 493.158 92.1543 494.461ZM89.6113 497.906V494.037C89.6113 493.144 89.5566 492.36 89.4473 491.686C89.347 491.002 89.1966 490.419 88.9961 489.936C88.7956 489.452 88.5404 489.061 88.2305 488.76C87.9297 488.459 87.5788 488.24 87.1777 488.104C86.7858 487.958 86.3438 487.885 85.8516 487.885C85.25 487.885 84.7168 487.999 84.252 488.227C83.7871 488.445 83.3952 488.796 83.0762 489.279C82.7663 489.762 82.5293 490.396 82.3652 491.18C82.2012 491.964 82.1191 492.916 82.1191 494.037V497.906C82.1191 498.799 82.1693 499.588 82.2695 500.271C82.3789 500.955 82.5384 501.548 82.748 502.049C82.9577 502.541 83.2129 502.947 83.5137 503.266C83.8145 503.585 84.1608 503.822 84.5527 503.977C84.9538 504.122 85.3958 504.195 85.8789 504.195C86.4987 504.195 87.041 504.077 87.5059 503.84C87.9707 503.603 88.3581 503.234 88.668 502.732C88.987 502.222 89.224 501.57 89.3789 500.777C89.5339 499.975 89.6113 499.018 89.6113 497.906ZM107.904 494.461V497.496C107.904 499.128 107.758 500.504 107.467 501.625C107.175 502.746 106.756 503.648 106.209 504.332C105.662 505.016 105.001 505.512 104.227 505.822C103.461 506.123 102.595 506.273 101.629 506.273C100.863 506.273 100.157 506.178 99.5098 505.986C98.8626 505.795 98.2793 505.49 97.7598 505.07C97.2493 504.642 96.8118 504.086 96.4473 503.402C96.0827 502.719 95.8047 501.889 95.6133 500.914C95.4219 499.939 95.3262 498.799 95.3262 497.496V494.461C95.3262 492.829 95.472 491.462 95.7637 490.359C96.0645 489.257 96.4883 488.372 97.0352 487.707C97.582 487.033 98.2383 486.549 99.0039 486.258C99.7786 485.966 100.645 485.82 101.602 485.82C102.376 485.82 103.087 485.916 103.734 486.107C104.391 486.29 104.974 486.586 105.484 486.996C105.995 487.397 106.428 487.935 106.783 488.609C107.148 489.275 107.426 490.09 107.617 491.057C107.809 492.023 107.904 493.158 107.904 494.461ZM105.361 497.906V494.037C105.361 493.144 105.307 492.36 105.197 491.686C105.097 491.002 104.947 490.419 104.746 489.936C104.546 489.452 104.29 489.061 103.98 488.76C103.68 488.459 103.329 488.24 102.928 488.104C102.536 487.958 102.094 487.885 101.602 487.885C101 487.885 100.467 487.999 100.002 488.227C99.5371 488.445 99.1452 488.796 98.8262 489.279C98.5163 489.762 98.2793 490.396 98.1152 491.18C97.9512 491.964 97.8691 492.916 97.8691 494.037V497.906C97.8691 498.799 97.9193 499.588 98.0195 500.271C98.1289 500.955 98.2884 501.548 98.498 502.049C98.7077 502.541 98.9629 502.947 99.2637 503.266C99.5645 503.585 99.9108 503.822 100.303 503.977C100.704 504.122 101.146 504.195 101.629 504.195C102.249 504.195 102.791 504.077 103.256 503.84C103.721 503.603 104.108 503.234 104.418 502.732C104.737 502.222 104.974 501.57 105.129 500.777C105.284 499.975 105.361 499.018 105.361 497.906ZM123.654 494.461V497.496C123.654 499.128 123.508 500.504 123.217 501.625C122.925 502.746 122.506 503.648 121.959 504.332C121.412 505.016 120.751 505.512 119.977 505.822C119.211 506.123 118.345 506.273 117.379 506.273C116.613 506.273 115.907 506.178 115.26 505.986C114.613 505.795 114.029 505.49 113.51 505.07C112.999 504.642 112.562 504.086 112.197 503.402C111.833 502.719 111.555 501.889 111.363 500.914C111.172 499.939 111.076 498.799 111.076 497.496V494.461C111.076 492.829 111.222 491.462 111.514 490.359C111.814 489.257 112.238 488.372 112.785 487.707C113.332 487.033 113.988 486.549 114.754 486.258C115.529 485.966 116.395 485.82 117.352 485.82C118.126 485.82 118.837 485.916 119.484 486.107C120.141 486.29 120.724 486.586 121.234 486.996C121.745 487.397 122.178 487.935 122.533 488.609C122.898 489.275 123.176 490.09 123.367 491.057C123.559 492.023 123.654 493.158 123.654 494.461ZM121.111 497.906V494.037C121.111 493.144 121.057 492.36 120.947 491.686C120.847 491.002 120.697 490.419 120.496 489.936C120.296 489.452 120.04 489.061 119.73 488.76C119.43 488.459 119.079 488.24 118.678 488.104C118.286 487.958 117.844 487.885 117.352 487.885C116.75 487.885 116.217 487.999 115.752 488.227C115.287 488.445 114.895 488.796 114.576 489.279C114.266 489.762 114.029 490.396 113.865 491.18C113.701 491.964 113.619 492.916 113.619 494.037V497.906C113.619 498.799 113.669 499.588 113.77 500.271C113.879 500.955 114.038 501.548 114.248 502.049C114.458 502.541 114.713 502.947 115.014 503.266C115.314 503.585 115.661 503.822 116.053 503.977C116.454 504.122 116.896 504.195 117.379 504.195C117.999 504.195 118.541 504.077 119.006 503.84C119.471 503.603 119.858 503.234 120.168 502.732C120.487 502.222 120.724 501.57 120.879 500.777C121.034 499.975 121.111 499.018 121.111 497.906ZM139.404 494.461V497.496C139.404 499.128 139.258 500.504 138.967 501.625C138.675 502.746 138.256 503.648 137.709 504.332C137.162 505.016 136.501 505.512 135.727 505.822C134.961 506.123 134.095 506.273 133.129 506.273C132.363 506.273 131.657 506.178 131.01 505.986C130.363 505.795 129.779 505.49 129.26 505.07C128.749 504.642 128.312 504.086 127.947 503.402C127.583 502.719 127.305 501.889 127.113 500.914C126.922 499.939 126.826 498.799 126.826 497.496V494.461C126.826 492.829 126.972 491.462 127.264 490.359C127.564 489.257 127.988 488.372 128.535 487.707C129.082 487.033 129.738 486.549 130.504 486.258C131.279 485.966 132.145 485.82 133.102 485.82C133.876 485.82 134.587 485.916 135.234 486.107C135.891 486.29 136.474 486.586 136.984 486.996C137.495 487.397 137.928 487.935 138.283 488.609C138.648 489.275 138.926 490.09 139.117 491.057C139.309 492.023 139.404 493.158 139.404 494.461ZM136.861 497.906V494.037C136.861 493.144 136.807 492.36 136.697 491.686C136.597 491.002 136.447 490.419 136.246 489.936C136.046 489.452 135.79 489.061 135.48 488.76C135.18 488.459 134.829 488.24 134.428 488.104C134.036 487.958 133.594 487.885 133.102 487.885C132.5 487.885 131.967 487.999 131.502 488.227C131.037 488.445 130.645 488.796 130.326 489.279C130.016 489.762 129.779 490.396 129.615 491.18C129.451 491.964 129.369 492.916 129.369 494.037V497.906C129.369 498.799 129.419 499.588 129.52 500.271C129.629 500.955 129.788 501.548 129.998 502.049C130.208 502.541 130.463 502.947 130.764 503.266C131.064 503.585 131.411 503.822 131.803 503.977C132.204 504.122 132.646 504.195 133.129 504.195C133.749 504.195 134.291 504.077 134.756 503.84C135.221 503.603 135.608 503.234 135.918 502.732C136.237 502.222 136.474 501.57 136.629 500.777C136.784 499.975 136.861 499.018 136.861 497.906ZM155.154 494.461V497.496C155.154 499.128 155.008 500.504 154.717 501.625C154.425 502.746 154.006 503.648 153.459 504.332C152.912 505.016 152.251 505.512 151.477 505.822C150.711 506.123 149.845 506.273 148.879 506.273C148.113 506.273 147.407 506.178 146.76 505.986C146.113 505.795 145.529 505.49 145.01 505.07C144.499 504.642 144.062 504.086 143.697 503.402C143.333 502.719 143.055 501.889 142.863 500.914C142.672 499.939 142.576 498.799 142.576 497.496V494.461C142.576 492.829 142.722 491.462 143.014 490.359C143.314 489.257 143.738 488.372 144.285 487.707C144.832 487.033 145.488 486.549 146.254 486.258C147.029 485.966 147.895 485.82 148.852 485.82C149.626 485.82 150.337 485.916 150.984 486.107C151.641 486.29 152.224 486.586 152.734 486.996C153.245 487.397 153.678 487.935 154.033 488.609C154.398 489.275 154.676 490.09 154.867 491.057C155.059 492.023 155.154 493.158 155.154 494.461ZM152.611 497.906V494.037C152.611 493.144 152.557 492.36 152.447 491.686C152.347 491.002 152.197 490.419 151.996 489.936C151.796 489.452 151.54 489.061 151.23 488.76C150.93 488.459 150.579 488.24 150.178 488.104C149.786 487.958 149.344 487.885 148.852 487.885C148.25 487.885 147.717 487.999 147.252 488.227C146.787 488.445 146.395 488.796 146.076 489.279C145.766 489.762 145.529 490.396 145.365 491.18C145.201 491.964 145.119 492.916 145.119 494.037V497.906C145.119 498.799 145.169 499.588 145.27 500.271C145.379 500.955 145.538 501.548 145.748 502.049C145.958 502.541 146.213 502.947 146.514 503.266C146.814 503.585 147.161 503.822 147.553 503.977C147.954 504.122 148.396 504.195 148.879 504.195C149.499 504.195 150.041 504.077 150.506 503.84C150.971 503.603 151.358 503.234 151.668 502.732C151.987 502.222 152.224 501.57 152.379 500.777C152.534 499.975 152.611 499.018 152.611 497.906Z" fill="white"/>
<rect y="542" width="542" height="271" fill="black" fill-opacity="0.6"/>
<rect x="542" y="542" width="542.5" height="271" fill="black" fill-opacity="0.1"/>
<rect y="813" width="1085" height="272" fill="#F9F7F7"/>
<path d="M48.8145 1048.57L52.6836 1028.67H54.6523L50.7695 1048.57H48.8145ZM54.3789 1048.57L58.2617 1028.67H60.2168L56.334 1048.57H54.3789ZM61.8848 1036.25H47.666V1034.35H61.8848V1036.25ZM60.8594 1042.97H46.627V1041.08H60.8594V1042.97ZM67.2031 1028.67V1048.57H64.5645V1028.67H67.2031ZM75.543 1037.62V1039.78H66.6289V1037.62H75.543ZM76.8965 1028.67V1030.83H66.6289V1028.67H76.8965ZM81.9004 1046.45H82.1602C83.6185 1046.45 84.8034 1046.25 85.7148 1045.84C86.6263 1045.43 87.3281 1044.88 87.8203 1044.18C88.3125 1043.49 88.6497 1042.71 88.832 1041.85C89.0143 1040.97 89.1055 1040.07 89.1055 1039.15V1036.1C89.1055 1035.2 89.0007 1034.4 88.791 1033.7C88.5905 1033 88.3079 1032.41 87.9434 1031.93C87.5879 1031.46 87.1823 1031.1 86.7266 1030.85C86.2708 1030.61 85.7878 1030.48 85.2773 1030.48C84.694 1030.48 84.1699 1030.6 83.7051 1030.84C83.2493 1031.07 82.862 1031.39 82.543 1031.81C82.2331 1032.23 81.9961 1032.72 81.832 1033.29C81.668 1033.85 81.5859 1034.47 81.5859 1035.13C81.5859 1035.73 81.6589 1036.3 81.8047 1036.86C81.9505 1037.41 82.1738 1037.91 82.4746 1038.36C82.7754 1038.81 83.1491 1039.16 83.5957 1039.43C84.0514 1039.68 84.5846 1039.81 85.1953 1039.81C85.7604 1039.81 86.2891 1039.7 86.7812 1039.48C87.2826 1039.25 87.7246 1038.95 88.1074 1038.56C88.4993 1038.17 88.8092 1037.73 89.0371 1037.24C89.2741 1036.75 89.4108 1036.23 89.4473 1035.69H90.6504C90.6504 1036.45 90.5 1037.2 90.1992 1037.94C89.9076 1038.66 89.4974 1039.33 88.9688 1039.93C88.4401 1040.53 87.8203 1041.02 87.1094 1041.38C86.3984 1041.74 85.6237 1041.91 84.7852 1041.91C83.8008 1041.91 82.9486 1041.72 82.2285 1041.34C81.5085 1040.96 80.916 1040.45 80.4512 1039.81C79.9954 1039.17 79.6536 1038.46 79.4258 1037.68C79.207 1036.88 79.0977 1036.08 79.0977 1035.27C79.0977 1034.32 79.2298 1033.43 79.4941 1032.6C79.7585 1031.77 80.1504 1031.05 80.6699 1030.42C81.1895 1029.78 81.832 1029.28 82.5977 1028.93C83.3724 1028.57 84.2656 1028.39 85.2773 1028.39C86.4167 1028.39 87.3874 1028.62 88.1895 1029.08C88.9915 1029.53 89.6432 1030.14 90.1445 1030.91C90.6549 1031.67 91.0286 1032.54 91.2656 1033.49C91.5026 1034.45 91.6211 1035.43 91.6211 1036.45V1037.36C91.6211 1038.39 91.5527 1039.44 91.416 1040.51C91.2884 1041.56 91.0378 1042.57 90.6641 1043.54C90.2995 1044.51 89.7663 1045.37 89.0645 1046.14C88.3626 1046.9 87.4466 1047.5 86.3164 1047.94C85.1953 1048.38 83.8099 1048.6 82.1602 1048.6H81.9004V1046.45ZM98.4297 1028.67V1048.57H95.791V1028.67H98.4297ZM106.77 1037.62V1039.78H97.8555V1037.62H106.77ZM108.123 1028.67V1030.83H97.8555V1028.67H108.123ZM123.477 1028.67V1030.09L115.232 1048.57H112.566L120.797 1030.74H110.023V1028.67H123.477ZM129.656 1028.67V1048.57H127.018V1028.67H129.656ZM137.996 1037.62V1039.78H129.082V1037.62H137.996ZM139.35 1028.67V1030.83H129.082V1028.67H139.35ZM154.703 1028.67V1030.09L146.459 1048.57H143.793L152.023 1030.74H141.25V1028.67H154.703Z" fill="black"/>
<path d="M590.814 777L594.684 757.094H596.652L592.77 777H590.814ZM596.379 777L600.262 757.094H602.217L598.334 777H596.379ZM603.885 764.682H589.666V762.781H603.885V764.682ZM602.859 771.395H588.627V769.508H602.859V771.395ZM618.404 765.461V768.496C618.404 770.128 618.258 771.504 617.967 772.625C617.675 773.746 617.256 774.648 616.709 775.332C616.162 776.016 615.501 776.512 614.727 776.822C613.961 777.123 613.095 777.273 612.129 777.273C611.363 777.273 610.657 777.178 610.01 776.986C609.363 776.795 608.779 776.49 608.26 776.07C607.749 775.642 607.312 775.086 606.947 774.402C606.583 773.719 606.305 772.889 606.113 771.914C605.922 770.939 605.826 769.799 605.826 768.496V765.461C605.826 763.829 605.972 762.462 606.264 761.359C606.564 760.257 606.988 759.372 607.535 758.707C608.082 758.033 608.738 757.549 609.504 757.258C610.279 756.966 611.145 756.82 612.102 756.82C612.876 756.82 613.587 756.916 614.234 757.107C614.891 757.29 615.474 757.586 615.984 757.996C616.495 758.397 616.928 758.935 617.283 759.609C617.648 760.275 617.926 761.09 618.117 762.057C618.309 763.023 618.404 764.158 618.404 765.461ZM615.861 768.906V765.037C615.861 764.144 615.807 763.36 615.697 762.686C615.597 762.002 615.447 761.419 615.246 760.936C615.046 760.452 614.79 760.061 614.48 759.76C614.18 759.459 613.829 759.24 613.428 759.104C613.036 758.958 612.594 758.885 612.102 758.885C611.5 758.885 610.967 758.999 610.502 759.227C610.037 759.445 609.645 759.796 609.326 760.279C609.016 760.762 608.779 761.396 608.615 762.18C608.451 762.964 608.369 763.916 608.369 765.037V768.906C608.369 769.799 608.419 770.588 608.52 771.271C608.629 771.955 608.788 772.548 608.998 773.049C609.208 773.541 609.463 773.947 609.764 774.266C610.064 774.585 610.411 774.822 610.803 774.977C611.204 775.122 611.646 775.195 612.129 775.195C612.749 775.195 613.291 775.077 613.756 774.84C614.221 774.603 614.608 774.234 614.918 773.732C615.237 773.222 615.474 772.57 615.629 771.777C615.784 770.975 615.861 770.018 615.861 768.906ZM634.154 765.461V768.496C634.154 770.128 634.008 771.504 633.717 772.625C633.425 773.746 633.006 774.648 632.459 775.332C631.912 776.016 631.251 776.512 630.477 776.822C629.711 777.123 628.845 777.273 627.879 777.273C627.113 777.273 626.407 777.178 625.76 776.986C625.113 776.795 624.529 776.49 624.01 776.07C623.499 775.642 623.062 775.086 622.697 774.402C622.333 773.719 622.055 772.889 621.863 771.914C621.672 770.939 621.576 769.799 621.576 768.496V765.461C621.576 763.829 621.722 762.462 622.014 761.359C622.314 760.257 622.738 759.372 623.285 758.707C623.832 758.033 624.488 757.549 625.254 757.258C626.029 756.966 626.895 756.82 627.852 756.82C628.626 756.82 629.337 756.916 629.984 757.107C630.641 757.29 631.224 757.586 631.734 757.996C632.245 758.397 632.678 758.935 633.033 759.609C633.398 760.275 633.676 761.09 633.867 762.057C634.059 763.023 634.154 764.158 634.154 765.461ZM631.611 768.906V765.037C631.611 764.144 631.557 763.36 631.447 762.686C631.347 762.002 631.197 761.419 630.996 760.936C630.796 760.452 630.54 760.061 630.23 759.76C629.93 759.459 629.579 759.24 629.178 759.104C628.786 758.958 628.344 758.885 627.852 758.885C627.25 758.885 626.717 758.999 626.252 759.227C625.787 759.445 625.395 759.796 625.076 760.279C624.766 760.762 624.529 761.396 624.365 762.18C624.201 762.964 624.119 763.916 624.119 765.037V768.906C624.119 769.799 624.169 770.588 624.27 771.271C624.379 771.955 624.538 772.548 624.748 773.049C624.958 773.541 625.213 773.947 625.514 774.266C625.814 774.585 626.161 774.822 626.553 774.977C626.954 775.122 627.396 775.195 627.879 775.195C628.499 775.195 629.041 775.077 629.506 774.84C629.971 774.603 630.358 774.234 630.668 773.732C630.987 773.222 631.224 772.57 631.379 771.777C631.534 770.975 631.611 770.018 631.611 768.906ZM649.904 765.461V768.496C649.904 770.128 649.758 771.504 649.467 772.625C649.175 773.746 648.756 774.648 648.209 775.332C647.662 776.016 647.001 776.512 646.227 776.822C645.461 777.123 644.595 777.273 643.629 777.273C642.863 777.273 642.157 777.178 641.51 776.986C640.863 776.795 640.279 776.49 639.76 776.07C639.249 775.642 638.812 775.086 638.447 774.402C638.083 773.719 637.805 772.889 637.613 771.914C637.422 770.939 637.326 769.799 637.326 768.496V765.461C637.326 763.829 637.472 762.462 637.764 761.359C638.064 760.257 638.488 759.372 639.035 758.707C639.582 758.033 640.238 757.549 641.004 757.258C641.779 756.966 642.645 756.82 643.602 756.82C644.376 756.82 645.087 756.916 645.734 757.107C646.391 757.29 646.974 757.586 647.484 757.996C647.995 758.397 648.428 758.935 648.783 759.609C649.148 760.275 649.426 761.09 649.617 762.057C649.809 763.023 649.904 764.158 649.904 765.461ZM647.361 768.906V765.037C647.361 764.144 647.307 763.36 647.197 762.686C647.097 762.002 646.947 761.419 646.746 760.936C646.546 760.452 646.29 760.061 645.98 759.76C645.68 759.459 645.329 759.24 644.928 759.104C644.536 758.958 644.094 758.885 643.602 758.885C643 758.885 642.467 758.999 642.002 759.227C641.537 759.445 641.145 759.796 640.826 760.279C640.516 760.762 640.279 761.396 640.115 762.18C639.951 762.964 639.869 763.916 639.869 765.037V768.906C639.869 769.799 639.919 770.588 640.02 771.271C640.129 771.955 640.288 772.548 640.498 773.049C640.708 773.541 640.963 773.947 641.264 774.266C641.564 774.585 641.911 774.822 642.303 774.977C642.704 775.122 643.146 775.195 643.629 775.195C644.249 775.195 644.791 775.077 645.256 774.84C645.721 774.603 646.108 774.234 646.418 773.732C646.737 773.222 646.974 772.57 647.129 771.777C647.284 770.975 647.361 770.018 647.361 768.906ZM665.654 765.461V768.496C665.654 770.128 665.508 771.504 665.217 772.625C664.925 773.746 664.506 774.648 663.959 775.332C663.412 776.016 662.751 776.512 661.977 776.822C661.211 777.123 660.345 777.273 659.379 777.273C658.613 777.273 657.907 777.178 657.26 776.986C656.613 776.795 656.029 776.49 655.51 776.07C654.999 775.642 654.562 775.086 654.197 774.402C653.833 773.719 653.555 772.889 653.363 771.914C653.172 770.939 653.076 769.799 653.076 768.496V765.461C653.076 763.829 653.222 762.462 653.514 761.359C653.814 760.257 654.238 759.372 654.785 758.707C655.332 758.033 655.988 757.549 656.754 757.258C657.529 756.966 658.395 756.82 659.352 756.82C660.126 756.82 660.837 756.916 661.484 757.107C662.141 757.29 662.724 757.586 663.234 757.996C663.745 758.397 664.178 758.935 664.533 759.609C664.898 760.275 665.176 761.09 665.367 762.057C665.559 763.023 665.654 764.158 665.654 765.461ZM663.111 768.906V765.037C663.111 764.144 663.057 763.36 662.947 762.686C662.847 762.002 662.697 761.419 662.496 760.936C662.296 760.452 662.04 760.061 661.73 759.76C661.43 759.459 661.079 759.24 660.678 759.104C660.286 758.958 659.844 758.885 659.352 758.885C658.75 758.885 658.217 758.999 657.752 759.227C657.287 759.445 656.895 759.796 656.576 760.279C656.266 760.762 656.029 761.396 655.865 762.18C655.701 762.964 655.619 763.916 655.619 765.037V768.906C655.619 769.799 655.669 770.588 655.77 771.271C655.879 771.955 656.038 772.548 656.248 773.049C656.458 773.541 656.713 773.947 657.014 774.266C657.314 774.585 657.661 774.822 658.053 774.977C658.454 775.122 658.896 775.195 659.379 775.195C659.999 775.195 660.541 775.077 661.006 774.84C661.471 774.603 661.858 774.234 662.168 773.732C662.487 773.222 662.724 772.57 662.879 771.777C663.034 770.975 663.111 770.018 663.111 768.906ZM681.404 765.461V768.496C681.404 770.128 681.258 771.504 680.967 772.625C680.675 773.746 680.256 774.648 679.709 775.332C679.162 776.016 678.501 776.512 677.727 776.822C676.961 777.123 676.095 777.273 675.129 777.273C674.363 777.273 673.657 777.178 673.01 776.986C672.363 776.795 671.779 776.49 671.26 776.07C670.749 775.642 670.312 775.086 669.947 774.402C669.583 773.719 669.305 772.889 669.113 771.914C668.922 770.939 668.826 769.799 668.826 768.496V765.461C668.826 763.829 668.972 762.462 669.264 761.359C669.564 760.257 669.988 759.372 670.535 758.707C671.082 758.033 671.738 757.549 672.504 757.258C673.279 756.966 674.145 756.82 675.102 756.82C675.876 756.82 676.587 756.916 677.234 757.107C677.891 757.29 678.474 757.586 678.984 757.996C679.495 758.397 679.928 758.935 680.283 759.609C680.648 760.275 680.926 761.09 681.117 762.057C681.309 763.023 681.404 764.158 681.404 765.461ZM678.861 768.906V765.037C678.861 764.144 678.807 763.36 678.697 762.686C678.597 762.002 678.447 761.419 678.246 760.936C678.046 760.452 677.79 760.061 677.48 759.76C677.18 759.459 676.829 759.24 676.428 759.104C676.036 758.958 675.594 758.885 675.102 758.885C674.5 758.885 673.967 758.999 673.502 759.227C673.037 759.445 672.645 759.796 672.326 760.279C672.016 760.762 671.779 761.396 671.615 762.18C671.451 762.964 671.369 763.916 671.369 765.037V768.906C671.369 769.799 671.419 770.588 671.52 771.271C671.629 771.955 671.788 772.548 671.998 773.049C672.208 773.541 672.463 773.947 672.764 774.266C673.064 774.585 673.411 774.822 673.803 774.977C674.204 775.122 674.646 775.195 675.129 775.195C675.749 775.195 676.291 775.077 676.756 774.84C677.221 774.603 677.608 774.234 677.918 773.732C678.237 773.222 678.474 772.57 678.629 771.777C678.784 770.975 678.861 770.018 678.861 768.906ZM697.154 765.461V768.496C697.154 770.128 697.008 771.504 696.717 772.625C696.425 773.746 696.006 774.648 695.459 775.332C694.912 776.016 694.251 776.512 693.477 776.822C692.711 777.123 691.845 777.273 690.879 777.273C690.113 777.273 689.407 777.178 688.76 776.986C688.113 776.795 687.529 776.49 687.01 776.07C686.499 775.642 686.062 775.086 685.697 774.402C685.333 773.719 685.055 772.889 684.863 771.914C684.672 770.939 684.576 769.799 684.576 768.496V765.461C684.576 763.829 684.722 762.462 685.014 761.359C685.314 760.257 685.738 759.372 686.285 758.707C686.832 758.033 687.488 757.549 688.254 757.258C689.029 756.966 689.895 756.82 690.852 756.82C691.626 756.82 692.337 756.916 692.984 757.107C693.641 757.29 694.224 757.586 694.734 757.996C695.245 758.397 695.678 758.935 696.033 759.609C696.398 760.275 696.676 761.09 696.867 762.057C697.059 763.023 697.154 764.158 697.154 765.461ZM694.611 768.906V765.037C694.611 764.144 694.557 763.36 694.447 762.686C694.347 762.002 694.197 761.419 693.996 760.936C693.796 760.452 693.54 760.061 693.23 759.76C692.93 759.459 692.579 759.24 692.178 759.104C691.786 758.958 691.344 758.885 690.852 758.885C690.25 758.885 689.717 758.999 689.252 759.227C688.787 759.445 688.395 759.796 688.076 760.279C687.766 760.762 687.529 761.396 687.365 762.18C687.201 762.964 687.119 763.916 687.119 765.037V768.906C687.119 769.799 687.169 770.588 687.27 771.271C687.379 771.955 687.538 772.548 687.748 773.049C687.958 773.541 688.213 773.947 688.514 774.266C688.814 774.585 689.161 774.822 689.553 774.977C689.954 775.122 690.396 775.195 690.879 775.195C691.499 775.195 692.041 775.077 692.506 774.84C692.971 774.603 693.358 774.234 693.668 773.732C693.987 773.222 694.224 772.57 694.379 771.777C694.534 770.975 694.611 770.018 694.611 768.906ZM712.891 767.498V769.576H706.219V767.498H712.891ZM730.35 756.984V777H727.82V760.143L722.721 762.002V759.719L729.953 756.984H730.35ZM750.283 765.461V768.496C750.283 770.128 750.137 771.504 749.846 772.625C749.554 773.746 749.135 774.648 748.588 775.332C748.041 776.016 747.38 776.512 746.605 776.822C745.84 777.123 744.974 777.273 744.008 777.273C743.242 777.273 742.536 777.178 741.889 776.986C741.242 776.795 740.658 776.49 740.139 776.07C739.628 775.642 739.191 775.086 738.826 774.402C738.462 773.719 738.184 772.889 737.992 771.914C737.801 770.939 737.705 769.799 737.705 768.496V765.461C737.705 763.829 737.851 762.462 738.143 761.359C738.443 760.257 738.867 759.372 739.414 758.707C739.961 758.033 740.617 757.549 741.383 757.258C742.158 756.966 743.023 756.82 743.98 756.82C744.755 756.82 745.466 756.916 746.113 757.107C746.77 757.29 747.353 757.586 747.863 757.996C748.374 758.397 748.807 758.935 749.162 759.609C749.527 760.275 749.805 761.09 749.996 762.057C750.188 763.023 750.283 764.158 750.283 765.461ZM747.74 768.906V765.037C747.74 764.144 747.686 763.36 747.576 762.686C747.476 762.002 747.326 761.419 747.125 760.936C746.924 760.452 746.669 760.061 746.359 759.76C746.059 759.459 745.708 759.24 745.307 759.104C744.915 758.958 744.473 758.885 743.98 758.885C743.379 758.885 742.846 758.999 742.381 759.227C741.916 759.445 741.524 759.796 741.205 760.279C740.895 760.762 740.658 761.396 740.494 762.18C740.33 762.964 740.248 763.916 740.248 765.037V768.906C740.248 769.799 740.298 770.588 740.398 771.271C740.508 771.955 740.667 772.548 740.877 773.049C741.087 773.541 741.342 773.947 741.643 774.266C741.943 774.585 742.29 774.822 742.682 774.977C743.083 775.122 743.525 775.195 744.008 775.195C744.628 775.195 745.17 775.077 745.635 774.84C746.1 774.603 746.487 774.234 746.797 773.732C747.116 773.222 747.353 772.57 747.508 771.777C747.663 770.975 747.74 770.018 747.74 768.906ZM753.318 761.975V760.922C753.318 760.165 753.482 759.477 753.811 758.857C754.139 758.238 754.608 757.741 755.219 757.367C755.829 756.993 756.554 756.807 757.393 756.807C758.249 756.807 758.979 756.993 759.58 757.367C760.191 757.741 760.66 758.238 760.988 758.857C761.316 759.477 761.48 760.165 761.48 760.922V761.975C761.48 762.713 761.316 763.392 760.988 764.012C760.669 764.632 760.204 765.128 759.594 765.502C758.992 765.876 758.268 766.062 757.42 766.062C756.572 766.062 755.839 765.876 755.219 765.502C754.608 765.128 754.139 764.632 753.811 764.012C753.482 763.392 753.318 762.713 753.318 761.975ZM755.219 760.922V761.975C755.219 762.394 755.296 762.79 755.451 763.164C755.615 763.538 755.861 763.843 756.189 764.08C756.518 764.308 756.928 764.422 757.42 764.422C757.912 764.422 758.318 764.308 758.637 764.08C758.956 763.843 759.193 763.538 759.348 763.164C759.503 762.79 759.58 762.394 759.58 761.975V760.922C759.58 760.493 759.498 760.092 759.334 759.719C759.179 759.336 758.938 759.031 758.609 758.803C758.29 758.566 757.885 758.447 757.393 758.447C756.91 758.447 756.504 758.566 756.176 758.803C755.857 759.031 755.615 759.336 755.451 759.719C755.296 760.092 755.219 760.493 755.219 760.922ZM763.012 773.186V772.119C763.012 771.372 763.176 770.688 763.504 770.068C763.832 769.449 764.301 768.952 764.912 768.578C765.523 768.204 766.247 768.018 767.086 768.018C767.943 768.018 768.672 768.204 769.273 768.578C769.884 768.952 770.354 769.449 770.682 770.068C771.01 770.688 771.174 771.372 771.174 772.119V773.186C771.174 773.933 771.01 774.617 770.682 775.236C770.363 775.856 769.898 776.353 769.287 776.727C768.686 777.1 767.961 777.287 767.113 777.287C766.266 777.287 765.536 777.1 764.926 776.727C764.315 776.353 763.841 775.856 763.504 775.236C763.176 774.617 763.012 773.933 763.012 773.186ZM764.912 772.119V773.186C764.912 773.605 764.99 774.006 765.145 774.389C765.309 774.762 765.555 775.068 765.883 775.305C766.211 775.533 766.621 775.646 767.113 775.646C767.605 775.646 768.011 775.533 768.33 775.305C768.658 775.068 768.9 774.762 769.055 774.389C769.21 774.015 769.287 773.614 769.287 773.186V772.119C769.287 771.691 769.205 771.29 769.041 770.916C768.886 770.542 768.645 770.242 768.316 770.014C767.997 769.777 767.587 769.658 767.086 769.658C766.603 769.658 766.197 769.777 765.869 770.014C765.55 770.242 765.309 770.542 765.145 770.916C764.99 771.29 764.912 771.691 764.912 772.119ZM767.715 759.924L757.994 775.482L756.572 774.58L766.293 759.021L767.715 759.924Z" fill="black"/>
<path d="M48.8145 777L52.6836 757.094H54.6523L50.7695 777H48.8145ZM54.3789 777L58.2617 757.094H60.2168L56.334 777H54.3789ZM61.8848 764.682H47.666V762.781H61.8848V764.682ZM60.8594 771.395H46.627V769.508H60.8594V771.395ZM76.4043 765.461V768.496C76.4043 770.128 76.2585 771.504 75.9668 772.625C75.6751 773.746 75.2559 774.648 74.709 775.332C74.1621 776.016 73.5013 776.512 72.7266 776.822C71.9609 777.123 71.0951 777.273 70.1289 777.273C69.3633 777.273 68.6569 777.178 68.0098 776.986C67.3626 776.795 66.7793 776.49 66.2598 776.07C65.7493 775.642 65.3118 775.086 64.9473 774.402C64.5827 773.719 64.3047 772.889 64.1133 771.914C63.9219 770.939 63.8262 769.799 63.8262 768.496V765.461C63.8262 763.829 63.972 762.462 64.2637 761.359C64.5645 760.257 64.9883 759.372 65.5352 758.707C66.082 758.033 66.7383 757.549 67.5039 757.258C68.2786 756.966 69.1445 756.82 70.1016 756.82C70.8763 756.82 71.5872 756.916 72.2344 757.107C72.8906 757.29 73.474 757.586 73.9844 757.996C74.4948 758.397 74.9277 758.935 75.2832 759.609C75.6478 760.275 75.9258 761.09 76.1172 762.057C76.3086 763.023 76.4043 764.158 76.4043 765.461ZM73.8613 768.906V765.037C73.8613 764.144 73.8066 763.36 73.6973 762.686C73.597 762.002 73.4466 761.419 73.2461 760.936C73.0456 760.452 72.7904 760.061 72.4805 759.76C72.1797 759.459 71.8288 759.24 71.4277 759.104C71.0358 758.958 70.5938 758.885 70.1016 758.885C69.5 758.885 68.9668 758.999 68.502 759.227C68.0371 759.445 67.6452 759.796 67.3262 760.279C67.0163 760.762 66.7793 761.396 66.6152 762.18C66.4512 762.964 66.3691 763.916 66.3691 765.037V768.906C66.3691 769.799 66.4193 770.588 66.5195 771.271C66.6289 771.955 66.7884 772.548 66.998 773.049C67.2077 773.541 67.4629 773.947 67.7637 774.266C68.0645 774.585 68.4108 774.822 68.8027 774.977C69.2038 775.122 69.6458 775.195 70.1289 775.195C70.7487 775.195 71.291 775.077 71.7559 774.84C72.2207 774.603 72.6081 774.234 72.918 773.732C73.237 773.222 73.474 772.57 73.6289 771.777C73.7839 770.975 73.8613 770.018 73.8613 768.906ZM92.1543 765.461V768.496C92.1543 770.128 92.0085 771.504 91.7168 772.625C91.4251 773.746 91.0059 774.648 90.459 775.332C89.9121 776.016 89.2513 776.512 88.4766 776.822C87.7109 777.123 86.8451 777.273 85.8789 777.273C85.1133 777.273 84.4069 777.178 83.7598 776.986C83.1126 776.795 82.5293 776.49 82.0098 776.07C81.4993 775.642 81.0618 775.086 80.6973 774.402C80.3327 773.719 80.0547 772.889 79.8633 771.914C79.6719 770.939 79.5762 769.799 79.5762 768.496V765.461C79.5762 763.829 79.722 762.462 80.0137 761.359C80.3145 760.257 80.7383 759.372 81.2852 758.707C81.832 758.033 82.4883 757.549 83.2539 757.258C84.0286 756.966 84.8945 756.82 85.8516 756.82C86.6263 756.82 87.3372 756.916 87.9844 757.107C88.6406 757.29 89.224 757.586 89.7344 757.996C90.2448 758.397 90.6777 758.935 91.0332 759.609C91.3978 760.275 91.6758 761.09 91.8672 762.057C92.0586 763.023 92.1543 764.158 92.1543 765.461ZM89.6113 768.906V765.037C89.6113 764.144 89.5566 763.36 89.4473 762.686C89.347 762.002 89.1966 761.419 88.9961 760.936C88.7956 760.452 88.5404 760.061 88.2305 759.76C87.9297 759.459 87.5788 759.24 87.1777 759.104C86.7858 758.958 86.3438 758.885 85.8516 758.885C85.25 758.885 84.7168 758.999 84.252 759.227C83.7871 759.445 83.3952 759.796 83.0762 760.279C82.7663 760.762 82.5293 761.396 82.3652 762.18C82.2012 762.964 82.1191 763.916 82.1191 765.037V768.906C82.1191 769.799 82.1693 770.588 82.2695 771.271C82.3789 771.955 82.5384 772.548 82.748 773.049C82.9577 773.541 83.2129 773.947 83.5137 774.266C83.8145 774.585 84.1608 774.822 84.5527 774.977C84.9538 775.122 85.3958 775.195 85.8789 775.195C86.4987 775.195 87.041 775.077 87.5059 774.84C87.9707 774.603 88.3581 774.234 88.668 773.732C88.987 773.222 89.224 772.57 89.3789 771.777C89.5339 770.975 89.6113 770.018 89.6113 768.906ZM107.904 765.461V768.496C107.904 770.128 107.758 771.504 107.467 772.625C107.175 773.746 106.756 774.648 106.209 775.332C105.662 776.016 105.001 776.512 104.227 776.822C103.461 777.123 102.595 777.273 101.629 777.273C100.863 777.273 100.157 777.178 99.5098 776.986C98.8626 776.795 98.2793 776.49 97.7598 776.07C97.2493 775.642 96.8118 775.086 96.4473 774.402C96.0827 773.719 95.8047 772.889 95.6133 771.914C95.4219 770.939 95.3262 769.799 95.3262 768.496V765.461C95.3262 763.829 95.472 762.462 95.7637 761.359C96.0645 760.257 96.4883 759.372 97.0352 758.707C97.582 758.033 98.2383 757.549 99.0039 757.258C99.7786 756.966 100.645 756.82 101.602 756.82C102.376 756.82 103.087 756.916 103.734 757.107C104.391 757.29 104.974 757.586 105.484 757.996C105.995 758.397 106.428 758.935 106.783 759.609C107.148 760.275 107.426 761.09 107.617 762.057C107.809 763.023 107.904 764.158 107.904 765.461ZM105.361 768.906V765.037C105.361 764.144 105.307 763.36 105.197 762.686C105.097 762.002 104.947 761.419 104.746 760.936C104.546 760.452 104.29 760.061 103.98 759.76C103.68 759.459 103.329 759.24 102.928 759.104C102.536 758.958 102.094 758.885 101.602 758.885C101 758.885 100.467 758.999 100.002 759.227C99.5371 759.445 99.1452 759.796 98.8262 760.279C98.5163 760.762 98.2793 761.396 98.1152 762.18C97.9512 762.964 97.8691 763.916 97.8691 765.037V768.906C97.8691 769.799 97.9193 770.588 98.0195 771.271C98.1289 771.955 98.2884 772.548 98.498 773.049C98.7077 773.541 98.9629 773.947 99.2637 774.266C99.5645 774.585 99.9108 774.822 100.303 774.977C100.704 775.122 101.146 775.195 101.629 775.195C102.249 775.195 102.791 775.077 103.256 774.84C103.721 774.603 104.108 774.234 104.418 773.732C104.737 773.222 104.974 772.57 105.129 771.777C105.284 770.975 105.361 770.018 105.361 768.906ZM123.654 765.461V768.496C123.654 770.128 123.508 771.504 123.217 772.625C122.925 773.746 122.506 774.648 121.959 775.332C121.412 776.016 120.751 776.512 119.977 776.822C119.211 777.123 118.345 777.273 117.379 777.273C116.613 777.273 115.907 777.178 115.26 776.986C114.613 776.795 114.029 776.49 113.51 776.07C112.999 775.642 112.562 775.086 112.197 774.402C111.833 773.719 111.555 772.889 111.363 771.914C111.172 770.939 111.076 769.799 111.076 768.496V765.461C111.076 763.829 111.222 762.462 111.514 761.359C111.814 760.257 112.238 759.372 112.785 758.707C113.332 758.033 113.988 757.549 114.754 757.258C115.529 756.966 116.395 756.82 117.352 756.82C118.126 756.82 118.837 756.916 119.484 757.107C120.141 757.29 120.724 757.586 121.234 757.996C121.745 758.397 122.178 758.935 122.533 759.609C122.898 760.275 123.176 761.09 123.367 762.057C123.559 763.023 123.654 764.158 123.654 765.461ZM121.111 768.906V765.037C121.111 764.144 121.057 763.36 120.947 762.686C120.847 762.002 120.697 761.419 120.496 760.936C120.296 760.452 120.04 760.061 119.73 759.76C119.43 759.459 119.079 759.24 118.678 759.104C118.286 758.958 117.844 758.885 117.352 758.885C116.75 758.885 116.217 758.999 115.752 759.227C115.287 759.445 114.895 759.796 114.576 760.279C114.266 760.762 114.029 761.396 113.865 762.18C113.701 762.964 113.619 763.916 113.619 765.037V768.906C113.619 769.799 113.669 770.588 113.77 771.271C113.879 771.955 114.038 772.548 114.248 773.049C114.458 773.541 114.713 773.947 115.014 774.266C115.314 774.585 115.661 774.822 116.053 774.977C116.454 775.122 116.896 775.195 117.379 775.195C117.999 775.195 118.541 775.077 119.006 774.84C119.471 774.603 119.858 774.234 120.168 773.732C120.487 773.222 120.724 772.57 120.879 771.777C121.034 770.975 121.111 770.018 121.111 768.906ZM139.404 765.461V768.496C139.404 770.128 139.258 771.504 138.967 772.625C138.675 773.746 138.256 774.648 137.709 775.332C137.162 776.016 136.501 776.512 135.727 776.822C134.961 777.123 134.095 777.273 133.129 777.273C132.363 777.273 131.657 777.178 131.01 776.986C130.363 776.795 129.779 776.49 129.26 776.07C128.749 775.642 128.312 775.086 127.947 774.402C127.583 773.719 127.305 772.889 127.113 771.914C126.922 770.939 126.826 769.799 126.826 768.496V765.461C126.826 763.829 126.972 762.462 127.264 761.359C127.564 760.257 127.988 759.372 128.535 758.707C129.082 758.033 129.738 757.549 130.504 757.258C131.279 756.966 132.145 756.82 133.102 756.82C133.876 756.82 134.587 756.916 135.234 757.107C135.891 757.29 136.474 757.586 136.984 757.996C137.495 758.397 137.928 758.935 138.283 759.609C138.648 760.275 138.926 761.09 139.117 762.057C139.309 763.023 139.404 764.158 139.404 765.461ZM136.861 768.906V765.037C136.861 764.144 136.807 763.36 136.697 762.686C136.597 762.002 136.447 761.419 136.246 760.936C136.046 760.452 135.79 760.061 135.48 759.76C135.18 759.459 134.829 759.24 134.428 759.104C134.036 758.958 133.594 758.885 133.102 758.885C132.5 758.885 131.967 758.999 131.502 759.227C131.037 759.445 130.645 759.796 130.326 760.279C130.016 760.762 129.779 761.396 129.615 762.18C129.451 762.964 129.369 763.916 129.369 765.037V768.906C129.369 769.799 129.419 770.588 129.52 771.271C129.629 771.955 129.788 772.548 129.998 773.049C130.208 773.541 130.463 773.947 130.764 774.266C131.064 774.585 131.411 774.822 131.803 774.977C132.204 775.122 132.646 775.195 133.129 775.195C133.749 775.195 134.291 775.077 134.756 774.84C135.221 774.603 135.608 774.234 135.918 773.732C136.237 773.222 136.474 772.57 136.629 771.777C136.784 770.975 136.861 770.018 136.861 768.906ZM155.154 765.461V768.496C155.154 770.128 155.008 771.504 154.717 772.625C154.425 773.746 154.006 774.648 153.459 775.332C152.912 776.016 152.251 776.512 151.477 776.822C150.711 777.123 149.845 777.273 148.879 777.273C148.113 777.273 147.407 777.178 146.76 776.986C146.113 776.795 145.529 776.49 145.01 776.07C144.499 775.642 144.062 775.086 143.697 774.402C143.333 773.719 143.055 772.889 142.863 771.914C142.672 770.939 142.576 769.799 142.576 768.496V765.461C142.576 763.829 142.722 762.462 143.014 761.359C143.314 760.257 143.738 759.372 144.285 758.707C144.832 758.033 145.488 757.549 146.254 757.258C147.029 756.966 147.895 756.82 148.852 756.82C149.626 756.82 150.337 756.916 150.984 757.107C151.641 757.29 152.224 757.586 152.734 757.996C153.245 758.397 153.678 758.935 154.033 759.609C154.398 760.275 154.676 761.09 154.867 762.057C155.059 763.023 155.154 764.158 155.154 765.461ZM152.611 768.906V765.037C152.611 764.144 152.557 763.36 152.447 762.686C152.347 762.002 152.197 761.419 151.996 760.936C151.796 760.452 151.54 760.061 151.23 759.76C150.93 759.459 150.579 759.24 150.178 759.104C149.786 758.958 149.344 758.885 148.852 758.885C148.25 758.885 147.717 758.999 147.252 759.227C146.787 759.445 146.395 759.796 146.076 760.279C145.766 760.762 145.529 761.396 145.365 762.18C145.201 762.964 145.119 763.916 145.119 765.037V768.906C145.119 769.799 145.169 770.588 145.27 771.271C145.379 771.955 145.538 772.548 145.748 773.049C145.958 773.541 146.213 773.947 146.514 774.266C146.814 774.585 147.161 774.822 147.553 774.977C147.954 775.122 148.396 775.195 148.879 775.195C149.499 775.195 150.041 775.077 150.506 774.84C150.971 774.603 151.358 774.234 151.668 773.732C151.987 773.222 152.224 772.57 152.379 771.777C152.534 770.975 152.611 770.018 152.611 768.906ZM170.891 767.498V769.576H164.219V767.498H170.891ZM189.744 757.066H189.963V759.213H189.744C188.404 759.213 187.283 759.432 186.381 759.869C185.479 760.298 184.763 760.876 184.234 761.605C183.706 762.326 183.323 763.137 183.086 764.039C182.858 764.941 182.744 765.857 182.744 766.787V769.713C182.744 770.597 182.849 771.381 183.059 772.064C183.268 772.739 183.555 773.309 183.92 773.773C184.285 774.238 184.695 774.589 185.15 774.826C185.615 775.063 186.098 775.182 186.6 775.182C187.183 775.182 187.702 775.072 188.158 774.854C188.614 774.626 188.997 774.311 189.307 773.91C189.626 773.5 189.867 773.017 190.031 772.461C190.195 771.905 190.277 771.294 190.277 770.629C190.277 770.036 190.204 769.467 190.059 768.92C189.913 768.364 189.689 767.872 189.389 767.443C189.088 767.006 188.71 766.664 188.254 766.418C187.807 766.163 187.274 766.035 186.654 766.035C185.952 766.035 185.296 766.208 184.686 766.555C184.084 766.892 183.587 767.339 183.195 767.895C182.812 768.441 182.594 769.038 182.539 769.686L181.199 769.672C181.327 768.651 181.564 767.781 181.91 767.061C182.266 766.331 182.703 765.739 183.223 765.283C183.751 764.818 184.339 764.481 184.986 764.271C185.643 764.053 186.335 763.943 187.064 763.943C188.058 763.943 188.915 764.13 189.635 764.504C190.355 764.878 190.947 765.379 191.412 766.008C191.877 766.628 192.219 767.329 192.438 768.113C192.665 768.888 192.779 769.686 192.779 770.506C192.779 771.445 192.647 772.324 192.383 773.145C192.118 773.965 191.722 774.685 191.193 775.305C190.674 775.924 190.031 776.408 189.266 776.754C188.5 777.1 187.611 777.273 186.6 777.273C185.524 777.273 184.585 777.055 183.783 776.617C182.981 776.171 182.316 775.578 181.787 774.84C181.258 774.102 180.862 773.281 180.598 772.379C180.333 771.477 180.201 770.561 180.201 769.631V768.441C180.201 767.038 180.342 765.661 180.625 764.312C180.908 762.964 181.395 761.742 182.088 760.648C182.79 759.555 183.76 758.684 185 758.037C186.24 757.39 187.821 757.066 189.744 757.066ZM208.283 765.461V768.496C208.283 770.128 208.137 771.504 207.846 772.625C207.554 773.746 207.135 774.648 206.588 775.332C206.041 776.016 205.38 776.512 204.605 776.822C203.84 777.123 202.974 777.273 202.008 777.273C201.242 777.273 200.536 777.178 199.889 776.986C199.242 776.795 198.658 776.49 198.139 776.07C197.628 775.642 197.191 775.086 196.826 774.402C196.462 773.719 196.184 772.889 195.992 771.914C195.801 770.939 195.705 769.799 195.705 768.496V765.461C195.705 763.829 195.851 762.462 196.143 761.359C196.443 760.257 196.867 759.372 197.414 758.707C197.961 758.033 198.617 757.549 199.383 757.258C200.158 756.966 201.023 756.82 201.98 756.82C202.755 756.82 203.466 756.916 204.113 757.107C204.77 757.29 205.353 757.586 205.863 757.996C206.374 758.397 206.807 758.935 207.162 759.609C207.527 760.275 207.805 761.09 207.996 762.057C208.188 763.023 208.283 764.158 208.283 765.461ZM205.74 768.906V765.037C205.74 764.144 205.686 763.36 205.576 762.686C205.476 762.002 205.326 761.419 205.125 760.936C204.924 760.452 204.669 760.061 204.359 759.76C204.059 759.459 203.708 759.24 203.307 759.104C202.915 758.958 202.473 758.885 201.98 758.885C201.379 758.885 200.846 758.999 200.381 759.227C199.916 759.445 199.524 759.796 199.205 760.279C198.895 760.762 198.658 761.396 198.494 762.18C198.33 762.964 198.248 763.916 198.248 765.037V768.906C198.248 769.799 198.298 770.588 198.398 771.271C198.508 771.955 198.667 772.548 198.877 773.049C199.087 773.541 199.342 773.947 199.643 774.266C199.943 774.585 200.29 774.822 200.682 774.977C201.083 775.122 201.525 775.195 202.008 775.195C202.628 775.195 203.17 775.077 203.635 774.84C204.1 774.603 204.487 774.234 204.797 773.732C205.116 773.222 205.353 772.57 205.508 771.777C205.663 770.975 205.74 770.018 205.74 768.906ZM211.318 761.975V760.922C211.318 760.165 211.482 759.477 211.811 758.857C212.139 758.238 212.608 757.741 213.219 757.367C213.829 756.993 214.554 756.807 215.393 756.807C216.249 756.807 216.979 756.993 217.58 757.367C218.191 757.741 218.66 758.238 218.988 758.857C219.316 759.477 219.48 760.165 219.48 760.922V761.975C219.48 762.713 219.316 763.392 218.988 764.012C218.669 764.632 218.204 765.128 217.594 765.502C216.992 765.876 216.268 766.062 215.42 766.062C214.572 766.062 213.839 765.876 213.219 765.502C212.608 765.128 212.139 764.632 211.811 764.012C211.482 763.392 211.318 762.713 211.318 761.975ZM213.219 760.922V761.975C213.219 762.394 213.296 762.79 213.451 763.164C213.615 763.538 213.861 763.843 214.189 764.08C214.518 764.308 214.928 764.422 215.42 764.422C215.912 764.422 216.318 764.308 216.637 764.08C216.956 763.843 217.193 763.538 217.348 763.164C217.503 762.79 217.58 762.394 217.58 761.975V760.922C217.58 760.493 217.498 760.092 217.334 759.719C217.179 759.336 216.938 759.031 216.609 758.803C216.29 758.566 215.885 758.447 215.393 758.447C214.91 758.447 214.504 758.566 214.176 758.803C213.857 759.031 213.615 759.336 213.451 759.719C213.296 760.092 213.219 760.493 213.219 760.922ZM221.012 773.186V772.119C221.012 771.372 221.176 770.688 221.504 770.068C221.832 769.449 222.301 768.952 222.912 768.578C223.523 768.204 224.247 768.018 225.086 768.018C225.943 768.018 226.672 768.204 227.273 768.578C227.884 768.952 228.354 769.449 228.682 770.068C229.01 770.688 229.174 771.372 229.174 772.119V773.186C229.174 773.933 229.01 774.617 228.682 775.236C228.363 775.856 227.898 776.353 227.287 776.727C226.686 777.1 225.961 777.287 225.113 777.287C224.266 777.287 223.536 777.1 222.926 776.727C222.315 776.353 221.841 775.856 221.504 775.236C221.176 774.617 221.012 773.933 221.012 773.186ZM222.912 772.119V773.186C222.912 773.605 222.99 774.006 223.145 774.389C223.309 774.762 223.555 775.068 223.883 775.305C224.211 775.533 224.621 775.646 225.113 775.646C225.605 775.646 226.011 775.533 226.33 775.305C226.658 775.068 226.9 774.762 227.055 774.389C227.21 774.015 227.287 773.614 227.287 773.186V772.119C227.287 771.691 227.205 771.29 227.041 770.916C226.886 770.542 226.645 770.242 226.316 770.014C225.997 769.777 225.587 769.658 225.086 769.658C224.603 769.658 224.197 769.777 223.869 770.014C223.55 770.242 223.309 770.542 223.145 770.916C222.99 771.29 222.912 771.691 222.912 772.119ZM225.715 759.924L215.994 775.482L214.572 774.58L224.293 759.021L225.715 759.924Z" fill="white"/>
<rect width="1085" height="271" fill="#FFD80E"/>
<path d="M48.8145 235L52.6836 215.094H54.6523L50.7695 235H48.8145ZM54.3789 235L58.2617 215.094H60.2168L56.334 235H54.3789ZM61.8848 222.682H47.666V220.781H61.8848V222.682ZM60.8594 229.395H46.627V227.508H60.8594V229.395ZM67.2031 215.094V235H64.5645V215.094H67.2031ZM75.543 224.049V226.209H66.6289V224.049H75.543ZM76.8965 215.094V217.254H66.6289V215.094H76.8965ZM82.6797 215.094V235H80.041V215.094H82.6797ZM91.0195 224.049V226.209H82.1055V224.049H91.0195ZM92.373 215.094V217.254H82.1055V215.094H92.373ZM100.904 235H96.748L96.7754 232.854H100.904C102.326 232.854 103.511 232.557 104.459 231.965C105.407 231.363 106.118 230.525 106.592 229.449C107.075 228.365 107.316 227.098 107.316 225.648V224.432C107.316 223.292 107.18 222.281 106.906 221.396C106.633 220.503 106.232 219.751 105.703 219.141C105.174 218.521 104.527 218.051 103.762 217.732C103.005 217.413 102.135 217.254 101.15 217.254H96.666V215.094H101.15C102.454 215.094 103.643 215.312 104.719 215.75C105.794 216.178 106.719 216.803 107.494 217.623C108.278 218.434 108.88 219.419 109.299 220.576C109.718 221.725 109.928 223.019 109.928 224.459V225.648C109.928 227.089 109.718 228.387 109.299 229.545C108.88 230.693 108.273 231.673 107.48 232.484C106.697 233.296 105.749 233.92 104.637 234.357C103.534 234.786 102.29 235 100.904 235ZM98.1562 215.094V235H95.5176V215.094H98.1562ZM125.787 229.613C125.787 230.826 125.505 231.855 124.939 232.703C124.383 233.542 123.627 234.18 122.67 234.617C121.722 235.055 120.651 235.273 119.457 235.273C118.263 235.273 117.188 235.055 116.23 234.617C115.273 234.18 114.517 233.542 113.961 232.703C113.405 231.855 113.127 230.826 113.127 229.613C113.127 228.82 113.277 228.096 113.578 227.439C113.888 226.774 114.321 226.195 114.877 225.703C115.442 225.211 116.107 224.833 116.873 224.568C117.648 224.295 118.5 224.158 119.43 224.158C120.651 224.158 121.74 224.395 122.697 224.869C123.654 225.334 124.406 225.977 124.953 226.797C125.509 227.617 125.787 228.556 125.787 229.613ZM123.244 229.559C123.244 228.82 123.085 228.169 122.766 227.604C122.447 227.029 122 226.583 121.426 226.264C120.852 225.945 120.186 225.785 119.43 225.785C118.655 225.785 117.985 225.945 117.42 226.264C116.864 226.583 116.431 227.029 116.121 227.604C115.811 228.169 115.656 228.82 115.656 229.559C115.656 230.324 115.807 230.98 116.107 231.527C116.417 232.065 116.855 232.48 117.42 232.771C117.994 233.054 118.673 233.195 119.457 233.195C120.241 233.195 120.915 233.054 121.48 232.771C122.046 232.48 122.479 232.065 122.779 231.527C123.089 230.98 123.244 230.324 123.244 229.559ZM125.322 220.275C125.322 221.242 125.067 222.112 124.557 222.887C124.046 223.661 123.349 224.272 122.465 224.719C121.581 225.165 120.578 225.389 119.457 225.389C118.318 225.389 117.301 225.165 116.408 224.719C115.524 224.272 114.831 223.661 114.33 222.887C113.829 222.112 113.578 221.242 113.578 220.275C113.578 219.118 113.829 218.133 114.33 217.322C114.84 216.511 115.538 215.891 116.422 215.463C117.306 215.035 118.313 214.82 119.443 214.82C120.583 214.82 121.594 215.035 122.479 215.463C123.363 215.891 124.055 216.511 124.557 217.322C125.067 218.133 125.322 219.118 125.322 220.275ZM122.793 220.316C122.793 219.651 122.652 219.063 122.369 218.553C122.087 218.042 121.695 217.641 121.193 217.35C120.692 217.049 120.109 216.898 119.443 216.898C118.778 216.898 118.195 217.04 117.693 217.322C117.201 217.596 116.814 217.988 116.531 218.498C116.258 219.008 116.121 219.615 116.121 220.316C116.121 221 116.258 221.597 116.531 222.107C116.814 222.618 117.206 223.014 117.707 223.297C118.208 223.579 118.792 223.721 119.457 223.721C120.122 223.721 120.701 223.579 121.193 223.297C121.695 223.014 122.087 222.618 122.369 222.107C122.652 221.597 122.793 221 122.793 220.316ZM141.482 223.461V226.496C141.482 228.128 141.337 229.504 141.045 230.625C140.753 231.746 140.334 232.648 139.787 233.332C139.24 234.016 138.579 234.512 137.805 234.822C137.039 235.123 136.173 235.273 135.207 235.273C134.441 235.273 133.735 235.178 133.088 234.986C132.441 234.795 131.857 234.49 131.338 234.07C130.827 233.642 130.39 233.086 130.025 232.402C129.661 231.719 129.383 230.889 129.191 229.914C129 228.939 128.904 227.799 128.904 226.496V223.461C128.904 221.829 129.05 220.462 129.342 219.359C129.643 218.257 130.066 217.372 130.613 216.707C131.16 216.033 131.816 215.549 132.582 215.258C133.357 214.966 134.223 214.82 135.18 214.82C135.954 214.82 136.665 214.916 137.312 215.107C137.969 215.29 138.552 215.586 139.062 215.996C139.573 216.397 140.006 216.935 140.361 217.609C140.726 218.275 141.004 219.09 141.195 220.057C141.387 221.023 141.482 222.158 141.482 223.461ZM138.939 226.906V223.037C138.939 222.144 138.885 221.36 138.775 220.686C138.675 220.002 138.525 219.419 138.324 218.936C138.124 218.452 137.868 218.061 137.559 217.76C137.258 217.459 136.907 217.24 136.506 217.104C136.114 216.958 135.672 216.885 135.18 216.885C134.578 216.885 134.045 216.999 133.58 217.227C133.115 217.445 132.723 217.796 132.404 218.279C132.094 218.762 131.857 219.396 131.693 220.18C131.529 220.964 131.447 221.916 131.447 223.037V226.906C131.447 227.799 131.497 228.588 131.598 229.271C131.707 229.955 131.867 230.548 132.076 231.049C132.286 231.541 132.541 231.947 132.842 232.266C133.143 232.585 133.489 232.822 133.881 232.977C134.282 233.122 134.724 233.195 135.207 233.195C135.827 233.195 136.369 233.077 136.834 232.84C137.299 232.603 137.686 232.234 137.996 231.732C138.315 231.222 138.552 230.57 138.707 229.777C138.862 228.975 138.939 228.018 138.939 226.906ZM158.039 232.854V235H147.498V232.854H158.039ZM148.031 215.094V235H145.393V215.094H148.031ZM156.645 223.652V225.799H147.498V223.652H156.645ZM157.902 215.094V217.254H147.498V215.094H157.902Z" fill="black"/>
</svg>
