<svg width="1085" height="1085" viewBox="0 0 1085 1085" fill="none" xmlns="http://www.w3.org/2000/svg">
<rect width="1085" height="1085" fill="white"/>
<rect width="1085" height="271.25" fill="black"/>
<path d="M48.8145 235L52.6836 215.094H54.6523L50.7695 235H48.8145ZM54.3789 235L58.2617 215.094H60.2168L56.334 235H54.3789ZM61.8848 222.682H47.666V220.781H61.8848V222.682ZM60.8594 229.395H46.627V227.508H60.8594V229.395ZM76.4043 223.461V226.496C76.4043 228.128 76.2585 229.504 75.9668 230.625C75.6751 231.746 75.2559 232.648 74.709 233.332C74.1621 234.016 73.5013 234.512 72.7266 234.822C71.9609 235.123 71.0951 235.273 70.1289 235.273C69.3633 235.273 68.6569 235.178 68.0098 234.986C67.3626 234.795 66.7793 234.49 66.2598 234.07C65.7493 233.642 65.3118 233.086 64.9473 232.402C64.5827 231.719 64.3047 230.889 64.1133 229.914C63.9219 228.939 63.8262 227.799 63.8262 226.496V223.461C63.8262 221.829 63.972 220.462 64.2637 219.359C64.5645 218.257 64.9883 217.372 65.5352 216.707C66.082 216.033 66.7383 215.549 67.5039 215.258C68.2786 214.966 69.1445 214.82 70.1016 214.82C70.8763 214.82 71.5872 214.916 72.2344 215.107C72.8906 215.29 73.474 215.586 73.9844 215.996C74.4948 216.397 74.9277 216.935 75.2832 217.609C75.6478 218.275 75.9258 219.09 76.1172 220.057C76.3086 221.023 76.4043 222.158 76.4043 223.461ZM73.8613 226.906V223.037C73.8613 222.144 73.8066 221.36 73.6973 220.686C73.597 220.002 73.4466 219.419 73.2461 218.936C73.0456 218.452 72.7904 218.061 72.4805 217.76C72.1797 217.459 71.8288 217.24 71.4277 217.104C71.0358 216.958 70.5938 216.885 70.1016 216.885C69.5 216.885 68.9668 216.999 68.502 217.227C68.0371 217.445 67.6452 217.796 67.3262 218.279C67.0163 218.762 66.7793 219.396 66.6152 220.18C66.4512 220.964 66.3691 221.916 66.3691 223.037V226.906C66.3691 227.799 66.4193 228.588 66.5195 229.271C66.6289 229.955 66.7884 230.548 66.998 231.049C67.2077 231.541 67.4629 231.947 67.7637 232.266C68.0645 232.585 68.4108 232.822 68.8027 232.977C69.2038 233.122 69.6458 233.195 70.1289 233.195C70.7487 233.195 71.291 233.077 71.7559 232.84C72.2207 232.603 72.6081 232.234 72.918 231.732C73.237 231.222 73.474 230.57 73.6289 229.777C73.7839 228.975 73.8613 228.018 73.8613 226.906ZM92.1543 223.461V226.496C92.1543 228.128 92.0085 229.504 91.7168 230.625C91.4251 231.746 91.0059 232.648 90.459 233.332C89.9121 234.016 89.2513 234.512 88.4766 234.822C87.7109 235.123 86.8451 235.273 85.8789 235.273C85.1133 235.273 84.4069 235.178 83.7598 234.986C83.1126 234.795 82.5293 234.49 82.0098 234.07C81.4993 233.642 81.0618 233.086 80.6973 232.402C80.3327 231.719 80.0547 230.889 79.8633 229.914C79.6719 228.939 79.5762 227.799 79.5762 226.496V223.461C79.5762 221.829 79.722 220.462 80.0137 219.359C80.3145 218.257 80.7383 217.372 81.2852 216.707C81.832 216.033 82.4883 215.549 83.2539 215.258C84.0286 214.966 84.8945 214.82 85.8516 214.82C86.6263 214.82 87.3372 214.916 87.9844 215.107C88.6406 215.29 89.224 215.586 89.7344 215.996C90.2448 216.397 90.6777 216.935 91.0332 217.609C91.3978 218.275 91.6758 219.09 91.8672 220.057C92.0586 221.023 92.1543 222.158 92.1543 223.461ZM89.6113 226.906V223.037C89.6113 222.144 89.5566 221.36 89.4473 220.686C89.347 220.002 89.1966 219.419 88.9961 218.936C88.7956 218.452 88.5404 218.061 88.2305 217.76C87.9297 217.459 87.5788 217.24 87.1777 217.104C86.7858 216.958 86.3438 216.885 85.8516 216.885C85.25 216.885 84.7168 216.999 84.252 217.227C83.7871 217.445 83.3952 217.796 83.0762 218.279C82.7663 218.762 82.5293 219.396 82.3652 220.18C82.2012 220.964 82.1191 221.916 82.1191 223.037V226.906C82.1191 227.799 82.1693 228.588 82.2695 229.271C82.3789 229.955 82.5384 230.548 82.748 231.049C82.9577 231.541 83.2129 231.947 83.5137 232.266C83.8145 232.585 84.1608 232.822 84.5527 232.977C84.9538 233.122 85.3958 233.195 85.8789 233.195C86.4987 233.195 87.041 233.077 87.5059 232.84C87.9707 232.603 88.3581 232.234 88.668 231.732C88.987 231.222 89.224 230.57 89.3789 229.777C89.5339 228.975 89.6113 228.018 89.6113 226.906ZM107.904 223.461V226.496C107.904 228.128 107.758 229.504 107.467 230.625C107.175 231.746 106.756 232.648 106.209 233.332C105.662 234.016 105.001 234.512 104.227 234.822C103.461 235.123 102.595 235.273 101.629 235.273C100.863 235.273 100.157 235.178 99.5098 234.986C98.8626 234.795 98.2793 234.49 97.7598 234.07C97.2493 233.642 96.8118 233.086 96.4473 232.402C96.0827 231.719 95.8047 230.889 95.6133 229.914C95.4219 228.939 95.3262 227.799 95.3262 226.496V223.461C95.3262 221.829 95.472 220.462 95.7637 219.359C96.0645 218.257 96.4883 217.372 97.0352 216.707C97.582 216.033 98.2383 215.549 99.0039 215.258C99.7786 214.966 100.645 214.82 101.602 214.82C102.376 214.82 103.087 214.916 103.734 215.107C104.391 215.29 104.974 215.586 105.484 215.996C105.995 216.397 106.428 216.935 106.783 217.609C107.148 218.275 107.426 219.09 107.617 220.057C107.809 221.023 107.904 222.158 107.904 223.461ZM105.361 226.906V223.037C105.361 222.144 105.307 221.36 105.197 220.686C105.097 220.002 104.947 219.419 104.746 218.936C104.546 218.452 104.29 218.061 103.98 217.76C103.68 217.459 103.329 217.24 102.928 217.104C102.536 216.958 102.094 216.885 101.602 216.885C101 216.885 100.467 216.999 100.002 217.227C99.5371 217.445 99.1452 217.796 98.8262 218.279C98.5163 218.762 98.2793 219.396 98.1152 220.18C97.9512 220.964 97.8691 221.916 97.8691 223.037V226.906C97.8691 227.799 97.9193 228.588 98.0195 229.271C98.1289 229.955 98.2884 230.548 98.498 231.049C98.7077 231.541 98.9629 231.947 99.2637 232.266C99.5645 232.585 99.9108 232.822 100.303 232.977C100.704 233.122 101.146 233.195 101.629 233.195C102.249 233.195 102.791 233.077 103.256 232.84C103.721 232.603 104.108 232.234 104.418 231.732C104.737 231.222 104.974 230.57 105.129 229.777C105.284 228.975 105.361 228.018 105.361 226.906ZM123.654 223.461V226.496C123.654 228.128 123.508 229.504 123.217 230.625C122.925 231.746 122.506 232.648 121.959 233.332C121.412 234.016 120.751 234.512 119.977 234.822C119.211 235.123 118.345 235.273 117.379 235.273C116.613 235.273 115.907 235.178 115.26 234.986C114.613 234.795 114.029 234.49 113.51 234.07C112.999 233.642 112.562 233.086 112.197 232.402C111.833 231.719 111.555 230.889 111.363 229.914C111.172 228.939 111.076 227.799 111.076 226.496V223.461C111.076 221.829 111.222 220.462 111.514 219.359C111.814 218.257 112.238 217.372 112.785 216.707C113.332 216.033 113.988 215.549 114.754 215.258C115.529 214.966 116.395 214.82 117.352 214.82C118.126 214.82 118.837 214.916 119.484 215.107C120.141 215.29 120.724 215.586 121.234 215.996C121.745 216.397 122.178 216.935 122.533 217.609C122.898 218.275 123.176 219.09 123.367 220.057C123.559 221.023 123.654 222.158 123.654 223.461ZM121.111 226.906V223.037C121.111 222.144 121.057 221.36 120.947 220.686C120.847 220.002 120.697 219.419 120.496 218.936C120.296 218.452 120.04 218.061 119.73 217.76C119.43 217.459 119.079 217.24 118.678 217.104C118.286 216.958 117.844 216.885 117.352 216.885C116.75 216.885 116.217 216.999 115.752 217.227C115.287 217.445 114.895 217.796 114.576 218.279C114.266 218.762 114.029 219.396 113.865 220.18C113.701 220.964 113.619 221.916 113.619 223.037V226.906C113.619 227.799 113.669 228.588 113.77 229.271C113.879 229.955 114.038 230.548 114.248 231.049C114.458 231.541 114.713 231.947 115.014 232.266C115.314 232.585 115.661 232.822 116.053 232.977C116.454 233.122 116.896 233.195 117.379 233.195C117.999 233.195 118.541 233.077 119.006 232.84C119.471 232.603 119.858 232.234 120.168 231.732C120.487 231.222 120.724 230.57 120.879 229.777C121.034 228.975 121.111 228.018 121.111 226.906ZM139.404 223.461V226.496C139.404 228.128 139.258 229.504 138.967 230.625C138.675 231.746 138.256 232.648 137.709 233.332C137.162 234.016 136.501 234.512 135.727 234.822C134.961 235.123 134.095 235.273 133.129 235.273C132.363 235.273 131.657 235.178 131.01 234.986C130.363 234.795 129.779 234.49 129.26 234.07C128.749 233.642 128.312 233.086 127.947 232.402C127.583 231.719 127.305 230.889 127.113 229.914C126.922 228.939 126.826 227.799 126.826 226.496V223.461C126.826 221.829 126.972 220.462 127.264 219.359C127.564 218.257 127.988 217.372 128.535 216.707C129.082 216.033 129.738 215.549 130.504 215.258C131.279 214.966 132.145 214.82 133.102 214.82C133.876 214.82 134.587 214.916 135.234 215.107C135.891 215.29 136.474 215.586 136.984 215.996C137.495 216.397 137.928 216.935 138.283 217.609C138.648 218.275 138.926 219.09 139.117 220.057C139.309 221.023 139.404 222.158 139.404 223.461ZM136.861 226.906V223.037C136.861 222.144 136.807 221.36 136.697 220.686C136.597 220.002 136.447 219.419 136.246 218.936C136.046 218.452 135.79 218.061 135.48 217.76C135.18 217.459 134.829 217.24 134.428 217.104C134.036 216.958 133.594 216.885 133.102 216.885C132.5 216.885 131.967 216.999 131.502 217.227C131.037 217.445 130.645 217.796 130.326 218.279C130.016 218.762 129.779 219.396 129.615 220.18C129.451 220.964 129.369 221.916 129.369 223.037V226.906C129.369 227.799 129.419 228.588 129.52 229.271C129.629 229.955 129.788 230.548 129.998 231.049C130.208 231.541 130.463 231.947 130.764 232.266C131.064 232.585 131.411 232.822 131.803 232.977C132.204 233.122 132.646 233.195 133.129 233.195C133.749 233.195 134.291 233.077 134.756 232.84C135.221 232.603 135.608 232.234 135.918 231.732C136.237 231.222 136.474 230.57 136.629 229.777C136.784 228.975 136.861 228.018 136.861 226.906ZM155.154 223.461V226.496C155.154 228.128 155.008 229.504 154.717 230.625C154.425 231.746 154.006 232.648 153.459 233.332C152.912 234.016 152.251 234.512 151.477 234.822C150.711 235.123 149.845 235.273 148.879 235.273C148.113 235.273 147.407 235.178 146.76 234.986C146.113 234.795 145.529 234.49 145.01 234.07C144.499 233.642 144.062 233.086 143.697 232.402C143.333 231.719 143.055 230.889 142.863 229.914C142.672 228.939 142.576 227.799 142.576 226.496V223.461C142.576 221.829 142.722 220.462 143.014 219.359C143.314 218.257 143.738 217.372 144.285 216.707C144.832 216.033 145.488 215.549 146.254 215.258C147.029 214.966 147.895 214.82 148.852 214.82C149.626 214.82 150.337 214.916 150.984 215.107C151.641 215.29 152.224 215.586 152.734 215.996C153.245 216.397 153.678 216.935 154.033 217.609C154.398 218.275 154.676 219.09 154.867 220.057C155.059 221.023 155.154 222.158 155.154 223.461ZM152.611 226.906V223.037C152.611 222.144 152.557 221.36 152.447 220.686C152.347 220.002 152.197 219.419 151.996 218.936C151.796 218.452 151.54 218.061 151.23 217.76C150.93 217.459 150.579 217.24 150.178 217.104C149.786 216.958 149.344 216.885 148.852 216.885C148.25 216.885 147.717 216.999 147.252 217.227C146.787 217.445 146.395 217.796 146.076 218.279C145.766 218.762 145.529 219.396 145.365 220.18C145.201 220.964 145.119 221.916 145.119 223.037V226.906C145.119 227.799 145.169 228.588 145.27 229.271C145.379 229.955 145.538 230.548 145.748 231.049C145.958 231.541 146.213 231.947 146.514 232.266C146.814 232.585 147.161 232.822 147.553 232.977C147.954 233.122 148.396 233.195 148.879 233.195C149.499 233.195 150.041 233.077 150.506 232.84C150.971 232.603 151.358 232.234 151.668 231.732C151.987 231.222 152.224 230.57 152.379 229.777C152.534 228.975 152.611 228.018 152.611 226.906Z" fill="white"/>
<rect y="271" width="1085" height="271.25" fill="black" fill-opacity="0.6"/>
<path d="M48.8145 506L52.6836 486.094H54.6523L50.7695 506H48.8145ZM54.3789 506L58.2617 486.094H60.2168L56.334 506H54.3789ZM61.8848 493.682H47.666V491.781H61.8848V493.682ZM60.8594 500.395H46.627V498.508H60.8594V500.395ZM76.4043 494.461V497.496C76.4043 499.128 76.2585 500.504 75.9668 501.625C75.6751 502.746 75.2559 503.648 74.709 504.332C74.1621 505.016 73.5013 505.512 72.7266 505.822C71.9609 506.123 71.0951 506.273 70.1289 506.273C69.3633 506.273 68.6569 506.178 68.0098 505.986C67.3626 505.795 66.7793 505.49 66.2598 505.07C65.7493 504.642 65.3118 504.086 64.9473 503.402C64.5827 502.719 64.3047 501.889 64.1133 500.914C63.9219 499.939 63.8262 498.799 63.8262 497.496V494.461C63.8262 492.829 63.972 491.462 64.2637 490.359C64.5645 489.257 64.9883 488.372 65.5352 487.707C66.082 487.033 66.7383 486.549 67.5039 486.258C68.2786 485.966 69.1445 485.82 70.1016 485.82C70.8763 485.82 71.5872 485.916 72.2344 486.107C72.8906 486.29 73.474 486.586 73.9844 486.996C74.4948 487.397 74.9277 487.935 75.2832 488.609C75.6478 489.275 75.9258 490.09 76.1172 491.057C76.3086 492.023 76.4043 493.158 76.4043 494.461ZM73.8613 497.906V494.037C73.8613 493.144 73.8066 492.36 73.6973 491.686C73.597 491.002 73.4466 490.419 73.2461 489.936C73.0456 489.452 72.7904 489.061 72.4805 488.76C72.1797 488.459 71.8288 488.24 71.4277 488.104C71.0358 487.958 70.5938 487.885 70.1016 487.885C69.5 487.885 68.9668 487.999 68.502 488.227C68.0371 488.445 67.6452 488.796 67.3262 489.279C67.0163 489.762 66.7793 490.396 66.6152 491.18C66.4512 491.964 66.3691 492.916 66.3691 494.037V497.906C66.3691 498.799 66.4193 499.588 66.5195 500.271C66.6289 500.955 66.7884 501.548 66.998 502.049C67.2077 502.541 67.4629 502.947 67.7637 503.266C68.0645 503.585 68.4108 503.822 68.8027 503.977C69.2038 504.122 69.6458 504.195 70.1289 504.195C70.7487 504.195 71.291 504.077 71.7559 503.84C72.2207 503.603 72.6081 503.234 72.918 502.732C73.237 502.222 73.474 501.57 73.6289 500.777C73.7839 499.975 73.8613 499.018 73.8613 497.906ZM92.1543 494.461V497.496C92.1543 499.128 92.0085 500.504 91.7168 501.625C91.4251 502.746 91.0059 503.648 90.459 504.332C89.9121 505.016 89.2513 505.512 88.4766 505.822C87.7109 506.123 86.8451 506.273 85.8789 506.273C85.1133 506.273 84.4069 506.178 83.7598 505.986C83.1126 505.795 82.5293 505.49 82.0098 505.07C81.4993 504.642 81.0618 504.086 80.6973 503.402C80.3327 502.719 80.0547 501.889 79.8633 500.914C79.6719 499.939 79.5762 498.799 79.5762 497.496V494.461C79.5762 492.829 79.722 491.462 80.0137 490.359C80.3145 489.257 80.7383 488.372 81.2852 487.707C81.832 487.033 82.4883 486.549 83.2539 486.258C84.0286 485.966 84.8945 485.82 85.8516 485.82C86.6263 485.82 87.3372 485.916 87.9844 486.107C88.6406 486.29 89.224 486.586 89.7344 486.996C90.2448 487.397 90.6777 487.935 91.0332 488.609C91.3978 489.275 91.6758 490.09 91.8672 491.057C92.0586 492.023 92.1543 493.158 92.1543 494.461ZM89.6113 497.906V494.037C89.6113 493.144 89.5566 492.36 89.4473 491.686C89.347 491.002 89.1966 490.419 88.9961 489.936C88.7956 489.452 88.5404 489.061 88.2305 488.76C87.9297 488.459 87.5788 488.24 87.1777 488.104C86.7858 487.958 86.3438 487.885 85.8516 487.885C85.25 487.885 84.7168 487.999 84.252 488.227C83.7871 488.445 83.3952 488.796 83.0762 489.279C82.7663 489.762 82.5293 490.396 82.3652 491.18C82.2012 491.964 82.1191 492.916 82.1191 494.037V497.906C82.1191 498.799 82.1693 499.588 82.2695 500.271C82.3789 500.955 82.5384 501.548 82.748 502.049C82.9577 502.541 83.2129 502.947 83.5137 503.266C83.8145 503.585 84.1608 503.822 84.5527 503.977C84.9538 504.122 85.3958 504.195 85.8789 504.195C86.4987 504.195 87.041 504.077 87.5059 503.84C87.9707 503.603 88.3581 503.234 88.668 502.732C88.987 502.222 89.224 501.57 89.3789 500.777C89.5339 499.975 89.6113 499.018 89.6113 497.906ZM107.904 494.461V497.496C107.904 499.128 107.758 500.504 107.467 501.625C107.175 502.746 106.756 503.648 106.209 504.332C105.662 505.016 105.001 505.512 104.227 505.822C103.461 506.123 102.595 506.273 101.629 506.273C100.863 506.273 100.157 506.178 99.5098 505.986C98.8626 505.795 98.2793 505.49 97.7598 505.07C97.2493 504.642 96.8118 504.086 96.4473 503.402C96.0827 502.719 95.8047 501.889 95.6133 500.914C95.4219 499.939 95.3262 498.799 95.3262 497.496V494.461C95.3262 492.829 95.472 491.462 95.7637 490.359C96.0645 489.257 96.4883 488.372 97.0352 487.707C97.582 487.033 98.2383 486.549 99.0039 486.258C99.7786 485.966 100.645 485.82 101.602 485.82C102.376 485.82 103.087 485.916 103.734 486.107C104.391 486.29 104.974 486.586 105.484 486.996C105.995 487.397 106.428 487.935 106.783 488.609C107.148 489.275 107.426 490.09 107.617 491.057C107.809 492.023 107.904 493.158 107.904 494.461ZM105.361 497.906V494.037C105.361 493.144 105.307 492.36 105.197 491.686C105.097 491.002 104.947 490.419 104.746 489.936C104.546 489.452 104.29 489.061 103.98 488.76C103.68 488.459 103.329 488.24 102.928 488.104C102.536 487.958 102.094 487.885 101.602 487.885C101 487.885 100.467 487.999 100.002 488.227C99.5371 488.445 99.1452 488.796 98.8262 489.279C98.5163 489.762 98.2793 490.396 98.1152 491.18C97.9512 491.964 97.8691 492.916 97.8691 494.037V497.906C97.8691 498.799 97.9193 499.588 98.0195 500.271C98.1289 500.955 98.2884 501.548 98.498 502.049C98.7077 502.541 98.9629 502.947 99.2637 503.266C99.5645 503.585 99.9108 503.822 100.303 503.977C100.704 504.122 101.146 504.195 101.629 504.195C102.249 504.195 102.791 504.077 103.256 503.84C103.721 503.603 104.108 503.234 104.418 502.732C104.737 502.222 104.974 501.57 105.129 500.777C105.284 499.975 105.361 499.018 105.361 497.906ZM123.654 494.461V497.496C123.654 499.128 123.508 500.504 123.217 501.625C122.925 502.746 122.506 503.648 121.959 504.332C121.412 505.016 120.751 505.512 119.977 505.822C119.211 506.123 118.345 506.273 117.379 506.273C116.613 506.273 115.907 506.178 115.26 505.986C114.613 505.795 114.029 505.49 113.51 505.07C112.999 504.642 112.562 504.086 112.197 503.402C111.833 502.719 111.555 501.889 111.363 500.914C111.172 499.939 111.076 498.799 111.076 497.496V494.461C111.076 492.829 111.222 491.462 111.514 490.359C111.814 489.257 112.238 488.372 112.785 487.707C113.332 487.033 113.988 486.549 114.754 486.258C115.529 485.966 116.395 485.82 117.352 485.82C118.126 485.82 118.837 485.916 119.484 486.107C120.141 486.29 120.724 486.586 121.234 486.996C121.745 487.397 122.178 487.935 122.533 488.609C122.898 489.275 123.176 490.09 123.367 491.057C123.559 492.023 123.654 493.158 123.654 494.461ZM121.111 497.906V494.037C121.111 493.144 121.057 492.36 120.947 491.686C120.847 491.002 120.697 490.419 120.496 489.936C120.296 489.452 120.04 489.061 119.73 488.76C119.43 488.459 119.079 488.24 118.678 488.104C118.286 487.958 117.844 487.885 117.352 487.885C116.75 487.885 116.217 487.999 115.752 488.227C115.287 488.445 114.895 488.796 114.576 489.279C114.266 489.762 114.029 490.396 113.865 491.18C113.701 491.964 113.619 492.916 113.619 494.037V497.906C113.619 498.799 113.669 499.588 113.77 500.271C113.879 500.955 114.038 501.548 114.248 502.049C114.458 502.541 114.713 502.947 115.014 503.266C115.314 503.585 115.661 503.822 116.053 503.977C116.454 504.122 116.896 504.195 117.379 504.195C117.999 504.195 118.541 504.077 119.006 503.84C119.471 503.603 119.858 503.234 120.168 502.732C120.487 502.222 120.724 501.57 120.879 500.777C121.034 499.975 121.111 499.018 121.111 497.906ZM139.404 494.461V497.496C139.404 499.128 139.258 500.504 138.967 501.625C138.675 502.746 138.256 503.648 137.709 504.332C137.162 505.016 136.501 505.512 135.727 505.822C134.961 506.123 134.095 506.273 133.129 506.273C132.363 506.273 131.657 506.178 131.01 505.986C130.363 505.795 129.779 505.49 129.26 505.07C128.749 504.642 128.312 504.086 127.947 503.402C127.583 502.719 127.305 501.889 127.113 500.914C126.922 499.939 126.826 498.799 126.826 497.496V494.461C126.826 492.829 126.972 491.462 127.264 490.359C127.564 489.257 127.988 488.372 128.535 487.707C129.082 487.033 129.738 486.549 130.504 486.258C131.279 485.966 132.145 485.82 133.102 485.82C133.876 485.82 134.587 485.916 135.234 486.107C135.891 486.29 136.474 486.586 136.984 486.996C137.495 487.397 137.928 487.935 138.283 488.609C138.648 489.275 138.926 490.09 139.117 491.057C139.309 492.023 139.404 493.158 139.404 494.461ZM136.861 497.906V494.037C136.861 493.144 136.807 492.36 136.697 491.686C136.597 491.002 136.447 490.419 136.246 489.936C136.046 489.452 135.79 489.061 135.48 488.76C135.18 488.459 134.829 488.24 134.428 488.104C134.036 487.958 133.594 487.885 133.102 487.885C132.5 487.885 131.967 487.999 131.502 488.227C131.037 488.445 130.645 488.796 130.326 489.279C130.016 489.762 129.779 490.396 129.615 491.18C129.451 491.964 129.369 492.916 129.369 494.037V497.906C129.369 498.799 129.419 499.588 129.52 500.271C129.629 500.955 129.788 501.548 129.998 502.049C130.208 502.541 130.463 502.947 130.764 503.266C131.064 503.585 131.411 503.822 131.803 503.977C132.204 504.122 132.646 504.195 133.129 504.195C133.749 504.195 134.291 504.077 134.756 503.84C135.221 503.603 135.608 503.234 135.918 502.732C136.237 502.222 136.474 501.57 136.629 500.777C136.784 499.975 136.861 499.018 136.861 497.906ZM155.154 494.461V497.496C155.154 499.128 155.008 500.504 154.717 501.625C154.425 502.746 154.006 503.648 153.459 504.332C152.912 505.016 152.251 505.512 151.477 505.822C150.711 506.123 149.845 506.273 148.879 506.273C148.113 506.273 147.407 506.178 146.76 505.986C146.113 505.795 145.529 505.49 145.01 505.07C144.499 504.642 144.062 504.086 143.697 503.402C143.333 502.719 143.055 501.889 142.863 500.914C142.672 499.939 142.576 498.799 142.576 497.496V494.461C142.576 492.829 142.722 491.462 143.014 490.359C143.314 489.257 143.738 488.372 144.285 487.707C144.832 487.033 145.488 486.549 146.254 486.258C147.029 485.966 147.895 485.82 148.852 485.82C149.626 485.82 150.337 485.916 150.984 486.107C151.641 486.29 152.224 486.586 152.734 486.996C153.245 487.397 153.678 487.935 154.033 488.609C154.398 489.275 154.676 490.09 154.867 491.057C155.059 492.023 155.154 493.158 155.154 494.461ZM152.611 497.906V494.037C152.611 493.144 152.557 492.36 152.447 491.686C152.347 491.002 152.197 490.419 151.996 489.936C151.796 489.452 151.54 489.061 151.23 488.76C150.93 488.459 150.579 488.24 150.178 488.104C149.786 487.958 149.344 487.885 148.852 487.885C148.25 487.885 147.717 487.999 147.252 488.227C146.787 488.445 146.395 488.796 146.076 489.279C145.766 489.762 145.529 490.396 145.365 491.18C145.201 491.964 145.119 492.916 145.119 494.037V497.906C145.119 498.799 145.169 499.588 145.27 500.271C145.379 500.955 145.538 501.548 145.748 502.049C145.958 502.541 146.213 502.947 146.514 503.266C146.814 503.585 147.161 503.822 147.553 503.977C147.954 504.122 148.396 504.195 148.879 504.195C149.499 504.195 150.041 504.077 150.506 503.84C150.971 503.603 151.358 503.234 151.668 502.732C151.987 502.222 152.224 501.57 152.379 500.777C152.534 499.975 152.611 499.018 152.611 497.906ZM170.891 496.498V498.576H164.219V496.498H170.891ZM189.744 486.066H189.963V488.213H189.744C188.404 488.213 187.283 488.432 186.381 488.869C185.479 489.298 184.763 489.876 184.234 490.605C183.706 491.326 183.323 492.137 183.086 493.039C182.858 493.941 182.744 494.857 182.744 495.787V498.713C182.744 499.597 182.849 500.381 183.059 501.064C183.268 501.739 183.555 502.309 183.92 502.773C184.285 503.238 184.695 503.589 185.15 503.826C185.615 504.063 186.098 504.182 186.6 504.182C187.183 504.182 187.702 504.072 188.158 503.854C188.614 503.626 188.997 503.311 189.307 502.91C189.626 502.5 189.867 502.017 190.031 501.461C190.195 500.905 190.277 500.294 190.277 499.629C190.277 499.036 190.204 498.467 190.059 497.92C189.913 497.364 189.689 496.872 189.389 496.443C189.088 496.006 188.71 495.664 188.254 495.418C187.807 495.163 187.274 495.035 186.654 495.035C185.952 495.035 185.296 495.208 184.686 495.555C184.084 495.892 183.587 496.339 183.195 496.895C182.812 497.441 182.594 498.038 182.539 498.686L181.199 498.672C181.327 497.651 181.564 496.781 181.91 496.061C182.266 495.331 182.703 494.739 183.223 494.283C183.751 493.818 184.339 493.481 184.986 493.271C185.643 493.053 186.335 492.943 187.064 492.943C188.058 492.943 188.915 493.13 189.635 493.504C190.355 493.878 190.947 494.379 191.412 495.008C191.877 495.628 192.219 496.329 192.438 497.113C192.665 497.888 192.779 498.686 192.779 499.506C192.779 500.445 192.647 501.324 192.383 502.145C192.118 502.965 191.722 503.685 191.193 504.305C190.674 504.924 190.031 505.408 189.266 505.754C188.5 506.1 187.611 506.273 186.6 506.273C185.524 506.273 184.585 506.055 183.783 505.617C182.981 505.171 182.316 504.578 181.787 503.84C181.258 503.102 180.862 502.281 180.598 501.379C180.333 500.477 180.201 499.561 180.201 498.631V497.441C180.201 496.038 180.342 494.661 180.625 493.312C180.908 491.964 181.395 490.742 182.088 489.648C182.79 488.555 183.76 487.684 185 487.037C186.24 486.39 187.821 486.066 189.744 486.066ZM208.283 494.461V497.496C208.283 499.128 208.137 500.504 207.846 501.625C207.554 502.746 207.135 503.648 206.588 504.332C206.041 505.016 205.38 505.512 204.605 505.822C203.84 506.123 202.974 506.273 202.008 506.273C201.242 506.273 200.536 506.178 199.889 505.986C199.242 505.795 198.658 505.49 198.139 505.07C197.628 504.642 197.191 504.086 196.826 503.402C196.462 502.719 196.184 501.889 195.992 500.914C195.801 499.939 195.705 498.799 195.705 497.496V494.461C195.705 492.829 195.851 491.462 196.143 490.359C196.443 489.257 196.867 488.372 197.414 487.707C197.961 487.033 198.617 486.549 199.383 486.258C200.158 485.966 201.023 485.82 201.98 485.82C202.755 485.82 203.466 485.916 204.113 486.107C204.77 486.29 205.353 486.586 205.863 486.996C206.374 487.397 206.807 487.935 207.162 488.609C207.527 489.275 207.805 490.09 207.996 491.057C208.188 492.023 208.283 493.158 208.283 494.461ZM205.74 497.906V494.037C205.74 493.144 205.686 492.36 205.576 491.686C205.476 491.002 205.326 490.419 205.125 489.936C204.924 489.452 204.669 489.061 204.359 488.76C204.059 488.459 203.708 488.24 203.307 488.104C202.915 487.958 202.473 487.885 201.98 487.885C201.379 487.885 200.846 487.999 200.381 488.227C199.916 488.445 199.524 488.796 199.205 489.279C198.895 489.762 198.658 490.396 198.494 491.18C198.33 491.964 198.248 492.916 198.248 494.037V497.906C198.248 498.799 198.298 499.588 198.398 500.271C198.508 500.955 198.667 501.548 198.877 502.049C199.087 502.541 199.342 502.947 199.643 503.266C199.943 503.585 200.29 503.822 200.682 503.977C201.083 504.122 201.525 504.195 202.008 504.195C202.628 504.195 203.17 504.077 203.635 503.84C204.1 503.603 204.487 503.234 204.797 502.732C205.116 502.222 205.353 501.57 205.508 500.777C205.663 499.975 205.74 499.018 205.74 497.906ZM211.318 490.975V489.922C211.318 489.165 211.482 488.477 211.811 487.857C212.139 487.238 212.608 486.741 213.219 486.367C213.829 485.993 214.554 485.807 215.393 485.807C216.249 485.807 216.979 485.993 217.58 486.367C218.191 486.741 218.66 487.238 218.988 487.857C219.316 488.477 219.48 489.165 219.48 489.922V490.975C219.48 491.713 219.316 492.392 218.988 493.012C218.669 493.632 218.204 494.128 217.594 494.502C216.992 494.876 216.268 495.062 215.42 495.062C214.572 495.062 213.839 494.876 213.219 494.502C212.608 494.128 212.139 493.632 211.811 493.012C211.482 492.392 211.318 491.713 211.318 490.975ZM213.219 489.922V490.975C213.219 491.394 213.296 491.79 213.451 492.164C213.615 492.538 213.861 492.843 214.189 493.08C214.518 493.308 214.928 493.422 215.42 493.422C215.912 493.422 216.318 493.308 216.637 493.08C216.956 492.843 217.193 492.538 217.348 492.164C217.503 491.79 217.58 491.394 217.58 490.975V489.922C217.58 489.493 217.498 489.092 217.334 488.719C217.179 488.336 216.938 488.031 216.609 487.803C216.29 487.566 215.885 487.447 215.393 487.447C214.91 487.447 214.504 487.566 214.176 487.803C213.857 488.031 213.615 488.336 213.451 488.719C213.296 489.092 213.219 489.493 213.219 489.922ZM221.012 502.186V501.119C221.012 500.372 221.176 499.688 221.504 499.068C221.832 498.449 222.301 497.952 222.912 497.578C223.523 497.204 224.247 497.018 225.086 497.018C225.943 497.018 226.672 497.204 227.273 497.578C227.884 497.952 228.354 498.449 228.682 499.068C229.01 499.688 229.174 500.372 229.174 501.119V502.186C229.174 502.933 229.01 503.617 228.682 504.236C228.363 504.856 227.898 505.353 227.287 505.727C226.686 506.1 225.961 506.287 225.113 506.287C224.266 506.287 223.536 506.1 222.926 505.727C222.315 505.353 221.841 504.856 221.504 504.236C221.176 503.617 221.012 502.933 221.012 502.186ZM222.912 501.119V502.186C222.912 502.605 222.99 503.006 223.145 503.389C223.309 503.762 223.555 504.068 223.883 504.305C224.211 504.533 224.621 504.646 225.113 504.646C225.605 504.646 226.011 504.533 226.33 504.305C226.658 504.068 226.9 503.762 227.055 503.389C227.21 503.015 227.287 502.614 227.287 502.186V501.119C227.287 500.691 227.205 500.29 227.041 499.916C226.886 499.542 226.645 499.242 226.316 499.014C225.997 498.777 225.587 498.658 225.086 498.658C224.603 498.658 224.197 498.777 223.869 499.014C223.55 499.242 223.309 499.542 223.145 499.916C222.99 500.29 222.912 500.691 222.912 501.119ZM225.715 488.924L215.994 504.482L214.572 503.58L224.293 488.021L225.715 488.924Z" fill="white"/>
<rect y="542" width="1085" height="271.25" fill="black" fill-opacity="0.1"/>
<path d="M48.8145 777L52.6836 757.094H54.6523L50.7695 777H48.8145ZM54.3789 777L58.2617 757.094H60.2168L56.334 777H54.3789ZM61.8848 764.682H47.666V762.781H61.8848V764.682ZM60.8594 771.395H46.627V769.508H60.8594V771.395ZM76.4043 765.461V768.496C76.4043 770.128 76.2585 771.504 75.9668 772.625C75.6751 773.746 75.2559 774.648 74.709 775.332C74.1621 776.016 73.5013 776.512 72.7266 776.822C71.9609 777.123 71.0951 777.273 70.1289 777.273C69.3633 777.273 68.6569 777.178 68.0098 776.986C67.3626 776.795 66.7793 776.49 66.2598 776.07C65.7493 775.642 65.3118 775.086 64.9473 774.402C64.5827 773.719 64.3047 772.889 64.1133 771.914C63.9219 770.939 63.8262 769.799 63.8262 768.496V765.461C63.8262 763.829 63.972 762.462 64.2637 761.359C64.5645 760.257 64.9883 759.372 65.5352 758.707C66.082 758.033 66.7383 757.549 67.5039 757.258C68.2786 756.966 69.1445 756.82 70.1016 756.82C70.8763 756.82 71.5872 756.916 72.2344 757.107C72.8906 757.29 73.474 757.586 73.9844 757.996C74.4948 758.397 74.9277 758.935 75.2832 759.609C75.6478 760.275 75.9258 761.09 76.1172 762.057C76.3086 763.023 76.4043 764.158 76.4043 765.461ZM73.8613 768.906V765.037C73.8613 764.144 73.8066 763.36 73.6973 762.686C73.597 762.002 73.4466 761.419 73.2461 760.936C73.0456 760.452 72.7904 760.061 72.4805 759.76C72.1797 759.459 71.8288 759.24 71.4277 759.104C71.0358 758.958 70.5938 758.885 70.1016 758.885C69.5 758.885 68.9668 758.999 68.502 759.227C68.0371 759.445 67.6452 759.796 67.3262 760.279C67.0163 760.762 66.7793 761.396 66.6152 762.18C66.4512 762.964 66.3691 763.916 66.3691 765.037V768.906C66.3691 769.799 66.4193 770.588 66.5195 771.271C66.6289 771.955 66.7884 772.548 66.998 773.049C67.2077 773.541 67.4629 773.947 67.7637 774.266C68.0645 774.585 68.4108 774.822 68.8027 774.977C69.2038 775.122 69.6458 775.195 70.1289 775.195C70.7487 775.195 71.291 775.077 71.7559 774.84C72.2207 774.603 72.6081 774.234 72.918 773.732C73.237 773.222 73.474 772.57 73.6289 771.777C73.7839 770.975 73.8613 770.018 73.8613 768.906ZM92.1543 765.461V768.496C92.1543 770.128 92.0085 771.504 91.7168 772.625C91.4251 773.746 91.0059 774.648 90.459 775.332C89.9121 776.016 89.2513 776.512 88.4766 776.822C87.7109 777.123 86.8451 777.273 85.8789 777.273C85.1133 777.273 84.4069 777.178 83.7598 776.986C83.1126 776.795 82.5293 776.49 82.0098 776.07C81.4993 775.642 81.0618 775.086 80.6973 774.402C80.3327 773.719 80.0547 772.889 79.8633 771.914C79.6719 770.939 79.5762 769.799 79.5762 768.496V765.461C79.5762 763.829 79.722 762.462 80.0137 761.359C80.3145 760.257 80.7383 759.372 81.2852 758.707C81.832 758.033 82.4883 757.549 83.2539 757.258C84.0286 756.966 84.8945 756.82 85.8516 756.82C86.6263 756.82 87.3372 756.916 87.9844 757.107C88.6406 757.29 89.224 757.586 89.7344 757.996C90.2448 758.397 90.6777 758.935 91.0332 759.609C91.3978 760.275 91.6758 761.09 91.8672 762.057C92.0586 763.023 92.1543 764.158 92.1543 765.461ZM89.6113 768.906V765.037C89.6113 764.144 89.5566 763.36 89.4473 762.686C89.347 762.002 89.1966 761.419 88.9961 760.936C88.7956 760.452 88.5404 760.061 88.2305 759.76C87.9297 759.459 87.5788 759.24 87.1777 759.104C86.7858 758.958 86.3438 758.885 85.8516 758.885C85.25 758.885 84.7168 758.999 84.252 759.227C83.7871 759.445 83.3952 759.796 83.0762 760.279C82.7663 760.762 82.5293 761.396 82.3652 762.18C82.2012 762.964 82.1191 763.916 82.1191 765.037V768.906C82.1191 769.799 82.1693 770.588 82.2695 771.271C82.3789 771.955 82.5384 772.548 82.748 773.049C82.9577 773.541 83.2129 773.947 83.5137 774.266C83.8145 774.585 84.1608 774.822 84.5527 774.977C84.9538 775.122 85.3958 775.195 85.8789 775.195C86.4987 775.195 87.041 775.077 87.5059 774.84C87.9707 774.603 88.3581 774.234 88.668 773.732C88.987 773.222 89.224 772.57 89.3789 771.777C89.5339 770.975 89.6113 770.018 89.6113 768.906ZM107.904 765.461V768.496C107.904 770.128 107.758 771.504 107.467 772.625C107.175 773.746 106.756 774.648 106.209 775.332C105.662 776.016 105.001 776.512 104.227 776.822C103.461 777.123 102.595 777.273 101.629 777.273C100.863 777.273 100.157 777.178 99.5098 776.986C98.8626 776.795 98.2793 776.49 97.7598 776.07C97.2493 775.642 96.8118 775.086 96.4473 774.402C96.0827 773.719 95.8047 772.889 95.6133 771.914C95.4219 770.939 95.3262 769.799 95.3262 768.496V765.461C95.3262 763.829 95.472 762.462 95.7637 761.359C96.0645 760.257 96.4883 759.372 97.0352 758.707C97.582 758.033 98.2383 757.549 99.0039 757.258C99.7786 756.966 100.645 756.82 101.602 756.82C102.376 756.82 103.087 756.916 103.734 757.107C104.391 757.29 104.974 757.586 105.484 757.996C105.995 758.397 106.428 758.935 106.783 759.609C107.148 760.275 107.426 761.09 107.617 762.057C107.809 763.023 107.904 764.158 107.904 765.461ZM105.361 768.906V765.037C105.361 764.144 105.307 763.36 105.197 762.686C105.097 762.002 104.947 761.419 104.746 760.936C104.546 760.452 104.29 760.061 103.98 759.76C103.68 759.459 103.329 759.24 102.928 759.104C102.536 758.958 102.094 758.885 101.602 758.885C101 758.885 100.467 758.999 100.002 759.227C99.5371 759.445 99.1452 759.796 98.8262 760.279C98.5163 760.762 98.2793 761.396 98.1152 762.18C97.9512 762.964 97.8691 763.916 97.8691 765.037V768.906C97.8691 769.799 97.9193 770.588 98.0195 771.271C98.1289 771.955 98.2884 772.548 98.498 773.049C98.7077 773.541 98.9629 773.947 99.2637 774.266C99.5645 774.585 99.9108 774.822 100.303 774.977C100.704 775.122 101.146 775.195 101.629 775.195C102.249 775.195 102.791 775.077 103.256 774.84C103.721 774.603 104.108 774.234 104.418 773.732C104.737 773.222 104.974 772.57 105.129 771.777C105.284 770.975 105.361 770.018 105.361 768.906ZM123.654 765.461V768.496C123.654 770.128 123.508 771.504 123.217 772.625C122.925 773.746 122.506 774.648 121.959 775.332C121.412 776.016 120.751 776.512 119.977 776.822C119.211 777.123 118.345 777.273 117.379 777.273C116.613 777.273 115.907 777.178 115.26 776.986C114.613 776.795 114.029 776.49 113.51 776.07C112.999 775.642 112.562 775.086 112.197 774.402C111.833 773.719 111.555 772.889 111.363 771.914C111.172 770.939 111.076 769.799 111.076 768.496V765.461C111.076 763.829 111.222 762.462 111.514 761.359C111.814 760.257 112.238 759.372 112.785 758.707C113.332 758.033 113.988 757.549 114.754 757.258C115.529 756.966 116.395 756.82 117.352 756.82C118.126 756.82 118.837 756.916 119.484 757.107C120.141 757.29 120.724 757.586 121.234 757.996C121.745 758.397 122.178 758.935 122.533 759.609C122.898 760.275 123.176 761.09 123.367 762.057C123.559 763.023 123.654 764.158 123.654 765.461ZM121.111 768.906V765.037C121.111 764.144 121.057 763.36 120.947 762.686C120.847 762.002 120.697 761.419 120.496 760.936C120.296 760.452 120.04 760.061 119.73 759.76C119.43 759.459 119.079 759.24 118.678 759.104C118.286 758.958 117.844 758.885 117.352 758.885C116.75 758.885 116.217 758.999 115.752 759.227C115.287 759.445 114.895 759.796 114.576 760.279C114.266 760.762 114.029 761.396 113.865 762.18C113.701 762.964 113.619 763.916 113.619 765.037V768.906C113.619 769.799 113.669 770.588 113.77 771.271C113.879 771.955 114.038 772.548 114.248 773.049C114.458 773.541 114.713 773.947 115.014 774.266C115.314 774.585 115.661 774.822 116.053 774.977C116.454 775.122 116.896 775.195 117.379 775.195C117.999 775.195 118.541 775.077 119.006 774.84C119.471 774.603 119.858 774.234 120.168 773.732C120.487 773.222 120.724 772.57 120.879 771.777C121.034 770.975 121.111 770.018 121.111 768.906ZM139.404 765.461V768.496C139.404 770.128 139.258 771.504 138.967 772.625C138.675 773.746 138.256 774.648 137.709 775.332C137.162 776.016 136.501 776.512 135.727 776.822C134.961 777.123 134.095 777.273 133.129 777.273C132.363 777.273 131.657 777.178 131.01 776.986C130.363 776.795 129.779 776.49 129.26 776.07C128.749 775.642 128.312 775.086 127.947 774.402C127.583 773.719 127.305 772.889 127.113 771.914C126.922 770.939 126.826 769.799 126.826 768.496V765.461C126.826 763.829 126.972 762.462 127.264 761.359C127.564 760.257 127.988 759.372 128.535 758.707C129.082 758.033 129.738 757.549 130.504 757.258C131.279 756.966 132.145 756.82 133.102 756.82C133.876 756.82 134.587 756.916 135.234 757.107C135.891 757.29 136.474 757.586 136.984 757.996C137.495 758.397 137.928 758.935 138.283 759.609C138.648 760.275 138.926 761.09 139.117 762.057C139.309 763.023 139.404 764.158 139.404 765.461ZM136.861 768.906V765.037C136.861 764.144 136.807 763.36 136.697 762.686C136.597 762.002 136.447 761.419 136.246 760.936C136.046 760.452 135.79 760.061 135.48 759.76C135.18 759.459 134.829 759.24 134.428 759.104C134.036 758.958 133.594 758.885 133.102 758.885C132.5 758.885 131.967 758.999 131.502 759.227C131.037 759.445 130.645 759.796 130.326 760.279C130.016 760.762 129.779 761.396 129.615 762.18C129.451 762.964 129.369 763.916 129.369 765.037V768.906C129.369 769.799 129.419 770.588 129.52 771.271C129.629 771.955 129.788 772.548 129.998 773.049C130.208 773.541 130.463 773.947 130.764 774.266C131.064 774.585 131.411 774.822 131.803 774.977C132.204 775.122 132.646 775.195 133.129 775.195C133.749 775.195 134.291 775.077 134.756 774.84C135.221 774.603 135.608 774.234 135.918 773.732C136.237 773.222 136.474 772.57 136.629 771.777C136.784 770.975 136.861 770.018 136.861 768.906ZM155.154 765.461V768.496C155.154 770.128 155.008 771.504 154.717 772.625C154.425 773.746 154.006 774.648 153.459 775.332C152.912 776.016 152.251 776.512 151.477 776.822C150.711 777.123 149.845 777.273 148.879 777.273C148.113 777.273 147.407 777.178 146.76 776.986C146.113 776.795 145.529 776.49 145.01 776.07C144.499 775.642 144.062 775.086 143.697 774.402C143.333 773.719 143.055 772.889 142.863 771.914C142.672 770.939 142.576 769.799 142.576 768.496V765.461C142.576 763.829 142.722 762.462 143.014 761.359C143.314 760.257 143.738 759.372 144.285 758.707C144.832 758.033 145.488 757.549 146.254 757.258C147.029 756.966 147.895 756.82 148.852 756.82C149.626 756.82 150.337 756.916 150.984 757.107C151.641 757.29 152.224 757.586 152.734 757.996C153.245 758.397 153.678 758.935 154.033 759.609C154.398 760.275 154.676 761.09 154.867 762.057C155.059 763.023 155.154 764.158 155.154 765.461ZM152.611 768.906V765.037C152.611 764.144 152.557 763.36 152.447 762.686C152.347 762.002 152.197 761.419 151.996 760.936C151.796 760.452 151.54 760.061 151.23 759.76C150.93 759.459 150.579 759.24 150.178 759.104C149.786 758.958 149.344 758.885 148.852 758.885C148.25 758.885 147.717 758.999 147.252 759.227C146.787 759.445 146.395 759.796 146.076 760.279C145.766 760.762 145.529 761.396 145.365 762.18C145.201 762.964 145.119 763.916 145.119 765.037V768.906C145.119 769.799 145.169 770.588 145.27 771.271C145.379 771.955 145.538 772.548 145.748 773.049C145.958 773.541 146.213 773.947 146.514 774.266C146.814 774.585 147.161 774.822 147.553 774.977C147.954 775.122 148.396 775.195 148.879 775.195C149.499 775.195 150.041 775.077 150.506 774.84C150.971 774.603 151.358 774.234 151.668 773.732C151.987 773.222 152.224 772.57 152.379 771.777C152.534 770.975 152.611 770.018 152.611 768.906ZM170.891 767.498V769.576H164.219V767.498H170.891ZM188.35 756.984V777H185.82V760.143L180.721 762.002V759.719L187.953 756.984H188.35ZM208.283 765.461V768.496C208.283 770.128 208.137 771.504 207.846 772.625C207.554 773.746 207.135 774.648 206.588 775.332C206.041 776.016 205.38 776.512 204.605 776.822C203.84 777.123 202.974 777.273 202.008 777.273C201.242 777.273 200.536 777.178 199.889 776.986C199.242 776.795 198.658 776.49 198.139 776.07C197.628 775.642 197.191 775.086 196.826 774.402C196.462 773.719 196.184 772.889 195.992 771.914C195.801 770.939 195.705 769.799 195.705 768.496V765.461C195.705 763.829 195.851 762.462 196.143 761.359C196.443 760.257 196.867 759.372 197.414 758.707C197.961 758.033 198.617 757.549 199.383 757.258C200.158 756.966 201.023 756.82 201.98 756.82C202.755 756.82 203.466 756.916 204.113 757.107C204.77 757.29 205.353 757.586 205.863 757.996C206.374 758.397 206.807 758.935 207.162 759.609C207.527 760.275 207.805 761.09 207.996 762.057C208.188 763.023 208.283 764.158 208.283 765.461ZM205.74 768.906V765.037C205.74 764.144 205.686 763.36 205.576 762.686C205.476 762.002 205.326 761.419 205.125 760.936C204.924 760.452 204.669 760.061 204.359 759.76C204.059 759.459 203.708 759.24 203.307 759.104C202.915 758.958 202.473 758.885 201.98 758.885C201.379 758.885 200.846 758.999 200.381 759.227C199.916 759.445 199.524 759.796 199.205 760.279C198.895 760.762 198.658 761.396 198.494 762.18C198.33 762.964 198.248 763.916 198.248 765.037V768.906C198.248 769.799 198.298 770.588 198.398 771.271C198.508 771.955 198.667 772.548 198.877 773.049C199.087 773.541 199.342 773.947 199.643 774.266C199.943 774.585 200.29 774.822 200.682 774.977C201.083 775.122 201.525 775.195 202.008 775.195C202.628 775.195 203.17 775.077 203.635 774.84C204.1 774.603 204.487 774.234 204.797 773.732C205.116 773.222 205.353 772.57 205.508 771.777C205.663 770.975 205.74 770.018 205.74 768.906ZM211.318 761.975V760.922C211.318 760.165 211.482 759.477 211.811 758.857C212.139 758.238 212.608 757.741 213.219 757.367C213.829 756.993 214.554 756.807 215.393 756.807C216.249 756.807 216.979 756.993 217.58 757.367C218.191 757.741 218.66 758.238 218.988 758.857C219.316 759.477 219.48 760.165 219.48 760.922V761.975C219.48 762.713 219.316 763.392 218.988 764.012C218.669 764.632 218.204 765.128 217.594 765.502C216.992 765.876 216.268 766.062 215.42 766.062C214.572 766.062 213.839 765.876 213.219 765.502C212.608 765.128 212.139 764.632 211.811 764.012C211.482 763.392 211.318 762.713 211.318 761.975ZM213.219 760.922V761.975C213.219 762.394 213.296 762.79 213.451 763.164C213.615 763.538 213.861 763.843 214.189 764.08C214.518 764.308 214.928 764.422 215.42 764.422C215.912 764.422 216.318 764.308 216.637 764.08C216.956 763.843 217.193 763.538 217.348 763.164C217.503 762.79 217.58 762.394 217.58 761.975V760.922C217.58 760.493 217.498 760.092 217.334 759.719C217.179 759.336 216.938 759.031 216.609 758.803C216.29 758.566 215.885 758.447 215.393 758.447C214.91 758.447 214.504 758.566 214.176 758.803C213.857 759.031 213.615 759.336 213.451 759.719C213.296 760.092 213.219 760.493 213.219 760.922ZM221.012 773.186V772.119C221.012 771.372 221.176 770.688 221.504 770.068C221.832 769.449 222.301 768.952 222.912 768.578C223.523 768.204 224.247 768.018 225.086 768.018C225.943 768.018 226.672 768.204 227.273 768.578C227.884 768.952 228.354 769.449 228.682 770.068C229.01 770.688 229.174 771.372 229.174 772.119V773.186C229.174 773.933 229.01 774.617 228.682 775.236C228.363 775.856 227.898 776.353 227.287 776.727C226.686 777.1 225.961 777.287 225.113 777.287C224.266 777.287 223.536 777.1 222.926 776.727C222.315 776.353 221.841 775.856 221.504 775.236C221.176 774.617 221.012 773.933 221.012 773.186ZM222.912 772.119V773.186C222.912 773.605 222.99 774.006 223.145 774.389C223.309 774.762 223.555 775.068 223.883 775.305C224.211 775.533 224.621 775.646 225.113 775.646C225.605 775.646 226.011 775.533 226.33 775.305C226.658 775.068 226.9 774.762 227.055 774.389C227.21 774.015 227.287 773.614 227.287 773.186V772.119C227.287 771.691 227.205 771.29 227.041 770.916C226.886 770.542 226.645 770.242 226.316 770.014C225.997 769.777 225.587 769.658 225.086 769.658C224.603 769.658 224.197 769.777 223.869 770.014C223.55 770.242 223.309 770.542 223.145 770.916C222.99 771.29 222.912 771.691 222.912 772.119ZM225.715 759.924L215.994 775.482L214.572 774.58L224.293 759.021L225.715 759.924Z" fill="black"/>
<rect y="813" width="1085" height="272" fill="#F9F7F7"/>
<path d="M48.8145 1048.57L52.6836 1028.67H54.6523L50.7695 1048.57H48.8145ZM54.3789 1048.57L58.2617 1028.67H60.2168L56.334 1048.57H54.3789ZM61.8848 1036.25H47.666V1034.35H61.8848V1036.25ZM60.8594 1042.97H46.627V1041.08H60.8594V1042.97ZM67.2031 1028.67V1048.57H64.5645V1028.67H67.2031ZM75.543 1037.62V1039.78H66.6289V1037.62H75.543ZM76.8965 1028.67V1030.83H66.6289V1028.67H76.8965ZM81.9004 1046.45H82.1602C83.6185 1046.45 84.8034 1046.25 85.7148 1045.84C86.6263 1045.43 87.3281 1044.88 87.8203 1044.18C88.3125 1043.49 88.6497 1042.71 88.832 1041.85C89.0143 1040.97 89.1055 1040.07 89.1055 1039.15V1036.1C89.1055 1035.2 89.0007 1034.4 88.791 1033.7C88.5905 1033 88.3079 1032.41 87.9434 1031.93C87.5879 1031.46 87.1823 1031.1 86.7266 1030.85C86.2708 1030.61 85.7878 1030.48 85.2773 1030.48C84.694 1030.48 84.1699 1030.6 83.7051 1030.84C83.2493 1031.07 82.862 1031.39 82.543 1031.81C82.2331 1032.23 81.9961 1032.72 81.832 1033.29C81.668 1033.85 81.5859 1034.47 81.5859 1035.13C81.5859 1035.73 81.6589 1036.3 81.8047 1036.86C81.9505 1037.41 82.1738 1037.91 82.4746 1038.36C82.7754 1038.81 83.1491 1039.16 83.5957 1039.43C84.0514 1039.68 84.5846 1039.81 85.1953 1039.81C85.7604 1039.81 86.2891 1039.7 86.7812 1039.48C87.2826 1039.25 87.7246 1038.95 88.1074 1038.56C88.4993 1038.17 88.8092 1037.73 89.0371 1037.24C89.2741 1036.75 89.4108 1036.23 89.4473 1035.69H90.6504C90.6504 1036.45 90.5 1037.2 90.1992 1037.94C89.9076 1038.66 89.4974 1039.33 88.9688 1039.93C88.4401 1040.53 87.8203 1041.02 87.1094 1041.38C86.3984 1041.74 85.6237 1041.91 84.7852 1041.91C83.8008 1041.91 82.9486 1041.72 82.2285 1041.34C81.5085 1040.96 80.916 1040.45 80.4512 1039.81C79.9954 1039.17 79.6536 1038.46 79.4258 1037.68C79.207 1036.88 79.0977 1036.08 79.0977 1035.27C79.0977 1034.32 79.2298 1033.43 79.4941 1032.6C79.7585 1031.77 80.1504 1031.05 80.6699 1030.42C81.1895 1029.78 81.832 1029.28 82.5977 1028.93C83.3724 1028.57 84.2656 1028.39 85.2773 1028.39C86.4167 1028.39 87.3874 1028.62 88.1895 1029.08C88.9915 1029.53 89.6432 1030.14 90.1445 1030.91C90.6549 1031.67 91.0286 1032.54 91.2656 1033.49C91.5026 1034.45 91.6211 1035.43 91.6211 1036.45V1037.36C91.6211 1038.39 91.5527 1039.44 91.416 1040.51C91.2884 1041.56 91.0378 1042.57 90.6641 1043.54C90.2995 1044.51 89.7663 1045.37 89.0645 1046.14C88.3626 1046.9 87.4466 1047.5 86.3164 1047.94C85.1953 1048.38 83.8099 1048.6 82.1602 1048.6H81.9004V1046.45ZM98.4297 1028.67V1048.57H95.791V1028.67H98.4297ZM106.77 1037.62V1039.78H97.8555V1037.62H106.77ZM108.123 1028.67V1030.83H97.8555V1028.67H108.123ZM123.477 1028.67V1030.09L115.232 1048.57H112.566L120.797 1030.74H110.023V1028.67H123.477ZM129.656 1028.67V1048.57H127.018V1028.67H129.656ZM137.996 1037.62V1039.78H129.082V1037.62H137.996ZM139.35 1028.67V1030.83H129.082V1028.67H139.35ZM154.703 1028.67V1030.09L146.459 1048.57H143.793L152.023 1030.74H141.25V1028.67H154.703Z" fill="black"/>
</svg>
