<svg width="505" height="505" viewBox="0 0 505 505" fill="none" xmlns="http://www.w3.org/2000/svg">
<path d="M112.336 442.782C108.613 442.792 104.944 441.897 101.644 440.173C92.5668 435.384 88.2758 425.236 90.1687 413.021C90.8013 408.902 91.5282 404.609 92.293 400.056C95.4321 381.415 99.3407 358.212 99.6664 331.564V331.314L101.507 295.5C102.097 280.483 107.71 270.372 112.313 264.531C114.94 261.154 118.113 258.239 121.702 255.906C123.684 235.43 135.637 202.225 152.682 170.128C165.333 146.284 179.49 124.901 192.547 109.917C204.584 96.0981 214.554 89.0918 222.178 89.0918C224.068 89.0738 225.933 89.5244 227.606 90.4034C228.759 91.0157 229.787 91.8382 230.637 92.8284L264.03 110.535C265.195 105.081 267.138 99.8216 269.798 94.9185C277.729 79.9719 291.347 69.2054 308.143 64.5959C313.906 63.022 319.856 62.2286 325.831 62.2369C337.168 62.2819 348.322 65.0917 358.326 70.4226C374.013 78.7405 385.705 92.333 391.266 108.695C396.865 125.17 395.576 142.481 387.641 157.432C385.053 162.371 381.775 166.918 377.907 170.935L407.467 186.613L408.93 187.448L409.091 187.557C412.622 189.972 414.661 194.332 415.157 200.503C416.653 218.903 404.842 254.34 384.327 292.976C371.676 316.797 357.571 338.071 344.613 352.895C332.704 366.501 322.809 373.404 315.2 373.404C313.709 373.413 312.23 373.137 310.843 372.592L310.597 372.493L309.738 372.021L137.997 281.002C133.748 285.248 128.192 292.405 126.635 299.874C124.086 312.14 124.827 325.587 125.483 337.462C125.776 342.755 126.054 347.757 126.054 352.484C126.054 367.351 131.341 385.604 134.178 395.418C139.503 413.818 137.218 427.849 127.39 437.054C123.529 440.701 118.024 442.782 112.336 442.782ZM349.74 155.984C351.25 155.196 352.799 154.498 354.404 153.766L354.474 153.733C359.195 151.587 363.694 149.562 366.885 145.392C371.87 138.886 373.493 130.709 371.516 121.759C368.773 109.195 359.535 97.3955 347.408 90.9601C340.42 87.2934 332.642 85.3841 324.749 85.3976C319.463 85.3674 314.215 86.2979 309.261 88.1435C300.595 91.4744 294.241 97.6409 291.375 105.501C289.653 110.219 290.29 115.409 290.965 120.905C291.135 122.321 291.305 123.689 291.437 125.052L349.74 155.984Z" fill="white"/>
<path d="M325.831 66.9359C336.399 66.9653 346.799 69.5866 356.117 74.5697C370.751 82.3214 381.608 94.9703 386.801 110.191C391.993 125.411 390.794 141.414 383.496 155.205C380.117 161.661 375.459 167.362 369.807 171.964L405.211 190.727L406.443 191.43C408.803 193.034 410.101 196.275 410.469 200.866C411.838 217.672 400.49 252.495 380.178 290.763C367.701 314.259 353.818 335.216 341.078 349.766C334.535 357.244 323.225 368.667 315.219 368.667C314.327 368.678 313.441 368.517 312.609 368.195L311.981 367.86L137.261 275.26C131.808 279.93 124.043 289.239 122.032 298.935C119.356 311.796 120.144 325.582 120.791 337.745C121.079 342.972 121.353 347.912 121.353 352.508C121.353 368.039 126.758 386.713 129.665 396.748C134.457 413.327 132.611 425.736 124.18 433.634C121.065 436.549 116.736 438.073 112.351 438.073C109.393 438.086 106.476 437.378 103.854 436.012C96.5321 432.148 93.2467 424.033 94.8375 413.752C95.4653 409.676 96.1875 405.387 96.9523 400.853C100.12 382.047 104.061 358.646 104.392 331.63V331.564L106.233 295.707C106.766 281.945 111.855 272.74 116.033 267.447C118.785 263.865 122.257 260.898 126.224 258.737C127.338 239.45 139.569 204.905 156.86 172.336C169.351 148.798 183.295 127.727 196.116 113.012C202.725 105.416 214.162 93.8003 222.187 93.805C223.305 93.7884 224.41 94.0494 225.402 94.5646C226.268 95.0372 227.007 95.7102 227.559 96.5273L267.754 117.839C268.349 110.577 270.336 103.986 273.976 97.1265C281.293 83.3405 293.878 73.3996 309.38 69.1392C314.734 67.6725 320.26 66.93 325.812 66.9312L325.831 66.9359ZM349.787 161.353C351.92 160.117 354.127 159.015 356.396 158.05C361.461 155.757 366.696 153.384 370.605 148.279C376.458 140.636 378.36 131.124 376.099 120.773C373.069 106.888 362.91 93.8805 349.594 86.8035C341.914 82.775 333.371 80.6703 324.698 80.6701C318.831 80.6337 313.008 81.6715 307.515 83.7321C297.555 87.5584 290.229 94.7109 286.886 103.878C284.776 109.672 285.513 115.673 286.226 121.471C286.504 123.736 286.768 125.878 286.863 127.987L349.778 161.348L349.787 161.353ZM325.802 57.4905C319.407 57.489 313.041 58.3443 306.873 60.0335C288.808 64.9921 274.151 76.5937 265.602 92.701C263.737 96.1735 262.186 99.805 260.966 103.552L233.564 89.0209C232.46 87.8868 231.186 86.9317 229.787 86.1901C227.437 84.9567 224.818 84.3215 222.164 84.3407C216.291 84.3407 209.89 87.2517 202.602 93.2435C197.697 97.3799 193.14 101.91 188.974 106.789C175.686 122.033 161.312 143.736 148.495 167.887C131.794 199.337 119.894 231.995 117.236 253.193C113.987 255.582 111.079 258.403 108.593 261.577C103.556 267.966 97.4243 278.987 96.7918 295.255L94.9555 331.041V331.475C94.6392 357.759 90.7637 380.759 87.6482 399.239C86.8787 403.811 86.1517 408.123 85.5098 412.266C83.3006 426.561 88.512 438.54 99.4494 444.315C103.429 446.394 107.855 447.476 112.346 447.467C119.219 447.467 125.88 444.919 130.628 440.475C136.42 435.054 139.98 428.095 141.216 419.791C142.33 412.294 141.495 403.646 138.729 394.087C135.962 384.529 130.789 366.662 130.789 352.465C130.789 347.606 130.506 342.557 130.213 337.183C129.571 325.596 128.849 312.466 131.27 300.817C132.262 296.066 135.476 290.909 138.993 286.819L307.515 376.149L308.133 376.475L308.605 376.725L309.078 376.919C311.022 377.685 313.095 378.074 315.186 378.065C321.039 378.065 327.398 375.196 334.634 369.294C339.5 365.222 344.021 360.756 348.154 355.942C361.343 340.873 375.67 319.283 388.486 295.151C409.398 255.751 421.416 219.313 419.844 200.064C419.231 192.411 416.507 186.854 411.749 183.612L411.428 183.395L411.092 183.202L409.86 182.499L409.733 182.428L409.601 182.357L385.361 169.505C387.802 166.404 389.957 163.088 391.8 159.598C400.349 143.481 401.741 124.849 395.722 107.129C389.779 89.6248 377.279 75.0934 360.526 66.2047C349.838 60.5141 337.922 57.5164 325.812 57.4716L325.802 57.4905ZM295.827 122.047C295.761 121.476 295.69 120.905 295.624 120.344C295.015 115.409 294.449 110.771 295.78 107.105C298.173 100.547 303.55 95.3714 310.928 92.5406C315.34 90.8995 320.014 90.0746 324.721 90.1061C331.397 90.0683 337.99 91.5747 343.987 94.5073C349.983 97.4399 355.219 101.719 359.285 107.011C362.962 111.628 365.563 117.006 366.899 122.755C368.575 130.417 367.305 137.064 363.123 142.514C360.649 145.746 356.882 147.449 352.516 149.426L352.435 149.463C351.567 149.853 350.69 150.256 349.806 150.671L295.827 122.047Z" fill="white" stroke="white" stroke-width="10"/>
<path d="M409.067 200.975C409.511 206.693 408.411 214.864 405.763 224.961C400.873 243.559 391.337 266.692 378.918 290.098C366.498 313.504 352.672 334.357 340.002 348.832C327.728 362.864 317.735 369.356 312.623 366.638L312 366.308L137.959 274.019C140.565 272.08 146.485 267.414 148.491 265.729C157.771 257.982 169.162 244.168 180.59 226.829L181.78 225.013L181.804 224.97L181.841 224.904C187.907 215.558 193.822 205.461 199.43 194.898C216.084 163.523 227.63 132.148 229.556 113.05C230.204 106.731 229.926 101.961 228.721 98.7401L405.267 192.35C407.434 193.567 408.718 196.526 409.067 200.975Z" fill="white"/>
<path d="M315.205 368.662C314.312 368.673 313.426 368.513 312.594 368.19L311.966 367.855L312.608 366.643C317.73 369.36 327.714 362.868 339.987 348.837C352.657 334.362 366.479 313.504 378.903 290.102C391.327 266.701 400.858 243.564 405.749 224.966C408.402 214.869 409.501 206.698 409.053 200.979L410.441 200.866C411.81 217.672 400.462 252.495 380.149 290.763C367.673 314.259 353.79 335.216 341.049 349.766C334.535 357.24 323.206 368.662 315.205 368.662Z" fill="black" stroke="black"/>
<path d="M224.736 95.8149C227.918 97.504 229.089 103.416 228.121 112.908C226.233 131.846 214.724 163.009 198.15 194.237C192.557 204.777 186.651 214.846 180.604 224.164L179.448 225.952L179.377 226.06C168.048 243.281 156.719 256.982 147.57 264.644C145.489 266.38 138.818 271.646 136.623 273.226C133.64 270.867 127.688 265.475 127.603 259.686C127.607 259.612 127.607 259.538 127.603 259.464C128.466 240.493 140.721 205.768 158.116 173.002C170.554 149.558 184.433 128.586 197.192 113.946C209.579 99.712 219.624 93.1068 224.736 95.8149Z" fill="#E4E5DD"/>
<path d="M158.106 173.002C140.711 205.768 128.457 240.469 127.593 259.464C127.598 259.538 127.598 259.612 127.593 259.686C127.678 265.475 133.631 270.881 136.614 273.226C138.809 271.646 145.479 266.38 147.561 264.644C156.733 256.982 168.029 243.281 179.368 226.06L179.438 225.952L180.595 224.164C186.642 214.846 192.547 204.777 198.141 194.237C214.715 163.009 226.2 131.846 228.112 112.908C229.056 103.416 227.909 97.504 224.727 95.815C219.615 93.1068 209.569 99.712 197.173 113.946C184.423 128.586 170.545 149.558 158.106 173.002ZM199.401 194.898C193.793 205.461 187.879 215.558 181.813 224.904L181.775 224.97L181.751 225.013L180.562 226.829C169.148 244.168 157.757 257.968 148.462 265.729C146.456 267.404 140.537 272.08 137.931 274.019L311.971 366.308L312.594 366.638L311.952 367.851L136.633 274.934L136.567 274.981L136.208 274.708L135.632 274.401L135.689 274.302C128.414 268.593 126.583 263.63 126.248 260.695L126.111 260.771L126.167 259.487C127.008 240.351 139.338 205.325 156.851 172.341C169.341 148.803 183.286 127.732 196.106 113.017C203.659 104.336 217.528 90.3987 225.374 94.5694C226.239 95.042 226.979 95.715 227.531 96.5321L405.173 190.727L406.405 191.43C408.765 193.034 410.063 196.276 410.432 200.866L409.044 200.979C408.694 196.53 407.41 193.572 405.196 192.355L228.65 98.7448C229.849 101.959 230.127 106.729 229.485 113.055C227.602 132.158 216.051 163.523 199.401 194.898Z" fill="black" stroke="black"/>
<path d="M134.617 257.204C135.778 240.219 146.357 208.042 163.45 175.837C187.77 130.025 215.975 97.3955 226.455 102.949C227.219 103.359 227.965 104.312 228.588 105.034" stroke="black" stroke-miterlimit="10" stroke-linecap="square"/>
<path d="M386.801 110.191C391.993 125.43 390.794 141.414 383.497 155.205C380.002 161.894 375.138 167.772 369.222 172.459L368.854 172.747L348.763 162.009L349.816 161.362C351.948 160.117 354.155 159.004 356.425 158.031C361.49 155.738 366.725 153.365 370.633 148.26C376.487 140.617 378.389 131.106 376.128 120.754C373.097 106.869 362.939 93.8616 349.622 86.7846C336.66 79.9105 320.535 78.764 307.544 83.7321C297.583 87.5584 290.257 94.7109 286.915 103.878C284.805 109.672 285.541 115.673 286.254 121.471C286.533 123.741 286.797 125.887 286.891 128.001L267.717 118.192C268.279 110.79 270.271 104.095 273.971 97.1218C281.288 83.3358 293.873 73.3949 309.375 69.1346C324.877 64.8742 341.475 66.8086 356.108 74.5603C370.742 82.3119 381.632 94.9704 386.801 110.191ZM382.227 154.54C389.359 141.098 390.511 125.51 385.46 110.662C380.409 95.8149 369.751 83.416 355.452 75.8342C341.154 68.2523 324.934 66.3651 309.772 70.5264C294.61 74.6877 282.355 84.369 275.222 97.8106C271.829 104.004 269.765 110.836 269.161 117.872L285.4 126.836C285.277 125.175 285.069 123.472 284.848 121.684C284.116 115.72 283.356 109.549 285.584 103.434C289.068 93.8805 296.687 86.4496 307.034 82.4535C320.398 77.3203 336.971 78.5187 350.288 85.5768C363.977 92.8284 374.395 106.209 377.511 120.49C379.829 131.106 377.785 141.287 371.757 149.161C367.631 154.545 362.231 156.993 357.005 159.362C355.117 160.22 353.295 161.041 351.614 161.976L368.684 171.095C374.284 166.565 378.89 160.929 382.213 154.54H382.227Z" fill="black" stroke="black" stroke-width="2"/>
<path d="M385.46 110.648C390.511 125.51 389.359 141.098 382.227 154.526C378.895 160.901 374.285 166.522 368.684 171.039L351.614 161.919C353.295 160.975 355.107 160.164 357.005 159.305C362.231 156.946 367.631 154.488 371.757 149.105C377.785 141.23 379.829 131.049 377.511 120.433C374.395 106.157 363.963 92.7765 350.288 85.5202C336.971 78.4432 320.397 77.2637 307.034 82.3969C296.686 86.3695 289.068 93.824 285.584 103.378C283.356 109.511 284.116 115.645 284.847 121.627C285.069 123.415 285.277 125.118 285.4 126.779L269.161 117.815C269.765 110.78 271.829 103.947 275.222 97.754C282.355 84.3124 294.628 74.6358 309.772 70.4698C324.915 66.3038 341.144 68.2618 355.452 75.8106C369.76 83.3594 380.405 95.7677 385.46 110.648Z" fill="white"/>
<path d="M227.786 277.652C222.98 273.698 218.179 269.741 213.383 265.781C214.866 263.979 215.597 263.068 217.042 261.238C223.613 267.06 230.188 272.879 236.769 278.694C235.282 280.52 234.531 281.426 232.992 283.219C226.68 281.577 220.368 279.931 214.059 278.279C218.326 282.242 222.598 286.201 226.875 290.154C225.284 291.9 224.477 292.759 222.839 294.467L194.629 286.371C196.291 284.719 197.117 283.884 198.74 282.2L218.25 288.333C213.69 284.21 209.127 280.081 204.561 275.949C205.897 274.476 206.558 273.736 207.865 272.24L227.786 277.652Z" fill="black"/>
<path d="M244.709 246.253C246.813 247.298 248.633 248.836 250.014 250.735C251.193 252.383 251.794 254.373 251.723 256.397C251.606 258.552 250.856 260.625 249.566 262.356C248.277 264.221 246.528 265.722 244.487 266.711C242.432 267.702 240.156 268.147 237.878 268.003C235.439 267.859 233.061 267.184 230.911 266.027L229.74 265.408C227.655 264.382 225.86 262.851 224.519 260.955C223.397 259.325 222.869 257.36 223.023 255.387C223.229 253.265 224.016 251.241 225.298 249.537C226.579 247.677 228.293 246.157 230.292 245.107C232.269 244.075 234.485 243.587 236.712 243.691C239.142 243.817 241.512 244.493 243.642 245.668L244.709 246.253ZM240.385 250.627C237.914 249.315 235.737 248.759 233.851 248.957C232.942 249.044 232.064 249.334 231.281 249.804C230.497 250.274 229.829 250.913 229.325 251.674C228.196 253.274 227.941 254.835 228.583 256.364C229.225 257.893 230.76 259.317 233.205 260.61L234.357 261.219C236.77 262.499 238.956 263.062 240.913 262.908C241.845 262.852 242.751 262.581 243.561 262.117C244.371 261.653 245.063 261.008 245.582 260.233C246.71 258.629 246.923 257.048 246.233 255.515C245.544 253.981 243.982 252.538 241.513 251.226L240.385 250.627Z" fill="black"/>
<path d="M254.971 235.067C254.027 236.681 253.583 237.483 252.611 239.082L261.24 243.658C260.05 245.664 259.446 246.659 258.209 248.641L234.63 236.138C236.854 232.566 237.935 230.759 240.021 227.103C241.678 224.201 243.529 222.262 245.624 221.323C247.72 220.385 249.873 220.507 252.162 221.706C253.615 222.41 254.816 223.543 255.604 224.952C256.318 226.415 256.585 228.055 256.373 229.67C261.4 229.566 263.926 229.504 268.882 229.372L269.109 229.495C267.957 231.717 267.372 232.798 266.168 235.02C261.721 235.043 259.479 235.053 254.971 235.067ZM248.697 236.992C249.642 235.374 250.114 234.562 251.058 232.93C251.785 231.656 252.002 230.5 251.794 229.471C251.668 228.945 251.424 228.454 251.08 228.036C250.737 227.618 250.303 227.283 249.812 227.056C249.338 226.773 248.812 226.592 248.265 226.524C247.718 226.456 247.163 226.502 246.635 226.659C245.634 226.974 244.745 227.819 243.968 229.193C243.023 230.821 242.551 231.628 241.607 233.241L248.697 236.992Z" fill="black"/>
<path d="M269.321 219.181C271.455 214.709 272.47 212.449 274.401 207.886L278.305 209.958C275.938 215.55 273.391 221.054 270.662 226.471L247.06 213.968C248.108 211.883 248.617 210.835 249.623 208.726L269.321 219.181Z" fill="black"/>
<path d="M279.589 206.867L256.01 194.36C257.327 191.133 257.964 189.51 259.182 186.24C259.913 184.109 261.173 182.199 262.845 180.687C264.36 179.347 266.282 178.554 268.302 178.437C270.539 178.343 272.758 178.881 274.703 179.989L275.793 180.564C277.928 181.672 279.769 183.269 281.165 185.226C282.526 187.132 283.383 189.35 283.658 191.675C283.943 194.051 283.647 196.46 282.794 198.696C281.552 201.98 280.91 203.612 279.589 206.867ZM262.094 191.02L277.837 199.37C278.243 198.314 278.442 197.79 278.843 196.733C279.645 194.596 279.617 192.624 278.781 190.831C277.946 189.038 276.36 187.528 274.061 186.25L272.81 185.589C270.409 184.331 268.393 183.93 266.763 184.386C265.13 184.858 263.931 186.174 263.124 188.326C262.708 189.406 262.505 189.944 262.094 191.02Z" fill="black"/>
<path d="M272.314 172.605C271.493 173.346 271.082 173.719 270.251 174.459C269.286 172.78 267.9 171.38 266.23 170.397L263.492 168.944C264.011 167.227 264.266 166.368 264.757 164.641L267.273 165.976C268.411 166.636 269.398 167.527 270.171 168.59C271.113 169.795 271.838 171.153 272.314 172.605V172.605Z" fill="black"/>
<path d="M288.246 156.116C287.302 155.622 286.503 155.622 285.848 156.116C285.187 156.616 284.356 157.715 283.341 159.418C282.551 160.785 281.619 162.064 280.561 163.235C278.305 165.594 275.897 166.099 273.428 164.787C272.124 164.082 271.05 163.016 270.336 161.716C269.521 160.217 269.038 158.559 268.92 156.857C268.757 154.927 268.9 152.985 269.345 151.101C269.688 149.361 270.398 147.714 271.427 146.269C272.214 145.136 273.39 144.332 274.731 144.009C276.131 143.754 277.576 144.012 278.8 144.736C278.366 147.048 278.135 148.199 277.653 150.497C276.564 149.921 275.631 149.874 274.854 150.355C274.075 150.827 273.528 151.808 273.197 153.257C272.877 154.454 272.877 155.715 273.197 156.913C273.317 157.38 273.532 157.818 273.827 158.199C274.123 158.58 274.493 158.897 274.915 159.131C275.278 159.334 275.697 159.413 276.108 159.354C276.52 159.295 276.9 159.102 277.191 158.805C278.173 157.874 278.99 156.783 279.607 155.578C281.184 152.747 282.709 150.935 284.252 150.1C285.796 149.265 287.491 149.336 289.36 150.327C290.406 150.887 291.33 151.649 292.081 152.568C292.831 153.487 293.392 154.545 293.731 155.682C294.574 158.375 294.638 161.252 293.915 163.981C293.514 165.898 292.675 167.696 291.465 169.237C290.559 170.518 289.198 171.407 287.659 171.723C286.12 172.038 284.519 171.756 283.181 170.935C283.813 168.67 284.125 167.538 284.701 165.273C287.34 166.689 289.152 165.566 290.002 161.914C290.318 160.746 290.318 159.515 290.002 158.347C289.878 157.875 289.658 157.433 289.356 157.049C289.054 156.665 288.676 156.348 288.246 156.116V156.116Z" fill="black"/>
<path d="M275.798 286.984L252.115 274.439C254.475 271.259 255.646 269.645 257.921 266.418C259.89 263.587 261.891 261.7 263.973 260.827C264.971 260.38 266.06 260.177 267.152 260.233C268.243 260.29 269.306 260.605 270.251 261.153C271.333 261.691 272.203 262.576 272.72 263.668C273.213 264.769 273.316 266.005 273.013 267.173C274.031 266.176 275.331 265.517 276.737 265.286C278.132 265.077 279.556 265.336 280.788 266.022C283.053 267.225 284.304 268.853 284.512 270.933C284.72 273.014 283.941 275.382 282.152 278.043C279.659 281.634 278.394 283.431 275.798 286.984ZM265.465 274.962C266.466 273.547 266.961 272.853 267.948 271.433C269.581 268.989 269.421 267.248 267.509 266.244C267.075 265.973 266.584 265.805 266.075 265.753C265.566 265.702 265.052 265.768 264.573 265.946C263.68 266.31 262.779 267.159 261.863 268.48C260.947 269.801 260.447 270.485 259.503 271.815L265.465 274.962ZM268.92 276.798L275.298 280.181C276.454 278.553 277.025 277.732 278.13 276.085C278.91 274.953 279.242 273.921 279.126 272.99C279.063 272.523 278.881 272.079 278.599 271.701C278.316 271.323 277.942 271.023 277.512 270.829C275.354 269.688 273.513 270.221 271.96 272.415C270.756 274.17 270.143 275.047 268.92 276.798Z" fill="black"/>
<path d="M288.421 245.829C286.287 249.764 285.178 251.712 282.884 255.562L289.2 258.912C291.89 254.397 293.184 252.104 295.657 247.466L299.561 249.537C296.581 255.117 293.417 260.591 290.068 265.96L266.466 253.458C269.814 248.111 272.974 242.647 275.945 237.067L279.881 239.153C277.413 243.776 276.105 246.06 273.438 250.566L279.06 253.543C281.354 249.693 282.459 247.749 284.597 243.809L288.421 245.829Z" fill="black"/>
<path d="M301.369 230.023C300.979 229.786 300.535 229.656 300.079 229.645C299.623 229.634 299.173 229.744 298.772 229.962C297.961 230.434 296.856 231.411 295.44 232.944C294.314 234.212 293.072 235.371 291.729 236.407C288.85 238.516 286.15 238.903 283.705 237.605C282.455 236.966 281.457 235.923 280.872 234.647C280.249 233.216 280.02 231.644 280.207 230.094C280.395 228.239 280.911 226.432 281.731 224.758C282.481 223.084 283.561 221.578 284.908 220.333C286.037 219.276 287.456 218.58 288.982 218.332C290.468 218.123 291.981 218.405 293.292 219.134C292.348 221.281 291.904 222.347 290.932 224.475C290.482 224.199 289.972 224.035 289.446 223.997C288.919 223.958 288.391 224.046 287.906 224.253C286.962 224.678 286.175 225.559 285.546 226.895C284.983 227.934 284.744 229.117 284.861 230.292C284.914 230.738 285.075 231.164 285.33 231.533C285.585 231.902 285.926 232.204 286.325 232.411C287.089 232.817 287.939 232.741 288.864 232.184C290.074 231.372 291.158 230.389 292.084 229.264C294.326 226.702 296.332 225.018 298.168 224.3C299.051 223.934 300.007 223.774 300.961 223.835C301.915 223.895 302.843 224.174 303.672 224.65C304.65 225.143 305.496 225.863 306.139 226.749C306.782 227.635 307.204 228.663 307.369 229.745C307.784 232.062 307.369 234.647 306.004 237.483C305.166 239.328 303.941 240.973 302.412 242.304C301.13 243.465 299.54 244.23 297.833 244.508C296.222 244.723 294.585 244.414 293.165 243.625C294.25 241.554 294.779 240.512 295.822 238.436C298.423 239.813 300.571 238.841 302.167 235.463C302.709 234.452 302.941 233.303 302.832 232.161C302.785 231.711 302.626 231.28 302.371 230.907C302.116 230.534 301.771 230.23 301.369 230.023V230.023Z" fill="black"/>
<path d="M299.349 193.968C298.22 197.243 297.63 198.875 296.413 202.121L316.144 212.586C315.304 214.756 314.874 215.841 314.006 218.002L294.331 207.566C293.08 210.755 292.443 212.345 291.126 215.506L287.193 213.421C290.13 206.315 292.905 199.139 295.379 191.864L299.349 193.968Z" fill="black"/>
<path d="M306.108 306.469L282.506 293.943C284.866 290.758 286.013 289.149 288.284 285.922C290.247 283.092 292.254 281.237 294.335 280.341C295.338 279.899 296.43 279.699 297.525 279.758C298.619 279.817 299.684 280.133 300.633 280.681C301.722 281.202 302.593 282.089 303.094 283.186C303.595 284.284 303.695 285.523 303.375 286.687C304.397 285.687 305.703 285.028 307.114 284.799C308.513 284.595 309.941 284.855 311.178 285.54C313.444 286.745 314.678 288.379 314.879 290.442C315.082 292.504 314.294 294.872 312.49 297.519C309.989 301.133 308.705 302.926 306.108 306.469ZM295.827 294.481C296.828 293.065 297.323 292.367 298.305 290.947C299.939 288.513 299.783 286.772 297.871 285.757C297.436 285.487 296.945 285.319 296.436 285.267C295.926 285.214 295.411 285.279 294.93 285.455C294.043 285.823 293.141 286.666 292.225 287.984C291.281 289.324 290.809 289.994 289.865 291.32L295.827 294.481ZM299.264 296.302L305.632 299.675C306.783 298.048 307.355 297.231 308.492 295.585C309.271 294.457 309.601 293.424 309.493 292.499C309.43 292.033 309.249 291.59 308.967 291.213C308.686 290.836 308.313 290.537 307.883 290.343C305.721 289.201 303.88 289.735 302.327 291.924C301.09 293.684 300.477 294.561 299.24 296.302H299.264Z" fill="black"/>
<path d="M320.916 259.473C323.05 260.547 324.903 262.103 326.331 264.017C327.584 265.72 328.29 267.763 328.356 269.876C328.396 272.074 327.808 274.238 326.661 276.114C325.562 278.051 323.959 279.656 322.021 280.756C320.102 281.825 317.924 282.341 315.729 282.247C313.333 282.149 310.991 281.504 308.884 280.36L307.718 279.742C305.604 278.689 303.778 277.138 302.398 275.222C301.206 273.537 300.576 271.52 300.595 269.457C300.647 267.287 301.274 265.171 302.412 263.323C303.497 261.391 305.056 259.767 306.944 258.605C308.781 257.501 310.9 256.952 313.043 257.025C315.433 257.109 317.77 257.756 319.864 258.912L320.916 259.473ZM317.031 264.106C314.561 262.795 312.424 262.262 310.621 262.507C309.739 262.623 308.897 262.949 308.168 263.458C307.438 263.967 306.842 264.644 306.429 265.432C305.443 267.121 305.296 268.735 306.014 270.334C306.731 271.934 308.308 273.358 310.734 274.67L311.881 275.279C314.289 276.559 316.434 277.095 318.315 276.887C319.221 276.802 320.092 276.494 320.849 275.991C321.607 275.488 322.228 274.806 322.658 274.005C323.645 272.311 323.749 270.664 322.984 269.074C322.219 267.484 320.624 266.027 318.164 264.715L317.031 264.106Z" fill="black"/>
<path d="M334.243 245.149C333.855 244.912 333.411 244.782 332.957 244.772C332.502 244.762 332.053 244.872 331.656 245.093C330.844 245.565 329.768 246.546 328.351 248.089C327.234 249.359 326.002 250.523 324.669 251.566C321.809 253.684 319.118 254.076 316.668 252.778C315.419 252.135 314.422 251.092 313.836 249.815C313.205 248.381 312.965 246.805 313.142 245.248C313.321 243.391 313.826 241.58 314.634 239.898C315.373 238.221 316.442 236.71 317.778 235.454C318.894 234.394 320.303 233.694 321.823 233.444C323.306 233.233 324.817 233.515 326.123 234.246C325.222 236.397 324.759 237.468 323.81 239.601C323.362 239.324 322.854 239.16 322.329 239.122C321.803 239.084 321.277 239.174 320.794 239.384C319.85 239.809 319.09 240.696 318.467 242.035C317.911 243.079 317.679 244.266 317.801 245.442C317.854 245.889 318.015 246.316 318.271 246.686C318.527 247.056 318.87 247.358 319.269 247.565C320.037 247.971 320.88 247.894 321.799 247.334C323.004 246.519 324.081 245.53 324.995 244.399C327.214 241.828 329.206 240.153 331.033 239.412C331.913 239.045 332.866 238.885 333.818 238.945C334.77 239.004 335.695 239.282 336.523 239.757C337.502 240.252 338.349 240.974 338.995 241.861C339.64 242.749 340.064 243.777 340.233 244.862C340.662 247.183 340.233 249.773 338.921 252.623C338.097 254.472 336.885 256.123 335.366 257.463C334.096 258.629 332.513 259.4 330.811 259.681C329.205 259.898 327.572 259.59 326.156 258.803C327.223 256.723 327.752 255.675 328.776 253.571C331.377 254.953 333.497 253.972 335.083 250.584C335.618 249.571 335.841 248.422 335.725 247.282C335.673 246.832 335.51 246.402 335.252 246.029C334.993 245.657 334.647 245.355 334.243 245.149Z" fill="black"/>
<path d="M343.547 222.541C343.168 222.303 342.732 222.174 342.285 222.166C341.838 222.159 341.398 222.274 341.012 222.498C340.233 222.97 339.204 223.984 337.91 225.565C336.886 226.863 335.745 228.064 334.502 229.155C331.845 231.363 329.277 231.812 326.827 230.514C325.559 229.848 324.537 228.795 323.909 227.509C323.211 226.053 322.886 224.446 322.965 222.833C323.035 220.95 323.436 219.095 324.15 217.351C324.773 215.652 325.75 214.105 327.015 212.812C328.059 211.73 329.419 211.008 330.9 210.75C332.366 210.541 333.859 210.822 335.149 211.548C334.346 213.727 333.936 214.813 333.1 216.983C332.661 216.705 332.16 216.541 331.641 216.506C331.123 216.471 330.604 216.565 330.131 216.78C329.234 217.223 328.521 218.129 327.978 219.498C327.485 220.587 327.321 221.798 327.506 222.979C327.58 223.433 327.757 223.863 328.025 224.236C328.293 224.61 328.644 224.916 329.05 225.131C329.815 225.54 330.631 225.452 331.5 224.867C332.636 224.016 333.639 223 334.474 221.852C336.522 219.214 338.415 217.516 340.186 216.756C341.05 216.383 341.99 216.218 342.93 216.276C343.87 216.333 344.783 216.611 345.595 217.087C346.584 217.592 347.443 218.318 348.106 219.208C348.769 220.098 349.218 221.128 349.419 222.22C349.919 224.579 349.598 227.178 348.437 230.085C347.726 231.953 346.627 233.649 345.213 235.062C344.075 236.269 342.591 237.093 340.964 237.421C339.398 237.672 337.794 237.382 336.414 236.6C337.301 234.435 337.75 233.35 338.633 231.189C341.234 232.566 343.244 231.528 344.628 228.075C345.107 227.016 345.27 225.842 345.1 224.692C345.032 224.235 344.856 223.802 344.585 223.427C344.315 223.053 343.959 222.749 343.547 222.541Z" fill="black"/>
<path d="M179.991 226.409C168.496 243.866 157.21 257.515 148.023 265.187C145.15 267.552 142.156 269.768 139.054 271.825V271.825C138.918 271.905 138.776 271.99 138.634 272.084C138.493 272.179 138.219 272.358 138.002 272.519C132.757 276.392 122.821 286.908 120.394 298.586C116.538 317.118 119.677 337.051 119.677 352.493C119.677 367.936 124.94 386.435 128.056 397.192C132.469 412.464 131.36 424.604 123.028 432.412C113.819 441.032 93.0296 436.134 96.4567 413.988C99.761 392.719 105.624 365.19 106.03 331.635L107.871 295.778C108.343 284.082 112.284 274.835 117.312 268.456C122.339 262.078 128.457 258.548 133.22 258.313C162.26 249.079 176.077 232.033 179.991 226.409Z" fill="#422C2C" stroke="black" stroke-miterlimit="10"/>
<path d="M103.33 418.914C103.766 421.263 104.84 423.446 106.436 425.225C108.031 427.005 110.086 428.311 112.374 429.001" stroke="#6B5858" stroke-width="7" stroke-miterlimit="10" stroke-linecap="round"/>
</svg>
