<svg width="505" height="505" viewBox="0 0 505 505" fill="none" xmlns="http://www.w3.org/2000/svg">
<g clip-path="url(#clip0_17_1387)">
<path d="M72.1702 497.915C67.3804 497.928 62.6592 496.773 58.4143 494.55C46.7354 488.374 41.2148 475.285 43.6502 459.531C44.464 454.218 45.3993 448.681 46.3832 442.809C50.4219 418.767 55.4505 388.841 55.8696 354.473V354.15L58.2382 307.959C58.9973 288.59 66.2184 275.55 72.1398 268.017C75.5203 263.661 79.603 259.902 84.2195 256.893C86.7703 230.484 102.148 187.658 124.078 146.262C140.355 115.508 158.568 87.9306 175.367 68.6046C190.854 50.7816 203.68 41.7453 213.489 41.7453C215.92 41.722 218.32 42.3033 220.473 43.437C221.956 44.2266 223.278 45.2874 224.372 46.5646L267.334 69.4017C268.834 62.3668 271.333 55.5839 274.755 49.2603C284.959 29.9829 302.48 16.0969 324.088 10.1518C331.504 8.12196 339.158 7.09865 346.845 7.10934C361.431 7.16736 375.782 10.7914 388.653 17.6668C408.835 28.3947 423.878 45.9257 431.032 67.0285C438.235 88.2774 436.577 110.603 426.368 129.887C423.038 136.257 418.822 142.121 413.845 147.302L451.876 167.523L453.758 168.6L453.965 168.74C458.508 171.855 461.131 177.478 461.769 185.437C463.694 209.169 448.499 254.873 422.105 304.703C405.828 335.427 387.681 362.864 371.01 381.983C355.688 399.532 342.958 408.435 333.168 408.435C331.25 408.446 329.347 408.091 327.562 407.388L327.247 407.26L326.141 406.652L105.184 289.26C99.7185 294.736 92.5702 303.967 90.566 313.6C87.2865 329.421 88.24 346.763 89.0842 362.079C89.4607 368.906 89.819 375.357 89.819 381.454C89.819 400.628 96.6211 424.171 100.271 436.827C107.122 460.559 104.182 478.656 91.5378 490.528C86.5699 495.231 79.4885 497.915 72.1702 497.915ZM377.606 128.019C379.549 127.003 381.541 126.102 383.606 125.159L383.697 125.116C389.771 122.347 395.558 119.737 399.664 114.358C406.077 105.967 408.166 95.4213 405.622 83.878C402.093 67.6736 390.208 52.4549 374.606 44.1549C365.615 39.4258 355.609 36.9633 345.454 36.9807C338.653 36.9418 331.901 38.1418 325.528 40.5222C314.377 44.8182 306.203 52.7714 302.516 62.909C300.3 68.994 301.119 75.6875 301.988 82.7766C302.207 84.6021 302.425 86.3667 302.595 88.1253L377.606 128.019Z" fill="white"/>
<path d="M346.845 13.17C360.442 13.2079 373.822 16.5886 385.811 23.0155C404.638 33.0132 418.606 49.3272 425.287 68.9575C431.967 88.5877 430.425 109.228 421.035 127.015C416.687 135.341 410.695 142.694 403.423 148.629L448.972 172.829L450.557 173.735C453.594 175.804 455.264 179.985 455.738 185.906C457.499 207.58 442.899 252.494 416.766 301.849C400.714 332.153 382.853 359.183 366.461 377.949C358.044 387.594 343.492 402.325 333.192 402.325C332.044 402.339 330.904 402.133 329.834 401.717L329.026 401.285L104.237 281.854C97.2221 287.878 87.2316 299.884 84.6444 312.389C81.2009 328.977 82.2151 346.757 83.0471 362.444C83.4176 369.186 83.7699 375.557 83.7699 381.484C83.7699 401.516 90.7237 425.601 94.4648 438.543C100.629 459.926 98.2546 475.93 87.4077 486.116C83.3994 489.877 77.8302 491.842 72.1882 491.842C68.3828 491.858 64.6308 490.945 61.2563 489.183C51.8367 484.199 47.6097 473.733 49.6564 460.474C50.4642 455.216 51.3934 449.685 52.3772 443.837C56.4524 419.582 61.5235 389.401 61.9487 354.558V354.473L64.3172 308.227C65.0035 290.477 71.5505 278.605 76.9253 271.777C80.4666 267.158 84.9329 263.332 90.0374 260.544C91.4707 235.669 107.207 191.114 129.453 149.109C145.523 118.751 163.463 91.5755 179.958 72.5963C188.46 62.7994 203.176 47.8181 213.5 47.8242C214.939 47.8028 216.36 48.1394 217.636 48.8039C218.75 49.4134 219.702 50.2815 220.412 51.3353L272.126 78.8213C272.891 69.4564 275.448 60.9557 280.13 52.1081C289.544 34.3276 305.735 21.5065 325.679 16.0117C332.568 14.12 339.678 13.1623 346.82 13.1639L346.845 13.17ZM377.666 134.943C380.411 133.35 383.25 131.928 386.169 130.684C392.686 127.727 399.421 124.666 404.449 118.082C411.98 108.224 414.428 95.9567 411.519 82.6062C407.62 64.698 394.55 47.9216 377.417 38.794C367.537 33.5983 356.546 30.8837 345.387 30.8835C337.839 30.8366 330.347 32.175 323.28 34.8327C310.466 39.7676 301.04 48.9925 296.74 60.8157C294.026 68.2881 294.973 76.0283 295.89 83.5068C296.248 86.4276 296.589 89.1901 296.71 91.9101L377.654 134.937L377.666 134.943ZM346.808 0.987804C338.581 0.985823 330.39 2.08893 322.455 4.26764C299.212 10.663 280.355 25.6261 269.356 46.4003C266.958 50.879 264.962 55.5626 263.392 60.3959L228.137 41.654C226.717 40.1913 225.078 38.9595 223.278 38.003C220.254 36.4122 216.885 35.5929 213.47 35.6176C205.915 35.6176 197.68 39.3721 188.303 47.1C181.993 52.4349 176.129 58.2778 170.769 64.5702C153.673 84.2309 135.18 112.222 118.691 143.371C97.2039 183.934 81.8933 226.054 78.474 253.394C74.2934 256.475 70.5521 260.113 67.3539 264.208C60.8737 272.447 52.9846 286.661 52.1708 307.642L49.8083 353.797V354.357C49.4013 388.257 44.4152 417.921 40.4069 441.756C39.4169 447.653 38.4816 453.214 37.6557 458.557C34.8134 476.995 41.5183 492.445 55.59 499.893C60.7104 502.574 66.4045 503.969 72.1821 503.957C81.0248 503.957 89.5941 500.671 95.7038 494.939C103.156 487.948 107.735 478.972 109.326 468.263C110.759 458.594 109.684 447.44 106.125 435.111C102.567 422.783 95.9103 399.739 95.9103 381.429C95.9103 375.162 95.5459 368.651 95.1694 361.72C94.3434 346.775 93.4142 329.841 96.5298 314.817C97.8051 308.689 101.941 302.038 106.466 296.762L323.28 411.976L324.076 412.396L324.683 412.719L325.291 412.968C327.793 413.957 330.46 414.459 333.149 414.447C340.68 414.447 348.861 410.747 358.171 403.135C364.431 397.882 370.248 392.123 375.565 385.914C392.534 366.478 410.966 338.633 427.455 307.509C454.359 256.693 469.822 209.698 467.799 184.871C467.01 175.001 463.506 167.833 457.384 163.653L456.971 163.373L456.54 163.123L454.954 162.216L454.791 162.125L454.621 162.034L423.434 145.458C426.575 141.458 429.348 137.181 431.718 132.68C442.717 111.893 444.509 87.8636 436.765 65.0083C429.119 42.4329 413.037 23.691 391.483 12.2268C377.732 4.88749 362.401 1.02119 346.82 0.96344L346.808 0.987804ZM308.243 84.2491C308.158 83.5128 308.067 82.7766 307.982 82.0524C307.198 75.6875 306.47 69.7059 308.182 64.9778C311.262 56.5197 318.179 49.8444 327.671 46.1934C333.348 44.0768 339.361 43.0129 345.417 43.0536C354.006 43.0048 362.489 44.9476 370.203 48.73C377.918 52.5123 384.654 58.0316 389.886 64.8562C394.617 70.8113 397.963 77.748 399.682 85.1619C401.838 95.0439 400.204 103.618 394.823 110.646C391.641 114.814 386.794 117.011 381.177 119.561L381.074 119.609C379.956 120.112 378.828 120.631 377.691 121.167L308.243 84.2491Z" fill="white"/>
<path d="M453.934 186.046C454.505 193.421 453.09 203.96 449.683 216.982C443.391 240.969 431.123 270.804 415.145 300.992C399.166 331.179 381.377 358.075 365.077 376.744C349.286 394.841 336.429 403.214 329.852 399.709L329.05 399.283L105.136 280.254C108.488 277.753 116.104 271.735 118.685 269.562C130.625 259.571 145.28 241.754 159.983 219.391L161.514 217.049L161.544 216.994L161.593 216.909C169.397 204.854 177.007 191.832 184.222 178.208C205.648 137.743 220.503 97.2772 222.981 72.6451C223.815 64.4952 223.457 58.3432 221.906 54.1891L449.045 174.922C451.833 176.492 453.485 180.307 453.934 186.046Z" fill="white"/>
<path d="M333.174 402.319C332.026 402.333 330.886 402.127 329.816 401.711L329.008 401.279L329.834 399.715C336.423 403.22 349.268 394.847 365.059 376.75C381.359 358.081 399.142 331.179 415.126 300.998C431.111 270.816 443.373 240.975 449.665 216.988C453.078 203.966 454.493 193.427 453.916 186.052L455.702 185.906C457.463 207.58 442.863 252.494 416.73 301.85C400.678 332.153 382.817 359.183 366.425 377.949C358.044 387.587 343.468 402.319 333.174 402.319Z" fill="black" stroke="black"/>
<path d="M216.78 50.4164C220.874 52.5949 222.38 60.2194 221.135 72.4625C218.705 96.8877 203.899 137.079 182.576 177.356C175.379 190.95 167.781 203.935 160.001 215.953L158.513 218.26L158.422 218.399C143.847 240.61 129.271 258.281 117.501 268.163C114.823 270.402 106.241 277.193 103.417 279.232C99.5787 276.189 91.9204 269.234 91.811 261.767C91.8167 261.672 91.8167 261.577 91.811 261.481C92.9224 237.014 108.689 192.228 131.069 149.967C147.072 119.731 164.927 92.6829 181.343 73.8011C197.279 55.4426 210.203 46.9236 216.78 50.4164Z" fill="#E4E5DD"/>
<path d="M131.057 149.967C108.677 192.228 92.9105 236.983 91.7991 261.482C91.8048 261.577 91.8048 261.672 91.7991 261.768C91.9084 269.234 99.5668 276.207 103.405 279.232C106.229 277.193 114.811 270.402 117.489 268.163C129.289 258.281 143.823 240.61 158.41 218.4L158.502 218.26L159.99 215.953C167.769 203.935 175.367 190.95 182.564 177.356C203.887 137.079 218.663 96.8878 221.123 72.4625C222.337 60.2195 220.862 52.5949 216.768 50.4165C210.191 46.9237 197.267 55.4427 181.319 73.8012C164.915 92.683 147.06 119.731 131.057 149.967ZM184.185 178.208C176.97 191.832 169.361 204.854 161.556 216.909L161.508 216.994L161.477 217.049L159.947 219.391C145.262 241.754 130.607 259.553 118.649 269.562C116.068 271.723 108.452 277.753 105.1 280.254L329.014 399.283L329.816 399.709L328.99 401.273L103.429 281.434L103.344 281.495L102.883 281.142L102.142 280.747L102.215 280.619C92.8559 273.256 90.4994 266.855 90.0682 263.07L89.8921 263.167L89.965 261.512C91.046 236.831 106.909 191.656 129.441 149.116C145.511 118.757 163.451 91.5816 179.946 72.6025C189.663 61.406 207.507 43.4309 217.6 48.81C218.714 49.4196 219.666 50.2876 220.376 51.3414L448.924 172.829L450.509 173.736C453.546 175.804 455.216 179.985 455.69 185.906L453.904 186.052C453.455 180.313 451.803 176.498 448.955 174.928L221.815 54.1953C223.358 58.3412 223.716 64.4931 222.89 72.6511C220.467 97.2894 205.606 137.743 184.185 178.208Z" fill="black" stroke="black"/>
<path d="M100.836 258.567C102.33 236.661 115.94 195.161 137.931 153.624C169.221 94.5389 205.508 52.4549 218.991 59.617C219.975 60.1464 220.934 61.3755 221.736 62.3065" stroke="black" stroke-miterlimit="10" stroke-linecap="square"/>
<path d="M425.287 68.9575C431.967 88.6121 430.425 109.228 421.036 127.015C416.539 135.641 410.282 143.223 402.67 149.268L402.196 149.639L376.349 135.789L377.703 134.956C380.446 133.349 383.286 131.915 386.206 130.66C392.722 127.702 399.457 124.642 404.486 118.058C412.017 108.2 414.464 95.9324 411.555 82.5819C407.656 64.6737 394.587 47.8973 377.454 38.7697C360.777 29.9038 340.031 28.4252 323.317 34.8327C310.503 39.7677 301.077 48.9925 296.777 60.8157C294.062 68.2881 295.01 76.0283 295.927 83.5068C296.285 86.4337 296.625 89.2024 296.747 91.9284L272.077 79.2777C272.8 69.7303 275.363 61.0957 280.124 52.102C289.538 34.3216 305.729 21.5004 325.674 16.0056C345.618 10.5109 366.972 13.0057 385.799 23.0034C404.626 33.0011 418.637 49.3272 425.287 68.9575ZM419.402 126.157C428.579 108.82 430.06 88.7156 423.562 69.566C417.064 50.4164 403.35 34.425 384.955 24.6464C366.559 14.8678 345.691 12.4338 326.184 17.8008C306.676 23.1678 290.91 35.6542 281.734 52.9904C277.368 60.9784 274.712 69.7902 273.936 78.8639L294.828 90.4255C294.67 88.2835 294.402 86.0868 294.117 83.7806C293.176 76.0891 292.198 68.13 295.064 60.2438C299.546 47.9216 309.349 38.3377 322.661 33.1836C339.855 26.5631 361.178 28.1087 378.31 37.2119C395.923 46.5646 409.326 63.8217 413.335 82.2411C416.317 95.9324 413.687 109.064 405.931 119.22C400.623 126.163 393.676 129.321 386.953 132.376C384.523 133.483 382.179 134.542 380.017 135.747L401.978 147.509C409.183 141.666 415.109 134.397 419.384 126.157H419.402Z" fill="black" stroke="black" stroke-width="2"/>
<path d="M423.562 69.5477C430.06 88.7156 428.579 108.82 419.402 126.138C415.115 134.361 409.184 141.611 401.978 147.436L380.017 135.674C382.179 134.457 384.511 133.41 386.953 132.303C393.676 129.26 400.623 126.09 405.931 119.147C413.687 108.991 416.317 95.8594 413.335 82.1681C409.326 63.7548 395.905 46.4977 378.31 37.1389C361.178 28.0114 339.855 26.4901 322.661 33.1106C309.349 38.2342 299.546 47.8486 295.064 60.1708C292.198 68.0813 293.176 75.9918 294.117 83.7076C294.402 86.0138 294.67 88.2105 294.828 90.3525L273.936 78.7909C274.712 69.7172 277.368 60.9054 281.734 52.9174C290.91 35.5812 306.701 23.1008 326.184 17.7278C345.667 12.3547 366.547 14.8799 384.955 24.616C403.363 34.352 417.058 50.3556 423.562 69.5477Z" fill="white"/>
<path d="M220.703 284.939C214.521 279.84 208.344 274.737 202.174 269.629C204.081 267.305 205.022 266.131 206.881 263.77C215.335 271.278 223.795 278.783 232.261 286.284C230.348 288.639 229.382 289.807 227.402 292.12C219.28 290.002 211.16 287.878 203.042 285.749C208.533 290.86 214.029 295.965 219.531 301.065C217.485 303.316 216.446 304.423 214.339 306.626L178.045 296.184C180.183 294.055 181.245 292.978 183.335 290.805L208.435 298.716C202.569 293.397 196.698 288.073 190.823 282.743C192.542 280.844 193.392 279.889 195.074 277.96L220.703 284.939Z" fill="black"/>
<path d="M242.476 244.443C245.183 245.791 247.525 247.774 249.302 250.224C250.818 252.349 251.591 254.916 251.501 257.526C251.35 260.306 250.385 262.979 248.725 265.212C247.068 267.618 244.816 269.552 242.191 270.828C239.547 272.107 236.618 272.681 233.688 272.495C230.55 272.309 227.491 271.439 224.724 269.946L223.218 269.149C220.536 267.825 218.227 265.85 216.501 263.404C215.057 261.302 214.378 258.768 214.576 256.224C214.841 253.487 215.853 250.876 217.503 248.679C219.151 246.28 221.356 244.319 223.928 242.965C226.472 241.635 229.322 241.005 232.188 241.139C235.314 241.301 238.363 242.173 241.103 243.689L242.476 244.443ZM236.913 250.084C233.735 248.393 230.933 247.675 228.508 247.93C227.338 248.043 226.208 248.416 225.2 249.023C224.192 249.629 223.333 250.453 222.683 251.435C221.232 253.498 220.904 255.512 221.73 257.484C222.556 259.455 224.53 261.293 227.676 262.96L229.157 263.745C232.263 265.396 235.075 266.122 237.593 265.924C238.792 265.851 239.958 265.502 241 264.904C242.042 264.305 242.932 263.473 243.6 262.473C245.051 260.404 245.324 258.366 244.438 256.388C243.551 254.411 241.541 252.549 238.364 250.857L236.913 250.084Z" fill="black"/>
<path d="M255.679 230.016C254.465 232.097 253.894 233.131 252.643 235.194L263.745 241.097C262.214 243.683 261.437 244.967 259.846 247.522L229.51 231.397C232.37 226.791 233.761 224.46 236.445 219.744C238.577 216.002 240.958 213.501 243.654 212.29C246.351 211.079 249.12 211.237 252.066 212.783C253.934 213.692 255.479 215.153 256.493 216.97C257.412 218.857 257.756 220.973 257.483 223.055C263.951 222.921 267.2 222.842 273.577 222.671L273.869 222.829C272.387 225.695 271.634 227.089 270.085 229.955C264.364 229.985 261.479 229.998 255.679 230.016ZM247.608 232.499C248.823 230.411 249.43 229.365 250.645 227.259C251.58 225.616 251.859 224.126 251.592 222.799C251.429 222.12 251.116 221.487 250.674 220.948C250.232 220.408 249.674 219.976 249.041 219.683C248.433 219.319 247.755 219.085 247.051 218.997C246.348 218.909 245.633 218.969 244.954 219.172C243.667 219.578 242.523 220.667 241.523 222.44C240.308 224.539 239.701 225.58 238.486 227.661L247.608 232.499Z" fill="black"/>
<path d="M274.142 209.528C276.887 203.759 278.193 200.844 280.677 194.96L285.699 197.631C282.655 204.844 279.377 211.943 275.867 218.929L245.5 202.804C246.849 200.114 247.505 198.763 248.798 196.043L274.142 209.528Z" fill="black"/>
<path d="M287.351 193.646L257.016 177.514C258.71 173.352 259.53 171.259 261.097 167.042C262.037 164.293 263.659 161.829 265.81 159.88C267.759 158.151 270.232 157.129 272.83 156.977C275.709 156.856 278.563 157.55 281.066 158.979L282.469 159.722C285.215 161.149 287.583 163.21 289.38 165.734C291.13 168.192 292.233 171.053 292.587 174.052C292.954 177.116 292.573 180.223 291.475 183.106C289.878 187.342 289.052 189.447 287.351 193.646ZM264.844 173.206L285.098 183.977C285.621 182.614 285.876 181.938 286.392 180.575C287.424 177.819 287.388 175.275 286.313 172.963C285.238 170.65 283.197 168.703 280.24 167.054L278.63 166.202C275.541 164.58 272.948 164.062 270.85 164.651C268.749 165.259 267.206 166.957 266.168 169.732C265.634 171.125 265.372 171.819 264.844 173.206Z" fill="black"/>
<path d="M277.992 149.456C276.936 150.412 276.407 150.892 275.338 151.848C274.096 149.681 272.313 147.876 270.164 146.608L266.642 144.734C267.31 142.519 267.638 141.412 268.269 139.185L271.506 140.907C272.97 141.758 274.24 142.906 275.235 144.278C276.446 145.831 277.379 147.583 277.992 149.456V149.456Z" fill="black"/>
<path d="M298.49 128.189C297.275 127.552 296.247 127.552 295.405 128.189C294.554 128.834 293.486 130.252 292.18 132.449C291.163 134.211 289.964 135.861 288.603 137.371C285.7 140.414 282.602 141.065 279.426 139.373C277.747 138.464 276.366 137.088 275.448 135.412C274.398 133.478 273.777 131.341 273.626 129.144C273.416 126.657 273.6 124.151 274.173 121.721C274.614 119.477 275.527 117.353 276.851 115.49C277.863 114.028 279.376 112.991 281.102 112.575C282.903 112.246 284.762 112.578 286.337 113.512C285.779 116.494 285.481 117.978 284.861 120.942C283.461 120.2 282.26 120.139 281.26 120.759C280.258 121.368 279.554 122.634 279.128 124.502C278.716 126.046 278.716 127.673 279.128 129.217C279.283 129.82 279.559 130.384 279.939 130.876C280.319 131.368 280.796 131.777 281.339 132.077C281.805 132.34 282.344 132.441 282.874 132.365C283.403 132.289 283.893 132.041 284.266 131.658C285.53 130.456 286.582 129.049 287.376 127.495C289.404 123.844 291.366 121.508 293.352 120.431C295.338 119.354 297.518 119.445 299.923 120.723C301.269 121.446 302.458 122.428 303.423 123.613C304.388 124.799 305.11 126.164 305.547 127.629C306.631 131.103 306.713 134.814 305.784 138.333C305.267 140.805 304.189 143.125 302.632 145.112C301.465 146.765 299.714 147.911 297.735 148.318C295.755 148.725 293.695 148.362 291.973 147.302C292.787 144.381 293.188 142.921 293.929 140C297.324 141.826 299.656 140.377 300.749 135.668C301.155 134.161 301.155 132.574 300.749 131.067C300.59 130.458 300.307 129.888 299.918 129.393C299.529 128.898 299.043 128.488 298.49 128.189V128.189Z" fill="black"/>
<path d="M282.474 296.975L252.005 280.795C255.042 276.694 256.548 274.613 259.475 270.451C262.007 266.8 264.583 264.366 267.261 263.24C268.544 262.664 269.946 262.401 271.35 262.474C272.754 262.547 274.121 262.954 275.338 263.66C276.73 264.354 277.849 265.496 278.515 266.903C279.148 268.324 279.281 269.918 278.891 271.424C280.201 270.139 281.874 269.289 283.683 268.99C285.477 268.721 287.309 269.055 288.894 269.94C291.809 271.491 293.418 273.591 293.686 276.274C293.953 278.958 292.951 282.012 290.649 285.444C287.442 290.075 285.815 292.393 282.474 296.975ZM269.18 281.471C270.468 279.645 271.105 278.751 272.375 276.919C274.476 273.767 274.269 271.522 271.81 270.226C271.251 269.876 270.62 269.66 269.965 269.594C269.311 269.527 268.649 269.612 268.032 269.842C266.884 270.311 265.724 271.406 264.546 273.11C263.368 274.814 262.724 275.696 261.51 277.412L269.18 281.471ZM273.626 283.838L281.831 288.201C283.319 286.102 284.053 285.043 285.475 282.919C286.479 281.459 286.906 280.128 286.756 278.927C286.674 278.324 286.441 277.752 286.077 277.264C285.714 276.777 285.233 276.39 284.679 276.14C281.903 274.668 279.535 275.355 277.537 278.185C275.988 280.448 275.199 281.58 273.626 283.838Z" fill="black"/>
<path d="M298.714 243.896C295.969 248.971 294.542 251.484 291.59 256.449L299.716 260.77C303.178 254.946 304.842 251.989 308.025 246.007L313.047 248.679C309.213 255.875 305.142 262.936 300.834 269.861L270.468 253.735C274.776 246.839 278.841 239.792 282.663 232.596L287.728 235.285C284.552 241.249 282.869 244.194 279.438 250.005L286.671 253.845C289.623 248.879 291.044 246.372 293.795 241.291L298.714 243.896Z" fill="black"/>
<path d="M315.373 223.511C314.872 223.205 314.3 223.037 313.714 223.023C313.127 223.009 312.547 223.15 312.033 223.432C310.988 224.04 309.567 225.3 307.745 227.278C306.297 228.913 304.699 230.408 302.971 231.744C299.267 234.464 295.793 234.963 292.647 233.29C291.039 232.465 289.755 231.12 289.003 229.474C288.202 227.628 287.906 225.601 288.147 223.602C288.389 221.21 289.053 218.88 290.108 216.72C291.072 214.561 292.463 212.619 294.196 211.012C295.648 209.65 297.473 208.752 299.437 208.432C301.348 208.163 303.295 208.526 304.982 209.467C303.767 212.235 303.196 213.611 301.945 216.355C301.366 215.999 300.711 215.788 300.033 215.738C299.356 215.688 298.677 215.802 298.052 216.069C296.838 216.617 295.825 217.753 295.016 219.477C294.291 220.816 293.984 222.342 294.135 223.858C294.203 224.433 294.409 224.982 294.738 225.458C295.066 225.934 295.505 226.323 296.018 226.59C297.002 227.113 298.095 227.016 299.285 226.298C300.841 225.251 302.237 223.982 303.427 222.531C306.312 219.227 308.893 217.055 311.255 216.13C312.391 215.657 313.621 215.451 314.848 215.529C316.076 215.607 317.27 215.967 318.337 216.58C319.595 217.216 320.683 218.145 321.51 219.288C322.338 220.431 322.88 221.756 323.092 223.152C323.627 226.14 323.092 229.474 321.337 233.131C320.259 235.512 318.682 237.633 316.715 239.35C315.066 240.847 313.02 241.834 310.824 242.192C308.752 242.47 306.646 242.071 304.818 241.054C306.215 238.383 306.895 237.038 308.237 234.361C311.583 236.137 314.347 234.884 316.399 230.527C317.098 229.223 317.396 227.741 317.256 226.268C317.195 225.688 316.991 225.132 316.663 224.651C316.334 224.169 315.891 223.778 315.373 223.511V223.511Z" fill="black"/>
<path d="M312.774 177.009C311.322 181.232 310.563 183.338 308.996 187.524L334.383 201.021C333.301 203.82 332.749 205.219 331.631 208.006L306.318 194.546C304.709 198.66 303.889 200.71 302.194 204.787L297.135 202.098C300.913 192.934 304.484 183.678 307.666 174.295L312.774 177.009Z" fill="black"/>
<path d="M321.471 322.107L291.104 305.951C294.141 301.843 295.617 299.768 298.538 295.606C301.065 291.955 303.646 289.564 306.324 288.408C307.614 287.837 309.019 287.58 310.427 287.656C311.835 287.732 313.205 288.14 314.426 288.846C315.827 289.518 316.948 290.662 317.593 292.078C318.238 293.493 318.366 295.091 317.954 296.592C319.268 295.303 320.949 294.452 322.764 294.158C324.565 293.894 326.402 294.23 327.993 295.113C330.908 296.667 332.496 298.775 332.755 301.436C333.016 304.095 332.002 307.15 329.682 310.563C326.463 315.224 324.811 317.537 321.471 322.107ZM308.243 306.645C309.531 304.819 310.168 303.918 311.432 302.087C313.533 298.947 313.332 296.702 310.873 295.393C310.313 295.045 309.682 294.828 309.026 294.761C308.37 294.693 307.708 294.776 307.089 295.004C305.947 295.479 304.787 296.566 303.609 298.265C302.395 299.994 301.787 300.858 300.573 302.568L308.243 306.645ZM312.664 308.993L320.857 313.344C322.339 311.245 323.074 310.192 324.538 308.068C325.54 306.614 325.965 305.282 325.825 304.089C325.744 303.487 325.511 302.917 325.149 302.43C324.786 301.944 324.306 301.557 323.754 301.308C320.973 299.835 318.604 300.523 316.606 303.347C315.015 305.616 314.225 306.748 312.634 308.993H312.664Z" fill="black"/>
<path d="M340.523 261.494C343.267 262.879 345.652 264.885 347.489 267.354C349.101 269.55 350.009 272.186 350.094 274.911C350.145 277.746 349.389 280.536 347.914 282.956C346.5 285.455 344.437 287.524 341.944 288.943C339.475 290.322 336.672 290.987 333.848 290.866C330.766 290.74 327.753 289.907 325.042 288.432L323.542 287.635C320.822 286.277 318.473 284.276 316.698 281.806C315.165 279.632 314.353 277.031 314.377 274.37C314.445 271.572 315.252 268.842 316.716 266.459C318.111 263.967 320.118 261.873 322.546 260.374C324.91 258.95 327.635 258.242 330.393 258.335C333.468 258.445 336.475 259.278 339.169 260.769L340.523 261.494ZM335.525 267.469C332.346 265.777 329.597 265.09 327.277 265.406C326.142 265.556 325.059 265.976 324.121 266.633C323.182 267.29 322.415 268.163 321.884 269.179C320.615 271.357 320.426 273.439 321.35 275.501C322.273 277.564 324.301 279.402 327.423 281.094L328.899 281.879C331.996 283.53 334.755 284.221 337.176 283.953C338.342 283.844 339.462 283.447 340.436 282.798C341.411 282.149 342.211 281.269 342.764 280.236C344.033 278.051 344.167 275.927 343.183 273.877C342.199 271.826 340.146 269.946 336.982 268.254L335.525 267.469Z" fill="black"/>
<path d="M357.667 243.02C357.169 242.713 356.598 242.545 356.013 242.532C355.428 242.52 354.851 242.662 354.339 242.947C353.295 243.555 351.91 244.821 350.088 246.811C348.651 248.449 347.065 249.95 345.351 251.295C341.67 254.027 338.209 254.532 335.057 252.859C333.449 252.03 332.166 250.684 331.413 249.038C330.601 247.188 330.293 245.155 330.52 243.147C330.75 240.752 331.399 238.416 332.439 236.247C333.391 234.084 334.766 232.135 336.484 230.515C337.92 229.148 339.734 228.245 341.689 227.923C343.596 227.651 345.54 228.014 347.221 228.957C346.061 231.732 345.466 233.113 344.246 235.864C343.669 235.506 343.015 235.294 342.339 235.246C341.664 235.197 340.986 235.313 340.365 235.584C339.15 236.131 338.172 237.275 337.371 239.003C336.655 240.35 336.357 241.88 336.514 243.397C336.582 243.973 336.79 244.524 337.119 245.001C337.448 245.479 337.889 245.868 338.403 246.135C339.391 246.658 340.476 246.559 341.658 245.837C343.208 244.785 344.593 243.51 345.77 242.052C348.624 238.736 351.187 236.576 353.538 235.62C354.67 235.146 355.896 234.94 357.121 235.017C358.346 235.094 359.536 235.452 360.601 236.064C361.861 236.703 362.951 237.634 363.781 238.779C364.611 239.924 365.157 241.25 365.374 242.648C365.927 245.642 365.374 248.983 363.686 252.658C362.626 255.044 361.067 257.173 359.113 258.901C357.478 260.405 355.442 261.399 353.252 261.761C351.186 262.042 349.086 261.645 347.264 260.63C348.636 257.946 349.317 256.595 350.635 253.881C353.981 255.664 356.708 254.398 358.748 250.029C359.437 248.722 359.724 247.24 359.574 245.77C359.508 245.189 359.299 244.635 358.966 244.155C358.633 243.675 358.187 243.285 357.667 243.02Z" fill="black"/>
<path d="M369.638 213.86C369.151 213.554 368.59 213.387 368.015 213.377C367.44 213.368 366.873 213.516 366.376 213.805C365.374 214.414 364.05 215.722 362.386 217.761C361.068 219.434 359.601 220.984 358.002 222.391C354.582 225.239 351.278 225.817 348.126 224.144C346.496 223.284 345.181 221.927 344.373 220.268C343.474 218.39 343.057 216.317 343.159 214.237C343.248 211.809 343.764 209.416 344.683 207.167C345.484 204.976 346.741 202.981 348.369 201.313C349.711 199.917 351.462 198.986 353.368 198.654C355.253 198.384 357.174 198.746 358.834 199.682C357.801 202.493 357.273 203.893 356.198 206.692C355.633 206.334 354.988 206.123 354.321 206.077C353.654 206.031 352.986 206.153 352.378 206.43C351.224 207.002 350.307 208.171 349.608 209.935C348.973 211.341 348.762 212.902 349.001 214.426C349.095 215.011 349.324 215.566 349.669 216.047C350.013 216.529 350.464 216.923 350.987 217.201C351.971 217.728 353.021 217.615 354.139 216.86C355.601 215.763 356.891 214.452 357.965 212.972C360.601 209.57 363.036 207.38 365.314 206.4C366.426 205.918 367.635 205.706 368.844 205.78C370.054 205.854 371.228 206.212 372.274 206.826C373.545 207.478 374.65 208.414 375.503 209.562C376.356 210.71 376.934 212.039 377.193 213.446C377.837 216.489 377.424 219.842 375.93 223.59C375.015 225.999 373.601 228.187 371.782 230.01C370.317 231.566 368.408 232.629 366.316 233.052C364.301 233.375 362.236 233.002 360.461 231.994C361.603 229.2 362.18 227.801 363.316 225.014C366.662 226.791 369.249 225.452 371.029 220.998C371.645 219.632 371.856 218.118 371.636 216.635C371.549 216.046 371.322 215.486 370.974 215.004C370.627 214.521 370.168 214.129 369.638 213.86Z" fill="black"/>
<path d="M159.212 218.85C144.423 241.364 129.902 258.968 118.084 268.863C114.387 271.913 110.535 274.771 106.545 277.424V277.424C106.368 277.528 106.186 277.637 106.004 277.759C105.822 277.881 105.47 278.112 105.19 278.319C98.4429 283.315 85.6587 296.878 82.5371 311.939C77.5752 335.84 81.6139 361.55 81.6139 381.466C81.6139 401.382 88.3856 425.242 92.3939 439.115C98.0724 458.813 96.6452 474.469 85.9259 484.54C74.077 495.657 47.3305 489.341 51.7396 460.778C55.9909 433.347 63.5339 397.841 64.0562 354.564L66.4247 308.318C67.032 293.233 72.1032 281.306 78.5712 273.079C85.0392 264.853 92.9102 260.301 99.0381 259.997C136.401 248.088 154.177 226.103 159.212 218.85Z" fill="#422C2C" stroke="black" stroke-miterlimit="10"/>
<path d="M60.5825 467.131C61.1437 470.16 62.5264 472.977 64.5788 475.272C66.6313 477.566 69.2745 479.251 72.2189 480.141" stroke="#6B5858" stroke-width="7" stroke-miterlimit="10" stroke-linecap="round"/>
</g>
<defs>
<clipPath id="clip0_17_1387">
<rect width="431" height="503" fill="white" transform="translate(37 1)"/>
</clipPath>
</defs>
</svg>
