<svg width="505" height="505" viewBox="0 0 505 505" fill="none" xmlns="http://www.w3.org/2000/svg">
<path d="M278.318 425.075C243.128 403.585 211.688 381.595 184.888 359.695C182.788 357.988 180.734 356.288 178.728 354.595C174.778 351.285 170.868 347.925 167.098 344.595C162.548 340.595 158.098 336.485 153.808 332.435C152.121 330.848 150.471 329.268 148.858 327.695C142.598 321.605 136.628 315.445 131.088 309.385C127.778 305.765 124.558 302.105 121.528 298.525C120.328 297.105 119.158 295.702 118.018 294.315C116.338 292.255 114.668 290.175 113.078 288.135L111.518 286.135C109.848 283.965 108.188 281.735 106.578 279.515C105.798 278.442 105.038 277.382 104.298 276.335C103.848 275.695 103.408 275.065 102.978 274.435C102.398 273.595 101.828 272.765 101.268 271.935C100.708 271.105 100.158 270.285 99.6177 269.465L98.8477 268.285C98.1877 267.285 97.5376 266.285 96.9076 265.285C96.1576 264.095 95.4277 262.925 94.7277 261.765C94.0277 260.605 93.3477 259.465 92.7277 258.345C90.5177 254.545 88.4577 250.745 86.5977 247.035C85.7777 245.415 84.9777 243.755 84.2077 242.095C83.8277 241.285 83.4577 240.465 83.0977 239.675C82.6777 238.735 82.2777 237.805 81.8877 236.895C81.3577 235.645 80.8877 234.435 80.3977 233.245C80.1777 232.705 79.9677 232.175 79.7677 231.645L79.2877 230.375C79.1177 229.915 78.9476 229.435 78.7776 228.955C78.1076 227.085 77.4877 225.235 76.9277 223.445C76.6977 222.685 76.4777 221.935 76.2677 221.225C75.9077 219.945 75.5677 218.685 75.2677 217.455C74.6577 215.005 74.1677 212.625 73.8077 210.385L73.6977 209.705C73.6377 209.325 73.5776 208.925 73.5276 208.545C73.4776 208.165 73.4377 207.835 73.3977 207.545C73.3577 207.255 73.3277 206.855 73.2977 206.545C73.2977 206.095 73.2177 205.695 73.1977 205.345C73.1977 205.155 73.1477 204.515 73.1477 204.425C69.8605 178.666 76.9047 152.653 92.7407 132.072C108.577 111.492 131.916 98.0176 157.658 94.595C161.968 94.0264 166.31 93.7391 170.658 93.735C172.658 93.735 174.768 93.795 176.808 93.925C191.623 94.8869 206.029 99.1875 218.948 106.505C221.048 107.695 223.128 108.975 225.148 110.325C227.168 111.675 229.148 113.105 231.038 114.595C236.181 118.607 240.914 123.12 245.168 128.065C249.55 118.854 255.332 110.377 262.308 102.935C263.978 101.165 265.718 99.435 267.498 97.805C282.325 84.1697 300.997 75.4395 320.968 72.805C322.108 72.655 323.258 72.525 324.388 72.425C325.008 72.355 325.708 72.295 326.388 72.235L328.528 72.095C329.828 72.015 331.068 71.975 332.228 71.965H334.128C334.698 71.965 335.268 71.965 335.828 71.965H335.888C337.248 71.965 338.468 72.025 339.638 72.105C340.238 72.105 340.828 72.175 341.428 72.225C342.028 72.275 342.718 72.325 343.368 72.395C344.018 72.465 344.988 72.555 345.818 72.665C346.418 72.725 347.018 72.805 347.618 72.895C348.618 73.035 349.618 73.185 350.558 73.355C351.498 73.525 352.288 73.675 353.168 73.855L354.048 74.025L354.458 74.115C354.928 74.205 355.378 74.305 355.828 74.415H355.958L357.678 74.855L358.938 75.185H359.018L361.098 75.785C362.318 76.135 363.438 76.485 364.508 76.845C365.758 77.255 366.978 77.685 368.168 78.145C369.088 78.465 369.928 78.795 370.678 79.095L371.058 79.245C371.948 79.615 372.758 79.975 373.588 80.345C374.418 80.715 374.948 80.945 375.588 81.255L377.098 81.965L377.698 82.265C378.598 82.715 379.468 83.165 380.348 83.635L380.458 83.695L382.568 84.885C383.488 85.395 384.428 85.945 385.378 86.545C386.928 87.475 388.538 88.545 390.308 89.785L391.738 90.785L392.648 91.455L393.298 91.945C393.708 92.255 394.128 92.565 394.528 92.885C395.528 93.645 396.468 94.435 397.228 95.075C397.988 95.715 398.858 96.475 399.538 97.075C400.048 97.525 400.538 97.985 401.048 98.455C401.558 98.925 401.988 99.315 402.438 99.765C403.238 100.525 403.958 101.265 404.668 101.985L404.798 102.125C405.968 103.355 407.488 104.995 408.968 106.775C411.012 109.178 412.931 111.684 414.718 114.285C415.028 114.725 415.338 115.195 415.628 115.635C416.488 116.905 417.358 118.285 418.358 119.965L418.538 120.265C418.958 120.975 419.378 121.675 419.778 122.395C420.178 123.115 420.468 123.685 420.778 124.325L420.868 124.495L421.198 125.125C421.538 125.785 421.878 126.465 422.198 127.125C422.518 127.785 422.738 128.235 423.008 128.815C423.278 129.395 423.638 130.195 424.008 130.935C424.928 133.045 425.738 135.085 426.428 137.085C426.658 137.675 426.868 138.265 427.048 138.865C428.733 143.883 430.003 149.03 430.848 154.255C430.988 155.125 431.108 155.925 431.228 156.725C431.348 157.525 431.678 158.925 431.938 160.845C432.629 166.682 432.79 172.569 432.418 178.435C432.418 178.825 432.418 179.235 432.348 179.655C431.389 192.576 429.042 205.356 425.348 217.775C425.158 218.415 424.968 219.075 424.768 219.775C423.548 223.855 422.178 228.035 420.698 232.215C420.438 232.945 420.178 233.675 419.908 234.405C415.346 246.789 410.05 258.891 404.048 270.645C402.688 273.335 401.278 276.045 399.858 278.705C397.858 282.375 395.858 286.125 393.668 289.855C393.128 290.855 392.578 291.755 392.018 292.715C389.198 297.555 386.188 302.525 383.018 307.475L381.088 310.475C358.208 346.215 327.928 384.065 291.088 422.985L285.888 429.615L278.318 425.075Z" fill="white"/>
<path d="M334.168 81.945C334.708 81.945 335.238 81.945 335.768 81.945C336.858 81.945 337.958 81.995 339.058 82.075C339.608 82.075 340.158 82.135 340.698 82.175L342.348 82.325C343.128 82.395 343.908 82.475 344.688 82.575C345.198 82.575 345.688 82.705 346.228 82.775C347.118 82.905 347.988 83.025 348.828 83.175C349.668 83.325 350.418 83.475 351.218 83.635L352.008 83.785L352.428 83.875L354.718 84.395L355.158 84.505C356.158 84.775 357.158 85.045 358.158 85.335C358.194 85.3439 358.232 85.3439 358.268 85.335V85.335C359.268 85.625 360.268 85.935 361.268 86.265C362.268 86.595 363.538 87.035 364.668 87.475C365.558 87.775 366.408 88.135 367.288 88.475C368.168 88.815 368.768 89.115 369.518 89.475C370.078 89.705 370.638 89.955 371.178 90.225C371.718 90.495 372.468 90.825 373.098 91.145H373.158C373.968 91.545 374.748 91.945 375.528 92.365C376.308 92.785 376.878 93.115 377.528 93.515C378.358 93.975 379.198 94.465 380.008 94.985C381.528 95.895 383.008 96.875 384.448 97.895L385.548 98.695L386.548 99.445C387.118 99.885 387.678 100.295 388.218 100.725C389.048 101.365 389.868 102.045 390.688 102.725C391.508 103.405 392.038 103.875 392.688 104.475C393.168 104.905 393.688 105.345 394.118 105.785C394.548 106.225 394.948 106.545 395.338 106.935C396.038 107.595 396.718 108.295 397.398 108.995C398.688 110.355 399.968 111.745 401.168 113.205C403.02 115.365 404.753 117.625 406.358 119.975C406.628 120.365 406.908 120.775 407.158 121.165C408.028 122.435 408.838 123.745 409.628 125.075C410.058 125.795 410.488 126.525 410.908 127.255C411.218 127.815 411.518 128.405 411.828 128.985L412.168 129.635C412.498 130.285 412.828 130.925 413.168 131.575C413.408 132.045 413.638 132.575 413.868 133.035C414.168 133.685 414.468 134.355 414.758 135.035C415.538 136.835 416.268 138.685 416.928 140.575C417.108 141.035 417.268 141.495 417.418 141.965C418.995 146.499 420.195 151.154 421.008 155.885C421.148 156.775 421.288 157.645 421.408 158.545C421.695 159.727 421.909 160.926 422.048 162.135C422.671 167.358 422.812 172.627 422.468 177.875C422.468 178.245 422.468 178.615 422.398 178.995C421.486 191.201 419.25 203.272 415.728 214.995C415.548 215.615 415.358 216.245 415.168 216.875C414.038 220.675 412.748 224.665 411.268 228.875L410.508 230.975C406.102 242.998 400.979 254.745 395.168 266.155C393.834 268.735 392.471 271.355 391.078 274.015C389.178 277.562 387.178 281.195 385.078 284.915C384.548 285.845 384.008 286.775 383.458 287.715C380.724 292.382 377.801 297.202 374.688 302.175L372.788 305.175C352.328 337.175 323.668 374.285 283.638 416.535C246.368 393.785 216.018 372.125 191.318 351.955C189.258 350.262 187.238 348.595 185.258 346.955C181.298 343.622 177.488 340.345 173.828 337.125C169.261 333.072 164.928 329.095 160.828 325.195C159.178 323.635 157.568 322.085 155.978 320.545C149.658 314.392 143.871 308.428 138.618 302.655C135.318 299.055 132.228 295.525 129.308 292.085C128.148 290.705 127.008 289.345 125.898 287.985C124.238 285.985 122.641 283.985 121.108 281.985C120.598 281.335 120.108 280.685 119.598 279.985C117.928 277.815 116.338 275.675 114.818 273.585C114.078 272.585 113.338 271.525 112.628 270.515L111.168 268.725L109.528 266.325C108.988 265.525 108.458 264.735 107.948 263.945C107.688 263.565 107.448 263.185 107.198 262.805C106.558 261.805 105.938 260.865 105.338 259.905C104.618 258.765 103.928 257.645 103.248 256.535C102.568 255.425 101.928 254.335 101.298 253.255C99.0977 249.475 97.1511 245.892 95.4578 242.505C94.6578 240.895 93.9077 239.345 93.1977 237.825C92.8377 237.055 92.4977 236.295 92.1977 235.545C91.8977 234.795 91.4277 233.795 91.0677 232.935C90.5677 231.765 90.0677 230.625 89.6677 229.525L89.0777 228.025C88.9277 227.635 88.7878 227.245 88.6478 226.865C88.5078 226.485 88.3177 225.975 88.1577 225.535C87.5077 223.735 86.9478 222.035 86.4578 220.445C86.2378 219.745 86.0377 219.065 85.8477 218.445C85.4977 217.245 85.1977 216.115 84.9377 215.045C84.3177 212.575 83.9377 210.485 83.6377 208.785L83.5477 208.235C83.4977 207.885 83.4477 207.545 83.4077 207.235C83.3677 206.925 83.3277 206.615 83.2977 206.345C83.2677 206.075 83.2378 205.805 83.2078 205.575C83.1778 205.345 83.2077 204.915 83.1377 204.655C83.0677 204.395 83.1377 204.325 83.1377 204.195C83.1377 204.065 83.1377 203.845 83.1377 203.745V203.585C81.4932 191.118 82.53 178.443 86.1788 166.408C89.8276 154.374 96.0043 143.258 104.296 133.803C112.587 124.348 122.802 116.773 134.257 111.584C145.711 106.395 158.142 103.712 170.718 103.715C172.568 103.715 174.408 103.775 176.238 103.885C189.545 104.726 202.485 108.587 214.078 115.175C215.978 116.255 217.831 117.402 219.638 118.615C221.444 119.828 223.211 121.108 224.938 122.455C234.467 129.905 242.367 139.23 248.148 149.855C251.729 134.872 259.161 121.084 269.708 109.855C271.201 108.268 272.751 106.735 274.358 105.255C287.666 93.01 304.429 85.17 322.358 82.805V82.805C323.358 82.675 324.358 82.565 325.358 82.465L327.228 82.295L329.098 82.175C330.218 82.105 331.328 82.055 332.438 82.055H334.178L334.168 81.945ZM334.178 62.055H332.178C330.878 62.055 329.518 62.115 328.028 62.205C327.268 62.205 326.498 62.295 325.688 62.365C324.878 62.435 324.218 62.485 323.478 62.565C322.248 62.675 320.998 62.815 319.748 62.985C297.736 65.875 277.155 75.4934 260.818 90.525C258.818 92.335 256.938 94.235 255.108 96.175C250.649 100.944 246.632 106.109 243.108 111.605C241.168 109.885 239.168 108.215 237.168 106.645C235.168 105.075 232.888 103.425 230.678 101.945C228.468 100.465 226.168 99.045 223.858 97.735C209.624 89.675 193.751 84.9401 177.428 83.885C175.188 83.745 172.908 83.675 170.658 83.675C165.851 83.6936 161.051 84.0276 156.288 84.675C128.017 88.4473 102.377 103.225 84.9398 125.796C67.5032 148.367 59.679 176.907 63.1677 205.215C63.1677 205.455 63.1677 205.705 63.2177 205.995C63.2677 206.285 63.2778 206.895 63.3378 207.455C63.3378 207.795 63.4078 208.175 63.4578 208.585C63.5078 208.995 63.5477 209.385 63.6077 209.825C63.6677 210.265 63.7378 210.725 63.8078 211.205C63.8078 211.435 63.8777 211.675 63.9177 211.925C64.3277 214.445 64.9178 217.095 65.5578 219.825C65.8878 221.155 66.2577 222.535 66.6577 223.925C66.8777 224.705 67.1177 225.505 67.3777 226.345C67.9777 228.275 68.6477 230.275 69.3777 232.285C69.5577 232.795 69.7377 233.285 69.9377 233.825C70.1377 234.365 70.2677 234.715 70.4377 235.165C70.6077 235.615 70.8777 236.295 71.0977 236.865C71.6177 238.185 72.1577 239.485 72.6977 240.755C73.1077 241.755 73.5277 242.755 73.9777 243.755C74.3477 244.595 74.7478 245.445 75.1478 246.315C75.9678 248.065 76.8077 249.825 77.6677 251.525C79.6677 255.425 81.7877 259.415 84.0977 263.375C84.7877 264.555 85.5077 265.755 86.2277 266.955C86.9477 268.155 87.7277 269.405 88.4977 270.625C89.1577 271.625 89.8277 272.715 90.4977 273.765C90.7577 274.175 91.0277 274.585 91.2977 274.995C91.8577 275.845 92.4277 276.705 93.0177 277.565C93.6077 278.425 94.1777 279.285 94.7777 280.155C95.2277 280.805 95.6877 281.465 96.1577 282.155C96.9177 283.235 97.7077 284.335 98.5077 285.445C100.178 287.745 101.898 290.045 103.608 292.285L105.168 294.285C106.818 296.395 108.528 298.535 110.258 300.645C111.438 302.085 112.658 303.545 113.868 304.985C116.998 308.675 120.298 312.425 123.688 316.125C129.358 322.335 135.478 328.635 141.858 334.855C143.518 336.465 145.218 338.095 146.858 339.705C151.198 343.815 155.758 347.975 160.408 352.085C164.228 355.465 168.208 358.885 172.228 362.265C174.228 363.985 176.388 365.725 178.488 367.435C205.648 389.625 237.488 411.885 273.038 433.605L288.328 442.945L298.688 429.535C335.798 390.305 366.338 352.085 389.478 315.935C390.138 314.935 390.798 313.865 391.478 312.835C394.658 307.835 397.728 302.735 400.618 297.785C401.188 296.785 401.758 295.785 402.308 294.855C404.488 291.045 406.618 287.205 408.628 283.445C410.108 280.695 411.548 277.925 412.928 275.195C419.121 263.095 424.587 250.636 429.298 237.885C429.578 237.135 429.848 236.375 430.108 235.635C431.658 231.285 433.108 226.935 434.338 222.705C434.548 222.015 434.748 221.335 434.938 220.705C438.855 207.588 441.342 194.086 442.358 180.435C442.358 179.995 442.358 179.565 442.438 179.135C442.843 172.651 442.656 166.144 441.878 159.695C441.618 157.695 441.338 156.195 441.098 155.105C440.998 154.355 440.888 153.655 440.778 152.965V152.805C439.838 147.063 438.44 141.404 436.598 135.885C436.368 135.175 436.118 134.455 435.848 133.745C435.078 131.565 434.198 129.335 433.238 127.115C432.918 126.385 432.558 125.565 432.138 124.675C431.888 124.135 431.598 123.505 431.238 122.795C430.878 122.085 430.498 121.295 430.168 120.655C430.028 120.375 429.878 120.105 429.728 119.825C429.358 119.105 428.988 118.405 428.618 117.735C428.108 116.815 427.618 115.995 427.188 115.265L427.068 115.065C425.988 113.245 425.068 111.735 424.068 110.315C423.738 109.815 423.388 109.315 423.068 108.805C421.11 105.95 419.004 103.199 416.758 100.565C415.108 98.565 413.458 96.795 412.188 95.465L412.098 95.365L412.008 95.275C411.278 94.525 410.458 93.685 409.528 92.795C409.038 92.315 408.528 91.795 407.988 91.345C407.448 90.895 406.928 90.345 406.378 89.865C405.618 89.165 404.798 88.445 403.878 87.665L403.818 87.615L403.758 87.565C402.888 86.845 401.908 86.035 400.818 85.195C400.368 84.835 399.918 84.495 399.458 84.145L398.998 83.795L398.868 83.705L398.748 83.605L397.748 82.895L397.478 82.705L397.108 82.435L396.318 81.865L396.248 81.815H396.188C394.248 80.445 392.468 79.275 390.748 78.235C389.748 77.575 388.648 76.955 387.608 76.375C386.888 75.955 386.168 75.555 385.448 75.155L385.328 75.095L385.198 75.025C384.278 74.525 383.318 74.025 382.278 73.515H382.218L381.728 73.275L381.088 72.945H381.018L380.018 72.475C379.288 72.115 378.538 71.775 377.738 71.475C376.938 71.175 376.028 70.715 375.038 70.305H374.968H374.898L374.528 70.155C373.758 69.845 372.828 69.475 371.758 69.095C370.468 68.605 369.158 68.095 367.758 67.675C366.558 67.275 365.328 66.895 363.988 66.515L359.988 65.365H359.798L356.528 64.505L356.168 64.555L355.298 64.385H355.168C354.298 64.205 353.328 64.015 352.298 63.835C351.268 63.655 350.008 63.465 349.068 63.335C348.508 63.255 347.818 63.155 347.068 63.065L344.488 62.785C343.748 62.705 343.018 62.645 342.288 62.585C341.558 62.525 340.988 62.495 340.288 62.465C338.988 62.375 337.618 62.325 336.098 62.305H336.018C335.418 62.305 334.818 62.305 334.178 62.305V62.055Z" fill="white"/>
<path d="M283.548 416.515C84.7577 295.145 83.1076 205.135 83.0976 203.515C80.3917 183.079 84.9263 162.34 95.9144 144.898C106.903 127.456 123.651 114.412 143.252 108.029C162.854 101.646 184.071 102.327 203.223 109.955C222.374 117.582 238.251 131.674 248.098 149.785C252.23 132.405 261.54 116.687 274.795 104.71C288.051 92.733 304.628 85.06 322.338 82.705C323.338 82.575 324.338 82.465 325.338 82.365C326.598 82.245 327.838 82.135 329.078 82.075C330.318 82.015 331.308 81.955 332.418 81.955C333.528 81.955 334.658 81.955 335.758 81.955C336.848 81.955 337.948 82.005 339.048 82.085C340.148 82.165 341.228 82.215 342.338 82.335C343.118 82.405 343.898 82.485 344.678 82.585C345.188 82.585 345.678 82.715 346.218 82.785C347.108 82.915 347.978 83.035 348.818 83.185C349.878 83.375 350.938 83.575 351.998 83.795C353.058 84.015 354.098 84.245 355.148 84.515C356.148 84.785 357.148 85.055 358.148 85.345C358.19 85.3542 358.235 85.3542 358.278 85.345C359.278 85.635 360.278 85.945 361.278 86.275C362.278 86.605 363.548 87.045 364.678 87.485C365.568 87.785 366.418 88.145 367.298 88.485C368.178 88.825 368.778 89.125 369.528 89.485C370.088 89.715 370.648 89.965 371.188 90.235C371.728 90.505 372.478 90.835 373.108 91.155H373.168C373.978 91.555 374.758 91.955 375.538 92.375C376.318 92.795 376.888 93.125 377.538 93.525C378.368 93.985 379.208 94.475 380.018 94.995C381.538 95.905 383.018 96.885 384.458 97.905C385.168 98.415 385.888 98.905 386.598 99.455C387.308 100.005 387.728 100.305 388.268 100.735C389.098 101.375 389.918 102.055 390.738 102.735C391.558 103.415 392.088 103.885 392.738 104.485C393.218 104.915 393.738 105.355 394.168 105.795C394.598 106.235 394.998 106.555 395.388 106.945C396.088 107.605 396.768 108.305 397.448 109.005C398.738 110.365 399.998 111.775 401.218 113.215C403.07 115.375 404.803 117.635 406.408 119.985C406.678 120.375 406.958 120.785 407.208 121.175C408.548 123.175 409.788 125.175 410.958 127.265C411.378 128.035 411.808 128.835 412.218 129.645C412.548 130.295 412.878 130.935 413.218 131.585C413.458 132.055 413.688 132.585 413.918 133.045C414.218 133.695 414.518 134.365 414.808 135.045C415.588 136.845 416.318 138.695 416.978 140.585C417.158 141.045 417.318 141.515 417.468 141.975C419.027 146.507 420.211 151.159 421.008 155.885C421.148 156.775 421.288 157.645 421.408 158.545C421.828 160.205 443.678 247.535 283.548 416.515Z" fill="#FF5555"/>
<path d="M283.548 416.515C285.898 413.515 464.458 189.185 373.218 91.175H373.278C374.088 91.575 374.868 91.975 375.648 92.395C376.428 92.815 376.998 93.145 377.648 93.545C378.478 94.005 379.318 94.495 380.128 95.015C381.648 95.925 383.128 96.905 384.568 97.925C385.278 98.435 385.998 98.925 386.708 99.475C387.418 100.025 387.838 100.325 388.378 100.755C389.208 101.395 390.028 102.075 390.848 102.755C391.668 103.435 392.198 103.905 392.848 104.505C393.328 104.935 393.848 105.375 394.278 105.815C394.708 106.255 395.108 106.575 395.498 106.965C396.198 107.625 396.878 108.325 397.558 109.025C398.848 110.385 400.128 111.775 401.328 113.235C403.18 115.395 404.913 117.655 406.518 120.005C406.788 120.395 407.068 120.805 407.318 121.195C408.658 123.195 409.898 125.195 411.068 127.285C411.488 128.055 411.918 128.855 412.328 129.665C412.658 130.315 412.988 130.955 413.328 131.605C413.568 132.075 413.798 132.605 414.028 133.065C414.328 133.715 414.628 134.385 414.918 135.065C415.698 136.865 416.428 138.715 417.088 140.605C417.268 141.065 417.428 141.535 417.578 141.995C419.099 146.523 420.246 151.169 421.008 155.885C421.148 156.775 421.288 157.645 421.408 158.545C421.828 160.205 443.678 247.535 283.548 416.515Z" fill="#E23D3D"/>
<path d="M145.477 150.955C145.477 150.955 117.927 178.075 125.107 213.145" stroke="white" stroke-width="10" stroke-miterlimit="10" stroke-linecap="round"/>
<path d="M133.258 240.335L131.498 236.145" stroke="white" stroke-width="10" stroke-miterlimit="10" stroke-linecap="round"/>
<path d="M421.408 158.625C421.288 157.725 421.148 156.855 421.008 155.965C420.244 151.239 419.094 146.583 417.568 142.045C417.418 141.585 417.258 141.115 417.078 140.655C416.418 138.765 415.688 136.915 414.908 135.115C414.618 134.455 414.318 133.785 414.018 133.115C413.788 132.615 413.558 132.115 413.318 131.655C413.008 131.005 412.678 130.365 412.318 129.715C411.908 128.905 411.478 128.105 411.058 127.335C409.888 125.245 408.648 123.205 407.308 121.245C407.058 120.855 406.778 120.445 406.508 120.055C404.903 117.705 403.17 115.445 401.318 113.285C400.118 111.825 398.838 110.435 397.548 109.075C396.868 108.375 396.188 107.675 395.488 107.015C395.098 106.625 394.678 106.235 394.268 105.865C393.858 105.495 393.268 104.985 392.838 104.555C392.198 103.955 391.528 103.375 390.838 102.805C390.148 102.235 389.198 101.445 388.368 100.805C387.828 100.375 387.268 99.965 386.698 99.525C386.128 99.085 385.268 98.525 384.558 97.975C383.108 96.975 381.638 95.975 380.118 95.065C379.308 94.545 378.468 94.065 377.638 93.595C376.958 93.195 376.288 92.825 375.638 92.445C374.988 92.065 374.078 91.625 373.268 91.225H373.208C372.578 90.905 371.928 90.605 371.288 90.305C370.648 90.005 370.188 89.785 369.628 89.555C368.878 89.215 368.148 88.885 367.398 88.555C366.648 88.225 365.668 87.855 364.778 87.555C363.648 87.115 362.518 86.725 361.378 86.345C360.238 85.965 359.378 85.705 358.378 85.415C358.335 85.4242 358.291 85.4242 358.248 85.415C357.248 85.125 356.248 84.855 355.248 84.585C354.248 84.315 353.158 84.095 352.098 83.865C351.038 83.635 349.978 83.445 348.918 83.255C348.078 83.105 347.208 82.985 346.318 82.855C345.808 82.785 345.318 82.705 344.778 82.655C343.998 82.555 343.218 82.475 342.438 82.405C341.328 82.285 340.248 82.205 339.148 82.155C338.048 82.105 336.948 82.035 335.858 82.025C334.758 82.025 333.648 82.025 332.518 82.025C331.388 82.025 330.298 82.075 329.178 82.145C328.058 82.215 326.698 82.315 325.438 82.435C324.438 82.535 323.438 82.645 322.438 82.775C304.729 85.13 288.151 92.803 274.895 104.78C261.64 116.757 252.331 132.475 248.198 149.855C238.351 131.744 222.475 117.652 203.323 110.025C184.171 102.397 162.954 101.716 143.352 108.099C123.751 114.482 107.003 127.526 96.0145 144.968C85.0264 162.41 80.4918 183.149 83.1977 203.585V203.585C83.1977 205.185 84.8577 295.195 283.648 416.585C443.678 247.535 421.828 160.205 421.408 158.625Z" stroke="black" stroke-width="3" stroke-miterlimit="10" stroke-linecap="round"/>
</svg>
