<svg width="505" height="505" viewBox="0 0 505 505" fill="none" xmlns="http://www.w3.org/2000/svg">
<g clip-path="url(#clip0_6_280)">
<path d="M288.92 86C289.078 86.0013 289.236 86.0215 289.39 86.0601C294.85 87.4201 286.65 85.6101 278.47 107.81L279.03 108.12L280.1 108.78C280.58 108.547 281.11 108.307 281.69 108.06L281.81 108.01L282.53 107.69L282.72 107.61L283.32 107.35L283.7 107.19L284.62 106.81H284.73L285.83 106.36C304.833 98.7746 325.089 94.8164 345.55 94.6901C357.943 94.6572 370.285 96.2782 382.25 99.51C420.25 109.84 439.99 127.32 448.92 137.74L449.92 138.88L450.16 139.18L450.84 140.03L451.01 140.25C451.58 140.97 452.08 141.64 452.53 142.25C455.62 145.86 455.66 146.4 455.41 146.4C455.314 146.386 455.222 146.352 455.14 146.3C455.14 146.3 441.88 151.63 420.46 154.08C388.366 157.728 355.873 153.026 326.13 140.43C319.264 137.532 312.567 134.25 306.07 130.6C345.84 175.8 350.8 252.8 314.57 320.42C307.483 333.666 299.005 346.12 289.28 357.57L288.77 358.17L287.14 360.05C285.6 361.803 284.037 363.523 282.45 365.21L281.34 366.38L280.2 367.56C248.48 400.17 207.94 419.56 167.76 419.56C149.047 419.689 130.599 415.141 114.09 406.33C112.44 405.45 110.78 404.51 109.16 403.53C108.49 403.13 107.83 402.71 107.16 402.31C103.023 403.947 98.6091 404.772 94.16 404.74C88.5047 404.696 82.909 403.58 77.6699 401.45C74.7699 400.27 73.9099 396.27 74.3999 386.17C74.6499 380.86 75.24 375.28 75.59 372.28C59.38 349.59 50.5399 320.89 50.0199 289.17C49.4799 256.39 57.9499 222.72 74.5099 191.82C106.77 131.58 164.4 92.66 221.31 92.66C230.645 92.6456 239.948 93.7502 249.02 95.9501C258.071 98.1579 266.807 101.501 275.02 105.9C276.14 106.49 277.29 107.14 278.46 107.82C279.19 104.82 284.03 86.04 288.95 86.04L288.92 86ZM78.3599 374.55V374.74V374.55C78.3599 374.19 78.43 373.85 78.47 373.55C78.47 373.87 78.3999 374.21 78.3599 374.55ZM78.2399 375.67C78.2399 375.36 78.2999 375.07 78.3299 374.78C78.3299 375.07 78.2699 375.36 78.2399 375.67ZM78.1299 376.67C78.1299 376.39 78.16 376.12 78.22 375.86C78.22 376.12 78.1899 376.39 78.1299 376.67ZM78.03 377.76C78.03 377.46 78.0799 377.17 78.1099 376.89C78.1099 377.17 78.06 377.46 78.03 377.76ZM77.9199 378.89L78.0099 377.99L77.9199 378.89ZM77.9199 379.14C77.9199 379.33 77.9199 379.53 77.9199 379.72V380.06V379.72C77.9199 379.53 77.9199 379.33 77.9199 379.14ZM77.8199 380.36L77.7299 381.47L77.8199 380.36ZM77.59 383.36L77.47 385.27L77.59 383.36C77.59 382.73 77.68 382.1 77.72 381.48C77.72 382.1 77.63 382.73 77.59 383.36ZM77.41 386.49C77.41 386.13 77.41 385.77 77.41 385.41C77.41 385.77 77.41 386.13 77.41 386.49ZM77.41 387.7C77.41 387.38 77.41 387.07 77.41 386.75C77.41 387.07 77.41 387.38 77.41 387.7ZM77.41 388.01C77.41 388.19 77.41 388.37 77.41 388.55C77.41 388.73 77.41 388.78 77.41 388.9C77.41 388.78 77.41 388.66 77.41 388.55C77.41 388.44 77.41 388.19 77.41 388.01ZM77.41 390.08C77.41 389.79 77.41 389.51 77.41 389.22C77.41 389.51 77.41 389.79 77.41 390.08ZM77.41 392.48C77.41 392.16 77.41 391.84 77.41 391.48C77.41 391.82 77.41 392.14 77.41 392.48ZM77.53 394.48C77.53 393.87 77.4399 393.21 77.4199 392.48C77.4199 393.17 77.48 393.83 77.53 394.48ZM77.6299 395.33C77.6299 395.13 77.6299 394.92 77.5599 394.71C77.5599 394.92 77.5599 395.13 77.6299 395.33ZM77.7499 396.1C77.7499 395.94 77.6899 395.78 77.6699 395.61C77.6699 395.78 77.6699 395.94 77.7499 396.1ZM77.8499 396.58C77.8453 396.65 77.8453 396.72 77.8499 396.79C77.8453 396.72 77.8453 396.65 77.8499 396.58C77.8499 396.51 77.8499 396.44 77.8499 396.37C77.8499 396.3 77.8499 396.51 77.8499 396.58ZM78.0799 397.38L77.9599 397.03L78.0799 397.38ZM78.2899 397.86C78.2373 397.77 78.1905 397.676 78.1499 397.58C78.1905 397.676 78.2373 397.77 78.2899 397.86V397.86ZM78.5499 398.24C78.4833 398.175 78.4261 398.101 78.3799 398.02C78.4261 398.101 78.4833 398.175 78.5499 398.24V398.24ZM78.9199 398.54C78.8109 398.493 78.7123 398.425 78.6299 398.34C78.7123 398.425 78.8109 398.493 78.9199 398.54V398.54ZM79.3899 398.73H79.4599H79.3899H79.3299H79.3899ZM79.9799 398.95L79.8199 398.89L79.9799 398.95ZM80.47 399.13H80.5499H80.47ZM82.8299 399.9H82.78H82.8299ZM115.56 403.54C114.27 402.72 112.9 402.03 111.56 401.29C112.87 402.06 114.2 402.82 115.56 403.54ZM288.93 66C284.2 66 275.25 67.58 268.46 78.22C268 78.94 267.55 79.7 267.11 80.5C262.746 78.9361 258.303 77.601 253.8 76.5C243.17 73.9211 232.269 72.6252 221.33 72.64C189.4 72.64 156.95 83.1601 127.49 103.06C98.6699 122.52 74.2599 149.95 56.8999 182.35C38.7299 216.25 29.4399 253.35 30.0399 289.48C30.5799 322.34 39.1799 352.57 54.9799 377.42C54.7599 379.87 54.5599 382.55 54.4399 385.2C54.0999 392.33 54.3399 397.2 55.2299 401.33C57.7899 413.27 65.6499 418.11 70.1099 419.94C77.7513 423.066 85.9239 424.689 94.1799 424.72C97.5972 424.727 101.008 424.422 104.37 423.81L104.64 423.95C124.044 434.319 145.73 439.678 167.73 439.54C190.5 439.54 213.33 434.28 235.58 423.89C257.632 413.448 277.598 399.077 294.5 381.48C294.83 381.14 295.18 380.77 295.5 380.41L295.7 380.2L296.93 378.89C298.7 377.03 300.44 375.11 302.12 373.19C302.7 372.54 303.29 371.85 303.89 371.19L304.07 370.97L304.45 370.53C315.106 357.967 324.392 344.303 332.15 329.77C351.49 293.69 360.69 254.35 358.76 216.01C358.015 200.147 355.167 184.453 350.29 169.34C373.971 175.084 398.478 176.614 422.69 173.86C435.275 172.531 447.68 169.849 459.69 165.86C462.733 165.198 465.581 163.839 468.01 161.891C470.439 159.942 472.383 157.457 473.69 154.63C475.14 151.48 477.83 143.16 471.56 134C470.74 132.81 469.69 131.46 468.27 129.77C467.79 129.13 467.27 128.48 466.79 127.83L466.61 127.61L466.56 127.54L465.69 126.46L465.63 126.39L465.39 126.09L464.17 124.64C452.11 110.57 429.03 91.42 387.57 80.14C373.878 76.4384 359.753 74.5786 345.57 74.61C333.406 74.626 321.276 75.8893 309.37 78.38C307.31 73.76 303.03 68.82 294.26 66.62C292.523 66.1887 290.74 65.9704 288.95 65.97L288.93 66ZM93.0699 392L95.6199 391.92L95.4399 391.97L92.91 392.06L93.0699 392V392ZM89.0699 392.13L91.5099 392.05L91.3699 392.11L88.9499 392.19L89.0699 392.13V392.13ZM85.3299 392.25L87.66 392.17L87.5499 392.24L85.2499 392.32L85.3299 392.25V392.25ZM82.8899 392.32H84.1899V392.39H82.8799V392.31L82.8899 392.32ZM82.3799 392.32H82.8299V392.39H82.3799V392.31V392.32ZM81.3799 392.32H81.7699V392.4H81.3799V392.32ZM95.5799 392.84L97.3499 392.68H97.1699L94.7699 392.92L95.5699 392.77L95.5799 392.84ZM92.1499 393.16L94.1499 392.98L93.41 393.13L91.5199 393.32L92.1499 393.16V393.16ZM92.8699 393.34L95.6099 392.98L91.6099 393.56L92.8299 393.34H92.8699ZM88.8699 393.45L90.7399 393.28L90.1699 393.45L88.3799 393.63L88.8699 393.45ZM89.8699 393.73L91.5499 393.51L90.4899 393.73L89.0199 393.94L89.8699 393.73ZM84.4999 393.85H84.9499L84.6399 394.04H84.4499V393.87L84.4999 393.85ZM87.0999 394.09L88.6799 393.88L87.9199 394.11L86.47 394.32L87.0999 394.09ZM82.22 394.09H82.5699L82.3799 394.29H82.1499L82.22 394.1V394.09ZM87.72 394.3L88.8999 394.09L87.09 394.47L87.72 394.3ZM85.4399 394.72L86.72 394.49L86.0699 394.68L84.8699 394.93L85.4399 394.72ZM83.5399 394.59H83.8199L83.4799 394.81L83.5399 394.63V394.59ZM82.4599 394.73L83.4599 394.6L83.3899 394.8L82.1999 394.98L82.4799 394.73H82.4599ZM81.3899 394.87L81.8699 394.81L81.6299 395.06H81.2999L81.3899 394.82V394.87ZM84.1099 395.22L84.8099 395.05L84.0999 395.25L84.1099 395.22ZM81.7599 395.39L82.7599 395.21L82.3899 395.44L81.66 395.59L81.7299 395.39H81.7599ZM83.91 395.28H83.9999L83.4199 395.45L83.9199 395.28H83.91ZM81.16 395.5H81.22L81.1199 395.61V395.51L81.16 395.5ZM81.5999 395.86L81.8499 395.8L81.5499 395.99V395.86H81.5999ZM80.3499 396.18L80.6499 396.1L80.4499 396.32L80.28 396.37L80.3499 396.18ZM80.8299 396.39L81.0399 396.31L80.7999 396.46V396.39H80.8299ZM80.0799 396.89L80.3599 396.74L80.0599 396.93L80.0799 396.89ZM79.3199 397.29L79.7499 397.07L79.6099 397.21L79.2699 397.43L79.3199 397.29V397.29ZM79.1899 397.61L79.4499 397.38L79.16 397.69V397.61H79.1899Z" fill="white"/>
<path d="M455.1 146.25C455.1 146.25 441.84 151.58 420.42 154.03C388.326 157.68 355.833 152.978 326.09 140.38C308.246 132.775 291.541 122.736 276.45 110.55C276.45 110.55 279.83 108.73 285.83 106.31C302.73 99.5201 340.44 88.07 382.25 99.46C420.25 109.79 439.99 127.27 448.92 137.69C451.273 140.32 453.344 143.189 455.1 146.25V146.25Z" fill="#338C39"/>
<path d="M455.1 146.25C455.1 146.25 441.84 151.58 420.42 154.03C388.326 157.68 355.833 152.978 326.09 140.38C308.246 132.775 291.541 122.736 276.45 110.55C276.45 110.55 272.76 111.73 278.76 109.31C288.06 115.44 308.92 127.7 357.04 140.23C398.62 151.06 435.24 136.39 442.81 132.23C447.22 137.41 455.1 146.25 455.1 146.25Z" fill="#336128"/>
<path d="M452.49 142.2C451.57 140.93 450.4 139.41 448.92 137.69C439.99 127.27 420.2 109.79 382.25 99.46C340.44 88.07 302.73 99.5201 285.83 106.31C282.83 107.54 280.44 108.6 278.83 109.36L278.75 109.31C272.75 111.73 276.44 110.55 276.44 110.55C291.531 122.736 308.236 132.775 326.08 140.38C355.823 152.978 388.316 157.68 420.41 154.03C441.83 151.58 455.09 146.25 455.09 146.25C455.09 146.25 456.9 147.34 452.49 142.2Z" stroke="black" stroke-width="3" stroke-miterlimit="10"/>
<path d="M129.12 401.71C158.24 406.45 187.46 395.89 212.24 379.87C237.02 363.85 256.84 341.16 273.63 316.87C282.741 303.614 290.322 289.37 296.23 274.41C302.52 258.61 305.49 238.01 306.16 229.55C308 206.55 305.99 204.47 305.01 191.85C303.34 170.28 302.48 149.65 289.91 132.05C287.06 128.05 290.62 127.43 288.83 122.79C288.09 120.89 278.74 114.5 280.37 113.22L279.94 112.95C279.14 112.45 279.41 111.04 278.59 110.56C277.3 109.8 276.66 109.56 275.33 108.89C267.23 104.55 258.8 99.95 250.08 97.89C183.01 82.11 114.22 122.76 76.02 194.07C41.49 258.51 46.13 330.77 81.15 375.42C89.318 385.89 99.3246 394.785 110.68 401.67C112.14 400.44 118.96 402.57 120.81 402.2C124.85 401.43 125.05 401.04 129.12 401.71Z" fill="#F2EA5A"/>
<path d="M278.33 108.18C276.45 116.35 283.63 130.78 285.91 135.11C290.43 143.71 303.33 169.52 305 191.11C306 203.73 308 205.83 306.15 228.82C305.48 237.27 302.51 257.88 296.22 273.67C290.318 288.633 282.736 302.878 273.62 316.13C256.83 340.39 237.02 363.13 212.23 379.13C187.44 395.13 162.95 404.32 129.48 400.59C125.38 400.14 112.13 399.74 110.67 400.97C112.23 401.91 113.91 402.7 115.46 403.69C175.15 441.98 272.84 404.5 315.46 317.42C355.89 234.66 337.52 145.67 278.33 108.18Z" fill="#EAD559"/>
<path d="M78.82 370.56C78.82 370.56 75.37 397.22 78.82 398.64C82.27 400.06 95.41 404.77 107.96 398.64" fill="#F2EA5A"/>
<path d="M278.33 108.18C278.33 108.18 283.89 84.6801 289.39 86.0601C294.89 87.4401 286.55 85.5799 278.33 108.18Z" fill="black" stroke="black" stroke-width="3" stroke-miterlimit="10"/>
<path d="M221.32 95.62C230.416 95.6035 239.48 96.6779 248.32 98.8201C257.114 100.97 265.601 104.222 273.58 108.5C274.913 109.213 276.223 109.95 277.51 110.71C278.33 111.19 279.13 111.71 279.93 112.19L280.36 112.46C339.55 149.95 353.99 240.37 311.88 318.95C279.21 379.95 221.74 416.52 167.72 416.52C149.501 416.628 131.542 412.202 115.46 403.64C113.827 402.774 112.23 401.867 110.67 400.92C109.58 400.26 108.51 399.57 107.45 398.87C103.284 400.775 98.7505 401.741 94.1699 401.7C88.907 401.648 83.7004 400.611 78.82 398.64C75.74 397.37 78.16 376 78.71 371.43C45.99 326.57 43.45 256.1 77.16 193.19C109.83 132.19 167.3 95.62 221.32 95.62V95.62ZM221.32 92.62C164.41 92.62 106.78 131.54 74.52 191.78C57.96 222.68 49.52 256.35 50.03 289.13C50.55 320.85 59.3899 349.55 75.5999 372.24C75.2499 375.24 74.66 380.82 74.41 386.13C73.92 396.23 74.78 400.23 77.68 401.41C82.919 403.54 88.5146 404.656 94.1699 404.7C98.6191 404.732 103.033 403.907 107.17 402.27C107.8 402.67 108.46 403.09 109.17 403.49C110.79 404.49 112.45 405.41 114.1 406.29C130.609 415.101 149.057 419.649 167.77 419.52C224.68 419.52 282.31 380.6 314.58 320.37C357.16 240.9 342.86 148.47 282.02 109.93L281.55 109.64C280.75 109.14 279.93 108.64 279.08 108.12C277.7 107.32 276.35 106.55 275.08 105.86C266.867 101.461 258.131 98.1179 249.08 95.9101C240.008 93.7102 230.705 92.6056 221.37 92.62H221.32Z" fill="black"/>
<path d="M76.72 371.27L80.11 375.65L80.6 376.28C80.7032 376.441 80.8629 376.559 81.0478 376.609C81.2327 376.658 81.4295 376.638 81.6 376.55C81.7649 376.45 81.8851 376.29 81.9353 376.104C81.9856 375.918 81.9622 375.72 81.87 375.55L78.48 371.17L78 370.54C77.8952 370.381 77.7355 370.265 77.5512 370.215C77.367 370.165 77.1708 370.185 77 370.27C76.8369 370.372 76.7184 370.531 76.6683 370.717C76.6182 370.902 76.6402 371.1 76.73 371.27H76.72Z" fill="black"/>
<path d="M102.46 396.77L106.82 400.23L107.43 400.72C107.574 400.854 107.763 400.928 107.96 400.928C108.156 400.928 108.346 400.854 108.49 400.72C108.629 400.576 108.706 400.385 108.706 400.185C108.706 399.985 108.629 399.793 108.49 399.65L104.13 396.2L103.52 395.71C103.377 395.574 103.187 395.499 102.99 395.499C102.793 395.499 102.603 395.574 102.46 395.71C102.32 395.851 102.241 396.041 102.241 396.24C102.241 396.439 102.32 396.629 102.46 396.77Z" fill="black"/>
<path d="M227.92 120.53C227.92 120.53 205.92 111.67 187.78 124.75" stroke="white" stroke-width="10" stroke-miterlimit="10" stroke-linecap="round"/>
<path d="M132.26 270.21C142.5 262.74 153.87 249.61 163.45 233.21C181.08 202.97 185.98 172.99 174.45 166.21C168.61 162.81 159.7 165.96 150.04 173.81C140.55 181.51 130.31 193.76 121.58 208.75C111.98 225.21 106.15 241.59 104.7 254.19C111.86 253.87 119.7 255.6 126.32 262.19" fill="white"/>
<path d="M132.26 270.21C142.5 262.74 153.87 249.61 163.45 233.21C181.08 202.97 185.98 172.99 174.45 166.21C168.61 162.81 159.7 165.96 150.04 173.81C140.55 181.51 130.31 193.76 121.58 208.75C111.98 225.21 106.15 241.59 104.7 254.19C111.86 253.87 119.7 255.6 126.32 262.19" stroke="black" stroke-width="3" stroke-miterlimit="10"/>
<path d="M148.82 235.01C142.16 246.44 134.16 255.82 126.28 262.15C119.7 255.59 111.82 253.86 104.66 254.15C106.11 241.55 111.94 225.15 121.54 208.71C130.27 193.71 140.54 181.47 150 173.77C151.587 173.982 153.116 174.505 154.5 175.31C163.38 180.49 164.29 196.48 158.03 214.97L157.69 215.91L136.27 219.98L148.82 235.01Z" fill="black" stroke="black" stroke-width="3" stroke-miterlimit="10"/>
<path d="M139.28 292.45C137.76 282.99 135.28 275.73 132.28 270.21C130.672 267.252 128.652 264.538 126.28 262.15C119.7 255.59 111.82 253.86 104.66 254.15C97.4114 254.635 90.3534 256.682 83.97 260.15" stroke="black" stroke-width="3" stroke-miterlimit="10" stroke-linecap="round"/>
<path d="M215 318.45C225.25 310.97 236.61 297.84 246.2 281.45C263.82 251.21 268.73 221.22 257.15 214.45C251.32 211.04 242.41 214.2 232.74 222.04C223.25 229.75 213.02 241.99 204.28 256.98C194.69 273.45 188.86 289.83 187.4 302.43C194.56 302.1 202.4 303.84 209.02 310.43" fill="white"/>
<path d="M215 318.45C225.25 310.97 236.61 297.84 246.2 281.45C263.82 251.21 268.73 221.22 257.15 214.45C251.32 211.04 242.41 214.2 232.74 222.04C223.25 229.75 213.02 241.99 204.28 256.98C194.69 273.45 188.86 289.83 187.4 302.43C194.56 302.1 202.4 303.84 209.02 310.43" stroke="black" stroke-width="3" stroke-miterlimit="10"/>
<path d="M231.56 283.25C224.9 294.68 216.91 304.06 209.02 310.39C202.44 303.83 194.56 302.09 187.4 302.39C188.86 289.79 194.69 273.39 204.28 256.94C213.02 241.94 223.28 229.71 232.74 222C234.325 222.221 235.852 222.744 237.24 223.54C246.13 228.72 247.03 244.72 240.77 263.21C240.67 263.52 240.55 263.84 240.44 264.15L219.02 268.21L231.56 283.25Z" fill="black" stroke="black" stroke-width="3" stroke-miterlimit="10"/>
<path d="M222.02 340.68C220.5 331.22 218.02 323.97 215.02 318.45C213.415 315.491 211.394 312.777 209.02 310.39C202.44 303.83 194.56 302.09 187.4 302.39C180.151 302.872 173.092 304.919 166.71 308.39" stroke="black" stroke-width="3" stroke-miterlimit="10" stroke-linecap="round"/>
<path d="M145.36 294.77C145.36 294.77 143.17 301.77 134.58 297.52" stroke="black" stroke-width="3" stroke-miterlimit="10" stroke-linecap="round"/>
<path d="M160.63 303.66C160.63 303.66 158.28 310.73 163.48 314.35" stroke="black" stroke-width="3" stroke-miterlimit="10" stroke-linecap="round"/>
<path d="M141.38 298.6C141.38 298.6 144.87 313.38 160.38 309.68" stroke="black" stroke-width="3" stroke-miterlimit="10" stroke-linecap="round"/>
<path d="M163.054 295.86C163.733 294.695 161.784 292.295 158.702 290.498C155.62 288.702 152.571 288.189 151.892 289.353C151.214 290.517 153.162 292.917 156.244 294.714C159.327 296.511 162.375 297.024 163.054 295.86Z" fill="black" stroke="black" stroke-width="3" stroke-miterlimit="10" stroke-linecap="round"/>
<path d="M137.63 308.25C137.63 308.25 142.16 319.9 152.85 317.13" stroke="black" stroke-width="2" stroke-miterlimit="10" stroke-linecap="round"/>
</g>
<defs>
<clipPath id="clip0_6_280">
<rect width="445.45" height="373.52" fill="white" transform="translate(30 66)"/>
</clipPath>
</defs>
</svg>
