<svg width="248" height="389" viewBox="0 0 248 389" fill="none" xmlns="http://www.w3.org/2000/svg">
<path d="M235.71 220.62C231.128 210.623 222.901 202.753 212.71 198.62C212.82 192.18 215.59 150.04 215.62 149.62C215.71 148.79 224.62 65.79 222.04 45.4C219.37 24.02 208.71 9.61 192.71 5.81C177.03 2.08 163.04 11.48 158.71 28.67C153.07 50.92 146.13 130.82 144.79 146.79C140.28 130.62 116.62 46.51 106.95 25.37C104.51 20.3792 100.863 16.076 96.34 12.85C92.49 10.1 86.34 6.96998 78.81 7.72998C60.88 9.51998 51.9 16.83 51.37 30.06C50.77 44.97 52.37 79.71 69.98 144.91C67.5442 145.228 65.1544 145.832 62.86 146.71C43.86 153.87 39.74 165.21 38.32 176.47C36.23 175.99 28.71 174.53 22.95 176.62C19.12 178.01 11.68 183.74 8.03001 193.2C4.48001 202.38 5.55001 212.79 11.12 223.32C14.33 229.4 17.52 235.21 20.6 240.6C18.926 254.821 18.926 269.189 20.6 283.41C24.21 311.93 39.46 348.52 65.4 365.95C81.1 376.5 106.67 383.19 131.73 383.19C148.65 383.19 165.33 380.19 178.59 373.19C207.35 358.07 241.43 323.25 242.82 274.87C243.61 249.02 241.46 232.78 235.71 220.62ZM52.39 30.1C52.9 17.45 61.58 10.46 78.93 8.72C92.39 7.37 102.71 18.48 106.06 25.79C116.69 49.01 144.31 148.79 144.59 149.79C144.62 149.904 144.69 150.004 144.787 150.072C144.884 150.14 145.002 150.171 145.12 150.16C145.236 150.147 145.345 150.094 145.427 150.01C145.509 149.926 145.559 149.817 145.57 149.7C145.65 148.7 153.48 53.52 159.7 28.96C163.91 12.33 177.4 3.22999 192.51 6.83999C208.03 10.53 218.43 24.67 221.05 45.61C223.59 65.88 214.71 148.77 214.62 149.61C214.51 151.35 211.92 190.74 211.72 198.29C206.884 196.369 201.855 194.974 196.72 194.13C188.08 192.65 179.29 190.95 170.78 189.3C145.95 184.5 122.22 179.92 107.05 181.72C105.753 177.038 104.043 172.48 101.94 168.1C98.61 161.18 92.87 152 84.36 147.52C80.2701 145.344 75.6329 144.413 71.02 144.84C53.43 79.63 51.79 45.02 52.39 30.1ZM39.26 177.15C40.59 166.01 44.41 154.73 63.26 147.65C70.72 144.84 77.66 145.09 83.9 148.38C98.51 156.07 105.08 178.2 106.06 181.82C102.843 182.18 99.7203 183.133 96.85 184.63C94.2993 186.132 92.1226 188.192 90.4839 190.657C88.8453 193.122 87.7874 195.927 87.39 198.86C86.03 207.55 89.49 216.92 97.15 225.23L100.98 229.43C109.2 238.49 114.98 244.84 125.54 250.01C123.13 260.01 118.23 267.01 110.95 270.81C107.495 272.514 103.728 273.492 99.88 273.683C96.0324 273.874 92.1866 273.274 88.58 271.92C79.49 268.2 56.63 229.49 45.66 205.21C40.32 193.46 38.35 184.81 39.26 177.15ZM8.98 193.56C12.64 184.07 20.22 178.68 23.31 177.56C28.86 175.56 36.4 177.06 38.23 177.47C37.42 185.21 39.43 193.92 44.71 205.62C54.27 226.78 77.71 267.84 87.83 272.62C87.25 279.79 84.66 288.47 79.07 291.73C75.5 293.81 70.99 293.59 65.67 291.08C55.56 286.29 36.29 265.96 21.57 240.2C18.47 234.78 15.26 228.93 12.02 222.8C6.52 212.44 5.49999 202.59 8.98 193.56ZM241.86 274.83C240.48 322.83 206.68 357.3 178.17 372.29C145.57 389.43 92.06 382.64 65.99 365.12C40.32 347.86 25.21 311.58 21.63 283.29C20.0232 269.59 19.9628 255.753 21.45 242.04C34.71 264.8 53.76 286.6 65.24 292.04C67.8536 293.372 70.7282 294.113 73.66 294.21C75.738 294.234 77.7837 293.695 79.58 292.65C86.73 288.48 88.42 277.35 88.8 273.09C91.9144 274.209 95.2007 274.774 98.51 274.76C102.982 274.786 107.395 273.74 111.38 271.71C118.87 267.83 123.93 260.71 126.43 250.47C132.451 253.199 138.715 255.355 145.14 256.91C105.14 294.08 116.14 341.91 116.28 342.4C116.315 342.525 116.397 342.632 116.509 342.699C116.62 342.766 116.753 342.788 116.88 342.76C116.944 342.746 117.005 342.719 117.059 342.681C117.112 342.643 117.158 342.594 117.192 342.538C117.227 342.482 117.25 342.42 117.26 342.355C117.27 342.29 117.266 342.224 117.25 342.16C117.14 341.68 106.19 293.95 146.4 257.16C146.477 257.091 146.534 257.003 146.564 256.904C146.594 256.805 146.596 256.7 146.57 256.6C146.54 256.505 146.486 256.419 146.415 256.349C146.343 256.279 146.256 256.228 146.16 256.2C120.64 249.69 113.91 242.28 101.69 228.81C100.47 227.47 99.2 226.07 97.85 224.61C90.41 216.53 87.03 207.46 88.35 199.08C88.7279 196.292 89.7344 193.626 91.2935 191.284C92.8527 188.942 94.9236 186.985 97.35 185.56C109.73 178.56 139.3 184.26 170.61 190.31C179.12 191.96 187.92 193.66 196.61 195.15C201.909 196.01 207.093 197.473 212.06 199.51H212.13C238.05 210.46 242.98 236.19 241.86 274.83V274.83Z" fill="black" stroke="black" stroke-width="10"/>
</svg>
