<svg width="505" height="505" viewBox="0 0 505 505" fill="none" xmlns="http://www.w3.org/2000/svg">
<g clip-path="url(#clip0_16_1143)">
<g clip-path="url(#clip1_16_1143)">
<path d="M245.531 408.059C169.476 408.059 104.575 352.566 92.2395 278.064C88.3862 277.043 84.6509 276.021 81.0842 275C28.267 259.882 5.58525 245.042 7.54144 226.885C9.22781 211.455 27.4997 205.301 41.1088 202.026C55.8561 198.464 76.5226 196.041 101.169 194.977C111.574 168.857 128.86 146.05 151.187 128.984C161.912 108.641 176.432 97.473 192.208 97.473C197.795 97.4938 203.294 98.8757 208.228 101.499C233.829 95.1759 260.614 95.4664 286.071 102.344C291.377 99.1936 297.425 97.5154 303.593 97.4814C320.887 97.4814 336.907 111.283 347.734 135.467C374.495 158.826 392.449 190.663 398.603 225.67C429.633 233.022 453.41 240.56 469.347 248.106C476.775 251.618 499.373 262.321 497.475 279.879C495.519 298.045 470.198 307.735 415.366 311.179C407.119 311.702 398.283 312.023 389.033 312.26C377.221 340.619 357.297 364.85 331.767 381.906C306.237 398.962 276.24 408.081 245.548 408.118L245.531 408.059ZM400.888 249.626C400.888 250.588 400.888 251.542 400.888 252.496C400.892 264.861 399.42 277.182 396.504 289.198C402.558 288.996 408.367 288.717 413.873 288.354C455.038 285.737 469.153 279.82 473.52 277.169C469.422 273.295 454.093 262.828 400.888 249.626ZM31.5723 229.485C35.3919 233.073 48.0397 241.818 87.3659 253.12L90.1738 253.914C90.1738 253.45 90.1738 252.994 90.1738 252.538C90.1692 240.982 91.4503 229.462 93.9934 218.191C74.4737 219.322 58.1916 221.381 46.4798 224.201C38.0648 226.193 33.6802 228.202 31.547 229.519L31.5723 229.485Z" fill="black"/>
<path d="M245.531 105.382C259.706 105.376 273.808 107.426 287.395 111.469C292.454 107.856 297.91 105.897 303.576 105.897C318.374 105.897 331.654 119.294 340.761 140.506C368.279 163.934 386.212 196.689 391.133 232.515C457.787 247.836 490.738 263.436 489.077 278.891C487.703 291.621 462.719 299.623 414.818 302.67C404.936 303.295 394.371 303.683 383.241 303.827C362.38 359.699 308.526 399.592 245.531 399.592C170.859 399.592 109.011 343.543 99.7693 271.286C94.1115 269.842 88.6393 268.374 83.4031 266.871C37.2555 253.669 14.5485 240.509 15.9482 227.772C16.7914 220.174 25.6532 214.417 43.1072 210.214C58.4195 206.517 80.553 204.085 107.105 203.182C116.893 175.802 134.536 151.923 157.823 134.538C166.761 116.812 178.903 105.897 192.233 105.897C197.504 105.97 202.64 107.577 207.014 110.523C219.577 107.106 232.538 105.377 245.557 105.382H245.531ZM99.1116 265.014C98.7575 260.889 98.5777 256.716 98.5721 252.496C98.564 237.808 100.758 223.203 105.081 209.167C79.9039 210.121 58.9761 212.459 44.4648 215.92C24.7005 220.689 22.0275 226.218 21.7914 228.379C21.0494 235.259 37.2723 247.49 85.0304 261.156C89.5668 262.456 94.2633 263.731 99.1201 264.98L99.1116 265.014ZM385.323 297.901C395.56 297.741 405.307 297.369 414.455 296.787C464.018 293.638 482.475 285.155 483.217 278.267C484.145 269.623 460.578 254.741 391.849 238.762C392.271 243.286 392.499 247.862 392.499 252.487C392.507 267.909 390.085 283.235 385.323 297.901V297.901ZM245.54 88.4916C233.3 88.4874 221.099 89.8578 209.164 92.5771C203.822 90.229 198.051 89.0134 192.216 89.0065C181.297 89.0065 160.951 93.5732 144.619 123.379C123.234 140.107 106.339 161.894 95.4523 186.781C72.6188 187.971 53.2929 190.377 39.1443 193.787C29.8692 196.024 1.66466 202.828 -0.831171 225.957C-1.41297 231.351 -0.637395 239.581 6.38635 248.123C10.3662 252.968 15.9398 257.409 23.402 261.747C36.0498 269.066 54.1361 276.047 78.7741 283.095C80.7696 283.658 82.8158 284.221 84.9125 284.783C100.09 360.611 167.208 416.466 245.54 416.466C276.959 416.433 307.709 407.369 334.134 390.353C360.559 373.336 381.548 349.082 394.607 320.473C402.018 320.253 409.152 319.933 415.897 319.51C441.471 317.881 460.653 314.935 474.541 310.487C482.753 307.853 489.145 304.688 494.069 300.805C502.754 293.959 505.267 286.092 505.874 280.689C506.557 274.367 505.359 264.828 495.755 255.29C490.443 250.006 482.981 245.16 472.989 240.383C457.23 232.921 435.206 225.779 405.888 218.638C398.681 184.462 380.748 153.489 354.707 130.242C349.479 118.998 343.189 109.848 335.98 102.985C326.359 93.8179 315.17 88.9812 303.635 88.9812C297.206 88.9912 290.863 90.4632 285.085 93.2861C272.17 90.0814 258.913 88.4628 245.607 88.4663L245.54 88.4916ZM51.6572 231.629C62.2186 229.533 72.8998 228.095 83.6393 227.324C82.8523 232.389 82.3071 237.513 82.0035 242.696C71.6595 239.66 61.5205 235.963 51.6488 231.629H51.6572ZM406.985 280.31C408.115 273.748 408.842 267.123 409.16 260.473C430.484 266.162 444.313 271.185 453.174 275.084C444.616 276.899 431.918 278.765 413.376 279.947C411.291 280.082 409.16 280.203 406.985 280.31Z" fill="white"/>
<path d="M245.531 398.36C325.996 398.36 391.226 333.058 391.226 252.504C391.226 171.95 325.996 106.649 245.531 106.649C165.066 106.649 99.8369 171.95 99.8369 252.504C99.8369 333.058 165.066 398.36 245.531 398.36Z" fill="#17FF9E"/>
<path d="M245.531 399.618C164.501 399.618 98.5718 333.624 98.5718 252.496C98.5718 171.367 164.501 105.382 245.531 105.382C326.561 105.382 392.49 171.376 392.49 252.496C392.49 333.616 326.561 399.618 245.531 399.618ZM245.531 107.915C165.892 107.915 101.101 172.777 101.101 252.496C101.101 332.215 165.892 397.085 245.531 397.085C325.17 397.085 389.96 332.223 389.96 252.496C389.96 172.769 325.17 107.915 245.531 107.915Z" fill="black"/>
<path d="M244.764 107.164C243.684 107.164 242.605 107.164 241.526 107.164C317.05 108.852 377.768 173.081 377.768 252.023C377.768 330.965 317.059 395.169 241.526 396.883C242.605 396.883 243.684 396.883 244.764 396.883C325.229 396.883 390.458 332.004 390.458 251.981C390.458 171.958 325.229 107.164 244.764 107.164Z" fill="#15BC70"/>
<path d="M248.583 348.092C232.777 348.114 217.057 345.749 201.955 341.078C167.157 330.29 147.097 310.538 146.895 310.335L148.682 308.545C148.876 308.74 168.582 328.112 202.823 338.697C223.109 344.921 244.446 346.952 265.54 344.665C292.471 341.863 320.153 332.358 347.827 316.413L349.083 318.607C321.081 334.747 293.028 344.37 265.708 347.198C260.019 347.789 254.303 348.088 248.583 348.092V348.092Z" fill="black"/>
<path d="M348.788 309.297C348.788 309.297 342.885 321.46 355.66 320.017Z" fill="#17FF9E"/>
<path d="M353.695 321.401C350.668 321.401 348.518 320.557 347.279 318.768C344.648 315.045 347.523 309.001 347.649 308.748C347.721 308.598 347.821 308.463 347.945 308.352C348.068 308.241 348.213 308.155 348.37 308.1C348.526 308.045 348.693 308.022 348.858 308.032C349.024 308.041 349.187 308.084 349.336 308.157C349.636 308.305 349.866 308.564 349.976 308.88C350.087 309.196 350.069 309.543 349.926 309.845C349.26 311.213 347.877 315.222 349.344 317.299C350.28 318.616 352.355 319.105 355.516 318.751C355.683 318.732 355.851 318.746 356.011 318.792C356.172 318.839 356.322 318.916 356.453 319.02C356.583 319.124 356.692 319.253 356.773 319.4C356.854 319.546 356.906 319.707 356.925 319.874C356.943 320.04 356.929 320.208 356.883 320.369C356.837 320.53 356.76 320.68 356.655 320.811C356.551 320.942 356.423 321.051 356.276 321.132C356.13 321.213 355.969 321.264 355.803 321.283C355.103 321.362 354.4 321.402 353.695 321.401Z" fill="black"/>
<path d="M149.796 301.269C149.796 301.269 153.717 313.264 137.333 311.399Z" fill="#17FF9E"/>
<path d="M140.538 312.91C139.41 312.906 138.284 312.838 137.165 312.707C136.829 312.669 136.523 312.499 136.312 312.235C136.102 311.97 136.005 311.633 136.043 311.297C136.081 310.961 136.251 310.654 136.515 310.444C136.779 310.233 137.116 310.137 137.452 310.175C142.511 310.74 146.06 309.972 147.73 307.938C149.754 305.464 148.573 301.708 148.573 301.674C148.514 301.514 148.488 301.344 148.497 301.174C148.505 301.004 148.548 300.838 148.622 300.685C148.696 300.531 148.8 300.395 148.928 300.283C149.057 300.171 149.206 300.086 149.367 300.033C149.529 299.98 149.7 299.961 149.869 299.975C150.039 299.99 150.204 300.039 150.354 300.119C150.504 300.199 150.636 300.308 150.743 300.441C150.85 300.573 150.929 300.726 150.976 300.889C151.044 301.092 152.587 305.954 149.694 309.525C147.907 311.778 144.821 312.91 140.538 312.91Z" fill="black"/>
<path d="M203.33 351.072C203.33 351.072 242.175 362.645 288.795 351.072Z" fill="#17FF9E"/>
<path d="M246.088 357.428C220.742 357.428 203.254 352.364 202.993 352.271C202.826 352.23 202.669 352.156 202.532 352.052C202.395 351.949 202.281 351.819 202.195 351.67C202.11 351.521 202.056 351.356 202.037 351.185C202.017 351.015 202.032 350.842 202.082 350.678C202.131 350.513 202.213 350.36 202.323 350.229C202.433 350.097 202.569 349.989 202.722 349.911C202.875 349.834 203.042 349.788 203.213 349.777C203.384 349.766 203.556 349.791 203.718 349.848C204.097 349.958 242.799 361.176 288.509 349.848C288.67 349.808 288.837 349.8 289.001 349.824C289.166 349.848 289.324 349.905 289.466 349.99C289.609 350.076 289.733 350.188 289.832 350.322C289.931 350.455 290.003 350.607 290.043 350.768C290.084 350.93 290.092 351.097 290.067 351.262C290.043 351.426 289.987 351.584 289.901 351.727C289.816 351.87 289.703 351.994 289.57 352.093C289.437 352.192 289.285 352.264 289.124 352.305C275.039 355.749 260.587 357.47 246.088 357.428V357.428Z" fill="black"/>
<path d="M303.576 107.164C276.839 107.164 255.093 152.856 255.093 209.024C255.093 215.979 255.43 222.926 256.096 229.679C260.742 276.73 280.709 310.875 303.576 310.875C330.305 310.875 352.051 265.183 352.051 209.024C352.051 152.864 330.305 107.164 303.576 107.164ZM336.46 280.841C327.514 299.412 315.828 309.609 303.576 309.609C292.977 309.609 282.496 301.691 274.115 287.316C269.26 278.718 265.511 269.54 262.96 260H344.209C342.244 267.161 339.654 274.135 336.469 280.841H336.46Z" fill="white"/>
<path d="M303.576 105.897C276.097 105.897 253.828 152.071 253.828 209.024C253.828 216.139 254.174 223.087 254.84 229.806C259.478 276.798 279.537 312.141 303.576 312.141C331.047 312.141 353.324 265.976 353.324 209.024C353.324 152.071 331.047 105.897 303.576 105.897ZM303.576 309.609C292.977 309.609 282.497 301.691 274.115 287.316C269.26 278.718 265.512 269.54 262.96 260L262.834 259.527C260.156 249.71 258.323 239.682 257.353 229.553C256.695 222.8 256.358 215.937 256.358 209.024C256.358 181.851 261.417 156.342 270.692 137.206C279.647 118.635 291.325 108.43 303.576 108.43C315.828 108.43 327.523 118.652 336.46 137.206C345.693 156.342 350.795 181.851 350.795 209.024C350.795 227.088 348.543 244.417 344.319 259.671C344.293 259.797 344.259 259.921 344.218 260.042C342.253 267.203 339.662 274.177 336.477 280.884C327.523 299.395 315.836 309.609 303.576 309.609V309.609Z" fill="black"/>
<path d="M344.209 260C342.244 267.161 339.654 274.135 336.469 280.841C327.523 299.412 315.836 309.609 303.585 309.609C292.986 309.609 282.505 301.691 274.124 287.316C269.268 278.718 265.52 269.54 262.968 260H344.209Z" fill="#1DD681"/>
<path d="M276.552 255.83C275.928 254.083 275.313 252.192 274.731 250.2C271.942 240.29 270.29 230.095 269.807 219.811L308.475 200.321L271.931 185.405C276.889 158.393 289.149 140.202 302.497 140.202C320.626 140.202 335.381 172.355 335.381 211.877C335.431 223.41 334.083 234.906 331.368 246.114C330.525 249.491 329.546 252.757 328.442 255.847L276.552 255.83Z" fill="black"/>
<path d="M302.497 140.608C311.039 140.608 319.125 147.926 325.263 161.229C331.503 174.735 334.943 192.724 334.943 211.877C334.993 223.375 333.651 234.838 330.946 246.013C330.103 249.271 329.184 252.437 328.121 255.425H276.839C276.248 253.737 275.675 251.972 275.152 250.098C272.392 240.305 270.751 230.229 270.262 220.065L307.851 201.114L309.538 200.27L307.851 199.569L272.488 185.135C274.899 172.161 278.972 161.103 284.293 153.109C289.723 144.929 296.047 140.616 302.59 140.616L302.497 140.608ZM302.59 139.772C288.466 139.772 276.4 158.798 271.552 185.658L307.548 200.354L269.469 219.55C269.924 229.966 271.585 240.294 274.419 250.326C275.018 252.378 275.658 254.361 276.35 256.235H328.821C330.006 252.941 331.022 249.588 331.865 246.19C334.596 234.947 335.947 223.413 335.887 211.843C335.887 172.026 320.971 139.747 302.59 139.747V139.772Z" fill="black"/>
<path d="M345.398 260C296.839 243.118 261.754 260 261.754 260Z" fill="#1DD681"/>
<path d="M345.398 261.266C345.258 261.264 345.119 261.241 344.985 261.199C320.195 252.58 299.031 253.019 285.658 254.91C271.147 256.953 262.386 261.097 262.302 261.14C262.152 261.221 261.986 261.271 261.816 261.287C261.645 261.302 261.473 261.283 261.311 261.231C261.148 261.178 260.998 261.092 260.869 260.98C260.74 260.867 260.635 260.73 260.561 260.575C260.486 260.421 260.444 260.253 260.437 260.082C260.429 259.911 260.456 259.74 260.517 259.58C260.577 259.419 260.669 259.273 260.788 259.149C260.906 259.026 261.048 258.927 261.206 258.86C261.56 258.683 297.32 241.978 345.82 258.801C346.105 258.898 346.346 259.094 346.499 259.353C346.653 259.612 346.71 259.917 346.659 260.214C346.608 260.511 346.454 260.78 346.222 260.973C345.991 261.166 345.699 261.27 345.398 261.266V261.266Z" fill="black"/>
<path d="M192.208 107.164C165.479 107.164 143.725 152.856 143.725 209.024C143.725 215.971 144.062 222.926 144.736 229.679C149.374 276.73 169.341 310.875 192.208 310.875C218.937 310.875 240.683 265.183 240.683 209.024C240.683 152.864 218.937 107.164 192.208 107.164ZM225.092 280.841C216.146 299.412 204.459 309.609 192.208 309.609C181.617 309.609 171.128 301.691 162.747 287.316C157.892 278.718 154.143 269.54 151.591 260H232.841C230.876 267.161 228.286 274.135 225.101 280.841H225.092Z" fill="white"/>
<path d="M192.208 105.897C164.737 105.897 142.46 152.071 142.46 209.024C142.46 216.139 142.814 223.087 143.472 229.806C148.109 276.798 168.169 312.141 192.208 312.141C219.679 312.141 241.956 265.976 241.956 209.024C241.956 152.071 219.679 105.897 192.208 105.897ZM192.208 309.609C181.618 309.609 171.128 301.691 162.747 287.316C157.892 278.718 154.143 269.54 151.592 260L151.465 259.536C148.793 249.704 146.962 239.662 145.993 229.519C145.327 222.766 144.99 215.903 144.99 208.99C144.99 181.818 150.049 156.308 159.324 137.172C168.278 118.601 179.965 108.396 192.208 108.396C204.451 108.396 216.155 118.618 225.092 137.172C234.325 156.308 239.427 181.818 239.427 208.99C239.427 227.054 237.175 244.384 232.942 259.637C232.917 259.763 232.883 259.887 232.841 260.008C230.876 267.169 228.286 274.143 225.101 280.85C216.155 299.395 204.468 309.609 192.208 309.609V309.609Z" fill="black"/>
<path d="M232.841 260C230.876 267.161 228.286 274.135 225.101 280.841C216.155 299.412 204.468 309.609 192.217 309.609C181.626 309.609 171.137 301.691 162.755 287.316C157.9 278.718 154.152 269.54 151.6 260H232.841Z" fill="#1DD681"/>
<path d="M165.184 255.83C164.56 254.083 163.944 252.183 163.363 250.2C160.572 240.291 158.923 230.095 158.447 219.811L197.107 200.321L160.572 185.405C165.53 158.393 177.79 140.202 191.129 140.202C209.257 140.202 224.013 172.355 224.013 211.877C224.064 223.409 222.72 234.906 220.008 246.114C219.165 249.491 218.178 252.757 217.074 255.847L165.184 255.83Z" fill="black"/>
<path d="M191.129 140.608C199.67 140.608 207.765 147.926 213.895 161.229C220.143 174.735 223.574 192.724 223.574 211.877C223.625 223.375 222.283 234.838 219.578 246.013C218.735 249.271 217.815 252.437 216.761 255.425H165.471C164.88 253.737 164.307 251.972 163.784 250.098C161.027 240.304 159.386 230.229 158.894 220.065L196.483 201.114L198.169 200.27L196.483 199.569L161.12 185.135C163.531 172.161 167.604 161.103 172.924 153.109C178.354 144.929 184.678 140.616 191.221 140.616L191.129 140.608ZM191.221 139.772C177.098 139.772 165.032 158.798 160.184 185.658L196.179 200.354L158.101 219.55C158.556 229.966 160.217 240.294 163.05 250.326C163.649 252.378 164.29 254.361 164.981 256.235H217.453C218.638 252.941 219.654 249.588 220.497 246.19C223.228 234.947 224.578 223.413 224.519 211.843C224.519 172.026 209.603 139.747 191.221 139.747V139.772Z" fill="black"/>
<path d="M234.038 260C185.471 243.118 150.386 260 150.386 260Z" fill="#1DD681"/>
<path d="M234.038 261.266C233.898 261.265 233.759 261.242 233.625 261.199C208.827 252.58 187.672 253.019 174.29 254.91C159.779 256.953 151.027 261.097 150.934 261.139C150.784 261.221 150.618 261.271 150.448 261.287C150.277 261.302 150.105 261.283 149.943 261.23C149.78 261.178 149.629 261.092 149.501 260.98C149.372 260.867 149.267 260.729 149.193 260.575C149.118 260.421 149.076 260.253 149.069 260.082C149.061 259.911 149.088 259.74 149.149 259.58C149.209 259.419 149.301 259.273 149.42 259.149C149.538 259.026 149.68 258.927 149.838 258.86C150.2 258.692 185.951 241.978 234.452 258.801C234.736 258.898 234.976 259.093 235.13 259.351C235.284 259.609 235.341 259.913 235.292 260.21C235.242 260.506 235.089 260.775 234.859 260.968C234.629 261.162 234.339 261.267 234.038 261.266V261.266Z" fill="black"/>
<path d="M372.389 303.928C335.137 303.928 292.286 301.455 247.833 296.643C185.26 289.89 126.861 279.314 83.4114 266.871C37.2638 253.669 14.5568 240.509 15.9565 227.772C16.7997 220.174 25.6615 214.418 43.1155 210.214C58.4362 206.517 80.5783 204.086 107.147 203.182L107.349 209.091C81.1685 209.986 59.4395 212.358 44.4982 215.962C24.7339 220.731 22.0611 226.26 21.825 228.421C21.083 235.301 37.3059 247.532 85.0641 261.199C128.218 273.548 186.247 284.058 248.508 290.743C310.768 297.428 369.699 299.606 414.489 296.762C464.051 293.613 482.509 285.129 483.251 278.241C484.195 269.513 460.147 254.42 389.842 238.264L391.166 232.507C457.829 247.828 490.78 263.427 489.119 278.883C487.745 291.612 462.761 299.615 414.86 302.662C401.774 303.523 387.541 303.928 372.389 303.928Z" fill="black"/>
<path d="M70.4011 245.878C82.4995 245.878 92.3071 240.908 92.3071 234.778C92.3071 228.647 82.4995 223.677 70.4011 223.677C58.3028 223.677 48.4951 228.647 48.4951 234.778C48.4951 240.908 58.3028 245.878 70.4011 245.878Z" fill="white"/>
<path d="M427.449 283.467C442.579 283.467 454.844 277.374 454.844 269.859C454.844 262.344 442.579 256.252 427.449 256.252C412.319 256.252 400.054 262.344 400.054 269.859C400.054 277.374 412.319 283.467 427.449 283.467Z" fill="white"/>
</g>
</g>
<defs>
<clipPath id="clip0_16_1143">
<rect width="505" height="505" fill="white"/>
</clipPath>
<clipPath id="clip1_16_1143">
<rect width="507" height="328" fill="white" transform="translate(-1 88.5)"/>
</clipPath>
</defs>
</svg>
