<svg width="505" height="505" viewBox="0 0 505 505" fill="none" xmlns="http://www.w3.org/2000/svg">
<path d="M245.641 405.687C170.786 405.687 106.91 351.041 94.7684 277.675C90.9759 276.669 87.2995 275.663 83.7891 274.657C31.8053 259.769 9.48147 245.156 11.4068 227.276C13.0666 212.08 31.0502 206.021 44.4445 202.795C58.9591 199.287 79.2995 196.902 103.557 195.854C113.798 170.132 130.811 147.672 152.785 130.867C163.342 110.834 177.632 99.8362 193.159 99.8362C198.659 99.8566 204.07 101.218 208.927 103.801C234.123 97.5741 260.486 97.8601 285.542 104.633C290.763 101.531 296.716 99.8779 302.787 99.8445C319.808 99.8445 335.575 113.435 346.231 137.251C372.57 160.254 390.241 191.606 396.298 226.079C426.838 233.319 450.24 240.742 465.925 248.173C473.236 251.631 495.477 262.172 493.61 279.462C491.685 297.35 466.763 306.893 412.796 310.285C404.68 310.8 395.983 311.116 386.879 311.349C375.253 339.276 355.644 363.138 330.516 379.933C305.389 396.729 275.866 405.71 245.658 405.746L245.641 405.687ZM398.547 249.67C398.547 250.617 398.547 251.557 398.547 252.496C398.55 264.673 397.102 276.806 394.232 288.639C400.19 288.439 405.908 288.165 411.327 287.807C451.842 285.231 465.734 279.403 470.033 276.793C466 272.978 450.913 262.67 398.547 249.67ZM35.0584 229.836C38.8178 233.369 51.266 241.98 89.9717 253.111L92.7353 253.892C92.7353 253.435 92.7353 252.986 92.7353 252.537C92.7307 241.158 93.9917 229.813 96.4947 218.714C77.2829 219.828 61.2578 221.856 49.7307 224.632C41.4485 226.594 37.1331 228.572 35.0335 229.869L35.0584 229.836Z" fill="black"/>
<path d="M245.641 107.625C259.592 107.619 273.471 109.637 286.844 113.618C291.824 110.061 297.193 108.132 302.77 108.132C317.334 108.132 330.405 121.324 339.368 142.214C366.452 165.284 384.102 197.54 388.945 232.82C454.547 247.907 486.979 263.269 485.344 278.489C483.991 291.024 459.402 298.905 412.256 301.906C402.53 302.521 392.132 302.903 381.177 303.044C360.646 358.065 307.641 397.35 245.641 397.35C172.146 397.35 111.275 342.155 102.179 271C96.6105 269.578 91.2246 268.132 86.0711 266.652C40.6516 253.651 18.3029 240.692 19.6805 228.149C20.5104 220.667 29.2324 214.998 46.411 210.858C61.4816 207.218 83.2659 204.824 109.399 203.934C119.033 176.971 136.397 153.456 159.316 136.337C168.113 118.88 180.064 108.132 193.184 108.132C198.372 108.204 203.427 109.787 207.732 112.687C220.096 109.323 232.853 107.62 245.666 107.625H245.641ZM101.532 264.823C101.183 260.761 101.006 256.652 101.001 252.496C100.993 238.032 103.152 223.649 107.407 209.828C82.627 210.767 62.0294 213.07 47.7471 216.478C28.2947 221.174 25.6639 226.619 25.4315 228.747C24.7012 235.522 40.6681 247.567 87.6727 261.024C92.1374 262.305 96.7599 263.56 101.54 264.79L101.532 264.823ZM383.227 297.209C393.302 297.051 402.895 296.685 411.899 296.112C460.68 293.011 478.846 284.657 479.576 277.874C480.489 269.362 457.294 254.707 389.65 238.971C390.065 243.427 390.289 247.932 390.289 252.488C390.297 267.674 387.914 282.766 383.227 297.209ZM245.649 90.9918C233.603 90.9876 221.594 92.3371 209.848 95.015C204.589 92.7027 198.91 91.5056 193.167 91.4988C182.42 91.4988 162.395 95.9959 146.321 125.347C125.274 141.82 108.645 163.275 97.9301 187.783C75.4569 188.955 56.436 191.324 42.5105 194.682C33.3818 196.885 5.62234 203.585 3.16589 226.361C2.59327 231.673 3.35661 239.778 10.2695 248.19C14.1866 252.961 19.6722 257.334 27.0167 261.606C39.4649 268.813 57.2659 275.688 81.515 282.629C83.4791 283.183 85.4929 283.737 87.5566 284.291C102.494 358.963 168.553 413.967 245.649 413.967C276.573 413.934 306.838 405.009 332.846 388.251C358.854 371.494 379.511 347.61 392.364 319.437C399.659 319.221 406.68 318.905 413.319 318.489C438.489 316.885 457.369 313.984 471.037 309.603C479.12 307.009 485.411 303.892 490.257 300.068C498.805 293.327 501.278 285.58 501.875 280.26C502.548 274.034 501.369 264.64 491.917 255.247C486.689 250.044 479.344 245.272 469.51 240.567C453.999 233.219 432.323 226.187 403.468 219.154C396.375 185.499 378.724 154.998 353.094 132.106C347.949 121.033 341.758 112.022 334.662 105.264C325.193 96.2369 314.181 91.4739 302.828 91.4739C296.5 91.4837 290.257 92.9333 284.571 95.7132C271.859 92.5573 258.811 90.9634 245.715 90.9668L245.649 90.9918ZM54.8261 231.947C65.2208 229.883 75.7335 228.467 86.3035 227.708C85.5289 232.695 84.9923 237.741 84.6935 242.845C74.5127 239.855 64.5337 236.215 54.8178 231.947H54.8261ZM404.547 279.886C405.66 273.424 406.375 266.901 406.688 260.351C427.676 265.954 441.286 270.9 450.008 274.74C441.584 276.527 429.086 278.364 410.837 279.528C408.785 279.661 406.688 279.78 404.547 279.886Z" fill="white"/>
<path d="M245.641 396.136C324.836 396.136 389.036 331.83 389.036 252.504C389.036 173.178 324.836 108.872 245.641 108.872C166.446 108.872 102.246 173.178 102.246 252.504C102.246 331.83 166.446 396.136 245.641 396.136Z" fill="#17FF9E"/>
<path d="M245.641 397.375C165.89 397.375 101.001 332.388 101.001 252.496C101.001 172.604 165.89 107.625 245.641 107.625C325.393 107.625 390.281 172.612 390.281 252.496C390.281 332.379 325.393 397.375 245.641 397.375ZM245.641 110.119C167.259 110.119 103.491 173.992 103.491 252.496C103.491 330.999 167.259 394.881 245.641 394.881C324.024 394.881 387.792 331.008 387.792 252.496C387.792 173.984 324.024 110.119 245.641 110.119Z" fill="black"/>
<path d="M244.886 109.379C243.824 109.379 242.761 109.379 241.699 109.379C316.032 111.042 375.791 174.292 375.791 252.03C375.791 329.769 316.04 392.994 241.699 394.682C242.761 394.682 243.824 394.682 244.886 394.682C324.082 394.682 388.281 330.792 388.281 251.989C388.281 173.186 324.082 109.379 244.886 109.379Z" fill="#15BC70"/>
<path d="M248.645 346.635C233.088 346.656 217.617 344.328 202.753 339.728C168.504 329.104 148.761 309.653 148.562 309.453L150.321 307.691C150.512 307.882 169.906 326.959 203.607 337.383C223.573 343.512 244.574 345.512 265.334 343.26C291.841 340.501 319.086 331.141 346.323 315.438L347.559 317.6C319.999 333.493 292.388 342.969 265.5 345.754C259.901 346.336 254.275 346.63 248.645 346.635V346.635Z" fill="black"/>
<path d="M347.268 308.431C347.268 308.431 341.459 320.409 354.032 318.988Z" fill="#17FF9E"/>
<path d="M352.099 320.351C349.119 320.351 347.003 319.52 345.783 317.758C343.194 314.092 346.024 308.14 346.148 307.891C346.218 307.743 346.317 307.61 346.439 307.501C346.56 307.391 346.702 307.307 346.857 307.253C347.011 307.199 347.175 307.176 347.338 307.185C347.501 307.195 347.661 307.237 347.808 307.309C348.103 307.454 348.33 307.71 348.438 308.021C348.547 308.332 348.529 308.673 348.389 308.971C347.733 310.318 346.372 314.266 347.816 316.311C348.737 317.608 350.779 318.09 353.891 317.741C354.054 317.722 354.22 317.736 354.378 317.782C354.536 317.827 354.684 317.904 354.812 318.006C354.941 318.109 355.048 318.236 355.128 318.38C355.208 318.524 355.258 318.683 355.277 318.847C355.295 319.01 355.282 319.176 355.236 319.334C355.191 319.493 355.115 319.641 355.012 319.77C354.91 319.899 354.783 320.006 354.639 320.086C354.495 320.165 354.337 320.216 354.173 320.235C353.484 320.313 352.792 320.351 352.099 320.351Z" fill="black"/>
<path d="M151.416 300.526C151.416 300.526 155.275 312.338 139.15 310.501Z" fill="#17FF9E"/>
<path d="M142.304 311.989C141.195 311.985 140.087 311.919 138.985 311.789C138.655 311.752 138.353 311.584 138.146 311.324C137.939 311.064 137.844 310.732 137.881 310.401C137.918 310.07 138.085 309.768 138.345 309.561C138.605 309.353 138.937 309.258 139.267 309.295C144.246 309.852 147.74 309.096 149.383 307.093C151.375 304.657 150.213 300.958 150.213 300.925C150.155 300.767 150.13 300.6 150.138 300.432C150.146 300.265 150.188 300.101 150.261 299.95C150.334 299.799 150.437 299.664 150.563 299.554C150.689 299.444 150.836 299.36 150.995 299.308C151.154 299.256 151.322 299.237 151.489 299.252C151.656 299.266 151.818 299.314 151.966 299.393C152.114 299.472 152.244 299.579 152.349 299.71C152.454 299.84 152.532 299.99 152.578 300.152C152.645 300.351 154.163 305.139 151.317 308.655C149.557 310.875 146.52 311.989 142.304 311.989Z" fill="black"/>
<path d="M204.105 349.57C204.105 349.57 242.338 360.966 288.222 349.57Z" fill="#17FF9E"/>
<path d="M246.189 355.829C221.243 355.829 204.031 350.841 203.774 350.75C203.61 350.71 203.456 350.637 203.321 350.535C203.186 350.433 203.073 350.305 202.989 350.158C202.905 350.011 202.852 349.849 202.833 349.681C202.814 349.513 202.829 349.343 202.877 349.181C202.926 349.019 203.007 348.869 203.115 348.739C203.223 348.609 203.357 348.503 203.507 348.426C203.658 348.35 203.822 348.305 203.991 348.294C204.159 348.284 204.328 348.308 204.487 348.364C204.861 348.472 242.952 359.52 287.94 348.364C288.099 348.324 288.264 348.316 288.425 348.34C288.587 348.364 288.743 348.42 288.883 348.504C289.023 348.588 289.145 348.699 289.243 348.831C289.34 348.962 289.411 349.112 289.451 349.27C289.491 349.429 289.499 349.594 289.475 349.756C289.451 349.918 289.395 350.074 289.311 350.214C289.227 350.355 289.116 350.477 288.985 350.575C288.854 350.673 288.705 350.743 288.546 350.783C274.683 354.176 260.46 355.87 246.189 355.829V355.829Z" fill="black"/>
<path d="M302.77 109.379C276.454 109.379 255.052 154.375 255.052 209.686C255.052 216.536 255.384 223.377 256.039 230.027C260.612 276.361 280.264 309.985 302.77 309.985C329.077 309.985 350.48 264.99 350.48 209.686C350.48 154.383 329.077 109.379 302.77 109.379ZM335.135 280.409C326.33 298.697 314.828 308.738 302.77 308.738C292.338 308.738 282.023 300.941 273.774 286.785C268.995 278.319 265.306 269.28 262.795 259.886H342.762C340.828 266.937 338.279 273.805 335.144 280.409H335.135Z" fill="white"/>
<path d="M302.77 108.132C275.724 108.132 253.807 153.602 253.807 209.686C253.807 216.694 254.148 223.535 254.803 230.152C259.368 276.428 279.11 311.232 302.77 311.232C329.808 311.232 351.733 265.771 351.733 209.686C351.733 153.602 329.808 108.132 302.77 108.132ZM302.77 308.738C292.339 308.738 282.023 300.941 273.774 286.785C268.995 278.319 265.306 269.28 262.795 259.886L262.67 259.42C260.035 249.753 258.231 239.878 257.276 229.902C256.629 223.252 256.297 216.494 256.297 209.686C256.297 182.928 261.276 157.808 270.405 138.963C279.218 120.676 290.712 110.626 302.77 110.626C314.828 110.626 326.339 120.692 335.136 138.963C344.223 157.808 349.244 182.928 349.244 209.686C349.244 227.475 347.028 244.541 342.87 259.561C342.845 259.685 342.812 259.808 342.771 259.927C340.836 266.979 338.287 273.846 335.152 280.451C326.339 298.68 314.837 308.738 302.77 308.738V308.738Z" fill="black"/>
<path d="M342.762 259.886C340.828 266.937 338.278 273.805 335.143 280.409C326.338 298.697 314.836 308.738 302.778 308.738C292.346 308.738 282.031 300.941 273.782 286.785C269.003 278.319 265.314 269.28 262.803 259.886H342.762Z" fill="#1DD681"/>
<path d="M276.172 255.779C275.558 254.059 274.952 252.197 274.38 250.235C271.635 240.476 270.009 230.437 269.533 220.31L307.591 201.116L271.625 186.428C276.504 159.828 288.571 141.914 301.708 141.914C319.55 141.914 334.073 173.577 334.073 212.496C334.122 223.853 332.795 235.174 330.123 246.212C329.293 249.537 328.33 252.753 327.243 255.796L276.172 255.779Z" fill="black"/>
<path d="M301.708 142.313C310.115 142.313 318.073 149.52 324.115 162.621C330.256 175.921 333.642 193.635 333.642 212.496C333.691 223.819 332.37 235.107 329.708 246.112C328.878 249.32 327.974 252.438 326.928 255.38H276.454C275.873 253.718 275.309 251.98 274.795 250.135C272.077 240.491 270.463 230.569 269.981 220.559L306.977 201.897L308.637 201.066L306.977 200.376L272.172 186.162C274.546 173.386 278.554 162.496 283.791 154.624C289.135 146.569 295.359 142.322 301.799 142.322L301.708 142.313ZM301.799 141.49C287.898 141.49 276.023 160.227 271.251 186.677L306.679 201.149L269.201 220.052C269.649 230.309 271.284 240.48 274.073 250.36C274.662 252.379 275.293 254.333 275.973 256.178H327.617C328.783 252.934 329.783 249.633 330.612 246.286C333.3 235.215 334.63 223.857 334.571 212.463C334.571 173.253 319.89 141.465 301.799 141.465V141.49Z" fill="black"/>
<path d="M343.932 259.886C296.139 243.261 261.608 259.886 261.608 259.886Z" fill="#1DD681"/>
<path d="M343.933 261.133C343.794 261.13 343.658 261.108 343.526 261.066C319.127 252.579 298.297 253.011 285.135 254.873C270.853 256.885 262.231 260.966 262.148 261.008C261.999 261.088 261.837 261.137 261.669 261.153C261.501 261.168 261.332 261.149 261.172 261.097C261.012 261.045 260.864 260.961 260.737 260.851C260.61 260.74 260.507 260.604 260.434 260.452C260.361 260.3 260.319 260.135 260.312 259.966C260.304 259.798 260.331 259.629 260.39 259.472C260.45 259.314 260.541 259.17 260.657 259.048C260.774 258.926 260.914 258.829 261.069 258.763C261.417 258.589 296.613 242.138 344.347 258.705C344.628 258.801 344.865 258.993 345.016 259.248C345.168 259.503 345.223 259.804 345.173 260.096C345.124 260.389 344.971 260.653 344.744 260.843C344.516 261.033 344.229 261.136 343.933 261.133V261.133Z" fill="black"/>
<path d="M193.159 109.379C166.852 109.379 145.441 154.375 145.441 209.686C145.441 216.527 145.773 223.377 146.437 230.027C151.001 276.361 170.653 309.985 193.159 309.985C219.466 309.985 240.869 264.99 240.869 209.686C240.869 154.383 219.466 109.379 193.159 109.379ZM225.525 280.409C216.72 298.697 205.217 308.738 193.159 308.738C182.736 308.738 172.412 300.941 164.163 286.785C159.384 278.319 155.695 269.28 153.184 259.886H233.151C231.217 266.937 228.668 273.805 225.533 280.409H225.525Z" fill="white"/>
<path d="M193.159 108.132C166.122 108.132 144.196 153.602 144.196 209.686C144.196 216.694 144.545 223.535 145.192 230.152C149.756 276.428 169.499 311.232 193.159 311.232C220.197 311.232 242.122 265.771 242.122 209.686C242.122 153.602 220.197 108.132 193.159 108.132ZM193.159 308.738C182.736 308.738 172.412 300.941 164.163 286.785C159.384 278.319 155.695 269.28 153.184 259.886L153.059 259.429C150.429 249.746 148.627 239.858 147.673 229.869C147.018 223.219 146.686 216.461 146.686 209.653C146.686 182.895 151.665 157.775 160.794 138.93C169.607 120.642 181.109 110.593 193.159 110.593C205.209 110.593 216.728 120.659 225.525 138.93C234.612 157.775 239.633 182.895 239.633 209.653C239.633 227.442 237.417 244.508 233.251 259.528C233.226 259.652 233.192 259.774 233.151 259.894C231.217 266.946 228.668 273.813 225.533 280.418C216.728 298.68 205.226 308.738 193.159 308.738V308.738Z" fill="black"/>
<path d="M233.151 259.886C231.217 266.937 228.668 273.805 225.533 280.409C216.728 298.697 205.226 308.738 193.167 308.738C182.744 308.738 172.42 300.941 164.171 286.785C159.392 278.319 155.703 269.28 153.192 259.886H233.151Z" fill="#1DD681"/>
<path d="M166.561 255.779C165.947 254.059 165.342 252.188 164.769 250.235C162.023 240.477 160.399 230.437 159.931 220.31L197.981 201.116L162.022 186.428C166.902 159.828 178.968 141.914 192.097 141.914C209.939 141.914 224.462 173.577 224.462 212.496C224.513 223.853 223.189 235.174 220.52 246.212C219.691 249.537 218.72 252.753 217.632 255.796L166.561 255.779Z" fill="black"/>
<path d="M192.097 142.313C200.504 142.313 208.471 149.52 214.504 162.621C220.654 175.921 224.031 193.635 224.031 212.496C224.08 223.819 222.76 235.107 220.097 246.112C219.268 249.32 218.363 252.438 217.326 255.38H166.844C166.263 253.718 165.699 251.98 165.184 250.135C162.47 240.49 160.856 230.568 160.371 220.559L197.367 201.897L199.027 201.066L197.367 200.376L162.562 186.162C164.935 173.386 168.943 162.496 174.18 154.624C179.524 146.569 185.749 142.322 192.188 142.322L192.097 142.313ZM192.188 141.49C178.288 141.49 166.412 160.227 161.641 186.677L197.068 201.149L159.591 220.052C160.039 230.309 161.673 240.48 164.462 250.36C165.051 252.379 165.682 254.333 166.363 256.178H218.006C219.172 252.934 220.172 249.633 221.002 246.286C223.69 235.215 225.019 223.857 224.96 212.463C224.96 173.253 210.28 141.465 192.188 141.465V141.49Z" fill="black"/>
<path d="M234.33 259.886C186.528 243.261 151.997 259.886 151.997 259.886Z" fill="#1DD681"/>
<path d="M234.33 261.132C234.191 261.131 234.054 261.109 233.923 261.066C209.516 252.579 188.694 253.011 175.524 254.873C161.242 256.885 152.628 260.966 152.536 261.008C152.388 261.088 152.225 261.137 152.058 261.153C151.89 261.168 151.721 261.149 151.561 261.097C151.4 261.045 151.252 260.961 151.126 260.85C150.999 260.74 150.895 260.604 150.822 260.452C150.749 260.3 150.708 260.135 150.7 259.966C150.693 259.798 150.72 259.629 150.779 259.472C150.839 259.314 150.929 259.17 151.046 259.048C151.162 258.926 151.303 258.829 151.458 258.763C151.814 258.597 187.001 242.138 234.736 258.705C235.016 258.801 235.253 258.992 235.404 259.246C235.555 259.5 235.612 259.8 235.563 260.092C235.514 260.384 235.363 260.649 235.137 260.839C234.911 261.03 234.625 261.134 234.33 261.132V261.132Z" fill="black"/>
<path d="M370.497 303.144C333.833 303.144 291.658 300.709 247.907 295.97C186.321 289.32 128.843 278.905 86.0795 266.652C40.66 253.651 18.3113 240.692 19.6889 228.148C20.5188 220.667 29.2408 214.998 46.4194 210.858C61.4984 207.217 83.291 204.824 109.441 203.934L109.64 209.753C83.8719 210.634 62.4858 212.97 47.7803 216.519C28.3279 221.216 25.6972 226.66 25.4649 228.788C24.7346 235.563 40.7015 247.608 87.706 261.066C130.179 273.227 187.292 283.576 248.571 290.16C309.849 296.743 367.849 298.888 411.933 296.087C460.713 292.986 478.879 284.632 479.61 277.849C480.539 269.254 456.871 254.391 387.675 238.481L388.978 232.812C454.589 247.899 487.021 263.261 485.386 278.481C484.033 291.016 459.444 298.896 412.298 301.897C399.418 302.745 385.41 303.144 370.497 303.144Z" fill="black"/>
<path d="M73.2742 245.979C85.1817 245.979 94.8346 241.085 94.8346 235.048C94.8346 229.011 85.1817 224.117 73.2742 224.117C61.3668 224.117 51.7139 229.011 51.7139 235.048C51.7139 241.085 61.3668 245.979 73.2742 245.979Z" fill="white"/>
<path d="M424.688 282.995C439.579 282.995 451.651 276.995 451.651 269.595C451.651 262.194 439.579 256.195 424.688 256.195C409.797 256.195 397.725 262.194 397.725 269.595C397.725 276.995 409.797 282.995 424.688 282.995Z" fill="white"/>
</svg>
